<?xml version="1.0" encoding="UTF-8"?>
<svg version="1.1" xmlns="http://www.w3.org/2000/svg" width="469" height="469">
<path d="M0 0 C154.77 0 309.54 0 469 0 C469 154.77 469 309.54 469 469 C314.23 469 159.46 469 0 469 C0 314.23 0 159.46 0 0 Z " fill="#E8E8E8" transform="translate(0,0)"/>
<path d="M0 0 C3.63 1.98 7.26 3.96 11 6 C11 6.66 11 7.32 11 8 C12.65 8.33 14.3 8.66 16 9 C16 9.66 16 10.32 16 11 C16.7425 11.28875 17.485 11.5775 18.25 11.875 C20.56739797 12.82302644 22.77917115 13.84845911 25 15 C25 15.66 25 16.32 25 17 C25.99 17.33 26.98 17.66 28 18 C24.84696305 21.33321049 21.92822679 23.68251055 18 26 C16.77357902 26.80746046 15.55260605 27.62323073 14.3359375 28.4453125 C13.68882812 28.88230469 13.04171875 29.31929687 12.375 29.76953125 C11.0326838 30.67926508 9.69155135 31.59074782 8.3515625 32.50390625 C7.70703125 32.93832031 7.0625 33.37273437 6.3984375 33.8203125 C5.81755371 34.21492676 5.23666992 34.60954102 4.63818359 35.01611328 C3 36 3 36 0 37 C0 34.69 0 32.38 0 30 C-8.31987389 30.01492557 -16.63900842 30.05674386 -24.95853329 30.13209057 C-28.82244942 30.16625678 -32.68597454 30.19145422 -36.55004883 30.19555664 C-40.28517602 30.19986215 -44.01942274 30.22850811 -47.75427437 30.27343178 C-49.17302874 30.28633553 -50.59188887 30.29073989 -52.0106945 30.28615379 C-60.46352959 30.2652115 -67.18448939 30.63044918 -74 36 C-76.60738251 38.73775164 -77.81040091 40.43120273 -79 44 C-79.66 44 -80.32 44 -81 44 C-81.5818408 56.0366082 -81.5818408 56.0366082 -77 67 C-76.67 67.99 -76.34 68.98 -76 70 C-75.34 70.33 -74.68 70.66 -74 71 C-82.91 71 -91.82 71 -101 71 C-104.54545455 63.90909091 -104.54545455 63.90909091 -105 59 C-105.07605469 58.18015625 -105.15210938 57.3603125 -105.23046875 56.515625 C-105.55011407 50.12271861 -104.61586872 44.62761689 -102.75 38.5625 C-102.44328369 37.55147217 -102.44328369 37.55147217 -102.13037109 36.52001953 C-100.73245163 32.29244902 -98.87102518 29.36337041 -96 26 C-95.67 25.01 -95.34 24.02 -95 23 C-91.94755066 19.60838962 -88.95208869 17.24307737 -85 15 C-84.34 14.34 -83.68 13.68 -83 13 C-81.33333333 12.33333333 -79.66666667 11.66666667 -78 11 C-76.93780746 10.32616272 -75.87561493 9.65232544 -74.78123474 8.95806885 C-71.03160042 6.80016336 -68.04734743 6.51481392 -63.68774414 6.54589844 C-62.99421844 6.54531433 -62.30069275 6.54473022 -61.58615112 6.54412842 C-59.31862403 6.546891 -57.05245052 6.57789247 -54.78515625 6.609375 C-53.20333067 6.61684398 -51.62149577 6.62253381 -50.03965759 6.62652588 C-45.89498939 6.64173071 -41.75089015 6.68096701 -37.60644531 6.7253418 C-33.36986994 6.76640649 -29.1332018 6.78456069 -24.89648438 6.8046875 C-16.5973964 6.84746721 -8.29876917 6.91565485 0 7 C0 4.69 0 2.38 0 0 Z " fill="#E02137" transform="translate(291,138)"/>
<path d="M0 0 C8.91 0 17.82 0 27 0 C29.18897062 6.56691186 30.50719676 10.80948207 30.375 17.375 C30.36557373 18.11105469 30.35614746 18.84710938 30.34643555 19.60546875 C30.04702624 30.50349051 26.91143013 40.26999818 19.75 48.625 C4.29761905 61.9702381 4.29761905 61.9702381 -6 63 C-6.33 63.33 -6.66 63.66 -7 64 C-9.08619022 64.09417773 -11.17560477 64.11742878 -13.26391602 64.11352539 C-14.2443689 64.11374443 -14.2443689 64.11374443 -15.24462891 64.1139679 C-17.41442128 64.11326883 -19.58412879 64.10547678 -21.75390625 64.09765625 C-23.25463311 64.09579205 -24.75536057 64.09436816 -26.25608826 64.09336853 C-30.21318226 64.08954352 -34.17023978 64.0797134 -38.12731934 64.06866455 C-42.16234849 64.05845006 -46.19738353 64.05387083 -50.23242188 64.04882812 C-58.15496469 64.03809111 -66.07747781 64.0210149 -74 64 C-74 66.31 -74 68.62 -74 71 C-77.71154817 69.65935182 -80.67710575 67.99141423 -83.875 65.6875 C-84.74253906 65.06746094 -85.61007813 64.44742188 -86.50390625 63.80859375 C-87.32761719 63.21175781 -88.15132812 62.61492187 -89 62 C-92.91459106 59.17153825 -96.80925649 56.41285232 -101 54 C-99.64438583 49.93315749 -97.59932586 49.24108969 -94 47 C-91.14571475 45.11876654 -88.31263208 43.22529359 -85.5390625 41.2265625 C-84.65992188 40.59492188 -83.78078125 39.96328125 -82.875 39.3125 C-82.04742187 38.71050781 -81.21984375 38.10851562 -80.3671875 37.48828125 C-78.16641798 36.10462912 -76.53767545 35.43853838 -74 35 C-74 37.31 -74 39.62 -74 42 C-65.88927817 41.91547055 -57.77877215 41.82053885 -49.66833305 41.71247292 C-45.90197276 41.66261256 -42.13563911 41.61628204 -38.36914062 41.578125 C-34.73152861 41.541142 -31.09414532 41.49474761 -27.45672989 41.44193649 C-26.07176873 41.42346144 -24.68675867 41.40832826 -23.30172348 41.39665604 C-21.35583538 41.37967586 -19.41007607 41.3495101 -17.46435547 41.31884766 C-16.35849091 41.30552399 -15.25262634 41.29220032 -14.11325073 41.2784729 C-6.08903719 40.56072601 -1.3471917 36.71415583 4 31 C7.75487033 25.08323463 7.68466333 18.8096245 7 12 C5.85100368 7.33740624 3.56538277 4.19655007 0 1 C0 0.67 0 0.34 0 0 Z " fill="#A7A9AC" transform="translate(248,173)"/>
<path d="M0 0 C3.79139846 -0.11771717 7.58231735 -0.18775198 11.375 -0.25 C12.96634766 -0.30027344 12.96634766 -0.30027344 14.58984375 -0.3515625 C21.74059673 -0.4393018 27.71794917 0.39732974 34 4 C38.85543333 9.31785555 38.41247751 14.69955593 38.3359375 21.6953125 C38.01481868 24.8542255 37.34658243 27.14524525 36 30 C35.34 30 34.68 30 34 30 C33.73832031 30.61391602 33.47664063 31.22783203 33.20703125 31.86035156 C31.1494506 35.50772955 27.84760001 36.8314476 24 38 C19.64999533 38.45655199 15.36752058 38.38007507 11 38.25 C9.84371094 38.23195313 8.68742188 38.21390625 7.49609375 38.1953125 C4.66318725 38.1484876 1.83204116 38.08292012 -1 38 C-1 36.02 -1 34.04 -1 32 C0.65 32 2.3 32 4 32 C4 23.42 4 14.84 4 6 C2.68 6 1.36 6 0 6 C0 4.02 0 2.04 0 0 Z " fill="#080808" transform="translate(204,267)"/>
<path d="M0 0 C3.3891571 0.60520662 5.30430129 1.91300745 8 4 C8.99 4.33 9.98 4.66 11 5 C11 5.66 11 6.32 11 7 C11.66 7.20625 12.32 7.4125 13 7.625 C16.43039669 9.19726515 19.08879976 11.22875229 22.03515625 13.5625 C23.95290591 14.96554547 25.84799761 16.0030813 28 17 C26.52440331 21.42679007 24.09942632 21.91432696 20 24 C19.34 24 18.68 24 18 24 C18 24.66 18 25.32 18 26 C16.5459375 26.680625 16.5459375 26.680625 15.0625 27.375 C11.92920418 28.65786221 11.92920418 28.65786221 11 31 C9.01833966 32.0358679 7.01526169 33.03112419 5 34 C3.32376502 34.98387706 1.65365406 35.97862543 0 37 C0 34.69 0 32.38 0 30 C-11.55 30 -23.1 30 -35 30 C-35 29.01 -35 28.02 -35 27 C-33.02 26.67 -31.04 26.34 -29 26 C-29 25.34 -29 24.68 -29 24 C-27.28340568 22.64196324 -25.46815118 21.50169742 -23.62890625 20.31640625 C-21.70046284 18.99986714 -21.70046284 18.99986714 -21 16 C-20.401875 15.5875 -19.80375 15.175 -19.1875 14.75 C-16.10759956 12.28607965 -14.83734774 9.47783679 -13 6 C-8.71 6 -4.42 6 0 6 C0 4.02 0 2.04 0 0 Z " fill="#DD2135" transform="translate(291,208)"/>
<path d="M0 0 C0.66 0 1.32 0 2 0 C2 2.64 2 5.28 2 8 C12.56 8 23.12 8 34 8 C34 8.66 34 9.32 34 10 C32.49810026 11.09822708 30.94623545 12.12849374 29.375 13.125 C23.7231836 16.95416557 20.0709805 21.29437767 16.7578125 27.22265625 C15 29 15 29 11.86328125 29.390625 C10.69152344 29.34421875 9.51976562 29.2978125 8.3125 29.25 C7.13300781 29.21390625 5.95351562 29.1778125 4.73828125 29.140625 C3.83464844 29.09421875 2.93101562 29.0478125 2 29 C2 31.31 2 33.62 2 36 C-2.34740203 34.86139471 -5.09310982 33.26818398 -8.44140625 30.28515625 C-10.49828866 28.5891304 -12.7854037 27.38301879 -15.12109375 26.11328125 C-18.62157835 24.03918954 -21.79453345 21.49776615 -25 19 C-21.89973691 15.72257902 -19.02901106 13.06895163 -15 11 C-14.34 11 -13.68 11 -13 11 C-13 10.34 -13 9.68 -13 9 C-11.25588699 7.76337138 -9.45293515 6.60897865 -7.625 5.5 C-3.57056853 3.05783493 -3.57056853 3.05783493 0 0 Z " fill="#A7A9AC" transform="translate(172,138)"/>
<path d="M0 0 C5.61 0 11.22 0 17 0 C17 1.98 17 3.96 17 6 C15.68 6 14.36 6 13 6 C13 8.97 13 11.94 13 15 C18.28 15 23.56 15 29 15 C29 12.03 29 9.06 29 6 C27.35 6 25.7 6 24 6 C24 4.02 24 2.04 24 0 C29.61 0 35.22 0 41 0 C41 1.98 41 3.96 41 6 C39.68 6 38.36 6 37 6 C37 14.58 37 23.16 37 32 C37.99 32 38.98 32 40 32 C40 33.98 40 35.96 40 38 C34.72 38 29.44 38 24 38 C24 36.02 24 34.04 24 32 C25.65 32 27.3 32 29 32 C29 28.7 29 25.4 29 22 C23.72 22 18.44 22 13 22 C13 25.3 13 28.6 13 32 C13.99 32 14.98 32 16 32 C16.33 33.98 16.66 35.96 17 38 C11.39 38 5.78 38 0 38 C0 36.02 0 34.04 0 32 C1.32 32 2.64 32 4 32 C4 23.42 4 14.84 4 6 C2.68 6 1.36 6 0 6 C0 4.02 0 2.04 0 0 Z " fill="#0D0D0D" transform="translate(119,267)"/>
<path d="M0 0 C5.28 0 10.56 0 16 0 C16 1.98 16 3.96 16 6 C15.01 6 14.02 6 13 6 C13 8.97 13 11.94 13 15 C18.04733796 11.30284236 18.04733796 11.30284236 21 6 C21 4.02 21 2.04 21 0 C25.95 0 30.9 0 36 0 C36 1.98 36 3.96 36 6 C34.63875 6.3403125 34.63875 6.3403125 33.25 6.6875 C29.5332207 8.18850702 28.33489065 9.83121983 26 13 C25.34 13 24.68 13 24 13 C24 14.98 24 16.96 24 19 C24.66 19 25.32 19 26 19 C27.81782659 21.99460603 29.42015446 25.07966443 31.05078125 28.1796875 C33.18123172 31.26222305 34.44490896 32.03321104 38 33 C38 34.65 38 36.3 38 38 C34.04 38 30.08 38 26 38 C25.05096132 36.33918231 24.10237606 34.67810365 23.15625 33.015625 C22.39439116 31.68751972 21.62373474 30.36441678 20.84375 29.046875 C18 24.2125 18 24.2125 18 22 C15.91738855 23.03712176 15.91738855 23.03712176 14 25 C13.18685089 28.60465748 13.18685089 28.60465748 13 32 C13.99 32.33 14.98 32.66 16 33 C16 34.65 16 36.3 16 38 C10.39 38 4.78 38 -1 38 C-1 36.02 -1 34.04 -1 32 C0.65 32 2.3 32 4 32 C4 23.42 4 14.84 4 6 C2.68 6 1.36 6 0 6 C0 4.02 0 2.04 0 0 Z " fill="#0C0C0D" transform="translate(350,267)"/>
<path d="M0 0 C2.97 0 5.94 0 9 0 C9.36351562 0.92619141 9.36351562 0.92619141 9.734375 1.87109375 C11.40823521 6.10080974 13.11068556 10.29900171 15 14.4375 C17.72323292 20.47597299 19.90644088 26.71932263 22 33 C22.66 33 23.32 33 24 33 C24 34.65 24 36.3 24 38 C18.39 38 12.78 38 7 38 C7 36.02 7 34.04 7 32 C8.32 32 9.64 32 11 32 C11 30.68 11 29.36 11 28 C6.05 28 1.1 28 -4 28 C-4 29.32 -4 30.64 -4 32 C-2.68 32.33 -1.36 32.66 0 33 C0 34.65 0 36.3 0 38 C-5.28 38 -10.56 38 -16 38 C-16 36.02 -16 34.04 -16 32 C-14.35 31.67 -12.7 31.34 -11 31 C-10.79375 29.824375 -10.5875 28.64875 -10.375 27.4375 C-8.28044006 17.92910202 -3.83681898 8.91058258 0 0 Z " fill="#0E0E0E" transform="translate(285,267)"/>
<path d="M0 0 C9.57 0 19.14 0 29 0 C29 3.3 29 6.6 29 10 C27.02 10 25.04 10 23 10 C23 8.68 23 7.36 23 6 C19.7 6 16.4 6 13 6 C13 8.97 13 11.94 13 15 C16.63 15 20.26 15 24 15 C24 17.31 24 19.62 24 22 C20.37 22 16.74 22 13 22 C13 25.3 13 28.6 13 32 C16.3 32 19.6 32 23 32 C23 30.35 23 28.7 23 27 C24.98 27 26.96 27 29 27 C29 30.63 29 34.26 29 38 C19.1 38 9.2 38 -1 38 C-1 36.35 -1 34.7 -1 33 C1.475 32.505 1.475 32.505 4 32 C4 23.42 4 14.84 4 6 C2.68 6 1.36 6 0 6 C0 4.02 0 2.04 0 0 Z " fill="#0D0D0D" transform="translate(167,267)"/>
<path d="M0 0 C0 3.63 0 7.26 0 11 C-1.98 11 -3.96 11 -6 11 C-6.33 9.02 -6.66 7.04 -7 5 C-14.34303266 4.42011279 -14.34303266 4.42011279 -21.125 6.75 C-24.38295313 10.65954375 -24.28780508 14.8835568 -24.21484375 19.8125 C-23.91073485 22.9088815 -23.04773782 24.66981559 -21 27 C-16.66667977 29.32026662 -12.47987835 29.23635106 -7.6875 29.125 C-6.94693359 29.11597656 -6.20636719 29.10695313 -5.44335938 29.09765625 C-3.62876533 29.07424213 -1.81433929 29.03837615 0 29 C0 30.65 0 32.3 0 34 C-6.45061658 37.44032884 -12.90686778 38.2303634 -20.0859375 36.49609375 C-26.56700545 34.01970316 -30.46574594 29.23673534 -33.265625 23.09765625 C-35.32029985 17.22871799 -34.29362076 13.08974699 -31.8125 7.625 C-30.26349763 4.44831577 -29.54626773 3.26316548 -26.32421875 1.7109375 C-25.55722656 1.47632813 -24.79023437 1.24171875 -24 1 C-24 0.34 -24 -0.32 -24 -1 C-15.95506187 -4.47889216 -7.64285613 -4.07618993 0 0 Z " fill="#101010" transform="translate(114,269)"/>
<path d="M0 0 C0 3.63 0 7.26 0 11 C-1.98 11 -3.96 11 -6 11 C-6 8.69 -6 6.38 -6 4 C-7.75032844 4.14183696 -9.50025534 4.28863429 -11.25 4.4375 C-12.71179688 4.55931641 -12.71179688 4.55931641 -14.203125 4.68359375 C-16.58332648 4.95286235 -18.73420665 5.23097219 -21 6 C-23.83877689 10.48227931 -24.42923805 14.76329577 -24 20 C-23.00798441 22.89380714 -21.90328708 25.59151944 -20 28 C-15.97356267 29.3027024 -11.93574579 29.11056952 -7.75 29.0625 C-7.00492187 29.05798828 -6.25984375 29.05347656 -5.4921875 29.04882812 C-3.6614236 29.03709246 -1.83070127 29.0191585 0 29 C0.3125 31.3125 0.3125 31.3125 0 34 C-4.65385489 37.99653075 -9.70085788 37.54859427 -15.546875 37.4140625 C-21.93351727 36.6482434 -25.73520084 33.60276432 -29.9375 28.9375 C-33.62373309 23.68741045 -33.51247804 18.2560998 -33 12 C-31.26471664 5.87547051 -28.15444781 2.48454031 -23 -1 C-15.8588749 -4.57056255 -6.69284726 -4.34130633 0 0 Z " fill="#0E0E0F" transform="translate(344,269)"/>
<path d="M0 0 C5.61 0 11.22 0 17 0 C17 1.98 17 3.96 17 6 C15.35 6 13.7 6 12 6 C12 14.58 12 23.16 12 32 C13.65 32.33 15.3 32.66 17 33 C17 34.65 17 36.3 17 38 C11.39 38 5.78 38 0 38 C0 36.02 0 34.04 0 32 C1.32 32 2.64 32 4 32 C4 23.42 4 14.84 4 6 C2.68 6 1.36 6 0 6 C0 4.02 0 2.04 0 0 Z " fill="#070707" transform="translate(247,267)"/>
<path d="M0 0 C11.11111111 0 11.11111111 0 15.72265625 3.515625 C18.43616132 6.66893364 18.34501147 10.87987351 18.27734375 14.90234375 C17.76906396 18.7466571 16.35572747 20.9003586 14 24 C9.08813278 26.56756695 5.88325367 26 0 26 C0 17.42 0 8.84 0 0 Z " fill="#DFDFDF" transform="translate(216,273)"/>
<path d="M0 0 C0.6935257 -0.00058411 1.38705139 -0.00116821 2.10159302 -0.00177002 C4.36912011 0.00099256 6.63529362 0.03199403 8.90258789 0.06347656 C10.48441347 0.07094554 12.06624837 0.07663537 13.64808655 0.08062744 C17.79275475 0.09583227 21.93685399 0.13506858 26.08129883 0.17944336 C30.3178742 0.22050805 34.55454234 0.23866225 38.79125977 0.25878906 C47.09034774 0.30156878 55.38897498 0.36975641 63.68774414 0.45410156 C63.68774414 1.11410156 63.68774414 1.77410156 63.68774414 2.45410156 C62.43652771 2.46623184 62.43652771 2.46623184 61.16003418 2.47860718 C53.27454392 2.55675373 45.38921974 2.64410406 37.5039444 2.74162865 C33.45066203 2.79143915 29.39740381 2.8377697 25.34399414 2.87597656 C21.42757869 2.91302303 17.51137311 2.95943372 13.59513855 3.01216507 C12.10576584 3.0306067 10.61634832 3.04575185 9.12690735 3.05744553 C-1.76689714 3.04267784 -1.76689714 3.04267784 -12.31225586 5.45410156 C-12.64225586 6.11410156 -12.97225586 6.77410156 -13.31225586 7.45410156 C-15.63382183 7.86139384 -17.96913456 8.19848833 -20.31225586 8.45410156 C-18.90177059 5.63313103 -17.23825214 5.59905663 -14.31225586 4.45410156 C-13.24877426 3.78026428 -12.18529266 3.106427 -11.08958435 2.41217041 C-7.34156616 0.2532227 -4.35873819 -0.03107835 0 0 Z " fill="#CC4F62" transform="translate(227.312255859375,144.5458984375)"/>
<path d="M0 0 C0.66 0.33 1.32 0.66 2 1 C1.67 1.99 1.34 2.98 1 4 C0.34 4 -0.32 4 -1 4 C-1.5818408 16.0366082 -1.5818408 16.0366082 3 27 C3.33 27.99 3.66 28.98 4 30 C4.66 30.33 5.32 30.66 6 31 C-2.91 31 -11.82 31 -21 31 C-24.99204095 23.0159181 -25.75534506 15.87210382 -25 7 C-24.34 6.01 -23.68 5.02 -23 4 C-22.67 10.6 -22.34 17.2 -22 24 C-21.34 24 -20.68 24 -20 24 C-20 25.98 -20 27.96 -20 30 C-12.74 29.67 -5.48 29.34 2 29 C0.68 27.02 -0.64 25.04 -2 23 C-4.39502892 19.29448356 -4.20577279 16.11173054 -4.125 11.75 C-4.10695312 10.48671875 -4.08890625 9.2234375 -4.0703125 7.921875 C-4.04710937 6.95765625 -4.02390625 5.9934375 -4 5 C-3.34 5 -2.68 5 -2 5 C-1.34 3.35 -0.68 1.7 0 0 Z " fill="#AC2C3F" transform="translate(211,178)"/>
<path d="M0 0 C0.66 0.33 1.32 0.66 2 1 C1.34 2.32 0.68 3.64 0 5 C8.25 5.33 16.5 5.66 25 6 C25.495 6.99 25.495 6.99 26 8 C14.45 8 2.9 8 -9 8 C-9 7.01 -9 6.02 -9 5 C-7.02 4.67 -5.04 4.34 -3 4 C-3 3.34 -3 2.68 -3 2 C-2.01 1.34 -1.02 0.68 0 0 Z " fill="#BC5666" transform="translate(265,230)"/>
<path d="M0 0 C0.99 0.33 1.98 0.66 3 1 C-0.15303695 4.33321049 -3.07177321 6.68251055 -7 9 C-8.22642098 9.80746046 -9.44739395 10.62323073 -10.6640625 11.4453125 C-11.31117188 11.88230469 -11.95828125 12.31929687 -12.625 12.76953125 C-13.9673162 13.67926508 -15.30844865 14.59074782 -16.6484375 15.50390625 C-17.29296875 15.93832031 -17.9375 16.37273437 -18.6015625 16.8203125 C-19.47288818 17.41223389 -19.47288818 17.41223389 -20.36181641 18.01611328 C-22 19 -22 19 -25 20 C-25 17.69 -25 15.38 -25 13 C-22.525 14.485 -22.525 14.485 -20 16 C-20 15.34 -20 14.68 -20 14 C-19.01 14 -18.02 14 -17 14 C-17 13.01 -17 12.02 -17 11 C-16.1028125 10.87625 -16.1028125 10.87625 -15.1875 10.75 C-12.4033704 9.79544128 -11.56688858 8.42867729 -10 6 C-9.01 6.33 -8.02 6.66 -7 7 C-7 6.34 -7 5.68 -7 5 C-6.01 5 -5.02 5 -4 5 C-4 4.01 -4 3.02 -4 2 C-2.68 2 -1.36 2 0 2 C0 1.34 0 0.68 0 0 Z " fill="#C12B42" transform="translate(316,155)"/>
<path d="M0 0 C0 0.99 0 1.98 0 3 C-0.99 3.66 -1.98 4.32 -3 5 C-3 5.99 -3 6.98 -3 8 C-3.928125 8.5775 -4.85625 9.155 -5.8125 9.75 C-9.80770884 12.57014742 -10.43388174 14.47565837 -12 19 C-12.66 19 -13.32 19 -14 19 C-14 20.65 -14 22.3 -14 24 C-15.98 24.99 -15.98 24.99 -18 26 C-16.49232928 20.11779983 -15.16668073 15.58334881 -11 11 C-10.67 10.01 -10.34 9.02 -10 8 C-6.96421614 4.62690682 -3.98604411 2.16385252 0 0 Z " fill="#C5394F" transform="translate(206,153)"/>
<path d="M0 0 C0.99 0.33 1.98 0.66 3 1 C3.66 4.63 4.32 8.26 5 12 C2.03 12 -0.94 12 -4 12 C-3.5317879 7.22423661 -2.75668002 3.95523655 0 0 Z " fill="#C3C3C3" transform="translate(288,277)"/>
<path d="M0 0 C3.3891571 0.60520662 5.30430129 1.91300745 8 4 C8.99 4.33 9.98 4.66 11 5 C11 5.66 11 6.32 11 7 C11.804375 7.28875 12.60875 7.5775 13.4375 7.875 C16 9 16 9 17 11 C16.29875 10.71125 15.5975 10.4225 14.875 10.125 C11.94547497 8.97866412 8.99078347 7.97374346 6 7 C6 6.34 6 5.68 6 5 C4.68 5 3.36 5 2 5 C1.67 5.99 1.34 6.98 1 8 C-5.93 7.505 -5.93 7.505 -13 7 C-13 6.67 -13 6.34 -13 6 C-8.71 6 -4.42 6 0 6 C0 4.02 0 2.04 0 0 Z " fill="#C34055" transform="translate(291,208)"/>
<path d="M0 0 C0.66 0.33 1.32 0.66 2 1 C1.67 1.99 1.34 2.98 1 4 C0.34 4 -0.32 4 -1 4 C-1.60890256 16.04808984 -1.60890256 16.04808984 3 27 C3.33 27.66 3.66 28.32 4 29 C0.17846021 27.36219723 -1.44280216 25.45268295 -3.25 21.640625 C-4.78592951 16.23287317 -4.2813834 10.56513842 -4 5 C-3.34 5 -2.68 5 -2 5 C-1.34 3.35 -0.68 1.7 0 0 Z " fill="#BF364A" transform="translate(211,178)"/>
<path d="M0 0 C0.99 0.33 1.98 0.66 3 1 C2 4 2 4 -0.75 5.5 C-2.35875 6.2425 -2.35875 6.2425 -4 7 C-5.67623498 7.98387706 -7.34634594 8.97862543 -9 10 C-9 7.69 -9 5.38 -9 3 C-8.34 3 -7.68 3 -7 3 C-7 3.66 -7 4.32 -7 5 C-3.66462511 3.88820837 -2.36292656 2.52588702 0 0 Z " fill="#BD354A" transform="translate(300,235)"/>
<path d="M0 0 C0.66 0.33 1.32 0.66 2 1 C1.33333333 2.33333333 0.66666667 3.66666667 0 5 C-0.268125 5.639375 -0.53625 6.27875 -0.8125 6.9375 C-2.46761323 9.81217034 -4.51648422 11.819352 -7 14 C-7.99 14 -8.98 14 -10 14 C-8.56218702 11.34004598 -7.47909658 9.34435067 -5 7.5625 C-2.32415963 5.47199971 -1.36178579 3.06401803 0 0 Z " fill="#BE394D" transform="translate(277,215)"/>
<path d="M0 0 C0 0.99 0 1.98 0 3 C-0.99 3.66 -1.98 4.32 -3 5 C-3 5.99 -3 6.98 -3 8 C-4.98 8.99 -6.96 9.98 -9 11 C-6.95005755 5.58229496 -5.12228881 2.83073855 0 0 Z " fill="#C73145" transform="translate(206,153)"/>
<path d="M0 0 C0.33 1.32 0.66 2.64 1 4 C1.66 4 2.32 4 3 4 C3 5.98 3 7.96 3 10 C2.34 10 1.68 10 1 10 C-0.83691257 6.21812119 -1.15837626 4.05431692 0 0 Z " fill="#C13548" transform="translate(188,198)"/>
<path d="M0 0 C1.65 0.99 3.3 1.98 5 3 C5 2.34 5 1.68 5 1 C5.99 1.33 6.98 1.66 8 2 C5.31158141 4.25245881 3.35358125 5.88213958 0 7 C0 4.69 0 2.38 0 0 Z " fill="#BE4055" transform="translate(291,168)"/>
<path d="M0 0 C2.475 0.495 2.475 0.495 5 1 C5 2.65 5 4.3 5 6 C3.35 6 1.7 6 0 6 C0.66 4.35 1.32 2.7 2 1 C1.34 0.67 0.68 0.34 0 0 Z " fill="#19191A" transform="translate(383,299)"/>
<path d="M0 0 C-1.1875 2 -1.1875 2 -3 4 C-5.6875 4.25 -5.6875 4.25 -8 4 C-7.25 2.0625 -7.25 2.0625 -6 0 C-3.40292416 -1.05506206 -2.5386068 -1.2693034 0 0 Z " fill="#D6223A" transform="translate(213,153)"/>
<path d="M0 0 C0.99 0.33 1.98 0.66 3 1 C1.37660195 2.70884005 -0.29319053 4.37446717 -2 6 C-2.66 6 -3.32 6 -4 6 C-4 4.68 -4 3.36 -4 2 C-2.68 2 -1.36 2 0 2 C0 1.34 0 0.68 0 0 Z " fill="#BE344B" transform="translate(316,155)"/>
<path d="M0 0 C3.96 1.98 3.96 1.98 8 4 C8 4.33 8 4.66 8 5 C6.02 5 4.04 5 2 5 C1.34 3.35 0.68 1.7 0 0 Z " fill="#C23146" transform="translate(294,140)"/>
</svg>
