<?xml version="1.0" encoding="UTF-8"?>
<svg version="1.1" xmlns="http://www.w3.org/2000/svg" width="640" height="169">
<path d="M0 0 C45.87 0 91.74 0 139 0 C137.91155147 5.44224265 137.09982973 6.55241591 133 10 C128.22994583 12.63030689 123.39924511 12.2550495 118.10546875 12.1953125 C117.15811356 12.1924826 116.21075836 12.18965271 115.23469543 12.18673706 C112.21883334 12.17557187 109.20327184 12.15047389 106.1875 12.125 C104.13867617 12.11496547 102.08984768 12.10584045 100.04101562 12.09765625 C95.02722852 12.07564449 90.01366517 12.04113971 85 12 C84.01 17.94 83.02 23.88 82 30 C95.53 30 109.06 30 123 30 C122.34 33.96 121.68 37.92 121 42 C107.14 42 93.28 42 79 42 C78.67 45.63 78.34 49.26 78 53 C77.39236684 55.68073451 76.74854286 58.35514856 76 61 C76.86657478 60.98334541 76.86657478 60.98334541 77.75065613 60.96635437 C83.76891606 60.85565189 89.78688636 60.78028795 95.8059082 60.7253418 C98.05147044 60.70021277 100.296951 60.66610385 102.54223633 60.62280273 C105.77185218 60.56208224 109.00038584 60.53377369 112.23046875 60.51171875 C113.23272995 60.48591232 114.23499115 60.4601059 115.2676239 60.43351746 C119.86454291 60.43167177 122.25613667 60.48453266 126.1105957 63.15551758 C128 66 128 66 129 72 C106.56 72 84.12 72 61 72 C62.125 60.75 62.125 60.75 62.93969727 56.36669922 C63.20986412 54.89630692 63.20986412 54.89630692 63.48548889 53.39620972 C63.67719162 52.37600739 63.86889435 51.35580505 64.06640625 50.3046875 C64.26475571 49.23123077 64.46310516 48.15777405 64.66746521 47.05178833 C65.29531108 43.65880159 65.92880874 40.26689936 66.5625 36.875 C66.99191202 34.55996546 67.42095212 32.24486191 67.84960938 29.9296875 C68.89544231 24.28565144 69.94634164 18.64258018 71 13 C64.07 12.67 57.14 12.34 50 12 C49.70867187 13.65 49.41734375 15.3 49.1171875 17 C46.83988575 29.85358043 44.53001382 42.70118501 42.14849854 55.53588867 C41.88260821 56.97150912 41.6180839 58.40738323 41.35491943 59.84350586 C40.98523638 61.85864321 40.61050798 63.87277676 40.234375 65.88671875 C40.02006836 67.04389404 39.80576172 68.20106934 39.58496094 69.39331055 C39 72 39 72 38 73 C35.98035801 73.07244053 33.95832876 73.08377188 31.9375 73.0625 C30.83277344 73.05347656 29.72804688 73.04445313 28.58984375 73.03515625 C27.73519531 73.02355469 26.88054687 73.01195313 26 73 C24.81018067 69.4807287 25.18445942 66.9283634 25.89624023 63.31347656 C26.11654404 62.17259583 26.33684784 61.03171509 26.56382751 59.85626221 C26.80960037 58.63010193 27.05537323 57.40394165 27.30859375 56.140625 C27.55416519 54.88111023 27.79973663 53.62159546 28.05274963 52.32391357 C28.70445988 48.98186041 29.36640742 45.64191519 30.03051758 42.30230713 C30.70688614 38.89155536 31.37353904 35.47890717 32.04101562 32.06640625 C33.35118222 25.37571761 34.67217526 18.68720596 36 12 C35.17798096 12.01571045 34.35596191 12.0314209 33.5090332 12.04760742 C29.77692572 12.11005073 26.04492828 12.14902136 22.3125 12.1875 C21.01892578 12.21263672 19.72535156 12.23777344 18.39257812 12.26367188 C17.14541016 12.27333984 15.89824219 12.28300781 14.61328125 12.29296875 C12.89298706 12.31653442 12.89298706 12.31653442 11.13793945 12.34057617 C7.62163803 11.95893449 5.80155692 11.12565139 3 9 C1.03542447 5.74828878 0 3.81307353 0 0 Z " fill="#3A3A3A" transform="translate(385,46)"/>
<path d="M0 0 C7.25899226 -0.10174864 14.51779934 -0.17161187 21.77734375 -0.21972656 C24.24486158 -0.23979295 26.71233215 -0.26705244 29.1796875 -0.30175781 C32.73449393 -0.35049306 36.28866944 -0.37301939 39.84375 -0.390625 C41.48796936 -0.42159271 41.48796936 -0.42159271 43.16540527 -0.45318604 C50.93551309 -0.45544225 56.16321607 0.75811811 62.2421875 5.89453125 C67.89783351 12.53788577 69.4688484 18.2795342 69 27 C68.55300903 30.61436994 67.92769276 34.18924762 67.28515625 37.7734375 C67.10995956 38.77839264 66.93476288 39.78334778 66.7542572 40.8187561 C66.38502563 42.92872408 66.01253986 45.03812492 65.63696289 47.14697266 C65.06082051 50.38443742 64.49542856 53.62364452 63.93164062 56.86328125 C63.57093794 58.91677663 63.20963126 60.97016602 62.84765625 63.0234375 C62.6778273 63.99421234 62.50799835 64.96498718 62.33302307 65.96517944 C62.17293259 66.86016144 62.0128421 67.75514343 61.84790039 68.67724609 C61.70800186 69.46586029 61.56810333 70.25447449 61.42396545 71.06698608 C61 73 61 73 60 75 C53.140452 74.82533558 48.36957864 73.33462584 43 69 C37.64792314 63.36623488 36.33050232 57.55940876 36 50 C36.24849181 46.828709 36.77872544 43.74759572 37.375 40.625 C37.51421875 39.83222656 37.6534375 39.03945312 37.796875 38.22265625 C38.36323406 35.06493733 38.98437458 32.04687625 40 29 C39.01773438 29.02356567 39.01773438 29.02356567 38.015625 29.04760742 C35.01050669 29.11047934 32.00552737 29.14915488 29 29.1875 C27.97003906 29.21263672 26.94007812 29.23777344 25.87890625 29.26367188 C18.61030078 29.33311715 12.57089865 28.97367518 6.7578125 24.1328125 C6.21898437 23.47023438 5.68015625 22.80765625 5.125 22.125 C4.57070313 21.46757813 4.01640625 20.81015625 3.4453125 20.1328125 C0.32129521 15.52277618 -0.23673341 11.71830366 -0.125 6.1875 C-0.10695312 5.02605469 -0.08890625 3.86460938 -0.0703125 2.66796875 C-0.04710937 1.78753906 -0.02390625 0.90710937 0 0 Z " fill="#308C30" transform="translate(54,46)"/>
<path d="M0 0 C7.40146249 -0.07630076 14.80282286 -0.12870517 22.20458984 -0.16479492 C24.72057892 -0.17984619 27.23654192 -0.20029181 29.75244141 -0.22631836 C33.37669325 -0.26286182 37.000597 -0.27976353 40.625 -0.29296875 C42.30203003 -0.31619453 42.30203003 -0.31619453 44.01293945 -0.33988953 C50.62468397 -0.34130224 57.37281144 -0.30918231 62.55297852 4.41682434 C67.81082662 10.42908 67.61357399 16.81317623 67.23095703 24.38867188 C66.75675724 29.75023736 65.79427559 35.0241467 64.8125 40.3125 C64.61640137 41.40892822 64.42030273 42.50535645 64.21826172 43.63500977 C62.37557429 52.98491611 59.59786228 61.45016659 52.13671875 67.74609375 C44.47221256 72.24391183 37.6747392 72.40685653 28.96875 72.29296875 C27.1212616 72.28660149 27.1212616 72.28660149 25.2364502 72.28010559 C21.32407256 72.26338749 17.41222051 72.22574662 13.5 72.1875 C10.83854921 72.17074452 8.17710335 72.15875755 5.515625 72.14648438 C-0.98976098 72.11350636 -7.49484292 72.06337498 -14 72 C-13.29330714 64.16221817 -12.11199617 56.53512172 -10.58081055 48.81274414 C-10.18655447 46.80769135 -9.81096198 44.79966988 -9.43554688 42.79101562 C-6.45156678 27.64333041 -6.45156678 27.64333041 -0.96484375 23.44140625 C-0.29582031 23.15136719 0.37320313 22.86132812 1.0625 22.5625 C1.73410156 22.25441406 2.40570313 21.94632813 3.09765625 21.62890625 C5 21 5 21 8 21 C8.13114908 25.99048327 7.68262141 30.49937183 6.72265625 35.39453125 C6.59185165 36.06796066 6.46104706 36.74139008 6.32627869 37.43522644 C6.05109964 38.84503929 5.77278642 40.25424375 5.49145508 41.6628418 C5.06047051 43.82267055 4.6398248 45.98432545 4.22070312 48.14648438 C2.15125784 58.69748432 2.15125784 58.69748432 1 61 C5.67783042 60.93059371 10.35481152 60.84237949 15.03198242 60.73754883 C16.61945078 60.70452021 18.20703035 60.67642131 19.79467773 60.65356445 C34.23145385 61.04795549 34.23145385 61.04795549 46.390625 54.5859375 C48.71288482 49.41158188 49.72000217 44.18310152 50.75 38.625 C51.08064453 36.97757813 51.08064453 36.97757813 51.41796875 35.296875 C53.54558832 24.63255768 53.54558832 24.63255768 52 14 C49.23055 13.22091786 46.75117953 12.86889957 43.87744141 12.84228516 C43.07625885 12.83202301 42.27507629 12.82176086 41.44961548 12.81118774 C40.592258 12.80388641 39.73490051 12.79658508 38.8515625 12.7890625 C37.02342852 12.76099591 35.19530363 12.73233146 33.3671875 12.703125 C30.49479408 12.66188038 27.62257094 12.62497772 24.75 12.59863281 C21.97100089 12.57095734 19.19276539 12.52509153 16.4140625 12.4765625 C15.56075348 12.47330963 14.70744446 12.47005676 13.82827759 12.46670532 C8.85181072 12.36460772 5.27398135 11.83235734 1 9 C-0.7509487 5.3458462 -1.29283435 3.87850305 0 0 Z " fill="#3B3B3B" transform="translate(159,46)"/>
<path d="M0 0 C4.4796802 -0.62566313 8.53793839 -0.83696045 13 0 C16.49698347 2.82587563 18.36596657 6.33724429 20.5 10.25 C21.75840117 12.36240432 23.0175299 14.47437538 24.27734375 16.5859375 C24.89464355 17.65811523 25.51194336 18.73029297 26.14794922 19.83496094 C28.95169049 24.62637958 32.00446281 29.24349601 35.0625 33.875 C36.07521489 35.43424931 37.08697655 36.99411825 38.09765625 38.5546875 C41.02915345 43.06052581 44.00861103 47.533759 47 52 C47.77430826 48.18819759 48.54390168 44.37545758 49.3125 40.5625 C49.65752563 38.86033325 49.65752563 38.86033325 50.00952148 37.1237793 C51.03606432 32.014913 52.04408164 26.91292486 52.859375 21.765625 C53.04246216 20.62178345 53.04246216 20.62178345 53.22924805 19.45483398 C53.54157079 17.44704492 53.83589005 15.43647862 54.12890625 13.42578125 C55.33381227 8.68720468 57.09972187 5.2128055 61.2890625 2.5390625 C62.05992187 2.23742188 62.83078125 1.93578125 63.625 1.625 C64.40101563 1.30789062 65.17703125 0.99078125 65.9765625 0.6640625 C68 0 68 0 70 0 C69.40558873 8.23660996 68.2021737 16.27691903 66.75 24.40234375 C66.42273926 26.26252892 66.42273926 26.26252892 66.08886719 28.16029358 C65.51388489 31.42252382 64.93485977 34.68400208 64.35400391 37.94519043 C63.88023684 40.61151882 63.41096288 43.27862928 62.9418335 45.94577694 C62.37974357 49.13996068 61.814913 52.33365825 61.25 55.52734375 C61.03956055 56.71899643 60.82912109 57.91064911 60.61230469 59.13841248 C60.41540039 60.2437886 60.21849609 61.34916473 60.015625 62.48803711 C59.75700684 63.94384438 59.75700684 63.94384438 59.49316406 65.42906189 C59.06793418 67.64584893 58.575321 69.818112 58 72 C53.50124771 72.67892756 49.48134621 72.88386413 45 72 C41.32295739 68.97442661 39.32107271 65.11188031 37 61 C35.81345713 59.07839915 34.60483306 57.17171041 33.39624023 55.26391602 C32.11226885 53.22983114 30.84818873 51.18433849 29.5859375 49.13671875 C27.05452655 45.05705304 24.42217398 41.05103826 21.75 37.0625 C21.33459961 36.44189697 20.91919922 35.82129395 20.49121094 35.18188477 C18.68531837 32.49078624 16.86862432 29.80790887 15.0390625 27.1328125 C14.48992187 26.32585937 13.94078125 25.51890625 13.375 24.6875 C12.90835937 24.01074219 12.44171875 23.33398438 11.9609375 22.63671875 C11 21 11 21 11 19 C10.34 19 9.68 19 9 19 C8.94066284 19.91700684 8.94066284 19.91700684 8.88012695 20.85253906 C8.28856519 28.56192462 7.04124118 36.10439409 5.58081055 43.68994141 C5.18587465 45.75851317 4.81056732 47.83008095 4.43554688 49.90234375 C1.50412461 65.57687051 1.50412461 65.57687051 -4.25390625 69.55859375 C-5.39666016 69.99365234 -5.39666016 69.99365234 -6.5625 70.4375 C-7.32691406 70.74558594 -8.09132812 71.05367188 -8.87890625 71.37109375 C-11 72 -11 72 -14 72 C-11.10713378 55.27455359 -7.99554971 38.59780575 -4.75 21.9375 C-4.57178711 21.01929474 -4.39357422 20.10108948 -4.20996094 19.15505981 C-3.6996351 16.52868503 -3.18633056 13.90291238 -2.671875 11.27734375 C-2.44090118 10.08847061 -2.44090118 10.08847061 -2.20526123 8.87557983 C-1.60771704 5.84388864 -0.97835067 2.935052 0 0 Z " fill="#3A3A3A" transform="translate(260,46)"/>
<path d="M0 0 C1.72283203 0.12181641 1.72283203 0.12181641 3.48046875 0.24609375 C4.64191406 0.30925781 5.80335938 0.37242188 7 0.4375 C8.32064453 0.55931641 8.32064453 0.55931641 9.66796875 0.68359375 C11.58880367 7.81446395 13.50934252 14.94541385 15.4296875 22.07641602 C16.08131402 24.4960302 16.73300524 26.91562695 17.38476562 29.33520508 C17.69994141 30.505271 18.01511719 31.67533691 18.33984375 32.88085938 C18.65151489 34.03774261 18.96318604 35.19462585 19.28430176 36.38656616 C19.90194985 38.68127506 20.51873819 40.97621556 21.13464355 43.27139282 C22.41218914 48.0315501 23.69232211 52.79036767 25.01367188 57.53857422 C25.20503723 58.23317245 25.39640259 58.92777069 25.59356689 59.64341736 C26.0739428 61.383856 26.56055908 63.12256919 27.04785156 64.86108398 C27.64325611 67.5711123 27.79416666 69.92030573 27.66796875 72.68359375 C23.08061611 73.13333421 19.77858137 73.38376257 15.79296875 70.87109375 C13.66796875 67.68359375 13.66796875 67.68359375 10.66796875 56.68359375 C-1.87203125 56.68359375 -14.41203125 56.68359375 -27.33203125 56.68359375 C-28.32203125 59.15859375 -28.32203125 59.15859375 -29.33203125 61.68359375 C-32.15811293 66.20863948 -35.18634422 70.81243483 -40.33203125 72.68359375 C-43.68214174 72.90555793 -46.9808101 72.85928884 -50.33203125 72.68359375 C-49.70654795 69.46257616 -48.58695497 67.27235493 -46.74682617 64.56787109 C-46.2050322 63.76537933 -45.66323822 62.96288757 -45.10502625 62.13607788 C-44.51349258 61.27261749 -43.92195892 60.4091571 -43.3125 59.51953125 C-42.69868973 58.61345123 -42.08487946 57.70737122 -41.45246887 56.77383423 C-39.48027873 53.86500611 -37.50015855 50.96168188 -35.51953125 48.05859375 C-33.58702861 45.21472528 -31.65617231 42.36974387 -29.72537231 39.52471924 C-28.45072768 37.64714965 -27.17523587 35.7701549 -25.89889526 33.89373779 C-21.3107823 27.14470769 -16.76691771 20.36751307 -12.26542664 13.56039429 C-11.38388453 12.23075473 -10.49517948 10.90582751 -9.59829712 9.58648682 C-8.73937627 8.29573535 -7.91659272 6.98033981 -7.12802124 5.64544678 C-5.01371622 2.24802052 -4.00060339 0.82075685 0 0 Z M-0.33203125 16.68359375 C-1.72039976 18.61978526 -3.05341685 20.56846213 -4.3671875 22.5546875 C-4.76530136 23.15160904 -5.16341522 23.74853058 -5.57359314 24.36354065 C-6.41668948 25.62935818 -7.25807521 26.89631644 -8.09790039 28.16430664 C-9.38838723 30.11182161 -10.68495729 32.05517557 -11.98242188 33.99804688 C-12.79854304 35.22501708 -13.61431022 36.45222282 -14.4296875 37.6796875 C-14.82027847 38.26511826 -15.21086945 38.85054901 -15.61329651 39.45372009 C-17.51486645 41.8738546 -17.51486645 41.8738546 -18.33203125 44.68359375 C-9.75203125 44.68359375 -1.17203125 44.68359375 7.66796875 44.68359375 C5.49082245 35.29934244 3.30974452 25.94982241 0.66796875 16.68359375 C0.33796875 16.68359375 0.00796875 16.68359375 -0.33203125 16.68359375 Z " fill="#3A3A3A" transform="translate(371.33203125,45.31640625)"/>
<path d="M0 0 C1.51454773 0.00636726 1.51454773 0.00636726 3.05969238 0.01286316 C6.25882557 0.02954661 9.45730983 0.06717972 12.65625 0.10546875 C14.83592835 0.12052893 17.01561665 0.134215 19.1953125 0.14648438 C24.51584336 0.17941612 29.8360003 0.22951139 35.15625 0.29296875 C34.48521439 4.25442626 33.95814485 5.99609103 30.78125 8.54296875 C30.17539062 9.043125 29.56953125 9.54328125 28.9453125 10.05859375 C25.08470297 12.72224574 21.12907761 12.44237932 16.63671875 12.46875 C15.12433511 12.49195251 13.61196527 12.51607002 12.09960938 12.54101562 C9.72313235 12.57607559 7.34716278 12.60544944 4.97045898 12.61889648 C2.6710916 12.63444083 0.37319407 12.67468864 -1.92578125 12.71875 C-2.98077568 12.71588737 -2.98077568 12.71588737 -4.05708313 12.71296692 C-10.19411641 12.86389155 -13.60313982 15.27920543 -18.04296875 19.26953125 C-20.90050576 24.06721811 -21.6370448 29.22384499 -22.65625 34.66796875 C-22.88505859 35.77914062 -23.11386719 36.8903125 -23.34960938 38.03515625 C-24.4597813 43.7387918 -25.3816555 48.63102809 -23.84375 54.29296875 C-21.26714309 57.41201922 -19.6893396 59.01110555 -15.84375 60.29296875 C-13.245339 60.38719082 -10.66885366 60.42995918 -8.0703125 60.43359375 C-6.5077979 60.45192006 -4.94529749 60.47149021 -3.3828125 60.4921875 C-0.92488611 60.52115627 1.53212613 60.54296892 3.99023438 60.54345703 C6.36670599 60.54679745 8.74108095 60.58137222 11.1171875 60.62109375 C11.84755219 60.61402405 12.57791687 60.60695435 13.33041382 60.59967041 C17.12266536 60.68980281 19.0170688 61.19038012 22.09619141 63.45996094 C24.33444899 66.53802932 24.89398201 68.53379416 25.15625 72.29296875 C18.32451164 72.39476618 11.49297041 72.46460066 4.66064453 72.51269531 C2.33863007 72.53275452 0.01666577 72.56000866 -2.30517578 72.59472656 C-5.65149345 72.64349416 -8.99714059 72.66599518 -12.34375 72.68359375 C-13.3742749 72.70423889 -14.4047998 72.72488403 -15.46655273 72.74615479 C-22.82085428 72.74842109 -28.51174732 71.53013265 -33.90234375 66.29296875 C-34.35738281 65.63296875 -34.81242188 64.97296875 -35.28125 64.29296875 C-35.75433594 63.63296875 -36.22742188 62.97296875 -36.71484375 62.29296875 C-41.57629852 53.68028764 -38.54154438 41.82776873 -36.71875 32.73046875 C-36.53054688 31.67150391 -36.34234375 30.61253906 -36.1484375 29.52148438 C-34.38533506 20.57924919 -31.08628381 11.91994976 -23.46875 6.35546875 C-22.78039062 5.83082031 -22.09203125 5.30617188 -21.3828125 4.765625 C-14.18317054 0.58983266 -8.16825082 -0.13107633 0 0 Z " fill="#3B3B3B" transform="translate(556.84375,45.70703125)"/>
<path d="M0 0 C-0.56886142 7.84598861 -1.6776351 15.47780751 -3.14453125 23.203125 C-3.35559006 24.3251532 -3.56664886 25.4471814 -3.78410339 26.60321045 C-4.22925088 28.95672255 -4.67731402 31.3096849 -5.12817383 33.66210938 C-5.81279835 37.25156423 -6.47792453 40.84430078 -7.14257812 44.4375 C-7.57953754 46.73460199 -8.01764898 49.03148521 -8.45703125 51.328125 C-8.65198685 52.39492493 -8.84694244 53.46172485 -9.04780579 54.56085205 C-10.27613912 60.8377772 -11.53514594 67.2520123 -16.8125 71.4375 C-19.90303118 72.23220802 -22.8270466 72.12203667 -26 72 C-25.39608922 64.51835335 -24.23028759 57.22813448 -22.8203125 49.859375 C-22.50016678 48.17065277 -22.50016678 48.17065277 -22.17355347 46.44781494 C-21.72366436 44.08423132 -21.27140874 41.72109702 -20.81689453 39.35839844 C-20.12471582 35.74851795 -19.44685011 32.13613173 -18.76953125 28.5234375 C-18.32899683 26.21858319 -17.88761965 23.91388977 -17.4453125 21.609375 C-17.24519562 20.53427673 -17.04507874 19.45917847 -16.83889771 18.35150146 C-14.26677719 5.16953194 -14.26677719 5.16953194 -9 1 C-5.8035914 -0.06546953 -3.34252724 -0.07427838 0 0 Z " fill="#3A3A3A" transform="translate(251,46)"/>
</svg>
