<?xml version="1.0" encoding="UTF-8"?>
<svg version="1.1" xmlns="http://www.w3.org/2000/svg" width="225" height="225">
<path d="M0 0 C74.25 0 148.5 0 225 0 C225 74.25 225 148.5 225 225 C150.75 225 76.5 225 0 225 C0 150.75 0 76.5 0 0 Z " fill="#FEFEFE" transform="translate(0,0)"/>
<path d="M0 0 C14.19 0 28.38 0 43 0 C42.34 0.99 41.68 1.98 41 3 C38.37302936 3.22137393 35.99106036 3.28162025 33.375 3.1875 C32.66859375 3.17396484 31.9621875 3.16042969 31.234375 3.14648438 C29.48925872 3.1111104 27.74453392 3.05730221 26 3 C25.67 5.31 25.34 7.62 25 10 C28.96 10 32.92 10 37 10 C37 10.66 37 11.32 37 12 C32.71 12 28.42 12 24 12 C23.67 14.31 23.34 16.62 23 19 C27.95 19 32.9 19 38 19 C38.495 20.485 38.495 20.485 39 22 C32.4 22 25.8 22 19 22 C21.00892857 7.66964286 21.00892857 7.66964286 22 3 C19.69 3 17.38 3 15 3 C14.01 9.27 13.02 15.54 12 22 C10.68 22 9.36 22 8 22 C8.31201674 19.95825942 8.62463569 17.91661087 8.9375 15.875 C9.19853516 14.16957031 9.19853516 14.16957031 9.46484375 12.4296875 C9.95589266 9.28267331 10.47018719 6.14069217 11 3 C7.7 3 4.4 3 1 3 C0.67 2.01 0.34 1.02 0 0 Z " fill="#333333" transform="translate(132,101)"/>
<path d="M0 0 C2.75105422 -0.10812003 5.49785087 -0.18734945 8.25 -0.25 C9.02730469 -0.28351563 9.80460937 -0.31703125 10.60546875 -0.3515625 C14.31518533 -0.41497646 16.38084926 -0.40045988 19.5546875 1.65234375 C21.42093273 4.68373127 21.29856662 6.30230429 20.875 9.8125 C20.68744141 11.39224609 20.68744141 11.39224609 20.49609375 13.00390625 C19.92115791 16.47615656 19.1346938 19.67156486 18 23 C13.125 21.125 13.125 21.125 12 20 C11.92773498 18.14712498 11.9161878 16.29166122 11.9375 14.4375 C11.94652344 13.42558594 11.95554687 12.41367188 11.96484375 11.37109375 C11.97644531 10.58863281 11.98804688 9.80617188 12 9 C10.948125 9.103125 9.89625 9.20625 8.8125 9.3125 C5 9 5 9 2.0625 6.75 C0 4 0 4 0 0 Z " fill="#43A344" transform="translate(29,101)"/>
<path d="M0 0 C1.65 0.33 3.3 0.66 5 1 C6.65 7.93 8.3 14.86 10 22 C8.68 21.67 7.36 21.34 6 21 C5.67 20.01 5.34 19.02 5 18 C3.08458862 17.89158049 1.16740227 17.81421921 -0.75 17.75 C-1.81734375 17.70359375 -2.8846875 17.6571875 -3.984375 17.609375 C-7.66686479 18.08638145 -8.61325128 19.26921542 -11 22 C-11.66 22 -12.32 22 -13 22 C-11.38906918 17.2408501 -8.75380214 13.41944131 -5.9375 9.3125 C-2.75797383 4.78254162 -2.75797383 4.78254162 0 0 Z " fill="#3D3D3D" transform="translate(126,101)"/>
<path d="M0 0 C2.77141717 -0.08089542 5.54047819 -0.14044062 8.3125 -0.1875 C9.09818359 -0.21263672 9.88386719 -0.23777344 10.69335938 -0.26367188 C11.45068359 -0.27333984 12.20800781 -0.28300781 12.98828125 -0.29296875 C14.03302612 -0.31653442 14.03302612 -0.31653442 15.09887695 -0.34057617 C17.60029355 0.10753943 18.47599997 1.00135499 20 3 C20.1796875 5.7421875 20.1796875 5.7421875 19.875 8.875 C19.78992188 9.90367188 19.70484375 10.93234375 19.6171875 11.9921875 C18.63762871 16.76598665 17.04984479 19.30010347 13 22 C11.09887695 22.22705078 11.09887695 22.22705078 8.98828125 22.1953125 C8.23095703 22.18886719 7.47363281 22.18242188 6.69335938 22.17578125 C5.90767578 22.15902344 5.12199219 22.14226562 4.3125 22.125 C3.51521484 22.11597656 2.71792969 22.10695313 1.89648438 22.09765625 C-0.069139 22.07411585 -2.03460775 22.03824547 -4 22 C-3.91284983 20.06166004 -3.80467036 18.1242571 -3.6875 16.1875 C-3.62949219 15.10855469 -3.57148437 14.02960938 -3.51171875 12.91796875 C-2.96931493 9.82502483 -2.44710376 8.86977097 0 7 C0.66 7.33 1.32 7.66 2 8 C1.34 11.63 0.68 15.26 0 19 C6.435 18.505 6.435 18.505 13 18 C14.67057063 13.82357344 15.24868781 12.33104148 15.125 8.1875 C15.08375 6.805625 15.0425 5.42375 15 4 C8.07 3.505 8.07 3.505 1 3 C0.67 2.01 0.34 1.02 0 0 Z " fill="#333333" transform="translate(62,101)"/>
<path d="M0 0 C1.32 0 2.64 0 4 0 C5.37207031 1.37695312 5.37207031 1.37695312 6.578125 3.28125 C7.01640625 3.95800781 7.4546875 4.63476562 7.90625 5.33203125 C8.3496875 6.04746094 8.793125 6.76289062 9.25 7.5 C9.70890625 8.21542969 10.1678125 8.93085937 10.640625 9.66796875 C11.77300788 11.43731699 12.88816454 13.21766835 14 15 C15.11243245 11.73655707 16.11333585 8.53910087 16.9375 5.1875 C17.4634375 3.6096875 17.4634375 3.6096875 18 2 C18.99 1.67 19.98 1.34 21 1 C20.29411026 8.05889737 19.21786614 15.01204964 18 22 C15.80078125 21.93359375 15.80078125 21.93359375 13 21 C11.16410794 18.69127087 9.68209959 16.57173626 8.1875 14.0625 C7.78080078 13.41603516 7.37410156 12.76957031 6.95507812 12.10351562 C4 7.32075893 4 7.32075893 4 5 C3.34 5 2.68 5 2 5 C1.95101562 5.73605469 1.90203125 6.47210938 1.8515625 7.23046875 C1.77679688 8.20628906 1.70203125 9.18210937 1.625 10.1875 C1.55539063 11.15042969 1.48578125 12.11335938 1.4140625 13.10546875 C0.99031994 16.06766911 0.38498322 18.34780423 -1 21 C-1.99 21.33 -2.98 21.66 -4 22 C-3.32692542 16.97481209 -2.45601155 12.02835295 -1.4375 7.0625 C-1.29892578 6.37865234 -1.16035156 5.69480469 -1.01757812 4.99023438 C-0.68016936 3.32646014 -0.34034121 1.66317685 0 0 Z " fill="#3D3D3D" transform="translate(93,101)"/>
<path d="M0 0 C0.69287109 0.01804687 1.38574219 0.03609375 2.09960938 0.0546875 C3.79617664 0.10148936 5.49202476 0.17322376 7.1875 0.25 C6.1975 1.735 6.1975 1.735 5.1875 3.25 C2.1484375 3.76171875 2.1484375 3.76171875 -1.4375 3.9375 C-2.62601563 4.00324219 -3.81453125 4.06898437 -5.0390625 4.13671875 C-5.95429688 4.17410156 -6.86953125 4.21148437 -7.8125 4.25 C-10.01040854 8.82897612 -11.30682386 12.05959948 -10.8125 17.25 C-8.6118761 19.4506239 -3.57759258 18.63847018 -0.59765625 18.7734375 C0.78099609 19.00933594 0.78099609 19.00933594 2.1875 19.25 C2.8475 20.24 3.5075 21.23 4.1875 22.25 C1.58271117 22.3309313 -1.01956653 22.39045434 -3.625 22.4375 C-4.73198242 22.47520508 -4.73198242 22.47520508 -5.86132812 22.51367188 C-11.27183949 22.58711773 -11.27183949 22.58711773 -13.8046875 21.0078125 C-16.21922182 16.79641543 -15.06825801 11.48228859 -14.125 6.9375 C-11.02993564 0.59998726 -6.59939009 -0.3283907 0 0 Z " fill="#3D3D3D" transform="translate(188.8125,100.75)"/>
<path d="M0 0 C14.19 0 28.38 0 43 0 C43 0.33 43 0.66 43 1 C36.07 1 29.14 1 22 1 C22 1.66 22 2.32 22 3 C19.69 3 17.38 3 15 3 C14.01 9.27 13.02 15.54 12 22 C10.68 22 9.36 22 8 22 C8.31201674 19.95825942 8.62463569 17.91661087 8.9375 15.875 C9.19853516 14.16957031 9.19853516 14.16957031 9.46484375 12.4296875 C9.95589266 9.28267331 10.47018719 6.14069217 11 3 C7.7 3 4.4 3 1 3 C0.67 2.01 0.34 1.02 0 0 Z " fill="#484848" transform="translate(132,101)"/>
<path d="M0 0 C0.66 0.33 1.32 0.66 2 1 C0.54955729 5.10958767 -1.51110752 8.43258745 -4 12 C-1.36 12.33 1.28 12.66 4 13 C4 13.33 4 13.66 4 14 C3.33613281 14.08636719 2.67226562 14.17273438 1.98828125 14.26171875 C-3.95710829 15.20777344 -6.98918507 16.23715727 -11 21 C-11.66 21 -12.32 21 -13 21 C-11.3518456 15.96617902 -8.39351949 11.9739509 -5.375 7.6875 C-4.859375 6.94693359 -4.34375 6.20636719 -3.8125 5.44335938 C-2.54605274 3.62577303 -1.27514241 1.81149162 0 0 Z " fill="#393939" transform="translate(126,102)"/>
<path d="M0 0 C2.77141717 -0.08089542 5.54047819 -0.14044062 8.3125 -0.1875 C9.09818359 -0.21263672 9.88386719 -0.23777344 10.69335938 -0.26367188 C11.45068359 -0.27333984 12.20800781 -0.28300781 12.98828125 -0.29296875 C14.03302612 -0.31653442 14.03302612 -0.31653442 15.09887695 -0.34057617 C17.61204219 0.10964413 18.48270684 0.97743207 20 3 C20.1875 6.1875 20.1875 6.1875 20 9 C18.68 9.33 17.36 9.66 16 10 C15.67 8.02 15.34 6.04 15 4 C8.07 3.505 8.07 3.505 1 3 C0.67 2.01 0.34 1.02 0 0 Z " fill="#424242" transform="translate(62,101)"/>
<path d="M0 0 C-0.33 1.98 -0.66 3.96 -1 6 C3.95 6 8.9 6 14 6 C14.33 6.99 14.66 7.98 15 9 C8.4 9 1.8 9 -5 9 C-4.67 6.36 -4.34 3.72 -4 1 C-2 0 -2 0 0 0 Z " fill="#3C3C3C" transform="translate(156,114)"/>
<path d="M0 0 C0.66 0 1.32 0 2 0 C1.55391514 3.10605582 1.09102829 6.20937895 0.625 9.3125 C0.49867187 10.19357422 0.37234375 11.07464844 0.2421875 11.98242188 C0.11328125 12.82998047 -0.015625 13.67753906 -0.1484375 14.55078125 C-0.26364746 15.33106689 -0.37885742 16.11135254 -0.49755859 16.9152832 C-1 19 -1 19 -3 22 C-3.99 21.67 -4.98 21.34 -6 21 C-5.387332 17.87245024 -4.75778538 14.74853633 -4.125 11.625 C-3.95097656 10.73554687 -3.77695313 9.84609375 -3.59765625 8.9296875 C-3.42363281 8.07890625 -3.24960938 7.228125 -3.0703125 6.3515625 C-2.91320801 5.56604004 -2.75610352 4.78051758 -2.59423828 3.97119141 C-2 2 -2 2 0 0 Z " fill="#414141" transform="translate(88,101)"/>
<path d="M0 0 C0.69738281 0.01353516 1.39476562 0.02707031 2.11328125 0.04101562 C3.82585541 0.0762055 5.53802941 0.13000845 7.25 0.1875 C6.26 1.6725 6.26 1.6725 5.25 3.1875 C1.89462283 3.64665688 -1.39728452 3.69141021 -4.78125 3.78125 C-5.7609375 3.9153125 -6.740625 4.049375 -7.75 4.1875 C-8.74 5.6725 -8.74 5.6725 -9.75 7.1875 C-11.07 7.1875 -12.39 7.1875 -13.75 7.1875 C-10.96432766 0.45545852 -6.84413633 -0.25228858 0 0 Z " fill="#444444" transform="translate(188.75,100.8125)"/>
<path d="M0 0 C0.66 0.33 1.32 0.66 2 1 C1.34 4.63 0.68 8.26 0 12 C3.3 12 6.6 12 10 12 C10 12.33 10 12.66 10 13 C3.565 13.495 3.565 13.495 -3 14 C-4.06680076 9.73279697 -3.92913016 7.25851324 -3 3 C-1.4375 1.0625 -1.4375 1.0625 0 0 Z " fill="#424242" transform="translate(62,108)"/>
<path d="M0 0 C3.00617269 3.00617269 2.59585316 5.82381598 3 10 C0.03 10 -2.94 10 -6 10 C-4.02 6.7 -2.04 3.4 0 0 Z " fill="#EFEFEF" transform="translate(127,105)"/>
<path d="M0 0 C0.66 0 1.32 0 2 0 C1.85769192 1.41702513 1.71099254 2.8336096 1.5625 4.25 C1.48128906 5.03890625 1.40007812 5.8278125 1.31640625 6.640625 C0.72771414 11.03037849 0.72771414 11.03037849 0 13 C-0.99 13.33 -1.98 13.66 -3 14 C-2.88617347 12.04098546 -2.75858875 10.0827662 -2.625 8.125 C-2.55539063 7.03445312 -2.48578125 5.94390625 -2.4140625 4.8203125 C-2 2 -2 2 0 0 Z " fill="#383838" transform="translate(112,102)"/>
<path d="M0 0 C2.475 0.495 2.475 0.495 5 1 C5.66 4.3 6.32 7.6 7 11 C5.68 10.67 4.36 10.34 3 10 C1.953125 7.71484375 1.953125 7.71484375 1.25 4.9375 C1.00765625 4.01839844 0.7653125 3.09929687 0.515625 2.15234375 C0.34546875 1.44207031 0.1753125 0.73179688 0 0 Z " fill="#404040" transform="translate(126,101)"/>
<path d="M0 0 C0.66 0.33 1.32 0.66 2 1 C1.91253716 2.43861294 1.80434652 3.87597508 1.6875 5.3125 C1.62949219 6.11300781 1.57148438 6.91351563 1.51171875 7.73828125 C0.91793306 10.36272334 0.04219706 11.30820672 -2 13 C-2.05447047 11.58376784 -2.09300508 10.16691809 -2.125 8.75 C-2.14820313 7.96109375 -2.17140625 7.1721875 -2.1953125 6.359375 C-1.9828378 3.79268059 -1.28654105 2.2083933 0 0 Z " fill="#343434" transform="translate(176,107)"/>
<path d="M0 0 C1.32 0 2.64 0 4 0 C3.67 2.64 3.34 5.28 3 8 C1.68 8 0.36 8 -1 8 C-0.67 5.36 -0.34 2.72 0 0 Z " fill="#3C3C3C" transform="translate(141,115)"/>
<path d="M0 0 C2.66735273 2.48952921 4.55746343 4.63408134 6 8 C4.68 8.33 3.36 8.66 2 9 C0.4375 6.1875 0.4375 6.1875 -1 3 C-0.67 2.01 -0.34 1.02 0 0 Z " fill="#474747" transform="translate(101,109)"/>
<path d="M0 0 C-0.33 2.64 -0.66 5.28 -1 8 C-1.99 7.34 -2.98 6.68 -4 6 C-4.1875 3.375 -4.1875 3.375 -4 1 C-2 0 -2 0 0 0 Z " fill="#DEDEDE" transform="translate(85,109)"/>
<path d="M0 0 C0.66 0.33 1.32 0.66 2 1 C1.34 2.65 0.68 4.3 0 6 C-1.32 6 -2.64 6 -4 6 C-2.84826645 3.53199953 -1.95216435 1.95216435 0 0 Z " fill="#3E3E3E" transform="translate(179,102)"/>
<path d="M0 0 C2.475 0.495 2.475 0.495 5 1 C4.67 2.65 4.34 4.3 4 6 C3.34 6 2.68 6 2 6 C1.34 4.02 0.68 2.04 0 0 Z " fill="#4C4C4C" transform="translate(126,101)"/>
</svg>
