<?xml version="1.0" encoding="UTF-8"?>
<svg version="1.1" xmlns="http://www.w3.org/2000/svg" width="250" height="115">
<path d="M0 0 C1.20446777 0.01047363 2.40893555 0.02094727 3.64990234 0.03173828 C5.60283203 0.04140625 5.60283203 0.04140625 7.59521484 0.05126953 C8.9754258 0.06798149 10.35563413 0.08491139 11.73583984 0.10205078 C13.12385436 0.11208072 14.51187574 0.12120655 15.89990234 0.12939453 C19.3037201 0.15303215 22.70719491 0.18598211 26.11083984 0.22705078 C27.11083984 2.22705078 27.11083984 2.22705078 25.11083984 10.22705078 C18.84083984 10.22705078 12.57083984 10.22705078 6.11083984 10.22705078 C5.78083984 11.54705078 5.45083984 12.86705078 5.11083984 14.22705078 C13.52583984 13.73205078 13.52583984 13.73205078 22.11083984 13.22705078 C21.23583984 22.10205078 21.23583984 22.10205078 20.11083984 23.22705078 C17.24816417 23.30030246 14.41012085 23.31943283 11.54833984 23.28955078 C10.74203125 23.28503906 9.93572266 23.28052734 9.10498047 23.27587891 C7.10690228 23.26405596 5.10886201 23.24611992 3.11083984 23.22705078 C3.11083984 24.21705078 3.11083984 25.20705078 3.11083984 26.22705078 C9.38083984 26.22705078 15.65083984 26.22705078 22.11083984 26.22705078 C21.45083984 29.52705078 20.79083984 32.82705078 20.11083984 36.22705078 C9.55083984 36.22705078 -1.00916016 36.22705078 -11.88916016 36.22705078 C-11.10541016 32.28767578 -10.32166016 28.34830078 -9.51416016 24.28955078 C-9.27133301 23.06631104 -9.02850586 21.84307129 -8.77832031 20.58276367 C-8.15587509 17.46268735 -7.52309641 14.34481058 -6.88916016 11.22705078 C-6.71094727 10.31810059 -6.53273438 9.40915039 -6.34912109 8.47265625 C-4.689654 0.36854641 -4.689654 0.36854641 0 0 Z " fill="#006BB1" transform="translate(83.88916015625,25.77294921875)"/>
<path d="M0 0 C3.83217406 2.03507316 6.26457145 4.23014553 7.76171875 8.28125 C8.97839742 15.95042676 7.0684059 21.91188638 2.76171875 28.28125 C-1.24844267 32.88632548 -6.5992761 35.79996222 -12.66015625 36.6015625 C-18.72566738 36.87726755 -22.38264539 35.94775054 -27.23828125 32.28125 C-31.19786039 26.8843529 -30.88732797 21.73663363 -30.23828125 15.28125 C-27.73815244 8.40589578 -23.46911391 3.99323541 -17.23828125 0.28125 C-11.86125319 -1.51109269 -5.43373238 -1.74486345 0 0 Z M-12.86328125 9.34375 C-16.0512123 11.94443059 -17.97173843 14.11558963 -18.48828125 18.3125 C-18.59862397 20.74770578 -18.59862397 20.74770578 -18.23828125 24.28125 C-16.36403409 26.561971 -16.36403409 26.561971 -13.36328125 26.65625 C-10.20425912 26.53326713 -10.20425912 26.53326713 -7.98828125 24.65625 C-5.187211 20.85479752 -4.20997703 17.75306924 -4.30078125 13.03125 C-4.98786336 10.12532229 -4.98786336 10.12532229 -7.48828125 8.71875 C-10.27420553 8.03296896 -10.27420553 8.03296896 -12.86328125 9.34375 Z " fill="#006BB1" transform="translate(211.23828125,26.71875)"/>
<path d="M0 0 C3.96 0 7.92 0 12 0 C12.33 1.98 12.66 3.96 13 6 C14.98 5.34 16.96 4.68 19 4 C19.86658615 5.26239712 20.71792059 6.53527501 21.5625 7.8125 C22.03816406 8.52019531 22.51382813 9.22789063 23.00390625 9.95703125 C24 12 24 12 23 15 C21.4375 16.6875 21.4375 16.6875 20 18 C21.32 18.66 22.64 19.32 24 20 C23.46884894 24.51478398 21.63379708 27.34666857 19 31 C14.25 29.125 14.25 29.125 12 28 C12 30.31 12 32.62 12 35 C8.04 35 4.08 35 0 35 C0 33.02 0 31.04 0 29 C-0.598125 29.33 -1.19625 29.66 -1.8125 30 C-4 31 -4 31 -7 31 C-7.83848804 29.54462432 -8.67063934 28.08559627 -9.5 26.625 C-9.9640625 25.81289063 -10.428125 25.00078125 -10.90625 24.1640625 C-12 22 -12 22 -12 20 C-10.35 19.34 -8.7 18.68 -7 18 C-8.65 16.68 -10.3 15.36 -12 14 C-10.33333333 10.66666667 -8.66666667 7.33333333 -7 4 C-2.25 4.875 -2.25 4.875 0 6 C0 4.02 0 2.04 0 0 Z M7 6 C5.71387324 7.05978933 5.71387324 7.05978933 5.90234375 9.50390625 C5.91394531 10.51324219 5.92554687 11.52257812 5.9375 12.5625 C5.94652344 13.57441406 5.95554687 14.58632813 5.96484375 15.62890625 C5.97644531 16.41136719 5.98804687 17.19382812 6 18 C6.33 18 6.66 18 7 18 C7.33 14.04 7.66 10.08 8 6 C7.67 6 7.34 6 7 6 Z M3 8 C4 12 4 12 4 12 Z " fill="#006BB1" transform="translate(45,27)"/>
<path d="M0 0 C2.49710925 1.75883347 3.84568993 2.85492908 5.24609375 5.58203125 C5.48624967 8.30205809 5.38314003 10.84110568 5.24609375 13.58203125 C1.28609375 13.58203125 -2.67390625 13.58203125 -6.75390625 13.58203125 C-7.08390625 12.26203125 -7.41390625 10.94203125 -7.75390625 9.58203125 C-10.52534538 8.45292642 -11.55415461 8.5011794 -14.37890625 9.64453125 C-17.42567883 12.13005625 -18.01458255 13.73754802 -18.75390625 17.58203125 C-18.45499391 21.34945904 -18.45499391 21.34945904 -17.75390625 24.58203125 C-14.879775 24.91600912 -14.879775 24.91600912 -11.75390625 24.58203125 C-11.32078125 23.92203125 -10.88765625 23.26203125 -10.44140625 22.58203125 C-8.75390625 20.58203125 -8.75390625 20.58203125 -5.8359375 20.19140625 C-4.75699219 20.2378125 -3.67804688 20.28421875 -2.56640625 20.33203125 C-1.47972656 20.368125 -0.39304688 20.40421875 0.7265625 20.44140625 C1.97373047 20.51101562 1.97373047 20.51101562 3.24609375 20.58203125 C2.47393648 25.53390937 0.7360337 27.93345767 -2.75390625 31.58203125 C-8.69562071 35.78470733 -14.62784328 36.23090853 -21.75390625 35.58203125 C-25.48503891 33.95979966 -28.08049413 31.63735939 -30.75390625 28.58203125 C-32.69923285 22.74605144 -32.21382237 17.20581046 -29.859375 11.6015625 C-27.06771497 6.50160408 -23.47818536 2.66393187 -18.56640625 -0.41796875 C-12.49572945 -2.01027742 -5.73552364 -2.95318451 0 0 Z " fill="#006BB1" transform="translate(138.75390625,27.41796875)"/>
<path d="M0 0 C2.96916527 1.86214315 4.99542845 3.87657771 5.95703125 7.2421875 C6.03476585 9.57422562 6.04670853 11.91057809 5.95703125 14.2421875 C1.99703125 14.2421875 -1.96296875 14.2421875 -6.04296875 14.2421875 C-6.37296875 12.9221875 -6.70296875 11.6021875 -7.04296875 10.2421875 C-8.78968463 9.44861949 -8.78968463 9.44861949 -11.04296875 9.2421875 C-14.1143602 10.55849812 -15.66329743 11.59132238 -17.35546875 14.4921875 C-18.19150524 17.83633346 -18.24106345 20.80854598 -18.04296875 24.2421875 C-16.93647318 25.55753538 -16.93647318 25.55753538 -14.16796875 25.5546875 C-13.13671875 25.4515625 -12.10546875 25.3484375 -11.04296875 25.2421875 C-10.61113281 24.59121094 -10.17929688 23.94023438 -9.734375 23.26953125 C-8.04296875 21.2421875 -8.04296875 21.2421875 -5.125 20.6328125 C-3.50658203 20.56320313 -3.50658203 20.56320313 -1.85546875 20.4921875 C-0.22544922 20.40710937 -0.22544922 20.40710937 1.4375 20.3203125 C2.26894531 20.29453125 3.10039062 20.26875 3.95703125 20.2421875 C3.49934291 25.16233714 2.55971363 27.81524572 -1.04296875 31.2421875 C-7.38847816 35.4647934 -13.41885265 37.62373874 -21.04296875 36.2421875 C-24.69844427 34.95040292 -27.31244233 33.01984466 -29.98046875 30.1796875 C-32.11479575 24.27890109 -32.08009633 17.77683839 -29.54296875 11.9921875 C-23.58240958 1.68317768 -11.68941193 -4.33603425 0 0 Z " fill="#006BB1" transform="translate(175.04296875,26.7578125)"/>
<path d="M0 0 C62.04 0 124.08 0 188 0 C188 1.32 188 2.64 188 4 C125.96 4 63.92 4 0 4 C0 2.68 0 1.36 0 0 Z " fill="#DD9B27" transform="translate(31,67)"/>
<path d="M0 0 C0.495 1.98 0.495 1.98 1 4 C2.2065625 3.7215625 2.2065625 3.7215625 3.4375 3.4375 C4.7059375 3.2209375 4.7059375 3.2209375 6 3 C7 4 7 4 7.09765625 5.84765625 C7.06510417 7.8984375 7.03255208 9.94921875 7 12 C1.375 12.25 1.375 12.25 -2 10 C-2 10.66 -2 11.32 -2 12 C-6 12 -6 12 -9.0625 11.4375 C-12.0517137 10.76583259 -12.0517137 10.76583259 -15 12 C-15 10.02 -15 8.04 -15 6 C-15.66 7.98 -16.32 9.96 -17 12 C-23.0546875 12.1953125 -23.0546875 12.1953125 -25 12 C-25.66 11.34 -26.32 10.68 -27 10 C-28.485 12.475 -28.485 12.475 -30 15 C-31.65 14.67 -33.3 14.34 -35 14 C-35.36180905 6.64321608 -35.36180905 6.64321608 -33.875 4 C-31.19699462 2.57173046 -28.98706856 2.80933605 -26 3 C-25.34 3 -24.68 3 -24 3 C-20.19230769 3.80769231 -20.19230769 3.80769231 -19 5 C-18.67 4.34 -18.34 3.68 -18 3 C-12.25 2.875 -12.25 2.875 -10 4 C-8.32345271 3.72057545 -6.65391846 3.39171753 -5 3 C-4.67 4.32 -4.34 5.64 -4 7 C-6.475 6.505 -6.475 6.505 -9 6 C-9 6.99 -9 7.98 -9 9 C-7.35 8.67 -5.7 8.34 -4 8 C-3.71125 6.865625 -3.4225 5.73125 -3.125 4.5625 C-2.75375 3.386875 -2.3825 2.21125 -2 1 C-1.34 0.67 -0.68 0.34 0 0 Z M-31 5 C-31.66 6.32 -32.32 7.64 -33 9 C-31.68 8.67 -30.36 8.34 -29 8 C-29.33 7.01 -29.66 6.02 -30 5 C-30.33 5 -30.66 5 -31 5 Z M-27 5 C-26 7 -26 7 -26 7 Z M-1 5 C-0.67 5.99 -0.34 6.98 0 8 C0 7.01 0 6.02 0 5 C-0.33 5 -0.66 5 -1 5 Z M-25 8 C-24.34 8.66 -23.68 9.32 -23 10 C-22.34 9.34 -21.68 8.68 -21 8 C-22.32 8 -23.64 8 -25 8 Z M-20 8 C-19 10 -19 10 -19 10 Z M2 8 C2.33 8.66 2.66 9.32 3 10 C3.33 9.34 3.66 8.68 4 8 C3.34 8 2.68 8 2 8 Z " fill="#006BB0" transform="translate(111,75)"/>
<path d="M0 0 C0 1.32 0 2.64 0 4 C0.495 4.495 0.495 4.495 1 5 C1.33 4.34 1.66 3.68 2 3 C4.31 3.33 6.62 3.66 9 4 C8.67 6.31 8.34 8.62 8 11 C7.01 11.33 6.02 11.66 5 12 C5 10.02 5 8.04 5 6 C4.34 7.98 3.68 9.96 3 12 C2.4225 11.814375 1.845 11.62875 1.25 11.4375 C-0.99032525 10.83231516 -0.99032525 10.83231516 -3.125 11.5625 C-3.74375 11.706875 -4.3625 11.85125 -5 12 C-5.66 11.34 -6.32 10.68 -7 10 C-7.61875 10.33 -8.2375 10.66 -8.875 11 C-11.70359783 12.33110486 -12.83279944 12.03201713 -15.9375 11.4375 C-19.03260932 10.76241778 -19.03260932 10.76241778 -22 12 C-22 10.02 -22 8.04 -22 6 C-22.66 7.98 -23.32 9.96 -24 12 C-27.27275026 12 -29.846632 11.70074844 -33 11 C-33.6875 9.25 -33.6875 9.25 -34 7 C-32.5625 4.75 -32.5625 4.75 -31 3 C-27.125 3.875 -27.125 3.875 -26 5 C-25.67 4.34 -25.34 3.68 -25 3 C-19.25 2.875 -19.25 2.875 -17 4 C-15.32345271 3.72057545 -13.65391846 3.39171753 -12 3 C-11.67 4.32 -11.34 5.64 -11 7 C-13.475 6.505 -13.475 6.505 -16 6 C-16 6.99 -16 7.98 -16 9 C-14.35 8.67 -12.7 8.34 -11 8 C-10.34 5.69 -9.68 3.38 -9 1 C-8.34 1 -7.68 1 -7 1 C-6.67 1.99 -6.34 2.98 -6 4 C-5.38125 3.34 -4.7625 2.68 -4.125 2 C-2 0 -2 0 0 0 Z M-4 5 C-4.33 6.32 -4.66 7.64 -5 9 C-3.68 8.67 -2.36 8.34 -1 8 C-1.33 7.01 -1.66 6.02 -2 5 C-2.66 5 -3.32 5 -4 5 Z M-32 8 C-31.34 8.66 -30.68 9.32 -30 10 C-29.34 9.34 -28.68 8.68 -28 8 C-29.32 8 -30.64 8 -32 8 Z M0 8 C1 10 1 10 1 10 Z " fill="#006BB1" transform="translate(195,75)"/>
<path d="M0 0 C0.33 0.99 0.66 1.98 1 3 C2.04800781 2.98259766 2.04800781 2.98259766 3.1171875 2.96484375 C4.02726562 2.95582031 4.93734375 2.94679688 5.875 2.9375 C7.23238281 2.92009766 7.23238281 2.92009766 8.6171875 2.90234375 C11 3 11 3 13 4 C14.67293936 3.69972883 16.33985384 3.36442233 18 3 C20.33333333 3 22.66666667 3 25 3 C24.67 3.99 24.34 4.98 24 6 C23.34 6 22.68 6 22 6 C21.67 7.98 21.34 9.96 21 12 C17 12 17 12 14.5 11.4375 C11.92790773 10.98738385 10.44792768 11.18402411 8 12 C8 10.02 8 8.04 8 6 C7.34 7.98 6.68 9.96 6 12 C5.34 12 4.68 12 4 12 C4 10.02 4 8.04 4 6 C3.34 7.98 2.68 9.96 2 12 C1.34 12 0.68 12 0 12 C0 10.35 0 8.7 0 7 C-1.98 7 -3.96 7 -6 7 C-6 7.66 -6 8.32 -6 9 C-4.35 9 -2.7 9 -1 9 C-1 9.99 -1 10.98 -1 12 C-3.64 12 -6.28 12 -9 12 C-8.34 8.37 -7.68 4.74 -7 1 C-3.535 0.505 -3.535 0.505 0 0 Z M-5 3 C-5 3.66 -5 4.32 -5 5 C-2.03 5.495 -2.03 5.495 1 6 C1 5.01 1 4.02 1 3 C-0.98 3 -2.96 3 -5 3 Z M14 8 C14.66 8.66 15.32 9.32 16 10 C16.33 9.34 16.66 8.68 17 8 C16.01 8 15.02 8 14 8 Z " fill="#006BB0" transform="translate(52,75)"/>
<path d="M0 0 C4.43535709 -0.17059066 7.09443383 0.04721691 11 2 C14.5 2.16666667 14.5 2.16666667 18 2 C19.32 2 20.64 2 22 2 C22.33 2.99 22.66 3.98 23 5 C23.66 4.01 24.32 3.02 25 2 C25.66 2 26.32 2 27 2 C25.94124926 5.40312738 24.99097846 8.01353231 23 11 C22.34 11 21.68 11 21 11 C20.34 10.34 19.68 9.68 19 9 C18.34 9.66 17.68 10.32 17 11 C14.875 10.625 14.875 10.625 13 10 C12.67 8.35 12.34 6.7 12 5 C11.34 5 10.68 5 10 5 C9.67 6.98 9.34 8.96 9 11 C8.34 11 7.68 11 7 11 C7 9.02 7 7.04 7 5 C6.34 5.66 5.68 6.32 5 7 C3.68 7 2.36 7 1 7 C0.67 8.32 0.34 9.64 0 11 C-0.66 11 -1.32 11 -2 11 C-1.85892253 9.54119891 -1.71197585 8.08296449 -1.5625 6.625 C-1.48128906 5.81289062 -1.40007812 5.00078125 -1.31640625 4.1640625 C-1 2 -1 2 0 0 Z M2 2 C1.67 2.66 1.34 3.32 1 4 C2.32 4 3.64 4 5 4 C5 3.34 5 2.68 5 2 C4.01 2 3.02 2 2 2 Z M14 7 C14.66 7.66 15.32 8.32 16 9 C16.33 8.34 16.66 7.68 17 7 C16.01 7 15.02 7 14 7 Z " fill="#006BB1" transform="translate(135,76)"/>
<path d="M0 0 C3 1 3 1 4 3 C4.66 2.01 5.32 1.02 6 0 C6.66 0 7.32 0 8 0 C6.43358249 4.30764815 4.31663844 8.06171464 2 12 C1.01 12 0.02 12 -1 12 C-1 9 -1 9 1 7 C0.67673447 3.40320934 0.67673447 3.40320934 0 0 Z " fill="#006BB1" transform="translate(122,78)"/>
</svg>
