<?xml version="1.0" standalone="no"?>
<!DOCTYPE svg PUBLIC "-//W3C//DTD SVG 20010904//EN"
 "http://www.w3.org/TR/2001/REC-SVG-20010904/DTD/svg10.dtd">
<svg version="1.0" xmlns="http://www.w3.org/2000/svg"
 width="764.000000pt" height="456.000000pt" viewBox="0 0 764.000000 456.000000"
 preserveAspectRatio="xMidYMid meet">

<g transform="translate(0.000000,456.000000) scale(0.100000,-0.100000)"
fill="#000000" stroke="none">
<path d="M5069 3333 c0 -141 -3 -182 -11 -166 -20 40 -89 58 -228 58 -110 0
-130 -3 -168 -23 -78 -42 -82 -55 -82 -312 0 -269 6 -292 86 -331 43 -21 63
-24 164 -24 125 0 172 11 214 50 l26 24 0 -34 0 -35 60 0 60 0 0 490 0 490
-60 0 -60 0 -1 -187z m-52 -206 c18 -10 37 -26 43 -36 15 -29 13 -380 -3 -410
-23 -47 -70 -65 -176 -65 -58 -1 -108 4 -127 12 -54 23 -59 44 -59 267 0 221
1 227 59 245 49 15 225 6 263 -13z"/>
<path d="M6750 3400 l0 -60 60 0 60 0 0 60 0 60 -60 0 -60 0 0 -60z"/>
<path d="M2630 2995 l0 -455 65 0 65 0 0 164 0 163 133 6 c211 9 311 52 337
145 5 21 10 93 10 162 -1 244 -40 269 -412 270 l-198 0 0 -455z m421 352 c20
-10 41 -29 48 -43 6 -14 11 -74 11 -137 0 -93 -3 -117 -19 -143 -30 -50 -94
-69 -226 -69 l-110 0 -3 208 -2 209 132 -4 c102 -3 142 -8 169 -21z"/>
<path d="M1078 3236 c-136 -24 -300 -89 -404 -160 l-39 -26 614 0 c539 0 612
2 601 15 -25 30 -236 125 -335 151 -124 32 -319 41 -437 20z"/>
<path d="M3584 3206 c-28 -13 -59 -34 -68 -47 -16 -23 -16 -23 -16 19 l0 42
-60 0 -60 0 0 -340 0 -340 60 0 60 0 0 249 c0 137 4 261 10 275 16 43 54 59
146 64 l84 5 0 48 0 49 -52 0 c-35 0 -71 -9 -104 -24z"/>
<path d="M3942 3215 c-102 -32 -125 -84 -130 -306 -8 -334 25 -374 318 -374
145 0 158 2 205 25 38 19 55 35 73 70 21 41 22 57 22 241 0 264 -17 313 -124
344 -64 19 -303 19 -364 0z m316 -76 c43 -16 52 -62 52 -264 0 -208 -6 -235
-61 -254 -46 -16 -213 -14 -254 3 -18 8 -39 24 -45 36 -7 14 -10 87 -8 230 4
249 3 248 110 259 71 8 171 3 206 -10z"/>
<path d="M6245 3219 c-24 -6 -55 -25 -77 -46 -52 -51 -61 -98 -56 -323 4 -222
12 -249 94 -290 46 -23 59 -25 194 -25 80 0 162 4 183 8 36 8 37 9 37 53 0 40
-2 45 -19 39 -40 -12 -188 -25 -236 -19 -127 14 -130 22 -130 275 l0 199 28
27 c27 27 30 28 140 28 61 0 134 -4 160 -8 l48 -8 -3 43 c-3 41 -4 43 -43 50
-57 10 -273 8 -320 -3z"/>
<path d="M7264 3206 c-28 -13 -59 -34 -68 -47 -16 -23 -16 -23 -16 19 l0 42
-60 0 -60 0 0 -340 0 -340 60 0 60 0 0 249 c0 137 4 261 10 275 16 43 54 59
146 64 l84 5 0 48 0 49 -52 0 c-35 0 -71 -9 -104 -24z"/>
<path d="M5372 2926 c3 -279 4 -296 24 -323 31 -42 85 -64 172 -70 111 -8 188
10 229 54 l33 34 0 -40 0 -41 60 0 60 0 0 340 0 340 -60 0 -60 0 0 -247 c0
-144 -5 -264 -11 -286 -15 -56 -54 -70 -182 -65 -94 3 -100 4 -123 31 l-24 28
0 270 0 269 -60 0 -61 0 3 -294z"/>
<path d="M6750 2880 l0 -340 60 0 60 0 0 340 0 340 -60 0 -60 0 0 -340z"/>
<path d="M1950 2193 l0 -787 46 44 c70 68 160 193 204 284 165 343 135 750
-77 1056 -55 78 -140 177 -159 184 -12 5 -14 -107 -14 -781z"/>
<path d="M370 2768 c-272 -421 -209 -975 153 -1329 109 -106 97 -184 97 656
l0 735 -105 0 -105 0 -40 -62z"/>
<path d="M870 2654 l2 -176 33 32 c19 18 32 37 29 41 -5 9 14 22 35 26 7 1 19
7 25 14 8 9 8 10 -3 4 -10 -5 -12 -4 -7 4 4 6 11 9 16 6 12 -7 60 16 54 26 -3
5 3 6 12 2 11 -4 15 -3 11 4 -5 7 1 9 15 5 13 -3 19 -1 15 5 -5 7 1 9 15 5 14
-3 19 -1 14 6 -5 8 2 10 25 5 18 -3 30 -2 27 3 -4 5 28 9 72 9 44 0 76 -4 72
-9 -3 -5 9 -6 27 -3 23 5 30 3 25 -5 -5 -7 0 -9 14 -6 14 4 20 2 16 -4 -4 -6
2 -8 16 -3 14 4 20 3 17 -2 -8 -13 41 -36 55 -27 7 4 8 2 4 -4 -4 -7 -2 -13 3
-13 6 -1 15 -2 20 -3 5 0 13 -5 18 -10 5 -5 2 -6 -7 -1 -8 4 2 -7 22 -24 21
-18 51 -48 69 -69 17 -20 28 -31 24 -23 -6 9 -4 12 4 7 6 -4 9 -11 6 -16 -3
-5 3 -23 14 -41 l20 -32 1 221 1 222 -416 0 -416 0 1 -176z m740 -119 c19 -19
32 -35 29 -35 -3 0 -20 16 -39 35 -19 19 -32 35 -29 35 3 0 20 -16 39 -35z"/>
<path d="M7050 1665 l0 -495 70 0 70 0 0 495 0 495 -70 0 -70 0 0 -495z"/>
<path d="M2770 1630 l0 -460 70 0 70 0 0 460 0 460 -70 0 -70 0 0 -460z"/>
<path d="M3930 1955 l0 -105 -75 0 -75 0 0 -35 0 -35 74 0 75 0 3 -252 c3
-292 7 -305 83 -339 37 -16 63 -19 157 -17 l113 3 3 37 3 36 -83 -1 c-93 -2
-131 13 -148 59 -6 14 -10 126 -10 250 l0 224 120 0 120 0 0 35 0 35 -120 0
-120 0 0 105 0 105 -60 0 -60 0 0 -105z"/>
<path d="M1675 1960 c-3 -5 -3 -15 1 -22 4 -7 3 -8 -4 -4 -7 4 -13 2 -13 -3
-1 -6 -2 -15 -3 -20 0 -5 -5 -13 -10 -18 -5 -5 -6 -2 -2 7 4 8 -1 4 -12 -10
-11 -13 -19 -27 -16 -31 4 -8 -21 -31 -27 -25 -2 3 -15 -4 -29 -16 -14 -11
-18 -16 -10 -12 9 4 12 3 7 -2 -5 -5 -13 -10 -18 -10 -5 -1 -14 -2 -20 -3 -5
0 -7 -6 -3 -13 4 -6 3 -8 -4 -4 -13 8 -63 -14 -56 -25 3 -5 -3 -6 -12 -2 -11
4 -15 3 -11 -4 5 -7 -1 -9 -15 -5 -13 3 -19 1 -15 -5 4 -6 -4 -8 -21 -6 -20 3
-23 2 -13 -6 11 -7 2 -8 -30 -5 -33 4 -40 3 -29 -5 11 -8 -1 -11 -50 -11 -49
0 -61 3 -50 11 11 8 4 9 -28 6 -28 -4 -40 -2 -35 6 4 6 -2 8 -15 5 -14 -4 -20
-2 -15 5 4 6 -2 8 -15 5 -14 -4 -20 -2 -15 5 4 6 0 8 -10 4 -10 -4 -17 -2 -17
4 0 6 -8 8 -17 5 -10 -4 -14 -4 -10 0 9 9 -30 37 -42 29 -5 -3 -13 0 -17 6 -5
8 -3 9 6 4 7 -4 -14 19 -46 51 l-59 59 -3 -344 c-1 -189 -1 -345 1 -347 12
-12 194 -55 275 -64 159 -19 360 10 504 72 l48 20 0 364 c0 336 -4 388 -25
354z m-755 -115 c19 -19 32 -35 29 -35 -3 0 -20 16 -39 35 -19 19 -32 35 -29
35 3 0 20 -16 39 -35z"/>
<path d="M3353 1860 c-53 -11 -99 -35 -112 -57 -9 -15 -10 -12 -11 15 l0 32
-65 0 -65 0 0 -335 0 -335 65 0 65 0 0 270 0 271 24 24 c30 30 74 38 177 33
74 -3 83 -6 105 -31 l24 -28 0 -270 0 -269 60 0 61 0 -3 294 c-3 279 -4 296
-24 323 -32 44 -82 63 -176 68 -46 2 -102 0 -125 -5z"/>
<path d="M4566 1860 c-79 -14 -136 -49 -163 -99 -22 -42 -23 -54 -23 -243 0
-222 6 -249 61 -291 63 -47 136 -60 294 -54 195 9 195 9 195 64 l0 46 -32 -7
c-204 -41 -323 -29 -377 40 -17 22 -21 41 -21 100 l0 74 232 0 231 0 -6 114
c-3 63 -13 130 -20 148 -18 43 -67 84 -115 98 -52 15 -197 21 -256 10z m187
-81 c65 -18 77 -38 77 -129 l0 -80 -165 0 -165 0 0 74 c0 63 4 79 23 101 35
41 146 58 230 34z"/>
<path d="M5261 1860 c-71 -15 -114 -43 -141 -91 -25 -43 -25 -48 -25 -259 0
-198 2 -218 21 -254 32 -61 77 -80 207 -84 120 -5 190 8 225 40 l22 21 0 -92
c0 -156 -31 -185 -195 -186 -55 0 -131 4 -168 8 l-68 8 3 -43 3 -43 65 -8 c79
-10 281 -2 331 13 52 15 100 50 123 90 20 34 21 52 24 453 l3 417 -56 0 c-53
0 -55 -1 -55 -27 l0 -26 -22 21 c-13 11 -36 26 -53 32 -40 15 -189 21 -244 10z
m259 -93 c44 -21 50 -48 50 -250 0 -217 -6 -239 -68 -258 -22 -6 -82 -9 -140
-7 -153 5 -147 -5 -147 263 0 247 1 249 91 265 59 10 179 3 214 -13z"/>
<path d="M6130 1861 c-45 -14 -88 -40 -108 -66 -27 -34 -32 -32 -32 15 l0 40
-55 0 -55 0 0 -335 0 -335 60 0 60 0 0 250 c0 279 4 299 61 319 18 6 65 11
105 11 l74 0 0 55 0 55 -42 -1 c-24 0 -54 -4 -68 -8z"/>
<path d="M6423 1863 l-73 -4 0 -42 0 -42 175 0 c168 0 175 -1 197 -23 19 -18
23 -36 26 -97 l4 -75 -113 0 c-134 0 -244 -15 -276 -35 -48 -32 -58 -62 -58
-170 0 -83 4 -106 21 -135 29 -50 85 -69 209 -69 113 -1 158 9 192 41 l23 21
0 -26 c0 -26 2 -27 60 -27 l60 0 0 263 c0 144 -5 280 -10 301 -12 55 -40 89
-86 104 -41 14 -228 22 -351 15z m327 -462 c0 -128 -8 -139 -110 -153 -87 -13
-160 -5 -192 22 -20 15 -23 29 -26 98 -4 76 -2 82 22 106 25 25 28 26 166 26
l140 0 0 -99z"/>
</g>
</svg>
