<?xml version="1.0" encoding="UTF-8"?>
<svg version="1.1" xmlns="http://www.w3.org/2000/svg" width="768" height="264">
<path d="M0 0 C0.70253906 -0.01289063 1.40507813 -0.02578125 2.12890625 -0.0390625 C5.68785624 0.98466254 8.23523614 2.69051846 10.4375 5.625 C11.30799811 9.11705948 11.19656504 12.5241242 11.11865234 16.10668945 C11.11996658 17.68786308 11.11996658 17.68786308 11.12130737 19.30097961 C11.11713139 22.78083724 11.07047509 26.2587609 11.0234375 29.73828125 C11.0122455 32.15251106 11.00370534 34.5667545 10.99771118 36.98100281 C10.97481373 43.33205864 10.91588062 49.68228979 10.8494873 56.03302002 C10.78808571 62.5147384 10.76070058 68.99659018 10.73046875 75.47851562 C10.66613993 88.19436205 10.56490279 100.90963714 10.4375 113.625 C15.74358999 111.93560709 20.78681116 110.00377555 24.4375 105.625 C27.06870961 98.62616269 26.05260707 90.4758628 25.8125 83.14453125 C25.79357486 80.92596704 25.781719 78.70733228 25.77661133 76.48869324 C25.74821486 70.66085139 25.64137281 64.83731785 25.51263428 59.01092529 C25.31637754 49.67685298 25.22501502 40.34186665 25.16119385 31.00607872 C25.12543895 27.74704134 25.0474252 24.49099657 24.96435547 21.23286438 C24.93723234 19.23704655 24.91128959 17.24121221 24.88671875 15.24536133 C24.8525032 14.34083221 24.81828766 13.4363031 24.78303528 12.50436401 C24.75742989 6.50320458 24.75742989 6.50320458 26.73472595 3.94983482 C30.43379642 0.77243887 33.19839493 -0.40014112 37.9609375 -0.10546875 C43.43406681 1.50884542 47.3576006 5.81010084 51.4375 9.625 C52.42991818 10.53632437 53.42341871 11.4464714 54.41796875 12.35546875 C55.93576833 13.74535005 57.45098556 15.13753313 58.95849609 16.53857422 C62.16828456 19.51236405 65.46314726 22.3241044 68.875 25.0625 C73.05987799 28.42846662 77.02060464 31.95679641 80.9375 35.625 C85.73124068 40.11365878 90.66645717 44.33411311 95.78515625 48.453125 C107.75046758 58.25093516 107.75046758 58.25093516 109.4375 61.625 C109.54159488 64.07992063 109.58529839 66.50687336 109.58467102 68.96234131 C109.58834771 69.72752461 109.5920244 70.49270791 109.5958125 71.28107858 C109.60687304 73.85894189 109.61069718 76.43676492 109.61450195 79.01464844 C109.62076482 80.85740284 109.62741147 82.70015598 109.63441467 84.54290771 C109.65184099 89.55955668 109.66238092 94.5761961 109.6706202 99.59286785 C109.67576699 102.72569381 109.68184287 105.85851678 109.68813133 108.99134064 C109.70718811 118.78906885 109.72141811 128.5867895 109.7297433 138.38453269 C109.73951798 149.70200235 109.76584153 161.01927654 109.80624419 172.33667731 C109.836385 181.0789913 109.85121025 189.82124919 109.85452431 198.56361413 C109.85687716 203.78746976 109.86586806 209.01111669 109.89098549 214.23491669 C109.91423553 219.14986951 109.91851178 224.06447577 109.90822411 228.9794693 C109.90772788 230.78302665 109.9140737 232.58660087 109.92778015 234.3901062 C109.9454551 236.85372852 109.93841528 239.31610119 109.92524719 241.77972412 C109.93621644 242.49238111 109.94718568 243.2050381 109.95848733 243.93929076 C109.89413129 248.93117483 108.5688211 251.77958093 105.4375 255.625 C102.5216709 257.08291455 99.93709938 256.78461934 96.68041992 256.81787109 C95.98590225 256.82604858 95.29138458 256.83422607 94.57582092 256.84265137 C92.27321231 256.86750069 89.97066534 256.88402027 87.66796875 256.8984375 C86.88169916 256.90376118 86.09542957 256.90908485 85.28533363 256.91456985 C81.12341919 256.94129975 76.96153471 256.9606749 72.79956055 256.97509766 C68.5018331 256.99174332 64.20487284 257.03651986 59.90743542 257.0874691 C56.60198593 257.12113432 53.2967187 257.13267421 49.99111366 257.13832474 C48.40705821 257.14503956 46.82301486 257.16026785 45.23912621 257.18421555 C43.01970393 257.21585686 40.80235251 257.21590691 38.58276367 257.20849609 C37.32082687 257.21658295 36.05889008 257.2246698 34.75871277 257.23300171 C30.53441457 256.45967561 29.08169252 254.93790137 26.4375 251.625 C25.37040958 248.42372874 25.28076797 246.05142377 25.23217773 242.68481445 C25.2022599 240.85325554 25.2022599 240.85325554 25.17173767 238.98469543 C25.15502518 237.66587875 25.13831268 236.34706207 25.12109375 234.98828125 C25.1005174 233.62492756 25.07952075 232.26158015 25.05812073 230.89823914 C25.0029703 227.31278578 24.95353013 223.72727552 24.90527344 220.14172363 C24.85500701 216.4818008 24.79934781 212.82196043 24.74414062 209.16210938 C24.63664506 201.98314279 24.5351811 194.80410755 24.4375 187.625 C19.17603687 189.15222602 14.60361734 191.02885445 11.4375 195.625 C9.02973281 204.11333801 10.03453584 213.52973601 10.3125 222.25 C10.37603874 225.91503022 10.42127566 229.57952722 10.45315552 233.2449646 C10.47866355 235.52024538 10.52550708 237.7954137 10.59640503 240.06973267 C10.71621434 245.66310193 10.79713348 249.87436721 7.4375 254.625 C3.76861705 257.07092197 1.94431411 256.89435379 -2.43310547 256.93139648 C-3.12776917 256.93972 -3.82243286 256.94804352 -4.53814697 256.95661926 C-6.83538411 256.98072136 -9.13233732 256.98949152 -11.4296875 256.99609375 C-13.02768031 257.00506007 -14.62567226 257.01418192 -16.22366333 257.02345276 C-19.57442261 257.03994595 -22.92508193 257.04764343 -26.27587891 257.05053711 C-30.56578073 257.05592082 -34.85474085 257.09359774 -39.14437675 257.13928127 C-42.44556086 257.16905122 -45.74651819 257.17626064 -49.04782486 257.17726326 C-50.62907346 257.18146589 -52.21032272 257.19390208 -53.79143906 257.21478081 C-56.00602827 257.24169606 -58.21843519 257.23687199 -60.43310547 257.22436523 C-61.69202606 257.22943588 -62.95094666 257.23450653 -64.24801636 257.23973083 C-68.58534471 256.43529498 -69.8412591 255.06239208 -72.5625 251.625 C-73.07047964 248.81946563 -73.26917948 246.61117949 -73.24452209 243.8086853 C-73.25726101 243.02813235 -73.26999992 242.2475794 -73.28312486 241.44337332 C-73.3194249 238.8308912 -73.32004619 236.2196498 -73.32055664 233.60693359 C-73.33879459 231.73242202 -73.35905275 229.85792917 -73.38117981 227.98345947 C-73.43390896 222.89222346 -73.45384629 217.80137186 -73.46464849 212.7098918 C-73.47264844 209.52654681 -73.48726482 206.3433017 -73.50414848 203.15999222 C-73.56239883 192.04687925 -73.59257646 180.93406005 -73.59887695 169.82080078 C-73.60554132 159.47450141 -73.67581934 149.1299416 -73.77542979 138.78415811 C-73.85801393 129.8930242 -73.89415822 121.00246404 -73.89491361 112.11094916 C-73.89624261 106.80419806 -73.91643416 101.4991772 -73.98408699 96.1928215 C-74.04631164 91.19648302 -74.05052642 86.203334 -74.01125908 81.20679474 C-74.00659882 79.3794788 -74.02221395 77.5519739 -74.06025696 75.72504807 C-74.34272265 61.26250385 -74.34272265 61.26250385 -69.98568535 56.17787552 C-67.09508656 53.31000947 -63.89430591 50.96277024 -60.5625 48.625 C-58.74119882 47.15668387 -56.92716923 45.67923602 -55.125 44.1875 C-54.22910156 43.46691406 -53.33320312 42.74632812 -52.41015625 42.00390625 C-48.60732287 38.82705368 -45.0118687 35.45096201 -41.39648438 32.06445312 C-38.07112723 28.96734535 -34.67539193 26.02885624 -31.125 23.1875 C-26.03814652 19.11354853 -21.29665871 14.73692323 -16.59594727 10.22875977 C-5.70297615 -0.10502719 -5.70297615 -0.10502719 0 0 Z M-13.5546875 34.37109375 C-14.17214844 34.95689209 -14.78960937 35.54269043 -15.42578125 36.14624023 C-16.08964844 36.77860596 -16.75351562 37.41097168 -17.4375 38.0625 C-22.86073831 43.18681458 -28.37822253 48.01790013 -34.20703125 52.67578125 C-36.94228569 54.93928368 -39.40432583 57.37368546 -41.8671875 59.92578125 C-44.40969421 62.47414627 -47.13318955 64.80062148 -49.86328125 67.14453125 C-53.12194193 69.83705856 -53.12194193 69.83705856 -53.80300903 74.01651001 C-53.80883175 75.50139917 -53.8034362 76.98635575 -53.78955078 78.47119141 C-53.78984283 79.28102982 -53.79013489 80.09086823 -53.79043579 80.92524719 C-53.7890395 83.60912696 -53.77346435 86.29273107 -53.7578125 88.9765625 C-53.75408343 90.83458301 -53.75123596 92.69260548 -53.74923706 94.55062866 C-53.74159224 99.44646614 -53.72193649 104.34218539 -53.6998291 109.23797607 C-53.67938893 114.23155111 -53.67023926 119.22514521 -53.66015625 124.21875 C-53.63869138 134.02088534 -53.60454522 143.82293285 -53.5625 153.625 C-49.7062839 152.13049155 -46.33305417 150.38599032 -42.80859375 148.2109375 C-41.1544043 147.19193359 -41.1544043 147.19193359 -39.46679688 146.15234375 C-38.89566162 145.79769043 -38.32452637 145.44303711 -37.73608398 145.07763672 C-36.0319642 144.01984109 -34.3236347 142.96883704 -32.61523438 141.91796875 C-20.47838211 135.07466177 -20.47838211 135.07466177 -9.5625 126.625 C-9.46723194 123.67253646 -9.43697548 120.74351579 -9.44897461 117.79077148 C-9.44882858 116.86403625 -9.44868256 115.93730103 -9.4485321 114.98248291 C-9.44923162 111.90366313 -9.45702579 108.82490303 -9.46484375 105.74609375 C-9.46670779 103.61759982 -9.46813176 101.48910547 -9.46913147 99.36061096 C-9.47295772 93.7463768 -9.48278892 88.13216832 -9.49383545 82.51794434 C-9.50404727 76.79386747 -9.5086286 71.06978647 -9.51367188 65.34570312 C-9.52441109 54.10545744 -9.5414888 42.86523085 -9.5625 31.625 C-11.33141116 31.625 -12.32826502 33.19772217 -13.5546875 34.37109375 Z M45.4375 31.625 C45.46716354 32.66323914 45.49682709 33.70147827 45.52738953 34.7711792 C45.7955415 44.59758076 45.96186026 54.42125053 46.03077984 64.25112534 C46.06942417 69.30462295 46.14278902 74.35244334 46.2980957 79.40380859 C47.26428731 111.98917439 47.26428731 111.98917439 42.63986206 119.57305908 C38.37741706 123.8471634 33.63892085 125.95466477 27.94151306 127.7237854 C23.59570879 129.28787559 19.92983651 131.92502649 16.125 134.5 C15.25319092 135.05026855 14.38138184 135.60053711 13.4831543 136.16748047 C6.52513206 140.56415319 -0.41785845 144.98431052 -7.359375 149.40698242 C-12.56658985 152.72328618 -17.78069227 156.02819014 -23.00415039 159.31884766 C-30.06349307 163.76628443 -37.10905105 168.23435621 -44.125 172.75 C-45.20648315 173.44258911 -45.20648315 173.44258911 -46.30981445 174.14916992 C-48.92718462 175.8398401 -51.35224007 177.41474007 -53.5625 179.625 C-53.85546143 182.1333592 -53.85546143 182.1333592 -53.78955078 185.08447266 C-53.78939972 186.22550446 -53.78924866 187.36653625 -53.78909302 188.54214478 C-53.77877045 189.77862762 -53.76844788 191.01511047 -53.7578125 192.2890625 C-53.7549826 193.55140717 -53.75215271 194.81375183 -53.74923706 196.11434937 C-53.73992131 199.47146944 -53.72194835 202.82831912 -53.6998291 206.18536377 C-53.67937551 209.61053079 -53.67012688 213.03572656 -53.66015625 216.4609375 C-53.63976333 223.18244439 -53.60061828 229.90347644 -53.5625 236.625 C-39.0425 236.625 -24.5225 236.625 -9.5625 236.625 C-9.76875 233.04527344 -9.975 229.46554688 -10.1875 225.77734375 C-11.73372889 188.72636479 -11.73372889 188.72636479 -6.54638672 180.93164062 C-1.31497168 175.65515308 5.13209046 173.26465583 12.06689453 170.90380859 C17.68397608 168.77268639 22.45287071 165.43116956 27.4375 162.125 C29.43373289 160.86899273 31.43375091 159.61898134 33.4375 158.375 C34.4275 157.75625 35.4175 157.1375 36.4375 156.5 C45.4375 150.875 45.4375 150.875 48.44287109 148.99682617 C50.42518733 147.75775731 52.4072869 146.51834174 54.38916016 145.27856445 C59.08938096 142.33889281 63.79179266 139.40292141 68.50189209 136.47909546 C70.18798381 135.43222043 71.87329434 134.38408754 73.55859375 133.3359375 C75.68743423 132.01212073 77.81759202 130.69041939 79.94921875 129.37109375 C80.90183594 128.778125 81.85445312 128.18515625 82.8359375 127.57421875 C83.67817871 127.05174561 84.52041992 126.52927246 85.38818359 125.9909668 C87.53950579 124.65379222 87.53950579 124.65379222 89.4375 122.625 C89.77803231 120.37204974 89.77803231 120.37204974 89.77563477 117.7355957 C89.79807755 116.71726151 89.82052032 115.69892731 89.84364319 114.6497345 C89.85528 113.54457993 89.86691681 112.43942535 89.87890625 111.30078125 C89.89267807 110.16601852 89.90644989 109.0312558 89.92063904 107.86210632 C89.94395094 105.45540264 89.96119594 103.04863383 89.97290039 100.6418457 C89.99976953 96.96900402 90.07463371 93.29906609 90.15039062 89.62695312 C90.16705242 87.2890819 90.1808173 84.95118787 90.19140625 82.61328125 C90.23618858 80.97073112 90.23618858 80.97073112 90.28187561 79.29499817 C90.25036133 73.79633166 89.98883647 70.50035103 86.01831055 66.4921875 C84.84731278 65.50889109 83.65620037 64.54851339 82.4375 63.625 C81.42429688 62.70267578 81.42429688 62.70267578 80.390625 61.76171875 C79.82859375 61.28347656 79.2665625 60.80523437 78.6875 60.3125 C75.38883084 57.46771749 72.15443361 54.56200707 68.9375 51.625 C65.13722985 48.15973989 61.31058335 44.73332697 57.42578125 41.36328125 C54.32658871 38.65377107 51.27646758 35.88938407 48.22265625 33.12890625 C46.69907081 31.51761828 46.69907081 31.51761828 45.4375 31.625 Z M81.671875 152.0625 C80.78801117 152.60003906 80.78801117 152.60003906 79.8862915 153.1484375 C77.9854291 154.30522857 76.08647054 155.46510648 74.1875 156.625 C72.95324394 157.37649746 71.71887019 158.12780167 70.484375 158.87890625 C68.02580616 160.37535569 65.56971906 161.87576843 63.11523438 163.37890625 C60.63359069 164.89798301 58.14474924 166.40424403 55.65039062 167.90234375 C54.45962585 168.62238002 53.26887026 169.34243146 52.078125 170.0625 C51.01625977 170.70058594 49.95439453 171.33867187 48.86035156 171.99609375 C46.34582852 173.3977162 46.34582852 173.3977162 45.4375 175.625 C45.34621707 177.56544277 45.31997752 179.5090756 45.32397461 181.45166016 C45.32405014 182.67277496 45.32412567 183.89388977 45.32420349 185.15200806 C45.32931048 186.48935995 45.33452648 187.82671143 45.33984375 189.1640625 C45.3417086 190.52883859 45.34313219 191.89361534 45.34413147 193.25839233 C45.34795137 196.85215093 45.35777717 200.44586917 45.36883545 204.03961182 C45.37906089 207.70608972 45.38368627 211.37257434 45.38867188 215.0390625 C45.39886936 222.23441065 45.41844227 229.42964796 45.4375 236.625 C59.9575 236.625 74.4775 236.625 89.4375 236.625 C89.1075 207.585 88.7775 178.545 88.4375 148.625 C86.17752468 148.625 83.48009815 150.96048815 81.671875 152.0625 Z " fill="#FEC438" transform="translate(72.5625,-0.625)"/>
<path d="M0 0 C1.00498535 -0.01393799 2.0099707 -0.02787598 3.04541016 -0.04223633 C17.07797673 0.04599719 30.94759518 4.75970124 41.2578125 14.53515625 C50.21953157 24.35136481 50.9375 34.09312382 50.9375 47.375 C40.7075 47.375 30.4775 47.375 19.9375 47.375 C18.9475 43.745 17.9575 40.115 16.9375 36.375 C11.57097367 31.00847367 5.98431867 29.32623489 -1.5625 28.9375 C-6.70083602 29.12984413 -11.67848769 30.68989605 -16.0625 33.375 C-17.75128675 35.43091431 -18.09464194 36.76656249 -17.95483398 39.41308594 C-17.71372567 41.4080095 -17.39285007 43.39289958 -17.0625 45.375 C-16.23234375 45.58253906 -15.4021875 45.79007813 -14.546875 46.00390625 C-12.6067512 46.4889372 -10.66669736 46.97425797 -8.72753906 47.46313477 C-3.88784794 48.68028097 0.95912423 49.86197998 5.8125 51.0234375 C8.27084331 51.61975053 10.7291766 52.2161049 13.1875 52.8125 C14.35829102 53.08843994 15.52908203 53.36437988 16.73535156 53.64868164 C30.90937295 57.11235583 43.43492851 61.38087621 51.7109375 73.93359375 C56.58718328 83.63949698 56.4604009 96.48648454 53.4375 106.8125 C49.28988691 117.3621779 41.97974719 124.36054456 31.9375 129.375 C14.18525234 136.57245022 -7.03326172 136.98843391 -25.0625 130.375 C-28.9457629 128.6506801 -32.51753068 126.71382259 -36.0625 124.375 C-36.95001953 123.79105469 -36.95001953 123.79105469 -37.85546875 123.1953125 C-45.3479839 117.60963282 -49.97764901 108.29816222 -52.0625 99.375 C-52.39798188 95.34449238 -52.47325725 91.40176782 -52.0625 87.375 C-51.0625 86.375 -51.0625 86.375 -48.19506836 86.26147461 C-46.94346924 86.26671143 -45.69187012 86.27194824 -44.40234375 86.27734375 C-43.40564415 86.27946617 -43.40564415 86.27946617 -42.3888092 86.28163147 C-40.25916101 86.28724482 -38.12961661 86.29979946 -36 86.3125 C-34.55924631 86.31751329 -33.11849097 86.32207649 -31.67773438 86.32617188 C-28.13928898 86.33721855 -24.60090461 86.35449208 -21.0625 86.375 C-20.58864868 88.03656128 -20.58864868 88.03656128 -20.10522461 89.73168945 C-18.15649631 97.3477404 -18.15649631 97.3477404 -12.84765625 102.76953125 C-4.36014938 106.29664497 5.77365101 107.08734947 14.5625 104.125 C18.86308446 101.93063937 18.86308446 101.93063937 21.9375 98.375 C22.57382141 93.84709022 22.57382141 93.84709022 20.82421875 89.8046875 C12.29771404 83.34360939 -2.8055216 81.90211612 -13.01611328 79.60620117 C-25.94792113 76.63738432 -37.41979777 73.18346831 -45.5 62 C-51.13689601 52.69365646 -51.78514696 40.64741167 -49.3046875 30.17578125 C-45.68869367 19.74064945 -39.18303883 10.83101912 -29.3125 5.5625 C-27.58006561 4.79252916 -25.82913196 4.06289209 -24.0625 3.375 C-23.25039063 3.0553125 -22.43828125 2.735625 -21.6015625 2.40625 C-14.50775361 0.15953047 -7.37655822 0.06597289 0 0 Z " fill="#FEC438" transform="translate(648.0625,60.625)"/>
<path d="M0 0 C10.56 0 21.12 0 32 0 C32 15.18 32 30.36 32 46 C45.2 46 58.4 46 72 46 C72 30.82 72 15.64 72 0 C82.56 0 93.12 0 104 0 C104 41.91 104 83.82 104 127 C93.44 127 82.88 127 72 127 C72 109.51 72 92.02 72 74 C58.8 74 45.6 74 32 74 C32 91.49 32 108.98 32 127 C21.44 127 10.88 127 0 127 C0 85.09 0 43.18 0 0 Z " fill="#FEC438" transform="translate(220,64)"/>
<path d="M0 0 C11.22 0 22.44 0 34 0 C34.01458252 2.62388672 34.02916504 5.24777344 34.04418945 7.95117188 C34.09460659 16.63650829 34.16121431 25.32166676 34.23571491 34.00682831 C34.28037455 39.27081257 34.31964047 44.53472021 34.34643555 49.79882812 C34.37251236 54.88236687 34.41294593 59.96561011 34.46318626 65.04896545 C34.47982535 66.98491226 34.491358 68.92091014 34.49761391 70.85691833 C34.50728718 73.57614867 34.53538482 76.29462802 34.56762695 79.01367188 C34.56619186 79.80777466 34.56475677 80.60187744 34.5632782 81.42004395 C34.67081748 87.86514492 35.71240865 93.71240865 40.4375 98.4375 C46.11923377 101.90197181 52.52637063 101.46860052 59 101 C64.26986555 99.30611465 66.31451842 96.77418948 69 92 C70.28257952 88.15226143 70.17721415 84.50114237 70.20532227 80.48950195 C70.21522186 79.62099609 70.22512146 78.75249023 70.23532104 77.85766602 C70.26692944 74.98456557 70.29169092 72.11144858 70.31640625 69.23828125 C70.33697634 67.24716256 70.35797283 65.25604823 70.37937927 63.26493835 C70.43459421 58.02232392 70.48400608 52.77967012 70.53222656 47.5369873 C70.58244577 42.18803398 70.63812965 36.83913789 70.69335938 31.49023438 C70.80093391 20.99353664 70.90187557 10.49679034 71 0 C82.22 0 93.44 0 105 0 C105.04544278 10.54552134 105.08202555 21.09097612 105.10362434 31.63657379 C105.11399811 36.53493428 105.12803812 41.43322349 105.15087891 46.33154297 C105.17283849 51.07132148 105.18461659 55.81103203 105.18975449 60.55085754 C105.19340924 62.34626839 105.20054399 64.14167612 105.21146011 65.9370575 C105.4412654 105.35234281 105.4412654 105.35234281 92 119 C77.54907418 131.64769071 59.23106175 131.90170117 41 131 C28.92804906 129.90279085 19.09319845 125.16670743 10.81640625 116.3046875 C-0.678861 101.71929464 -0.44799475 83.26742012 -0.29296875 65.625 C-0.2873573 63.71973 -0.28309455 61.81445561 -0.28010559 59.90917969 C-0.26877858 54.95100458 -0.23941951 49.99310296 -0.20599365 45.03503418 C-0.17502732 39.95308123 -0.16154412 34.87108307 -0.14648438 29.7890625 C-0.11453522 19.85923694 -0.06187016 9.92968424 0 0 Z " fill="#FEC438" transform="translate(347,64)"/>
<path d="M0 0 C1.43352212 0.00015908 2.86704998 0.00585132 4.30053711 0.01586914 C5.43041298 0.01799156 5.43041298 0.01799156 6.58311462 0.02015686 C8.99807646 0.02577163 11.41294687 0.03832656 13.82788086 0.05102539 C15.46134307 0.05603849 17.09480672 0.06060173 18.72827148 0.06469727 C22.74067671 0.07574585 26.75301326 0.09302033 30.76538086 0.11352539 C39.34120081 23.9492103 47.73601608 47.84895207 56.1244812 71.75106812 C58.48320736 78.47016075 60.84951034 85.18650514 63.22392273 91.90007019 C64.63941069 95.90514454 66.04996771 99.9119434 67.4593811 103.91915894 C68.11765605 105.78722008 68.77809127 107.65452149 69.44076538 109.52102661 C70.35027014 112.08373834 71.25210106 114.64902519 72.15209961 117.21508789 C72.41986206 117.96351456 72.68762451 118.71194122 72.96350098 119.48304749 C74.16216501 122.92512779 74.76538086 125.42089093 74.76538086 129.11352539 C63.87538086 129.11352539 52.98538086 129.11352539 41.76538086 129.11352539 C38.59221753 121.18061707 35.6390403 113.15977181 32.76538086 105.11352539 C13.46038086 104.61852539 13.46038086 104.61852539 -6.23461914 104.11352539 C-7.22461914 107.74352539 -8.21461914 111.37352539 -9.23461914 115.11352539 C-10.88461914 119.73352539 -12.53461914 124.35352539 -14.23461914 129.11352539 C-25.45461914 129.11352539 -36.67461914 129.11352539 -48.23461914 129.11352539 C-47.4380366 124.33403012 -46.35630275 120.18443979 -44.74243164 115.67602539 C-44.48487091 114.94377747 -44.22731018 114.21152954 -43.96194458 113.45709229 C-43.09912242 111.00757933 -42.2293457 108.56059452 -41.35961914 106.11352539 C-40.7416301 104.36336788 -40.12413 102.61303766 -39.50708008 100.86254883 C-38.15655915 97.03326567 -36.80332106 93.20495619 -35.44848633 89.37719727 C-33.09907474 82.73548518 -30.76378761 76.08884178 -28.42993164 69.44165039 C-23.70810122 55.9954329 -18.97569143 42.55297014 -14.23461914 29.11352539 C-13.92641235 28.23960144 -13.61820557 27.36567749 -13.30065918 26.465271 C-11.57563671 21.57528625 -9.84507283 16.68731791 -8.10961914 11.80102539 C-7.71419922 10.68179688 -7.3187793 9.56256836 -6.91137695 8.40942383 C-6.56171875 7.42876953 -6.21206055 6.44811523 -5.85180664 5.43774414 C-5.55902832 4.61363037 -5.26625 3.7895166 -4.96459961 2.94042969 C-3.72895635 -0.15198454 -3.59821563 0.12628653 0 0 Z M12.76538086 49.11352539 C11.42447292 52.88170849 10.09396296 56.6534806 8.76538086 60.42602539 C8.38381836 61.49788086 8.00225586 62.56973633 7.60913086 63.67407227 C7.24819336 64.70209961 6.88725586 65.73012695 6.51538086 66.78930664 C6.01264648 68.21110229 6.01264648 68.21110229 5.49975586 69.66162109 C4.62192133 72.16591618 4.62192133 72.16591618 4.76538086 75.11352539 C10.70538086 75.11352539 16.64538086 75.11352539 22.76538086 75.11352539 C20.27095018 66.24443852 17.0603916 57.70827833 13.76538086 49.11352539 C13.43538086 49.11352539 13.10538086 49.11352539 12.76538086 49.11352539 Z " fill="#FEC438" transform="translate(513.234619140625,63.886474609375)"/>
<path d="M0 0 C10.56 0 21.12 0 32 0 C33 1 33 1 33.12304783 3.1064539 C33.12166514 4.50988371 33.12166514 4.50988371 33.12025452 5.94166565 C33.12162918 7.01163788 33.12300385 8.08161011 33.12442017 9.18400574 C33.11902725 10.95992851 33.11902725 10.95992851 33.11352539 12.77172852 C33.11367142 14.010578 33.11381744 15.24942749 33.1139679 16.52581787 C33.11338892 19.93269833 33.10835959 23.33951884 33.10139394 26.74638867 C33.09515993 30.30316826 33.09455656 33.85994858 33.09336853 37.41673279 C33.09025535 44.15636582 33.08204215 50.89598271 33.07201904 57.63560861 C33.06085748 65.30658398 33.05534735 72.97756011 33.05032361 80.64854157 C33.03985952 96.432372 33.02151421 112.21618018 33 128 C22.11 128 11.22 128 0 128 C0 85.76 0 43.52 0 0 Z " fill="#FEC438" transform="translate(718,64)"/>
<path d="M0 0 C3.196875 -0.04125 6.39375 -0.0825 9.6875 -0.125 C10.68612061 -0.14320801 11.68474121 -0.16141602 12.71362305 -0.18017578 C18.18923731 -0.21438113 22.25137515 -0.01805354 26.79296875 3.31640625 C28.43176077 5.60222942 28.36703133 7.14801288 28.3125 9.9375 C28.30863281 10.79214844 28.30476563 11.64679688 28.30078125 12.52734375 C27.98780141 15.10028192 27.29573378 16.77505475 26 19 C26.66 19.99 27.32 20.98 28 22 C28.37890625 24.15625 28.37890625 24.15625 28.5625 26.5 C28.78944318 29.27889602 29.10751754 31.32255263 30 34 C29 35 29 35 25.5 35.125 C22 35 22 35 21 34 C20.46620556 31.16505808 20.03490823 28.32007381 19.59765625 25.46875 C19.40042969 24.6540625 19.20320313 23.839375 19 23 C16.70370006 21.85185003 14.92301914 21.69230191 12.375 21.4375 C11.55773437 21.35371094 10.74046875 21.26992187 9.8984375 21.18359375 C8.95871094 21.09271484 8.95871094 21.09271484 8 21 C8.01160156 21.92683594 8.02320313 22.85367188 8.03515625 23.80859375 C8.04417969 25.00613281 8.05320312 26.20367187 8.0625 27.4375 C8.07410156 28.63246094 8.08570313 29.82742187 8.09765625 31.05859375 C8 34 8 34 7 35 C4.69 35 2.38 35 0 35 C0 23.45 0 11.9 0 0 Z M8 7 C8 9.64 8 12.28 8 15 C9.79093191 15.08086147 11.58289628 15.13912702 13.375 15.1875 C14.37273437 15.22230469 15.37046875 15.25710937 16.3984375 15.29296875 C17.68621094 15.14794922 17.68621094 15.14794922 19 15 C21.28600028 12.29667695 21.28600028 12.29667695 20.6875 9.875 C20.15421514 8.01406147 20.15421514 8.01406147 19 7 C17.14712498 6.92773498 15.29166122 6.9161878 13.4375 6.9375 C12.42558594 6.94652344 11.41367187 6.95554688 10.37109375 6.96484375 C9.58863281 6.97644531 8.80617188 6.98804688 8 7 Z " fill="#FEC438" transform="translate(418,220)"/>
<path d="M0 0 C8 0 8 0 10.00976562 1.8359375 C10.70102539 3.09277344 10.70102539 3.09277344 11.40625 4.375 C11.921875 5.27734375 12.4375 6.1796875 12.96875 7.109375 C13.4740625 8.06328125 13.979375 9.0171875 14.5 10 C15.03625 10.95390625 15.5725 11.9078125 16.125 12.890625 C17.44371463 15.24547256 18.7254994 17.62093221 20 20 C20.33 13.4 20.66 6.8 21 0 C23.31 0 25.62 0 28 0 C28 11.55 28 23.1 28 35 C20 35 20 35 17.99023438 33.25585938 C17.52939453 32.45986328 17.06855469 31.66386719 16.59375 30.84375 C16.078125 29.98652344 15.5625 29.12929687 15.03125 28.24609375 C14.5259375 27.33988281 14.020625 26.43367188 13.5 25.5 C12.96375 24.59378906 12.4275 23.68757813 11.875 22.75390625 C10.55695862 20.5179432 9.27490707 18.2608352 8 16 C7.67 22.27 7.34 28.54 7 35 C4.69 35 2.38 35 0 35 C0 23.45 0 11.9 0 0 Z " fill="#FEC438" transform="translate(301,220)"/>
<path d="M0 0 C7 0 7 0 8.77270508 1.51293945 C9.18415771 2.20605225 9.59561035 2.89916504 10.01953125 3.61328125 C10.48423828 4.36673828 10.94894531 5.12019531 11.42773438 5.89648438 C11.88470703 6.69376953 12.34167969 7.49105469 12.8125 8.3125 C13.28880859 9.09818359 13.76511719 9.88386719 14.25585938 10.69335938 C15.14025477 12.15491295 16.01425778 13.62284267 16.87426758 15.09887695 C17.86154059 16.76617145 18.92517208 18.38775812 20 20 C20.33 13.4 20.66 6.8 21 0 C23.31 0 25.62 0 28 0 C28 11.55 28 23.1 28 35 C20 35 20 35 17.99023438 33.25585938 C17.52939453 32.45986328 17.06855469 31.66386719 16.59375 30.84375 C16.078125 29.98652344 15.5625 29.12929687 15.03125 28.24609375 C14.5259375 27.33988281 14.020625 26.43367188 13.5 25.5 C12.96375 24.59378906 12.4275 23.68757813 11.875 22.75390625 C10.55695862 20.5179432 9.27490707 18.2608352 8 16 C7.67 22.27 7.34 28.54 7 35 C4.69 35 2.38 35 0 35 C0 23.45 0 11.9 0 0 Z " fill="#FEC438" transform="translate(652,220)"/>
<path d="M0 0 C4.84508328 2.04003506 7.21845093 4.95297543 9.3046875 9.66015625 C11.08142568 15.63917967 10.90939095 21.71914732 8.375 27.4375 C6.14423576 31.18364547 4.09091102 33.24675242 0 35 C-6.38857413 35.76346971 -12.66519315 36.00110514 -18 32 C-22.77359108 25.93624916 -23.70202721 20.54360146 -23 13 C-21.34115331 7.76153678 -19.13206613 4.60231406 -15 1 C-10.57586221 -1.21206889 -4.8157818 -0.40473684 0 0 Z M-14 10 C-15.97399416 13.94798832 -15.43472728 18.69619991 -15 23 C-13.66983836 26.22838773 -13.66983836 26.22838773 -11 28 C-7.59471004 29.24838381 -7.59471004 29.24838381 -4 29 C-0.97838457 27.25417775 0.5634623 25.71433442 2.375 22.75 C3.39827314 18.24759817 3.17769502 14.22819898 1.0234375 10.15234375 C-1.05375046 7.31798727 -2.55263846 6.09320032 -6 5.375 C-9.62532374 6.13027578 -11.36306228 7.43840335 -14 10 Z " fill="#FEC438" transform="translate(629,220)"/>
<path d="M0 0 C3.12592401 1.2787871 3.85409162 2.19839739 6 5 C6.875 8.8125 6.875 8.8125 7 12 C4.36 12 1.72 12 -1 12 C-1.33 10.35 -1.66 8.7 -2 7 C-4.64 7 -7.28 7 -10 7 C-10.33 8.32 -10.66 9.64 -11 11 C-9.95199219 11.31453125 -8.90398437 11.6290625 -7.82421875 11.953125 C-6.4450851 12.38469063 -5.06619109 12.81702263 -3.6875 13.25 C-2.99720703 13.45496094 -2.30691406 13.65992188 -1.59570312 13.87109375 C1.38740307 14.82222906 3.66778384 15.68373022 5.953125 17.859375 C7.87002123 21.77899864 7.65006575 25.75337481 7 30 C4.80873184 33.09799981 3.58943664 33.80352112 0 35 C-12.32503127 36.00377424 -12.32503127 36.00377424 -16.6875 33.3125 C-19.12383289 30.87616711 -20.16873657 29.32505373 -21 26 C-21 24.68 -21 23.36 -21 22 C-18.36 22 -15.72 22 -13 22 C-12.71125 22.804375 -12.4225 23.60875 -12.125 24.4375 C-11.26737432 27.1326468 -11.26737432 27.1326468 -9 28 C-7.62657169 28.0689472 -6.24997898 28.08467708 -4.875 28.0625 C-2.956875 28.0315625 -2.956875 28.0315625 -1 28 C-1 26.35 -1 24.7 -1 23 C-2.04800781 22.67386719 -3.09601563 22.34773438 -4.17578125 22.01171875 C-5.55484175 21.57079465 -6.93373962 21.12936168 -8.3125 20.6875 C-9.00279297 20.47416016 -9.69308594 20.26082031 -10.40429688 20.04101562 C-16.96994025 17.915904 -16.96994025 17.915904 -19 15 C-19.9956513 11.15963069 -20.40176584 8.93040511 -18.8125 5.25 C-13.61911303 -1.19696314 -7.87679269 -1.02613304 0 0 Z " fill="#FEC438" transform="translate(362,220)"/>
<path d="M0 0 C2.24503399 1.44595409 3.7256001 2.7637002 4.92578125 5.1640625 C4.96577325 7.16366262 4.96924924 9.16453492 4.92578125 11.1640625 C1.61328125 11.4765625 1.61328125 11.4765625 -2.07421875 11.1640625 C-2.54859375 10.3390625 -3.02296875 9.5140625 -3.51171875 8.6640625 C-4.02734375 7.8390625 -4.54296875 7.0140625 -5.07421875 6.1640625 C-7.8626671 5.69002628 -10.22279818 5.9303395 -13.07421875 6.1640625 C-13.06400247 8.13651584 -13.06400247 8.13651584 -12.07421875 10.1640625 C-9.23393977 11.35591667 -9.23393977 11.35591667 -5.82421875 12.1015625 C3.24053291 14.68864859 3.24053291 14.68864859 5.92578125 19.1640625 C6.59889998 22.32254272 6.6565214 25.0127456 5.92578125 28.1640625 C3.7441898 30.91975697 2.05400631 32.59994997 -1.07421875 34.1640625 C-3.17475591 34.31307741 -5.281097 34.38544703 -7.38671875 34.4140625 C-8.51722656 34.43984375 -9.64773438 34.465625 -10.8125 34.4921875 C-15.22533804 34.04826128 -17.78891579 32.44936546 -20.88671875 29.3515625 C-22.42924729 26.51006256 -22.29123615 24.34698439 -22.07421875 21.1640625 C-18.76171875 20.8515625 -18.76171875 20.8515625 -15.07421875 21.1640625 C-14.05555646 22.81938873 -13.05611062 24.48666388 -12.07421875 26.1640625 C-8.61446017 27.24173379 -8.61446017 27.24173379 -5.07421875 27.1640625 C-4.08421875 26.5040625 -3.09421875 25.8440625 -2.07421875 25.1640625 C-2.40421875 24.1740625 -2.73421875 23.1840625 -3.07421875 22.1640625 C-6.54673515 20.77146213 -10.07824299 19.73071211 -13.65625 18.640625 C-17.45916508 16.99776569 -18.97052736 15.70184927 -21.07421875 12.1640625 C-21.60468685 8.95418921 -21.12197167 6.23289072 -20.07421875 3.1640625 C-15.2695244 -2.16005826 -6.51621172 -2.62611922 0 0 Z " fill="#FEC438" transform="translate(752.07421875,220.8359375)"/>
<path d="M0 0 C5.25438807 5.12302837 6.74967066 8.66960495 7 15.9375 C6.74967066 23.20539505 5.25438807 26.75197163 0 31.875 C-5.07237443 34.13945287 -10.02562552 34.2553406 -15.5 33.4375 C-20.72976885 30.78526008 -23.57039254 27.69511813 -25.8125 22.25 C-26.94589909 15.96478684 -26.71098852 10.65764563 -23.625 5 C-17.47497783 -2.4162032 -9.06834955 -4.04837034 0 0 Z M-17.5 9.4375 C-19.24006584 12.91763169 -18.94687054 16.63271656 -18.5 20.4375 C-17.14623538 24.01149109 -17.14623538 24.01149109 -14.5 26.4375 C-10.59137251 27.64562122 -8.49604956 27.83591982 -4.6875 26.3125 C-1.10779337 23.24418003 -0.60709171 20.61550876 -0.1875 16 C-0.53135866 12.08001125 -1.41655875 9.7555731 -3.5 6.4375 C-9.55206087 2.40279275 -13.08277771 4.13683325 -17.5 9.4375 Z " fill="#FEC438" transform="translate(281.5,221.5625)"/>
<path d="M0 0 C8.25 0 16.5 0 25 0 C25 2.31 25 4.62 25 7 C19.06 7 13.12 7 7 7 C7 9.31 7 11.62 7 14 C12.61 14 18.22 14 24 14 C24 15.98 24 17.96 24 20 C18.39 20 12.78 20 7 20 C7 22.64 7 25.28 7 28 C12.94 28 18.88 28 25 28 C25 30.31 25 32.62 25 35 C16.75 35 8.5 35 0 35 C0 23.45 0 11.9 0 0 Z " fill="#FEC438" transform="translate(694,220)"/>
<path d="M0 0 C2.64 0 5.28 0 8 0 C8.33 8.58 8.66 17.16 9 26 C13.32838824 28.16419412 14.49742351 28.20068706 19 27 C20.31361698 24.37276604 20.21253909 22.27389439 20.31640625 19.3359375 C20.35830078 18.21445313 20.40019531 17.09296875 20.44335938 15.9375 C20.48267578 14.761875 20.52199219 13.58625 20.5625 12.375 C20.60568359 11.19164062 20.64886719 10.00828125 20.69335938 8.7890625 C20.79967426 5.85949672 20.90170642 2.92984412 21 0 C23.64 0 26.28 0 29 0 C29.05834395 3.87493616 29.09371201 7.74975836 29.125 11.625 C29.15013672 13.26662109 29.15013672 13.26662109 29.17578125 14.94140625 C29.25126951 27.39696963 29.25126951 27.39696963 25 32.3125 C20.76510328 35.8856941 16.57803882 35.32865946 11.21484375 35.28125 C6.80480737 34.8954388 5.11148347 34.11148347 2 31 C0.08166303 27.17366638 -0.23720578 24.07638667 -0.1953125 19.82421875 C-0.18886719 18.66728516 -0.18242187 17.51035156 -0.17578125 16.31835938 C-0.15902344 15.12017578 -0.14226562 13.92199219 -0.125 12.6875 C-0.11597656 11.46998047 -0.10695313 10.25246094 -0.09765625 8.99804688 C-0.07413037 5.99849726 -0.04125653 2.99934956 0 0 Z " fill="#FEC438" transform="translate(459,220)"/>
<path d="M0 0 C2.9342288 1.82574237 4.86590517 3.94277156 5.89453125 7.234375 C5.89453125 8.554375 5.89453125 9.874375 5.89453125 11.234375 C2.70703125 11.546875 2.70703125 11.546875 -1.10546875 11.234375 C-2.79258298 9.5884099 -4.46003095 7.92200351 -6.10546875 6.234375 C-9.14887002 5.40087549 -9.14887002 5.40087549 -12.10546875 6.234375 C-15.04094631 8.85250363 -15.99145764 10.82393501 -17.04296875 14.609375 C-17.121243 19.14928172 -16.28065899 21.27242134 -14.10546875 25.234375 C-11.22103129 27.55795011 -11.22103129 27.55795011 -7.60546875 27.234375 C-3.84907495 26.5811359 -3.84907495 26.5811359 -2.16796875 23.171875 C-1.64203125 21.7178125 -1.64203125 21.7178125 -1.10546875 20.234375 C1.20453125 20.234375 3.51453125 20.234375 5.89453125 20.234375 C5.52579243 26.38002194 4.12199748 29.00690877 -0.10546875 33.234375 C-6.11049823 35.23605149 -12.79350235 35.22521774 -18.60546875 32.734375 C-23.37197054 27.96787321 -25.32399867 23.49903924 -25.60546875 16.734375 C-25.32461318 9.98447947 -23.35744815 5.54409746 -18.66796875 0.734375 C-12.88466262 -1.70070126 -5.99109555 -2.1785802 0 0 Z " fill="#FEC438" transform="translate(525.10546875,220.765625)"/>
<path d="M0 0 C3.38098092 1.20171145 5.32935123 3.02451088 7.375 6 C8 8 8 8 8 12 C4.75 12.3125 4.75 12.3125 1 12 C-0.35827971 10.35360035 -1.69254251 8.68704193 -3 7 C-6.93613687 6.16252407 -8.47481071 6.6689024 -11.875 8.8125 C-14.96914666 13.45371999 -14.99835027 17.57806521 -14 23 C-12.18328877 26.40282421 -12.18328877 26.40282421 -9 28 C-5.35017285 28.41909682 -5.35017285 28.41909682 -2 27 C0.01041003 24.06550592 0.01041003 24.06550592 1 21 C3.31 21 5.62 21 8 21 C7.63074596 27.15423406 6.17122773 29.72703501 2 34 C-0.80107012 35.40053506 -3.18891681 35.2075504 -6.3125 35.25 C-7.44300781 35.27578125 -8.57351563 35.3015625 -9.73828125 35.328125 C-13.34220477 34.96557461 -15.12467472 34.15775728 -18 32 C-22.71447616 25.84498946 -23.70748518 20.6022498 -23 13 C-21.34115331 7.76153678 -19.13206613 4.60231406 -15 1 C-10.58522662 -1.20738669 -4.80526504 -0.42622642 0 0 Z " fill="#FEC438" transform="translate(565,220)"/>
<path d="M0 0 C2.68093838 1.74294257 4.17237673 3.54567448 5.94921875 6.2109375 C6.07421875 8.8984375 6.07421875 8.8984375 5.94921875 11.2109375 C2.69921875 11.5234375 2.69921875 11.5234375 -1.05078125 11.2109375 C-2.40906096 9.56453785 -3.74332376 7.89797943 -5.05078125 6.2109375 C-8.52865799 5.63129138 -10.29315314 5.78093236 -13.36328125 7.5234375 C-16.05724305 10.2173993 -16.22619759 12.94376856 -16.30078125 16.5859375 C-16.22908159 20.58808189 -15.94434997 23.22402785 -13.05078125 26.2109375 C-9.64549129 27.45932131 -9.64549129 27.45932131 -6.05078125 27.2109375 C-3.1050552 25.04040251 -2.21017184 23.68910927 -1.05078125 20.2109375 C1.25921875 20.2109375 3.56921875 20.2109375 5.94921875 20.2109375 C6.40718332 23.34036207 6.45480891 25.44318948 4.68359375 28.1328125 C0.66594537 32.85257419 0.66594537 32.85257419 -2.05078125 34.2109375 C-3.98437711 34.35945594 -5.92420222 34.43224583 -7.86328125 34.4609375 C-8.90097656 34.48671875 -9.93867188 34.5125 -11.0078125 34.5390625 C-16.14098684 33.98554948 -19.85717963 31.17540848 -23.05078125 27.2109375 C-25.70764281 20.17025437 -25.87918427 14.00626952 -23.0390625 7.07421875 C-18.60649952 -1.28282687 -8.55340393 -3.29102399 0 0 Z " fill="#FEC438" transform="translate(238.05078125,220.7890625)"/>
<path d="M0 0 C9.24 0 18.48 0 28 0 C28 2.31 28 4.62 28 7 C24.7 7 21.4 7 18 7 C18.00785522 8.21901001 18.00785522 8.21901001 18.01586914 9.46264648 C18.03656994 13.12092322 18.04963803 16.77918767 18.0625 20.4375 C18.07087891 21.71689453 18.07925781 22.99628906 18.08789062 24.31445312 C18.09272461 26.13686523 18.09272461 26.13686523 18.09765625 27.99609375 C18.10551147 29.68496704 18.10551147 29.68496704 18.11352539 31.40795898 C18 34 18 34 17 35 C14.69 35 12.38 35 10 35 C10 25.76 10 16.52 10 7 C6.7 7 3.4 7 0 7 C0 4.69 0 2.38 0 0 Z " fill="#FEC438" transform="translate(379,220)"/>
<path d="M0 0 C2.31 0 4.62 0 7 0 C7 11.55 7 23.1 7 35 C4.69 35 2.38 35 0 35 C0 23.45 0 11.9 0 0 Z " fill="#FEC438" transform="translate(586,220)"/>
</svg>
