<?xml version="1.0" encoding="UTF-8"?>
<svg version="1.1" xmlns="http://www.w3.org/2000/svg" width="384" height="384">
<path d="M0 0 C3.9074747 2.87775623 6.76335286 5.65576731 8.1875 10.375 C8.23327837 12.02032846 8.25252062 13.66653675 8.25 15.3125 C8.48966786 18.68314795 8.84141901 20.00013603 11.16015625 22.51171875 C14.07059656 24.69347739 17.04091169 26.54961076 20.1875 28.375 C20.74808105 28.71273437 21.30866211 29.05046875 21.88623047 29.3984375 C34.68966675 37.06680575 49.28644167 42.73318186 64.1875 44.375 C65.34894531 44.50777344 66.51039063 44.64054687 67.70703125 44.77734375 C99.04831271 47.55837471 128.40602069 37.76904789 152.5546875 17.74609375 C155.11306075 15.58965225 155.11306075 15.58965225 156.57348633 13.55493164 C159.23073113 10.27435689 161.03485164 8.58408378 165.27636719 7.81469727 C168.91652557 7.6865048 172.48694282 7.7638958 176.125 7.9375 C177.38119141 7.96908203 178.63738281 8.00066406 179.93164062 8.03320312 C183.01934881 8.11538547 186.10219797 8.2302323 189.1875 8.375 C180.37267585 31.25623386 153.01115468 48.67841314 131.60546875 58.1796875 C105.60025371 69.09011075 76.68766984 71.80917078 49.1875 65.375 C48.49140625 65.21402832 47.7953125 65.05305664 47.078125 64.88720703 C30.01202623 60.77475129 12.53106143 53.13825612 -0.859375 41.61328125 C-5.93858145 37.27916501 -10.17721354 36.69001646 -16.75 35.9140625 C-21.87228507 35.01243579 -24.86070338 32.78321675 -28.08203125 28.80859375 C-31.36138687 23.81423943 -32.58321334 18.11261869 -31.37109375 12.234375 C-29.37376959 6.25381579 -26.24901498 1.81701907 -20.75 -1.4375 C-13.30724998 -4.44627128 -6.94951747 -4.30044398 0 0 Z " fill="#02A8A8" transform="translate(112.8125,256.625)"/>
<path d="M0 0 C1.1446875 0.95712891 1.1446875 0.95712891 2.3125 1.93359375 C6.18231501 5.04936392 8.37126705 5.13444812 13.375 4.87109375 C20.11076564 6.64254708 24.62790172 8.96657524 28.375 14.87109375 C31.43786269 20.55240376 32.13393929 25.62194296 30.375 31.87109375 C27.71209713 38.22548859 23.62887269 42.06887772 17.375 44.87109375 C11.30133366 46.67069859 6.01103668 45.52653411 0.375 42.87109375 C-3.85206144 39.71633834 -7.37911677 36.1038033 -8.625 30.87109375 C-8.62886719 30.19046875 -8.63273438 29.50984375 -8.63671875 28.80859375 C-8.71485034 25.25060147 -8.83997911 22.79866818 -11.1953125 20.015625 C-13.57662606 18.09563603 -16.02220915 16.47943899 -18.625 14.87109375 C-19.65238281 14.21109375 -20.67976562 13.55109375 -21.73828125 12.87109375 C-46.96556686 -2.4922359 -76.78620307 -6.35283927 -105.48828125 -0.31640625 C-123.1174929 4.07716675 -145.51932588 13.59032004 -157.0065918 28.68676758 C-159.66484986 31.96839857 -161.47114322 33.66171612 -165.71411133 34.43164062 C-169.35415239 34.55958404 -172.92456724 34.48219201 -176.5625 34.30859375 C-177.81869141 34.27701172 -179.07488281 34.24542969 -180.36914062 34.21289062 C-183.45684881 34.13070828 -186.53969797 34.01586145 -189.625 33.87109375 C-186.34660538 18.78532506 -164.80551262 2.97964502 -152.35449219 -5.03662109 C-151.49839355 -5.57730225 -151.49839355 -5.57730225 -150.625 -6.12890625 C-149.76890137 -6.671521 -149.76890137 -6.671521 -148.89550781 -7.22509766 C-104.41691281 -34.95836713 -41.30920854 -33.5022599 0 0 Z " fill="#02A8A8" transform="translate(271.625,85.12890625)"/>
<path d="M0 0 C21 0 21 0 25.625 3.625 C26.78892734 5.39162605 27.91009428 7.18677085 29 9 C30.26378761 10.67380495 31.57566261 12.30174203 32.89428711 13.93261719 C36.36726156 18.23004194 39.71552076 22.62779256 43.078125 27.01171875 C43.57787842 27.65858643 44.07763184 28.3054541 44.5925293 28.97192383 C45.55773292 30.22151065 46.51771782 31.47514946 47.47192383 32.7331543 C48.60158359 34.19253442 49.7952851 35.60193579 51 37 C51.66 37 52.32 37 53 37 C54.54410802 35.35013115 56.00892581 33.62586053 57.4375 31.875 C57.87634521 31.3394751 58.31519043 30.8039502 58.76733398 30.25219727 C61.60900905 26.7675411 64.4018904 23.24459677 67.17358398 19.70410156 C68.10314177 18.52177072 69.04024851 17.3453379 69.98461914 16.17480469 C72.20836774 13.40083029 74.1489705 10.74636361 75.95703125 7.66796875 C77.875 4.625 77.875 4.625 83 0 C89.93 0 96.86 0 104 0 C104 26.4 104 52.8 104 80 C96.74 80 89.48 80 82 80 C81.67 65.81 81.34 51.62 81 37 C71.60905635 48.50500745 71.60905635 48.50500745 62.875 60.5 C58.93171826 65.68480438 58.93171826 65.68480438 55.11328125 66.9765625 C50.45087703 67.21310637 48.07486434 66.93033081 44.47265625 63.8125 C41.9273943 60.91741532 39.56653797 57.9561469 37.25 54.875 C32.64874919 48.76539214 27.86020723 42.94025328 23 37 C22.67 51.19 22.34 65.38 22 80 C14.74 80 7.48 80 0 80 C0 53.6 0 27.2 0 0 Z " fill="#003345" transform="translate(43,138)"/>
<path d="M0 0 C1.00023193 0.00523682 2.00046387 0.01047363 3.03100586 0.01586914 C4.1105957 0.0190918 5.19018555 0.02231445 6.30249023 0.02563477 C8.00695312 0.03820312 8.00695312 0.03820312 9.74584961 0.05102539 C11.45611328 0.05779297 11.45611328 0.05779297 13.20092773 0.06469727 C16.02845312 0.07652792 18.85587601 0.09301129 21.68334961 0.11352539 C21.99449707 0.74105713 22.30564453 1.36858887 22.6262207 2.01513672 C28.19653245 13.23650417 33.79015675 24.43868628 39.66552734 35.50390625 C42.3196273 40.50783125 44.93863863 45.52864494 47.53491211 50.56274414 C47.87139267 51.21496445 48.20787323 51.86718475 48.55455017 52.53916931 C49.91068995 55.16882321 51.26632875 57.79872696 52.61880493 60.43026733 C53.5647182 62.27071479 54.51258662 64.11014469 55.46069336 65.94946289 C56.00975342 67.01729004 56.55881348 68.08511719 57.12451172 69.18530273 C58.6382097 72.11510968 58.6382097 72.11510968 60.38476562 74.8112793 C61.68334961 77.11352539 61.68334961 77.11352539 61.68334961 80.11352539 C57.91277414 80.22950192 54.14265568 80.30069935 50.37084961 80.36352539 C49.29899414 80.39704102 48.22713867 80.43055664 47.12280273 80.46508789 C45.58076172 80.48442383 45.58076172 80.48442383 44.00756836 80.50415039 C43.05970459 80.52509766 42.11184082 80.54604492 41.13525391 80.56762695 C38.68334961 80.11352539 38.68334961 80.11352539 36.92358398 78.23217773 C35.63223045 76.02620019 34.51844097 73.83147418 33.49584961 71.48852539 C33.15166992 70.71250977 32.80749023 69.93649414 32.45288086 69.13696289 C31.68334961 67.11352539 31.68334961 67.11352539 31.68334961 65.11352539 C17.16334961 65.44352539 2.64334961 65.77352539 -12.31665039 66.11352539 C-14.62665039 70.73352539 -16.93665039 75.35352539 -19.31665039 80.11352539 C-27.23665039 80.11352539 -35.15665039 80.11352539 -43.31665039 80.11352539 C-41.99106185 76.13675978 -40.89319766 73.03756147 -38.98852539 69.44555664 C-38.52575195 68.56641602 -38.06297852 67.68727539 -37.58618164 66.78149414 C-36.83401367 65.36803711 -36.83401367 65.36803711 -36.06665039 63.92602539 C-34.97765303 61.85985925 -33.88913088 59.7934426 -32.80102539 57.72680664 C-31.94541016 56.10572998 -31.94541016 56.10572998 -31.07250977 54.4519043 C-28.12757133 48.8527541 -25.22387118 43.23232356 -22.31665039 37.61352539 C-20.56532606 34.23470283 -18.81330818 30.85624047 -17.0612793 27.4777832 C-15.88881188 25.21685388 -14.71661558 22.95578394 -13.54467773 20.69458008 C-11.86646914 17.4582024 -10.18568067 14.22317818 -8.50415039 10.98852539 C-7.99432617 10.00432617 -7.48450195 9.02012695 -6.95922852 8.00610352 C-6.26023437 6.66322266 -6.26023437 6.66322266 -5.54711914 5.29321289 C-5.13872803 4.50672363 -4.73033691 3.72023437 -4.30957031 2.90991211 C-2.77637071 0.13605358 -2.77637071 0.13605358 0 0 Z M8.68334961 22.11352539 C8.35536377 22.76949707 8.02737793 23.42546875 7.68945312 24.10131836 C4.02075195 31.4387207 0.35205078 38.77612305 -3.31665039 46.11352539 C4.93334961 46.11352539 13.18334961 46.11352539 21.68334961 46.11352539 C19.54866211 41.56571289 19.54866211 41.56571289 17.37084961 36.92602539 C16.92829834 35.97961182 16.48574707 35.03319824 16.02978516 34.05810547 C13.15811926 27.92126893 13.15811926 27.92126893 9.68334961 22.11352539 C9.35334961 22.11352539 9.02334961 22.11352539 8.68334961 22.11352539 Z " fill="#003444" transform="translate(279.316650390625,137.886474609375)"/>
<path d="M0 0 C8.25 0 16.5 0 25 0 C30.28195224 10.48063046 35.44263921 21.00414245 40.43945312 31.62353516 C41.523173 33.92419461 42.61309629 36.22185527 43.703125 38.51953125 C44.39620757 39.98940693 45.0889305 41.45945226 45.78125 42.9296875 C46.10613403 43.61288055 46.43101807 44.29607361 46.76574707 44.99996948 C49 49.77109728 49 49.77109728 49 52 C49.66 52 50.32 52 51 52 C51.27384521 51.13012451 51.54769043 50.26024902 51.82983398 49.36401367 C52.94303138 46.16377437 54.23968283 43.21964747 55.72265625 40.17578125 C56.25737549 39.07274658 56.79209473 37.96971191 57.34301758 36.83325195 C58.19416138 35.09047974 58.19416138 35.09047974 59.0625 33.3125 C59.9414978 31.50245908 60.81915038 29.69177012 61.69670105 27.88102722 C62.28403684 26.6692538 62.87177455 25.45767511 63.45991516 24.24629211 C67.36786394 16.19308193 71.17923221 8.09484702 75 0 C83.25 0 91.5 0 100 0 C98.55742377 4.3277287 97.16479813 7.8983042 95.12890625 11.90234375 C94.56018799 13.02817871 93.99146973 14.15401367 93.40551758 15.31396484 C93.1051358 15.90441589 92.80475403 16.49486694 92.49526978 17.10321045 C90.89890544 20.24245713 89.31641338 23.38867133 87.734375 26.53515625 C87.25578789 27.48642395 87.25578789 27.48642395 86.76753235 28.45690918 C83.87196075 34.22644952 81.07712027 40.04162584 78.3125 45.875 C74.57586555 53.74696342 70.76587611 61.57801683 66.875 69.375 C66.16404175 70.80368408 66.16404175 70.80368408 65.4387207 72.26123047 C65.00261475 73.13150879 64.56650879 74.00178711 64.1171875 74.8984375 C63.73159668 75.66849121 63.34600586 76.43854492 62.94873047 77.23193359 C62 79 62 79 61 80 C59.36527118 80.08700342 57.72685945 80.10701063 56.08984375 80.09765625 C55.10048828 80.09443359 54.11113281 80.09121094 53.09179688 80.08789062 C52.05087891 80.07951172 51.00996094 80.07113281 49.9375 80.0625 C48.89271484 80.05798828 47.84792969 80.05347656 46.77148438 80.04882812 C44.1809334 80.03699913 41.59049441 80.02051689 39 80 C27.68715424 58.89719156 17.0050291 37.45077064 6.625 15.875 C6.17906494 14.95235352 5.73312988 14.02970703 5.27368164 13.07910156 C4.86625732 12.22541992 4.45883301 11.37173828 4.0390625 10.4921875 C3.69053223 9.76370605 3.34200195 9.03522461 2.98291016 8.28466797 C1.82296207 5.58849454 0.92816112 2.78448337 0 0 Z " fill="#003444" transform="translate(153,138)"/>
<path d="M0 0 C2.0625 1.625 2.0625 1.625 3.0625 3.625 C3.866875 2.8 4.67125 1.975 5.5 1.125 C8.89000918 -1.70940197 11.59818796 -1.90432368 15.9140625 -1.84375 C18.74964531 -1.22507739 20.10083251 -0.53820867 22.0625 1.625 C22.234375 4.76171875 22.234375 4.76171875 21.8125 8.3125 C21.68359375 9.49199219 21.5546875 10.67148438 21.421875 11.88671875 C21.30328125 12.79035156 21.1846875 13.69398438 21.0625 14.625 C9.42393498 15.39181614 9.42393498 15.39181614 6.0859375 13.51171875 C4.75 12.125 4.75 12.125 3.0625 9.625 C2.44375 10.45 1.825 11.275 1.1875 12.125 C-1.39107045 14.72573581 -3.37971051 15.03943924 -7 15.125 C-10.93620734 15.07647972 -13.07690547 14.38320189 -15.9375 11.625 C-16.81031149 8.19609774 -17.26672829 5.73240423 -16.25 2.3125 C-12.26313651 -2.81346734 -5.45446156 -2.55315222 0 0 Z M-11.9375 4.625 C-12.27093551 7.16707971 -12.27093551 7.16707971 -11.9375 9.625 C-10.95839415 10.82195276 -10.95839415 10.82195276 -9.125 10.7578125 C-8.403125 10.75523437 -7.68125 10.75265625 -6.9375 10.75 C-6.215625 10.75257813 -5.49375 10.75515625 -4.75 10.7578125 C-2.91660585 10.82195276 -2.91660585 10.82195276 -1.9375 9.625 C-1.89669217 7.62541636 -1.89495644 5.62454746 -1.9375 3.625 C-7.21949593 2.42511955 -7.21949593 2.42511955 -11.9375 4.625 Z M11.0625 2.625 C10.0725 3.285 9.0825 3.945 8.0625 4.625 C7.72906449 7.16707971 7.72906449 7.16707971 8.0625 9.625 C9.04517859 10.83061184 9.04517859 10.83061184 10.91015625 10.72265625 C12.9609375 10.69010417 15.01171875 10.65755208 17.0625 10.625 C17.0625 10.295 17.0625 9.965 17.0625 9.625 C15.7425 9.295 14.4225 8.965 13.0625 8.625 C13.0625 7.635 13.0625 6.645 13.0625 5.625 C15.7025 5.625 18.3425 5.625 21.0625 5.625 C20.7325 4.965 20.4025 4.305 20.0625 3.625 C19.32 3.645625 18.5775 3.66625 17.8125 3.6875 C15.0625 3.625 15.0625 3.625 12.9375 3 C12.31875 2.87625 11.7 2.7525 11.0625 2.625 Z " fill="#013343" transform="translate(73.9375,231.375)"/>
<path d="M0 0 C4.62 0 9.24 0 14 0 C14.7550093 3.02003722 15.13670355 5.00389177 15.125 8 C15.12757813 8.66 15.13015625 9.32 15.1328125 10 C15 12 15 12 14 16 C9.38 16 4.76 16 0 16 C0 10.72 0 5.44 0 0 Z M4 4 C4 4.66 4 5.32 4 6 C6.97 6 9.94 6 13 6 C13.33 7.32 13.66 8.64 14 10 C14 8.35 14 6.7 14 5 C10.7 4.67 7.4 4.34 4 4 Z M4 10 C4 10.66 4 11.32 4 12 C7.3 12 10.6 12 14 12 C13.67 11.34 13.34 10.68 13 10 C10.03 10 7.06 10 4 10 Z " fill="#003443" transform="translate(225,230)"/>
<path d="M0 0 C1.2375 0.495 1.2375 0.495 2.5 1 C2.96105691 5.70278047 3.14522502 8.94613247 0.625 13.0625 C-3.77260897 15.78901756 -7.45701219 16.01520049 -12.5 15 C-15.6875 12.9375 -15.6875 12.9375 -17.5 10 C-17.5 6.34256132 -17.31308469 4.06054525 -15.0625 1.125 C-10.44974384 -2.19618443 -5.20433675 -1.48695336 0 0 Z M-12.5 4 C-12.54254356 5.99954746 -12.54080783 8.00041636 -12.5 10 C-11.52089415 11.19695276 -11.52089415 11.19695276 -9.6875 11.1328125 C-8.965625 11.13023437 -8.24375 11.12765625 -7.5 11.125 C-6.778125 11.12757813 -6.05625 11.13015625 -5.3125 11.1328125 C-3.47910585 11.19695276 -3.47910585 11.19695276 -2.5 10 C-2.45919217 8.00041636 -2.45745644 5.99954746 -2.5 4 C-7.55009595 3.06213918 -7.55009595 3.06213918 -12.5 4 Z " fill="#013344" transform="translate(322.5,231)"/>
<path d="M0 0 C2.27457187 0.32627055 3.99419324 0.99873299 5.90625 2.2734375 C5.24625 3.5934375 4.58625 4.9134375 3.90625 6.2734375 C4.56625 6.9334375 5.22625 7.5934375 5.90625 8.2734375 C6.21875 11.2734375 6.21875 11.2734375 5.90625 14.2734375 C1.03826162 17.51876309 -4.57656763 16.67618668 -10.21875 15.7734375 C-10.8375 15.6084375 -11.45625 15.4434375 -12.09375 15.2734375 C-10.94201645 12.80543703 -10.04591435 11.22560185 -8.09375 9.2734375 C-8.75375 7.6234375 -9.41375 5.9734375 -10.09375 4.2734375 C-7.0613989 0.2303027 -4.78791349 -0.23224954 0 0 Z M-5.09375 4.2734375 C-5.09375 4.9334375 -5.09375 5.5934375 -5.09375 6.2734375 C-2.45375 6.2734375 0.18625 6.2734375 2.90625 6.2734375 C2.57625 5.6134375 2.24625 4.9534375 1.90625 4.2734375 C-0.40375 4.2734375 -2.71375 4.2734375 -5.09375 4.2734375 Z M-6.09375 10.2734375 C-5.76375 10.9334375 -5.43375 11.5934375 -5.09375 12.2734375 C-2.78375 12.2734375 -0.47375 12.2734375 1.90625 12.2734375 C1.57625 11.6134375 1.24625 10.9534375 0.90625 10.2734375 C-1.40375 10.2734375 -3.71375 10.2734375 -6.09375 10.2734375 Z " fill="#013343" transform="translate(335.09375,229.7265625)"/>
<path d="M0 0 C9.97814208 -0.36065574 9.97814208 -0.36065574 14.1875 1.125 C16 3 16 3 16.4375 6.0625 C16 9 16 9 14 11 C14.66 12.65 15.32 14.3 16 16 C13.625 15.6875 13.625 15.6875 11 15 C10.34 14.01 9.68 13.02 9 12 C6.43717258 11.27034634 6.43717258 11.27034634 4 11 C4 12.65 4 14.3 4 16 C2.68 16 1.36 16 0 16 C0 10.72 0 5.44 0 0 Z M4 4 C5 8 5 8 5 8 Z M6 5 C6 5.66 6 6.32 6 7 C7.98 7 9.96 7 12 7 C12 6.34 12 5.68 12 5 C10.02 5 8.04 5 6 5 Z " fill="#013344" transform="translate(241,230)"/>
<path d="M0 0 C0.99 0.66 1.98 1.32 3 2 C2.34 3.32 1.68 4.64 1 6 C1.515625 6.5775 2.03125 7.155 2.5625 7.75 C4 10 4 10 3.8125 12.125 C3 14 3 14 1 16 C-1.49609375 16.3359375 -1.49609375 16.3359375 -4.4375 16.375 C-5.88962891 16.41753906 -5.88962891 16.41753906 -7.37109375 16.4609375 C-10 16 -10 16 -11.84765625 13.9765625 C-12.22792969 13.32429687 -12.60820312 12.67203125 -13 12 C-12.34 11.01 -11.68 10.02 -11 9 C-11.33 8.67 -11.66 8.34 -12 8 C-12.3125 5.625 -12.3125 5.625 -12 3 C-8.70240087 -0.98459895 -4.7715233 -0.37869233 0 0 Z M-8 4 C-8 4.66 -8 5.32 -8 6 C-5.36 6 -2.72 6 0 6 C-0.33 5.34 -0.66 4.68 -1 4 C-3.31 4 -5.62 4 -8 4 Z M-9 10 C-8.67 10.66 -8.34 11.32 -8 12 C-5.69 12 -3.38 12 -1 12 C-1 11.34 -1 10.68 -1 10 C-3.64 10 -6.28 10 -9 10 Z " fill="#013344" transform="translate(220,230)"/>
<path d="M0 0 C0.99 0.66 1.98 1.32 3 2 C2.34 3.32 1.68 4.64 1 6 C1.53625 6.556875 2.0725 7.11375 2.625 7.6875 C3.305625 8.8321875 3.305625 8.8321875 4 10 C3.33228817 12.39263407 2.77902615 14.22097385 1 16 C-1.3984375 16.23828125 -1.3984375 16.23828125 -4.375 16.3125 C-5.35210937 16.34988281 -6.32921875 16.38726562 -7.3359375 16.42578125 C-10 16 -10 16 -11.8515625 13.98046875 C-12.23054688 13.32691406 -12.60953125 12.67335937 -13 12 C-12.34 11.01 -11.68 10.02 -11 9 C-11.33 8.67 -11.66 8.34 -12 8 C-12.3125 5.625 -12.3125 5.625 -12 3 C-8.70240087 -0.98459895 -4.7715233 -0.37869233 0 0 Z M-8 4 C-8 4.66 -8 5.32 -8 6 C-5.36 6 -2.72 6 0 6 C-0.33 5.34 -0.66 4.68 -1 4 C-3.31 4 -5.62 4 -8 4 Z M-9 10 C-8.67 10.66 -8.34 11.32 -8 12 C-5.69 12 -3.38 12 -1 12 C-1 11.34 -1 10.68 -1 10 C-3.64 10 -6.28 10 -9 10 Z " fill="#003344" transform="translate(115,230)"/>
<path d="M0 0 C1.65 0.33 3.3 0.66 5 1 C6.5294264 3.55890491 7.68729266 5.83766016 8.8125 8.5625 C9.12380859 9.27341797 9.43511719 9.98433594 9.75585938 10.71679688 C10.52091598 12.47054201 11.26273604 14.23439091 12 16 C10.35 16 8.7 16 7 16 C6.67 15.34 6.34 14.68 6 14 C3.36 14 0.72 14 -2 14 C-2.33 14.66 -2.66 15.32 -3 16 C-4.65 16 -6.3 16 -8 16 C-5.36 10.72 -2.72 5.44 0 0 Z M1 6 C0.67 6.99 0.34 7.98 0 9 C1.32 8.67 2.64 8.34 4 8 C3.67 7.34 3.34 6.68 3 6 C2.34 6 1.68 6 1 6 Z " fill="#013344" transform="translate(166,230)"/>
<path d="M0 0 C0.99 0.66 1.98 1.32 3 2 C2.67 2.99 2.34 3.98 2 5 C-0.01822917 4.96744792 -2.03645833 4.93489583 -4.0546875 4.90234375 C-6.08185404 4.87350758 -6.08185404 4.87350758 -8 6 C-8 7.65 -8 9.3 -8 11 C-4.7 11 -1.4 11 2 11 C2.33 12.32 2.66 13.64 3 15 C-0.72831418 16.86415709 -4.93996746 16.5536408 -9 16 C-12.1875 13.9375 -12.1875 13.9375 -14 11 C-14 7.34256132 -13.81308469 5.06054525 -11.5625 2.125 C-7.97783154 -0.45596129 -4.29057236 -0.50127479 0 0 Z " fill="#023343" transform="translate(155,230)"/>
<path d="M0 0 C2.5 1 2.5 1 4 2 C3.67 2.99 3.34 3.98 3 5 C2.06027344 4.98259766 2.06027344 4.98259766 1.1015625 4.96484375 C-0.12433594 4.95130859 -0.12433594 4.95130859 -1.375 4.9375 C-2.59316406 4.92009766 -2.59316406 4.92009766 -3.8359375 4.90234375 C-6.04937142 4.85533666 -6.04937142 4.85533666 -8 6 C-7.67 7.65 -7.34 9.3 -7 11 C-4.03 11 -1.06 11 2 11 C2.66 12.32 3.32 13.64 4 15 C0.05579504 16.97210248 -4.69951412 16.43830654 -9 16 C-11.6875 14.5 -11.6875 14.5 -13 12 C-13.58848062 9.18452412 -13.65033385 6.80852139 -13 4 C-9.22915428 -0.71355714 -5.61839983 -0.5350857 0 0 Z " fill="#013443" transform="translate(295,230)"/>
<path d="M0 0 C2.3125 0.125 2.3125 0.125 5 1 C8 5.86206897 8 5.86206897 8 9 C8.66 9 9.32 9 10 9 C10.28875 8.071875 10.5775 7.14375 10.875 6.1875 C12 3 12 3 14 0 C15.32 0 16.64 0 18 0 C17.40165275 4.14298667 15.99335715 7.18194377 13.9375 10.8125 C13.38964844 11.78832031 12.84179688 12.76414063 12.27734375 13.76953125 C11.85582031 14.50558594 11.43429687 15.24164063 11 16 C8.70703125 15.8671875 8.70703125 15.8671875 6 15 C4.19921875 12.3828125 4.19921875 12.3828125 2.6875 9.125 C2.17574219 8.05507812 1.66398437 6.98515625 1.13671875 5.8828125 C0 3 0 3 0 0 Z " fill="#013442" transform="translate(257,230)"/>
<path d="M0 0 C5.28 0 10.56 0 16 0 C16 1.65 16 3.3 16 5 C14.02 5 12.04 5 10 5 C10 8.63 10 12.26 10 16 C8.68 16 7.36 16 6 16 C6 12.37 6 8.74 6 5 C4.02 5 2.04 5 0 5 C0 3.35 0 1.7 0 0 Z " fill="#013344" transform="translate(119,230)"/>
<path d="M0 0 C4.7517398 0.43197635 6.92000054 1.32769295 10 5 C10.556875 4.175 11.11375 3.35 11.6875 2.5 C14 0 14 0 16.75 -0.3125 C17.86375 -0.1578125 17.86375 -0.1578125 19 0 C15.25 6.75 15.25 6.75 13 9 C12.59952556 11.32275177 12.2602896 13.65739357 12 16 C10.35 16 8.7 16 7 16 C6.773125 14.80375 6.54625 13.6075 6.3125 12.375 C5.20594384 7.81954253 3.11010522 5.43748472 0 2 C0 1.34 0 0.68 0 0 Z " fill="#013443" transform="translate(183,230)"/>
<path d="M0 0 C1.32 0 2.64 0 4 0 C4 3.96 4 7.92 4 12 C7.3 12 10.6 12 14 12 C14 13.32 14 14.64 14 16 C9.38 16 4.76 16 0 16 C0 10.72 0 5.44 0 0 Z " fill="#023245" transform="translate(43,230)"/>
<path d="M0 0 C-0.49113281 0.66386719 -0.98226562 1.32773438 -1.48828125 2.01171875 C-3.35105036 5.69393676 -3.33744682 8.7946943 -3.1875 12.8125 C-3.17396484 13.50537109 -3.16042969 14.19824219 -3.14648438 14.91210938 C-3.11138845 16.60841265 -3.05758943 18.30431136 -3 20 C-4.32 20 -5.64 20 -7 20 C-7.24858198 17.22965863 -7.47452879 14.46060931 -7.6875 11.6875 C-7.76033203 10.90181641 -7.83316406 10.11613281 -7.90820312 9.30664062 C-7.96298828 8.54931641 -8.01777344 7.79199219 -8.07421875 7.01171875 C-8.13182373 6.31522217 -8.18942871 5.61872559 -8.2487793 4.90112305 C-8 3 -8 3 -6.66333008 1.26098633 C-4.39955648 -0.45520194 -2.76670431 -0.22432738 0 0 Z " fill="#003344" transform="translate(104,226)"/>
<path d="M0 0 C0.33 0 0.66 0 1 0 C1 26.07 1 52.14 1 79 C0.67 79 0.34 79 0 79 C0 52.93 0 26.86 0 0 Z " fill="#003343" transform="translate(148,138)"/>
<path d="M0 0 C0.33 0 0.66 0 1 0 C1 26.07 1 52.14 1 79 C0.67 79 0.34 79 0 79 C0 52.93 0 26.86 0 0 Z " fill="#023247" transform="translate(41,138)"/>
<path d="M0 0 C1.32 0 2.64 0 4 0 C4.19672365 1.72814161 4.38196799 3.45759197 4.5625 5.1875 C4.66691406 6.15042969 4.77132813 7.11335937 4.87890625 8.10546875 C4.99758751 10.94233377 4.67765639 13.25423671 4 16 C2.68 16 1.36 16 0 16 C0 10.72 0 5.44 0 0 Z " fill="#003444" transform="translate(276,230)"/>
<path d="M0 0 C1.32 0 2.64 0 4 0 C4 5.28 4 10.56 4 16 C2.68 16 1.36 16 0 16 C0 10.72 0 5.44 0 0 Z " fill="#013343" transform="translate(300,230)"/>
<path d="M0 0 C1.32 0 2.64 0 4 0 C4 5.28 4 10.56 4 16 C2.68 16 1.36 16 0 16 C0 10.72 0 5.44 0 0 Z " fill="#013344" transform="translate(136,230)"/>
<path d="M0 0 C1.485 0.99 1.485 0.99 3 2 C2.67 2.66 2.34 3.32 2 4 C1.84308093 6.76931368 1.74156866 9.51734107 1.68359375 12.2890625 C1.66281265 13.10748627 1.64203156 13.92591003 1.62062073 14.76913452 C1.55515188 17.38766966 1.49625274 20.00630639 1.4375 22.625 C1.39431224 24.39844807 1.35069786 26.17188581 1.30664062 27.9453125 C1.19947324 32.29677046 1.09819831 36.64833077 1 41 C0.67 41 0.34 41 0 41 C0 27.47 0 13.94 0 0 Z " fill="#003543" transform="translate(66,176)"/>
<path d="M0 0 C14.19 0 28.38 0 43 0 C43 0.33 43 0.66 43 1 C28.81 1.33 14.62 1.66 0 2 C0 1.34 0 0.68 0 0 Z " fill="#003443" transform="translate(267,204)"/>
<path d="M0 0 C0.33 0 0.66 0 1 0 C1 13.53 1 27.06 1 41 C0.67 41 0.34 41 0 41 C-0.16721596 35.32186163 -0.32781538 29.64359025 -0.48217773 23.96508789 C-0.5356778 22.03176791 -0.59101308 20.09849784 -0.64819336 18.1652832 C-0.72988175 15.39285041 -0.80505352 12.62030742 -0.87890625 9.84765625 C-0.90594131 8.97786636 -0.93297638 8.10807648 -0.96083069 7.21192932 C-1.01278164 5.14189685 -1.01188571 3.07065016 -1 1 C-0.67 0.67 -0.34 0.34 0 0 Z " fill="#003344" transform="translate(123,176)"/>
<path d="M0 0 C9.9 0 19.8 0 30 0 C30 0.33 30 0.66 30 1 C20.1 1 10.2 1 0 1 C0 0.67 0 0.34 0 0 Z " fill="#199E9E" transform="translate(177,300)"/>
<path d="M0 0 C9.24 0 18.48 0 28 0 C28 0.33 28 0.66 28 1 C18.76 1 9.52 1 0 1 C0 0.67 0 0.34 0 0 Z " fill="#02A7A6" transform="translate(178,57)"/>
<path d="M0 0 C8.91 0 17.82 0 27 0 C27 0.33 27 0.66 27 1 C18.09 1 9.18 1 0 1 C0 0.67 0 0.34 0 0 Z " fill="#02A7A3" transform="translate(275,263)"/>
<path d="M0 0 C8.58 0 17.16 0 26 0 C26 0.33 26 0.66 26 1 C17.42 1 8.84 1 0 1 C0 0.67 0 0.34 0 0 Z " fill="#01A9A6" transform="translate(83,120)"/>
<path d="M0 0 C8.25 0 16.5 0 25 0 C25 0.33 25 0.66 25 1 C16.75 1 8.5 1 0 1 C0 0.67 0 0.34 0 0 Z " fill="#0A303E" transform="translate(228,136)"/>
<path d="M0 0 C8.25 0 16.5 0 25 0 C25 0.33 25 0.66 25 1 C16.75 1 8.5 1 0 1 C0 0.67 0 0.34 0 0 Z " fill="#08313D" transform="translate(153,136)"/>
<path d="M0 0 C7.92 0 15.84 0 24 0 C24 0.33 24 0.66 24 1 C16.08 1 8.16 1 0 1 C0 0.67 0 0.34 0 0 Z " fill="#03A8A7" transform="translate(180,326)"/>
<path d="M0 0 C0.33 0.66 0.66 1.32 1 2 C10.405 1.505 10.405 1.505 20 1 C20 1.66 20 2.32 20 3 C13.07 3 6.14 3 -1 3 C-0.67 2.01 -0.34 1.02 0 0 Z " fill="#05323F" transform="translate(279,180)"/>
<path d="M0 0 C7.92 0 15.84 0 24 0 C24 0.33 24 0.66 24 1 C16.08 1 8.16 1 0 1 C0 0.67 0 0.34 0 0 Z " fill="#033440" transform="translate(277,136)"/>
<path d="M0 0 C7.59 0 15.18 0 23 0 C23 0.33 23 0.66 23 1 C15.41 1 7.82 1 0 1 C0 0.67 0 0.34 0 0 Z " fill="#0A303C" transform="translate(318,219)"/>
<path d="M0 0 C7.59 0 15.18 0 23 0 C23 0.33 23 0.66 23 1 C15.41 1 7.82 1 0 1 C0 0.67 0 0.34 0 0 Z " fill="#09303D" transform="translate(237,219)"/>
<path d="M0 0 C0.33 0 0.66 0 1 0 C1 2.97 1 5.94 1 9 C2.98 9 4.96 9 7 9 C7.33 7.68 7.66 6.36 8 5 C8.33 6.65 8.66 8.3 9 10 C6.03 10 3.06 10 0 10 C0 6.7 0 3.4 0 0 Z " fill="#023343" transform="translate(48,231)"/>
<path d="M0 0 C1.65 0 3.3 0 5 0 C5 2.97 5 5.94 5 9 C4.67 9 4.34 9 4 9 C4 6.36 4 3.72 4 1 C3.01 1 2.02 1 1 1 C1 3.97 1 6.94 1 10 C0.67 10 0.34 10 0 10 C0 6.7 0 3.4 0 0 Z " fill="#023340" transform="translate(130,236)"/>
<path d="M0 0 C7.26 0 14.52 0 22 0 C22 0.33 22 0.66 22 1 C14.74 1 7.48 1 0 1 C0 0.67 0 0.34 0 0 Z " fill="#093041" transform="translate(192,219)"/>
<path d="M0 0 C7.26 0 14.52 0 22 0 C22 0.33 22 0.66 22 1 C14.74 1 7.48 1 0 1 C0 0.67 0 0.34 0 0 Z " fill="#0A303E" transform="translate(43,136)"/>
<path d="M0 0 C6.93 0 13.86 0 21 0 C21 0.33 21 0.66 21 1 C14.07 1 7.14 1 0 1 C0 0.67 0 0.34 0 0 Z " fill="#0A303A" transform="translate(126,219)"/>
<path d="M0 0 C6.93 0 13.86 0 21 0 C21 0.33 21 0.66 21 1 C14.07 1 7.14 1 0 1 C0 0.67 0 0.34 0 0 Z " fill="#09313B" transform="translate(43,219)"/>
<path d="M0 0 C6.93 0 13.86 0 21 0 C21 0.33 21 0.66 21 1 C14.07 1 7.14 1 0 1 C0 0.67 0 0.34 0 0 Z " fill="#07323C" transform="translate(126,136)"/>
<path d="M0 0 C0.33 1.32 0.66 2.64 1 4 C2.98 4 4.96 4 7 4 C7.33 2.68 7.66 1.36 8 0 C8 1.65 8 3.3 8 5 C5.36 5 2.72 5 0 5 C0 3.35 0 1.7 0 0 Z " fill="#043243" transform="translate(63,236)"/>
<path d="M0 0 C0.33 1.32 0.66 2.64 1 4 C2.98 4 4.96 4 7 4 C7.33 2.68 7.66 1.36 8 0 C8 1.65 8 3.3 8 5 C5.36 5 2.72 5 0 5 C0 3.35 0 1.7 0 0 Z " fill="#023342" transform="translate(311,236)"/>
<path d="M0 0 C0.33 0 0.66 0 1 0 C1 4.95 1 9.9 1 15 C0.67 15 0.34 15 0 15 C0 10.05 0 5.1 0 0 Z " fill="#023245" transform="translate(41,231)"/>
<path d="M0 0 C4.95 0 9.9 0 15 0 C15 0.33 15 0.66 15 1 C10.05 1 5.1 1 0 1 C0 0.67 0 0.34 0 0 Z " fill="#0A2F40" transform="translate(119,228)"/>
<path d="M0 0 C4.62 0 9.24 0 14 0 C14 0.33 14 0.66 14 1 C9.38 1 4.76 1 0 1 C0 0.67 0 0.34 0 0 Z " fill="#09313D" transform="translate(225,247)"/>
<path d="M0 0 C4.62 0 9.24 0 14 0 C14 0.33 14 0.66 14 1 C9.38 1 4.76 1 0 1 C0 0.67 0 0.34 0 0 Z " fill="#0B303E" transform="translate(43,247)"/>
<path d="M0 0 C4.62 0 9.24 0 14 0 C14 0.33 14 0.66 14 1 C9.38 1 4.76 1 0 1 C0 0.67 0 0.34 0 0 Z " fill="#0A303E" transform="translate(225,228)"/>
<path d="M0 0 C0.99 0.495 0.99 0.495 2 1 C1.67 1.99 1.34 2.98 1 4 C3.31 4 5.62 4 8 4 C8 4.33 8 4.66 8 5 C5.36 5 2.72 5 0 5 C0 3.35 0 1.7 0 0 Z " fill="#023343" transform="translate(147,236)"/>
<path d="M0 0 C1.65 0 3.3 0 5 0 C5 2.97 5 5.94 5 9 C4.67 9 4.34 9 4 9 C4 6.36 4 3.72 4 1 C2.68 0.67 1.36 0.34 0 0 Z " fill="#013344" transform="translate(119,236)"/>
<path d="M0 0 C0.33 0 0.66 0 1 0 C1 3.63 1 7.26 1 11 C0.67 11 0.34 11 0 11 C-0.19491452 9.54263913 -0.38069358 8.08405407 -0.5625 6.625 C-0.66691406 5.81289062 -0.77132813 5.00078125 -0.87890625 4.1640625 C-1 2 -1 2 0 0 Z " fill="#013441" transform="translate(274,235)"/>
<path d="M0 0 C0 2.31 0 4.62 0 7 C-0.66 6.34 -1.32 5.68 -2 5 C-1.67 4.01 -1.34 3.02 -1 2 C-2.65 2 -4.3 2 -6 2 C-6 1.67 -6 1.34 -6 1 C-1.125 0 -1.125 0 0 0 Z " fill="#023343" transform="translate(299,235)"/>
<path d="M0 0 C3.63 0 7.26 0 11 0 C11 0.33 11 0.66 11 1 C7.37 1 3.74 1 0 1 C0 0.67 0 0.34 0 0 Z " fill="#04A7A9" transform="translate(95,294)"/>
<path d="M0 0 C3.63 0 7.26 0 11 0 C11 0.33 11 0.66 11 1 C7.37 1 3.74 1 0 1 C0 0.67 0 0.34 0 0 Z " fill="#0A313D" transform="translate(286,247)"/>
<path d="M0 0 C3.63 0 7.26 0 11 0 C11 0.33 11 0.66 11 1 C7.37 1 3.74 1 0 1 C0 0.67 0 0.34 0 0 Z " fill="#0A303D" transform="translate(210,247)"/>
<path d="M0 0 C3.63 0 7.26 0 11 0 C11 0.33 11 0.66 11 1 C7.37 1 3.74 1 0 1 C0 0.67 0 0.34 0 0 Z " fill="#06313B" transform="translate(105,247)"/>
<path d="M0 0 C3.63 0 7.26 0 11 0 C11 0.33 11 0.66 11 1 C7.37 1 3.74 1 0 1 C0 0.67 0 0.34 0 0 Z " fill="#0B3039" transform="translate(90,205)"/>
<path d="M0 0 C0.33 0 0.66 0 1 0 C1 3.3 1 6.6 1 10 C0.67 10 0.34 10 0 10 C0 6.7 0 3.4 0 0 Z " fill="#01AAA6" transform="translate(122,267)"/>
<path d="M0 0 C3.3 0 6.6 0 10 0 C10 0.33 10 0.66 10 1 C6.7 1 3.4 1 0 1 C0 0.67 0 0.34 0 0 Z " fill="#07323D" transform="translate(328,247)"/>
<path d="M0 0 C3.3 0 6.6 0 10 0 C10 0.33 10 0.66 10 1 C6.7 1 3.4 1 0 1 C0 0.67 0 0.34 0 0 Z " fill="#07313D" transform="translate(310,247)"/>
<path d="M0 0 C3.3 0 6.6 0 10 0 C10 0.33 10 0.66 10 1 C6.7 1 3.4 1 0 1 C0 0.67 0 0.34 0 0 Z " fill="#0A303D" transform="translate(146,247)"/>
<path d="M0 0 C3.3 0 6.6 0 10 0 C10 0.33 10 0.66 10 1 C6.7 1 3.4 1 0 1 C0 0.67 0 0.34 0 0 Z " fill="#0B303D" transform="translate(62,247)"/>
<path d="M0 0 C2.64 0 5.28 0 8 0 C7.67 0.66 7.34 1.32 7 2 C4.69 2 2.38 2 0 2 C0 1.34 0 0.68 0 0 Z " fill="#033343" transform="translate(164,244)"/>
<path d="M0 0 C3.3 0 6.6 0 10 0 C10 0.33 10 0.66 10 1 C6.7 1 3.4 1 0 1 C0 0.67 0 0.34 0 0 Z " fill="#0A303D" transform="translate(242,228)"/>
<path d="M0 0 C3.3 0 6.6 0 10 0 C10 0.33 10 0.66 10 1 C6.7 1 3.4 1 0 1 C0 0.67 0 0.34 0 0 Z " fill="#16A09C" transform="translate(198,83)"/>
<path d="M0 0 C3.3 0 6.6 0 10 0 C10 0.33 10 0.66 10 1 C6.7 1 3.4 1 0 1 C0 0.67 0 0.34 0 0 Z " fill="#13A1A0" transform="translate(176,83)"/>
<path d="M0 0 C3.3 0 6.6 0 10 0 C10 0.33 10 0.66 10 1 C6.7 1 3.4 1 0 1 C0 0.67 0 0.34 0 0 Z " fill="#01A8A9" transform="translate(187,82)"/>
<path d="M0 0 C2.97 0 5.94 0 9 0 C9 0.33 9 0.66 9 1 C6.03 1 3.06 1 0 1 C0 0.67 0 0.34 0 0 Z " fill="#0A303D" transform="translate(82,247)"/>
<path d="M0 0 C2.97 0 5.94 0 9 0 C9 0.33 9 0.66 9 1 C6.03 1 3.06 1 0 1 C0 0.67 0 0.34 0 0 Z " fill="#0B303A" transform="translate(329,228)"/>
<path d="M0 0 C2.97 0 5.94 0 9 0 C9 0.33 9 0.66 9 1 C6.03 1 3.06 1 0 1 C0 0.67 0 0.34 0 0 Z " fill="#08313F" transform="translate(287,228)"/>
<path d="M0 0 C2.97 0 5.94 0 9 0 C9 0.33 9 0.66 9 1 C6.03 1 3.06 1 0 1 C0 0.67 0 0.34 0 0 Z " fill="#083239" transform="translate(106,228)"/>
<path d="M0 0 C2.97 0 5.94 0 9 0 C9 0.33 9 0.66 9 1 C6.03 1 3.06 1 0 1 C0 0.67 0 0.34 0 0 Z " fill="#093139" transform="translate(83,228)"/>
<path d="M0 0 C0.33 0 0.66 0 1 0 C1 2.97 1 5.94 1 9 C0.67 9 0.34 9 0 9 C0 6.03 0 3.06 0 0 Z " fill="#03AAA1" transform="translate(261,107)"/>
<path d="M0 0 C2.64 0 5.28 0 8 0 C8 0.33 8 0.66 8 1 C5.36 1 2.72 1 0 1 C0 0.67 0 0.34 0 0 Z " fill="#179F9E" transform="translate(204,325)"/>
<path d="M0 0 C2.64 0 5.28 0 8 0 C8 0.33 8 0.66 8 1 C5.36 1 2.72 1 0 1 C0 0.67 0 0.34 0 0 Z " fill="#1D9C9E" transform="translate(172,325)"/>
<path d="M0 0 C1.32 0 2.64 0 4 0 C3.67 0.66 3.34 1.32 3 2 C2.34 1.67 1.68 1.34 1 1 C0.67 1.99 0.34 2.98 0 4 C0 2.68 0 1.36 0 0 Z " fill="#003443" transform="translate(246,242)"/>
<path d="M0 0 C2.64 0 5.28 0 8 0 C8 0.33 8 0.66 8 1 C5.36 1 2.72 1 0 1 C0 0.67 0 0.34 0 0 Z " fill="#07323D" transform="translate(311,228)"/>
<path d="M0 0 C2.64 0 5.28 0 8 0 C8 0.33 8 0.66 8 1 C5.36 1 2.72 1 0 1 C0 0.67 0 0.34 0 0 Z " fill="#0B303D" transform="translate(212,228)"/>
<path d="M0 0 C2.64 0 5.28 0 8 0 C8 0.33 8 0.66 8 1 C5.36 1 2.72 1 0 1 C0 0.67 0 0.34 0 0 Z " fill="#0B303B" transform="translate(147,228)"/>
<path d="M0 0 C2.64 0 5.28 0 8 0 C8 0.33 8 0.66 8 1 C5.36 1 2.72 1 0 1 C0 0.67 0 0.34 0 0 Z " fill="#09313C" transform="translate(63,228)"/>
<path d="M0 0 C2.31 0 4.62 0 7 0 C7 0.33 7 0.66 7 1 C4.69 1 2.38 1 0 1 C0 0.67 0 0.34 0 0 Z " fill="#033343" transform="translate(288,240)"/>
<path d="M0 0 C2.31 0 4.62 0 7 0 C7 0.33 7 0.66 7 1 C4.69 1 2.38 1 0 1 C0 0.67 0 0.34 0 0 Z " fill="#179CA2" transform="translate(206,58)"/>
<path d="M0 0 C2.31 0 4.62 0 7 0 C7 0.33 7 0.66 7 1 C4.69 1 2.38 1 0 1 C0 0.67 0 0.34 0 0 Z " fill="#179CA2" transform="translate(171,58)"/>
<path d="M0 0 C1.98 0 3.96 0 6 0 C6 0.33 6 0.66 6 1 C4.02 1 2.04 1 0 1 C0 0.67 0 0.34 0 0 Z " fill="#08A6A3" transform="translate(212,324)"/>
<path d="M0 0 C1.98 0 3.96 0 6 0 C6 0.33 6 0.66 6 1 C4.02 1 2.04 1 0 1 C0 0.67 0 0.34 0 0 Z " fill="#08A6A2" transform="translate(166,324)"/>
<path d="M0 0 C1.98 0 3.96 0 6 0 C6 0.33 6 0.66 6 1 C4.02 1 2.04 1 0 1 C0 0.67 0 0.34 0 0 Z " fill="#01AAA3" transform="translate(207,299)"/>
<path d="M0 0 C1.98 0 3.96 0 6 0 C6 0.33 6 0.66 6 1 C4.02 1 2.04 1 0 1 C0 0.67 0 0.34 0 0 Z " fill="#04A7A9" transform="translate(171,299)"/>
<path d="M0 0 C0.66 0.33 1.32 0.66 2 1 C0.02 1.99 0.02 1.99 -2 3 C-1.34 2.01 -0.68 1.02 0 0 Z " fill="#03A5A8" transform="translate(266,271)"/>
<path d="M0 0 C0.33 0 0.66 0 1 0 C1 1.98 1 3.96 1 6 C0.67 6 0.34 6 0 6 C0 4.02 0 2.04 0 0 Z " fill="#033342" transform="translate(196,239)"/>
<path d="M0 0 C0.33 0 0.66 0 1 0 C1 1.98 1 3.96 1 6 C0.67 6 0.34 6 0 6 C0 4.02 0 2.04 0 0 Z " fill="#07323B" transform="translate(188,240)"/>
<path d="M0 0 C0.33 0 0.66 0 1 0 C1 1.98 1 3.96 1 6 C0.67 6 0.34 6 0 6 C0 4.02 0 2.04 0 0 Z " fill="#013345" transform="translate(342,238)"/>
<path d="M0 0 C0.33 0 0.66 0 1 0 C1 1.98 1 3.96 1 6 C0.67 6 0.34 6 0 6 C0 4.02 0 2.04 0 0 Z " fill="#02343E" transform="translate(206,232)"/>
<path d="M0 0 C0.66 0.33 1.32 0.66 2 1 C0.02 1.99 0.02 1.99 -2 3 C-1.34 2.01 -0.68 1.02 0 0 Z " fill="#04A7A7" transform="translate(119,109)"/>
<path d="M0 0 C1.98 0 3.96 0 6 0 C6 0.33 6 0.66 6 1 C4.02 1 2.04 1 0 1 C0 0.67 0 0.34 0 0 Z " fill="#05A7A4" transform="translate(208,84)"/>
<path d="M0 0 C1.98 0 3.96 0 6 0 C6 0.33 6 0.66 6 1 C4.02 1 2.04 1 0 1 C0 0.67 0 0.34 0 0 Z " fill="#05A6A7" transform="translate(170,84)"/>
<path d="M0 0 C1.98 0 3.96 0 6 0 C6 0.33 6 0.66 6 1 C4.02 1 2.04 1 0 1 C0 0.67 0 0.34 0 0 Z " fill="#05A6A4" transform="translate(213,59)"/>
<path d="M0 0 C1.98 0 3.96 0 6 0 C6 0.33 6 0.66 6 1 C4.02 1 2.04 1 0 1 C0 0.67 0 0.34 0 0 Z " fill="#04A6A4" transform="translate(165,59)"/>
<path d="M0 0 C1.65 0 3.3 0 5 0 C5 0.33 5 0.66 5 1 C3.35 1 1.7 1 0 1 C0 0.67 0 0.34 0 0 Z " fill="#16A09F" transform="translate(213,298)"/>
<path d="M0 0 C1.65 0 3.3 0 5 0 C5 0.33 5 0.66 5 1 C3.35 1 1.7 1 0 1 C0 0.67 0 0.34 0 0 Z " fill="#09A5A3" transform="translate(166,298)"/>
<path d="M0 0 C0.33 0 0.66 0 1 0 C1 1.65 1 3.3 1 5 C0.67 5 0.34 5 0 5 C0 3.35 0 1.7 0 0 Z " fill="#0AA69C" transform="translate(79,271)"/>
<path d="M0 0 C1.65 0 3.3 0 5 0 C5 0.33 5 0.66 5 1 C3.35 1 1.7 1 0 1 C0 0.67 0 0.34 0 0 Z " fill="#02AB9C" transform="translate(99,251)"/>
<path d="M0 0 C0.99 0.495 0.99 0.495 2 1 C1.01 2.485 1.01 2.485 0 4 C0 2.68 0 1.36 0 0 Z " fill="#003443" transform="translate(287,236)"/>
<path d="M0 0 C0.99 0.495 0.99 0.495 2 1 C1.01 2.485 1.01 2.485 0 4 C0 2.68 0 1.36 0 0 Z " fill="#023345" transform="translate(83,236)"/>
<path d="M0 0 C0.33 1.32 0.66 2.64 1 4 C0.34 3.34 -0.32 2.68 -1 2 C-0.67 1.34 -0.34 0.68 0 0 Z " fill="#003545" transform="translate(223,234)"/>
<path d="M0 0 C1.65 0 3.3 0 5 0 C5 0.33 5 0.66 5 1 C3.35 1 1.7 1 0 1 C0 0.67 0 0.34 0 0 Z " fill="#12A0A5" transform="translate(284,131)"/>
<path d="M0 0 C1.65 0 3.3 0 5 0 C5 0.33 5 0.66 5 1 C3.35 1 1.7 1 0 1 C0 0.67 0 0.34 0 0 Z " fill="#0FA39D" transform="translate(276,131)"/>
<path d="M0 0 C0.33 0 0.66 0 1 0 C1 1.65 1 3.3 1 5 C0.67 5 0.34 5 0 5 C0 3.35 0 1.7 0 0 Z " fill="#0AA69C" transform="translate(304,108)"/>
<path d="M0 0 C4 1 4 1 4 1 Z " fill="#0FA2A8" transform="translate(218,323)"/>
<path d="M0 0 C4 1 4 1 4 1 Z " fill="#159FA1" transform="translate(162,323)"/>
<path d="M0 0 C4 1 4 1 4 1 Z " fill="#06A9A2" transform="translate(158,322)"/>
<path d="M0 0 C4 1 4 1 4 1 Z " fill="#0FA2A3" transform="translate(226,321)"/>
<path d="M0 0 C4 1 4 1 4 1 Z " fill="#10A2A2" transform="translate(154,321)"/>
<path d="M0 0 C0.99 0.33 1.98 0.66 3 1 C2.01 1 1.02 1 0 1 C0 0.67 0 0.34 0 0 Z " fill="#01A9A8" transform="translate(111,299)"/>
<path d="M0 0 C0.66 0.33 1.32 0.66 2 1 C1.01 1 0.02 1 -1 1 C-0.67 0.67 -0.34 0.34 0 0 Z " fill="#01A9A7" transform="translate(275,296)"/>
<path d="M0 0 C0.66 0.33 1.32 0.66 2 1 C1.01 1 0.02 1 -1 1 C-0.67 0.67 -0.34 0.34 0 0 Z " fill="#02A9A5" transform="translate(282,290)"/>
<path d="M0 0 C0 3 0 3 0 3 Z " fill="#04A7A5" transform="translate(291,281)"/>
<path d="M0 0 C1 4 1 4 1 4 Z " fill="#12A1A5" transform="translate(80,276)"/>
<path d="M0 0 C0.66 0.33 1.32 0.66 2 1 C1.01 1 0.02 1 -1 1 C-0.67 0.67 -0.34 0.34 0 0 Z " fill="#06A89E" transform="translate(259,277)"/>
<path d="M0 0 C0 3 0 3 0 3 Z " fill="#03A8A8" transform="translate(297,274)"/>
<path d="M0 0 C1 4 1 4 1 4 Z " fill="#0EA3A2" transform="translate(80,267)"/>
<path d="M0 0 C0 3 0 3 0 3 Z " fill="#04A4A2" transform="translate(272,265)"/>
<path d="M0 0 C4 1 4 1 4 1 Z " fill="#13A09B" transform="translate(104,252)"/>
<path d="M0 0 C4 1 4 1 4 1 Z " fill="#0A313D" transform="translate(300,247)"/>
<path d="M0 0 C4 1 4 1 4 1 Z " fill="#063140" transform="translate(276,247)"/>
<path d="M0 0 C4 1 4 1 4 1 Z " fill="#0A313D" transform="translate(264,247)"/>
<path d="M0 0 C4 1 4 1 4 1 Z " fill="#06323D" transform="translate(253,247)"/>
<path d="M0 0 C4 1 4 1 4 1 Z " fill="#0B303D" transform="translate(241,247)"/>
<path d="M0 0 C4 1 4 1 4 1 Z " fill="#0E2E39" transform="translate(190,247)"/>
<path d="M0 0 C4 1 4 1 4 1 Z " fill="#06323D" transform="translate(173,247)"/>
<path d="M0 0 C4 1 4 1 4 1 Z " fill="#06323D" transform="translate(159,247)"/>
<path d="M0 0 C4 1 4 1 4 1 Z " fill="#0A313D" transform="translate(136,247)"/>
<path d="M0 0 C4 1 4 1 4 1 Z " fill="#09313B" transform="translate(125,247)"/>
<path d="M0 0 C4 1 4 1 4 1 Z " fill="#0A2E3B" transform="translate(97,247)"/>
<path d="M0 0 C0.66 0.66 1.32 1.32 2 2 C1.01 2.495 1.01 2.495 0 3 C0 2.01 0 1.02 0 0 Z " fill="#013347" transform="translate(305,243)"/>
<path d="M0 0 C0.66 0.66 1.32 1.32 2 2 C1.01 2.495 1.01 2.495 0 3 C0 2.01 0 1.02 0 0 Z " fill="#023443" transform="translate(141,243)"/>
<path d="M0 0 C0.66 0.66 1.32 1.32 2 2 C1.01 2.495 1.01 2.495 0 3 C0 2.01 0 1.02 0 0 Z " fill="#003344" transform="translate(102,238)"/>
<path d="M0 0 C4 1 4 1 4 1 Z " fill="#023345" transform="translate(153,236)"/>
<path d="M0 0 C0.66 0 1.32 0 2 0 C2 0.66 2 1.32 2 2 C1.34 2 0.68 2 0 2 C0 1.34 0 0.68 0 0 Z " fill="#003543" transform="translate(265,235)"/>
<path d="M0 0 C0 3 0 3 0 3 Z " fill="#033245" transform="translate(200,234)"/>
<path d="M0 0 C0.99 0.495 0.99 0.495 2 1 C1.67 1.66 1.34 2.32 1 3 C0.67 2.01 0.34 1.02 0 0 Z " fill="#073144" transform="translate(183,233)"/>
<path d="M0 0 C0.99 0.495 0.99 0.495 2 1 C1.34 1.66 0.68 2.32 0 3 C0 2.01 0 1.02 0 0 Z " fill="#003541" transform="translate(305,231)"/>
<path d="M0 0 C0.99 0.495 0.99 0.495 2 1 C1.34 1.66 0.68 2.32 0 3 C0 2.01 0 1.02 0 0 Z " fill="#023344" transform="translate(141,231)"/>
<path d="M0 0 C0.99 0 1.98 0 3 0 C2.67 0.66 2.34 1.32 2 2 C1.34 1.34 0.68 0.68 0 0 Z " fill="#033343" transform="translate(92,229)"/>
<path d="M0 0 C4 1 4 1 4 1 Z " fill="#063339" transform="translate(271,228)"/>
<path d="M0 0 C4 1 4 1 4 1 Z " fill="#0B303F" transform="translate(257,228)"/>
<path d="M0 0 C4 1 4 1 4 1 Z " fill="#093238" transform="translate(197,228)"/>
<path d="M0 0 C4 1 4 1 4 1 Z " fill="#0C303A" transform="translate(184,228)"/>
<path d="M0 0 C4 1 4 1 4 1 Z " fill="#06333D" transform="translate(166,228)"/>
<path d="M0 0 C4 1 4 1 4 1 Z " fill="#0D3039" transform="translate(43,228)"/>
<path d="M0 0 C4 1 4 1 4 1 Z " fill="#0B303D" transform="translate(99,224)"/>
<path d="M0 0 C0.99 0.495 0.99 0.495 2 1 C1.67 1.66 1.34 2.32 1 3 C0.67 2.01 0.34 1.02 0 0 Z " fill="#003442" transform="translate(82,196)"/>
<path d="M0 0 C0 3 0 3 0 3 Z " fill="#023245" transform="translate(112,190)"/>
<path d="M0 0 C0.66 0 1.32 0 2 0 C2 0.66 2 1.32 2 2 C1.34 2 0.68 2 0 2 C0 1.34 0 0.68 0 0 Z " fill="#003445" transform="translate(202,186)"/>
<path d="M0 0 C0.99 0.495 0.99 0.495 2 1 C1.67 1.66 1.34 2.32 1 3 C0.67 2.01 0.34 1.02 0 0 Z " fill="#003443" transform="translate(288,162)"/>
<path d="M0 0 C0 3 0 3 0 3 Z " fill="#023143" transform="translate(109,156)"/>
<path d="M0 0 C0.99 0.495 0.99 0.495 2 1 C1.67 1.66 1.34 2.32 1 3 C0.67 2.01 0.34 1.02 0 0 Z " fill="#023342" transform="translate(77,152)"/>
<path d="M0 0 C0 3 0 3 0 3 Z " fill="#00363F" transform="translate(113,151)"/>
<path d="M0 0 C0.99 0.495 0.99 0.495 2 1 C1.67 1.66 1.34 2.32 1 3 C0.67 2.01 0.34 1.02 0 0 Z " fill="#003541" transform="translate(73,147)"/>
<path d="M0 0 C0.99 0.495 0.99 0.495 2 1 C1.67 1.66 1.34 2.32 1 3 C0.67 2.01 0.34 1.02 0 0 Z " fill="#003540" transform="translate(69,142)"/>
<path d="M0 0 C0 3 0 3 0 3 Z " fill="#04A9A1" transform="translate(92,101)"/>
<path d="M0 0 C0.66 0.33 1.32 0.66 2 1 C1.01 1 0.02 1 -1 1 C-0.67 0.67 -0.34 0.34 0 0 Z " fill="#05AAA2" transform="translate(102,91)"/>
<path d="M0 0 C4 1 4 1 4 1 Z " fill="#01A9A9" transform="translate(285,89)"/>
<path d="M0 0 C4 1 4 1 4 1 Z " fill="#1D9D9D" transform="translate(281,88)"/>
<path d="M0 0 C4 1 4 1 4 1 Z " fill="#13A0A4" transform="translate(222,87)"/>
<path d="M0 0 C4 1 4 1 4 1 Z " fill="#06A8A6" transform="translate(162,86)"/>
<path d="M0 0 C4 1 4 1 4 1 Z " fill="#159FA1" transform="translate(214,85)"/>
<path d="M0 0 C4 1 4 1 4 1 Z " fill="#199EA2" transform="translate(166,85)"/>
<path d="M0 0 C4 1 4 1 4 1 Z " fill="#07A5A2" transform="translate(223,61)"/>
<path d="M0 0 C4 1 4 1 4 1 Z " fill="#07A69C" transform="translate(157,61)"/>
<path d="M0 0 C4 1 4 1 4 1 Z " fill="#0DA1A7" transform="translate(219,60)"/>
<path d="M0 0 C4 1 4 1 4 1 Z " fill="#0EA0A6" transform="translate(161,60)"/>
<path d="M0 0 C3 1 3 1 3 1 Z " fill="#07AA9E" transform="translate(223,322)"/>
<path d="M0 0 C3 1 3 1 3 1 Z " fill="#0AA5A6" transform="translate(230,320)"/>
<path d="M0 0 C3 1 3 1 3 1 Z " fill="#0AA5A2" transform="translate(151,320)"/>
<path d="M0 0 C3 1 3 1 3 1 Z " fill="#0DA4A3" transform="translate(233,319)"/>
<path d="M0 0 C3 1 3 1 3 1 Z " fill="#0DA3A2" transform="translate(148,319)"/>
<path d="M0 0 C3 1 3 1 3 1 Z " fill="#02A8A9" transform="translate(236,318)"/>
<path d="M0 0 C3 1 3 1 3 1 Z " fill="#04A8A9" transform="translate(145,318)"/>
<path d="M0 0 C3 1 3 1 3 1 Z " fill="#05A7A6" transform="translate(241,316)"/>
<path d="M0 0 C3 1 3 1 3 1 Z " fill="#0AA5A5" transform="translate(140,316)"/>
<path d="M0 0 C3 1 3 1 3 1 Z " fill="#0AA5A5" transform="translate(218,297)"/>
<path d="M0 0 C3 1 3 1 3 1 Z " fill="#01A9A5" transform="translate(163,297)"/>
<path d="M0 0 C3 1 3 1 3 1 Z " fill="#189EA0" transform="translate(222,296)"/>
<path d="M0 0 C3 1 3 1 3 1 Z " fill="#15A0A0" transform="translate(159,296)"/>
<path d="M0 0 C3 1 3 1 3 1 Z " fill="#01A5AE" transform="translate(225,295)"/>
<path d="M0 0 C3 1 3 1 3 1 Z " fill="#00A8AF" transform="translate(156,295)"/>
<path d="M0 0 C3 1 3 1 3 1 Z " fill="#09A3A4" transform="translate(228,294)"/>
<path d="M0 0 C3 1 3 1 3 1 Z " fill="#07A6A5" transform="translate(153,294)"/>
<path d="M0 0 C3 1 3 1 3 1 Z " fill="#06A5A0" transform="translate(233,292)"/>
<path d="M0 0 C3 1 3 1 3 1 Z " fill="#04A7A9" transform="translate(148,292)"/>
<path d="" fill="#03A9A5" transform="translate(0,0)"/>
<path d="M0 0 C3 1 3 1 3 1 Z " fill="#09A2A1" transform="translate(92,253)"/>
<path d="M0 0 C3 1 3 1 3 1 Z " fill="#189BA1" transform="translate(95,252)"/>
<path d="M0 0 C3 1 3 1 3 1 Z " fill="#08323D" transform="translate(92,247)"/>
<path d="M0 0 C0.66 0.66 1.32 1.32 2 2 C1.34 2 0.68 2 0 2 C0 1.34 0 0.68 0 0 Z " fill="#013244" transform="translate(102,244)"/>
<path d="M0 0 C0.33 0.66 0.66 1.32 1 2 C0.34 1.67 -0.32 1.34 -1 1 C-0.67 0.67 -0.34 0.34 0 0 Z " fill="#003443" transform="translate(223,244)"/>
<path d="M0 0 C0.66 0 1.32 0 2 0 C1.67 0.66 1.34 1.32 1 2 C0.67 1.34 0.34 0.68 0 0 Z " fill="#003343" transform="translate(76,232)"/>
<path d="M0 0 C3 1 3 1 3 1 Z " fill="#013345" transform="translate(319,229)"/>
<path d="M0 0 C3 1 3 1 3 1 Z " fill="#023347" transform="translate(252,229)"/>
<path d="M0 0 C3 1 3 1 3 1 Z " fill="#02343F" transform="translate(71,229)"/>
<path d="M0 0 C3 1 3 1 3 1 Z " fill="#07323D" transform="translate(300,228)"/>
<path d="M0 0 C3 1 3 1 3 1 Z " fill="#08323B" transform="translate(277,228)"/>
<path d="M0 0 C3 1 3 1 3 1 Z " fill="#0B3039" transform="translate(136,228)"/>
<path d="" fill="#053241" transform="translate(0,0)"/>
<path d="" fill="#053241" transform="translate(0,0)"/>
<path d="" fill="#01343D" transform="translate(0,0)"/>
<path d="" fill="#06323B" transform="translate(0,0)"/>
<path d="" fill="#09303B" transform="translate(0,0)"/>
<path d="M0 0 C3 1 3 1 3 1 Z " fill="#0BA5A3" transform="translate(281,132)"/>
<path d="" fill="#189EA1" transform="translate(0,0)"/>
<path d="" fill="#10A2A3" transform="translate(0,0)"/>
<path d="" fill="#149FA5" transform="translate(0,0)"/>
<path d="" fill="#01A8AC" transform="translate(0,0)"/>
<path d="M0 0 C3 1 3 1 3 1 Z " fill="#10A2A5" transform="translate(238,93)"/>
<path d="M0 0 C3 1 3 1 3 1 Z " fill="#09A5A6" transform="translate(289,90)"/>
<path d="M0 0 C3 1 3 1 3 1 Z " fill="#00A9A9" transform="translate(231,90)"/>
<path d="M0 0 C3 1 3 1 3 1 Z " fill="#00AAA9" transform="translate(150,90)"/>
<path d="M0 0 C3 1 3 1 3 1 Z " fill="#05A7A7" transform="translate(226,88)"/>
<path d="M0 0 C3 1 3 1 3 1 Z " fill="#159FA2" transform="translate(159,87)"/>
<path d="M0 0 C3 1 3 1 3 1 Z " fill="#02A9A9" transform="translate(219,86)"/>
<path d="M0 0 C3 1 3 1 3 1 Z " fill="#03A6A4" transform="translate(135,69)"/>
<path d="M0 0 C3 1 3 1 3 1 Z " fill="#0EA49E" transform="translate(239,66)"/>
<path d="M0 0 C3 1 3 1 3 1 Z " fill="#0DA39C" transform="translate(142,66)"/>
<path d="M0 0 C3 1 3 1 3 1 Z " fill="#12A2A1" transform="translate(234,64)"/>
<path d="M0 0 C3 1 3 1 3 1 Z " fill="#0CA39E" transform="translate(231,63)"/>
<path d="M0 0 C3 1 3 1 3 1 Z " fill="#0CA39F" transform="translate(150,63)"/>
<path d="M0 0 C3 1 3 1 3 1 Z " fill="#0EA1A2" transform="translate(227,62)"/>
<path d="M0 0 C3 1 3 1 3 1 Z " fill="#0DA39C" transform="translate(154,62)"/>
<path d="M0 0 C2 1 2 1 2 1 Z " fill="#09A5A4" transform="translate(239,317)"/>
<path d="M0 0 C2 1 2 1 2 1 Z " fill="#10A2A2" transform="translate(143,317)"/>
<path d="M0 0 C2 1 2 1 2 1 Z " fill="#0FA2A5" transform="translate(244,315)"/>
<path d="M0 0 C2 1 2 1 2 1 Z " fill="#0BA4A4" transform="translate(138,315)"/>
<path d="M0 0 C2 1 2 1 2 1 Z " fill="#04A8A2" transform="translate(246,314)"/>
<path d="M0 0 C2 1 2 1 2 1 Z " fill="#04A99F" transform="translate(136,314)"/>
<path d="M0 0 C2 1 2 1 2 1 Z " fill="#0CA2AC" transform="translate(248,313)"/>
<path d="M0 0 C2 1 2 1 2 1 Z " fill="#0AA69C" transform="translate(134,313)"/>
<path d="M0 0 C2 1 2 1 2 1 Z " fill="#00A9AA" transform="translate(250,312)"/>
<path d="M0 0 C2 1 2 1 2 1 Z " fill="#00ABA6" transform="translate(132,312)"/>
<path d="M0 0 C2 1 2 1 2 1 Z " fill="#08A6A4" transform="translate(252,311)"/>
<path d="M0 0 C2 1 2 1 2 1 Z " fill="#05A7A9" transform="translate(130,311)"/>
<path d="M0 0 C2 1 2 1 2 1 Z " fill="#03A7A9" transform="translate(254,310)"/>
<path d="M0 0 C2 1 2 1 2 1 Z " fill="#03A7AA" transform="translate(128,310)"/>
<path d="M0 0 C2 1 2 1 2 1 Z " fill="#06A7A7" transform="translate(256,309)"/>
<path d="M0 0 C2 1 2 1 2 1 Z " fill="#08A4AA" transform="translate(126,309)"/>
<path d="M0 0 C2 1 2 1 2 1 Z " fill="#02AA9F" transform="translate(258,308)"/>
<path d="M0 0 C2 1 2 1 2 1 Z " fill="#03A9A1" transform="translate(123,307)"/>
<path d="M0 0 C2 1 2 1 2 1 Z " fill="#00ADA0" transform="translate(261,306)"/>
<path d="M0 0 C2 1 2 1 2 1 Z " fill="#00ABA2" transform="translate(121,306)"/>
<path d="M0 0 C2 1 2 1 2 1 Z " fill="#07A6A5" transform="translate(264,304)"/>
<path d="M0 0 C2 1 2 1 2 1 Z " fill="#07A6A8" transform="translate(118,304)"/>
<path d="M0 0 C2 1 2 1 2 1 Z " fill="#05A8A4" transform="translate(267,302)"/>
<path d="M0 0 C2 1 2 1 2 1 Z " fill="#04A8A8" transform="translate(115,302)"/>
<path d="M0 0 C2 1 2 1 2 1 Z " fill="#07A6A6" transform="translate(270,300)"/>
<path d="M0 0 C2 1 2 1 2 1 Z " fill="#02A9A5" transform="translate(107,296)"/>
<path d="M0 0 C2 1 2 1 2 1 Z " fill="#09A4A0" transform="translate(231,293)"/>
<path d="M0 0 C2 1 2 1 2 1 Z " fill="#09A5A5" transform="translate(151,293)"/>
<path d="M0 0 C2 1 2 1 2 1 Z " fill="#08A5A9" transform="translate(93,293)"/>
<path d="M0 0 C2 1 2 1 2 1 Z " fill="#01AAA6" transform="translate(91,292)"/>
<path d="M0 0 C2 1 2 1 2 1 Z " fill="#08A4A7" transform="translate(236,291)"/>
<path d="M0 0 C2 1 2 1 2 1 Z " fill="#04A6AD" transform="translate(146,291)"/>
<path d="M0 0 C2 1 2 1 2 1 Z " fill="#07A3AA" transform="translate(238,290)"/>
<path d="M0 0 C2 1 2 1 2 1 Z " fill="#05A5AE" transform="translate(144,290)"/>
<path d="M0 0 C2 1 2 1 2 1 Z " fill="#03A8A4" transform="translate(88,290)"/>
<path d="M0 0 C2 1 2 1 2 1 Z " fill="#04A7AB" transform="translate(240,289)"/>
<path d="M0 0 C2 1 2 1 2 1 Z " fill="#01A9AB" transform="translate(142,289)"/>
<path d="M0 0 C2 1 2 1 2 1 Z " fill="#0AA5A2" transform="translate(242,288)"/>
<path d="M0 0 C2 1 2 1 2 1 Z " fill="#0AA6A1" transform="translate(140,288)"/>
<path d="M0 0 C2 1 2 1 2 1 Z " fill="#00A8A2" transform="translate(244,287)"/>
<path d="M0 0 C2 1 2 1 2 1 Z " fill="#06A7A1" transform="translate(138,287)"/>
<path d="M0 0 C2 1 2 1 2 1 Z " fill="#08A3A9" transform="translate(246,286)"/>
<path d="M0 0 C2 1 2 1 2 1 Z " fill="#0FA1AA" transform="translate(136,286)"/>
<path d="" fill="#07A994" transform="translate(0,0)"/>
<path d="M0 0 C2 1 2 1 2 1 Z " fill="#0BA599" transform="translate(249,284)"/>
<path d="M0 0 C2 1 2 1 2 1 Z " fill="#05A99C" transform="translate(133,284)"/>
<path d="M0 0 C2 1 2 1 2 1 Z " fill="#09A59A" transform="translate(251,283)"/>
<path d="" fill="#00AC9F" transform="translate(0,0)"/>
<path d="M0 0 C2 1 2 1 2 1 Z " fill="#00AC9F" transform="translate(130,282)"/>
<path d="" fill="#01A8AB" transform="translate(0,0)"/>
<path d="M0 0 C2 1 2 1 2 1 Z " fill="#0EA2A5" transform="translate(255,280)"/>
<path d="M0 0 C2 1 2 1 2 1 Z " fill="#11A1A4" transform="translate(127,280)"/>
<path d="M0 0 C2 1 2 1 2 1 Z " fill="#00ADA3" transform="translate(123,277)"/>
<path d="" fill="#05A5A6" transform="translate(0,0)"/>
<path d="" fill="#169F9E" transform="translate(0,0)"/>
<path d="" fill="#01AAA3" transform="translate(0,0)"/>
<path d="M0 0 C2 1 2 1 2 1 Z " fill="#09A3A3" transform="translate(273,264)"/>
<path d="" fill="#02ABA5" transform="translate(0,0)"/>
<path d="" fill="#0DA3A3" transform="translate(0,0)"/>
<path d="" fill="#02AA9F" transform="translate(0,0)"/>
<path d="M0 0 C2 1 2 1 2 1 Z " fill="#10A1A9" transform="translate(112,255)"/>
<path d="M0 0 C2 1 2 1 2 1 Z " fill="#00AAA6" transform="translate(89,255)"/>
<path d="M0 0 C2 1 2 1 2 1 Z " fill="#0CA2A2" transform="translate(110,254)"/>
<path d="M0 0 C2 1 2 1 2 1 Z " fill="#0CA2A4" transform="translate(108,253)"/>
<path d="M0 0 C2 1 2 1 2 1 Z " fill="#003443" transform="translate(326,246)"/>
<path d="M0 0 C2 1 2 1 2 1 Z " fill="#003543" transform="translate(320,246)"/>
<path d="M0 0 C2 1 2 1 2 1 Z " fill="#003349" transform="translate(308,246)"/>
<path d="M0 0 C2 1 2 1 2 1 Z " fill="#023443" transform="translate(239,246)"/>
<path d="M0 0 C2 1 2 1 2 1 Z " fill="#023443" transform="translate(156,246)"/>
<path d="M0 0 C2 1 2 1 2 1 Z " fill="#023443" transform="translate(144,246)"/>
<path d="M0 0 C2 1 2 1 2 1 Z " fill="#023443" transform="translate(80,246)"/>
<path d="M0 0 C2 1 2 1 2 1 Z " fill="#023443" transform="translate(72,246)"/>
<path d="M0 0 C2 1 2 1 2 1 Z " fill="#023443" transform="translate(60,246)"/>
<path d="M0 0 C2 1 2 1 2 1 Z " fill="#003443" transform="translate(283,245)"/>
<path d="" fill="#003443" transform="translate(0,0)"/>
<path d="" fill="#093041" transform="translate(0,0)"/>
<path d="" fill="#023341" transform="translate(0,0)"/>
<path d="" fill="#023343" transform="translate(0,0)"/>
<path d="" fill="#023347" transform="translate(0,0)"/>
<path d="" fill="#043243" transform="translate(0,0)"/>
<path d="M0 0 C2 1 2 1 2 1 Z " fill="#023443" transform="translate(76,243)"/>
<path d="" fill="#01353F" transform="translate(0,0)"/>
<path d="" fill="#033343" transform="translate(0,0)"/>
<path d="" fill="#053149" transform="translate(0,0)"/>
<path d="" fill="#053243" transform="translate(0,0)"/>
<path d="" fill="#093043" transform="translate(0,0)"/>
<path d="" fill="#003541" transform="translate(0,0)"/>
<path d="" fill="#033244" transform="translate(0,0)"/>
<path d="" fill="#073047" transform="translate(0,0)"/>
<path d="" fill="#043244" transform="translate(0,0)"/>
<path d="M0 0 C2 1 2 1 2 1 Z " fill="#033245" transform="translate(295,239)"/>
<path d="" fill="#053243" transform="translate(0,0)"/>
<path d="M0 0 C2 1 2 1 2 1 Z " fill="#023345" transform="translate(155,239)"/>
<path d="" fill="#023345" transform="translate(0,0)"/>
<path d="" fill="#023344" transform="translate(0,0)"/>
<path d="" fill="#053244" transform="translate(0,0)"/>
<path d="" fill="#023245" transform="translate(0,0)"/>
<path d="" fill="#003445" transform="translate(0,0)"/>
<path d="" fill="#023345" transform="translate(0,0)"/>
<path d="" fill="#023345" transform="translate(0,0)"/>
<path d="" fill="#063143" transform="translate(0,0)"/>
<path d="" fill="#003742" transform="translate(0,0)"/>
<path d="" fill="#003642" transform="translate(0,0)"/>
<path d="" fill="#023345" transform="translate(0,0)"/>
<path d="" fill="#023345" transform="translate(0,0)"/>
<path d="" fill="#013441" transform="translate(0,0)"/>
<path d="" fill="#023344" transform="translate(0,0)"/>
<path d="" fill="#023245" transform="translate(0,0)"/>
<path d="" fill="#033245" transform="translate(0,0)"/>
<path d="" fill="#003540" transform="translate(0,0)"/>
<path d="" fill="#023342" transform="translate(0,0)"/>
<path d="" fill="#043244" transform="translate(0,0)"/>
<path d="" fill="#07313E" transform="translate(0,0)"/>
<path d="" fill="#073144" transform="translate(0,0)"/>
<path d="" fill="#013444" transform="translate(0,0)"/>
<path d="M0 0 C2 1 2 1 2 1 Z " fill="#003641" transform="translate(307,230)"/>
<path d="M0 0 C2 1 2 1 2 1 Z " fill="#033343" transform="translate(143,230)"/>
<path d="M0 0 C2 1 2 1 2 1 Z " fill="#00373B" transform="translate(79,230)"/>
<path d="M0 0 C2 1 2 1 2 1 Z " fill="#073141" transform="translate(59,230)"/>
<path d="M0 0 C2 1 2 1 2 1 Z " fill="#05333C" transform="translate(338,229)"/>
<path d="M0 0 C2 1 2 1 2 1 Z " fill="#023345" transform="translate(327,229)"/>
<path d="M0 0 C2 1 2 1 2 1 Z " fill="#003643" transform="translate(309,229)"/>
<path d="M0 0 C2 1 2 1 2 1 Z " fill="#003547" transform="translate(296,229)"/>
<path d="M0 0 C2 1 2 1 2 1 Z " fill="#003447" transform="translate(285,229)"/>
<path d="M0 0 C2 1 2 1 2 1 Z " fill="#023347" transform="translate(220,229)"/>
<path d="M0 0 C2 1 2 1 2 1 Z " fill="#023443" transform="translate(209,229)"/>
<path d="M0 0 C2 1 2 1 2 1 Z " fill="#023441" transform="translate(155,229)"/>
<path d="M0 0 C2 1 2 1 2 1 Z " fill="#023441" transform="translate(145,229)"/>
<path d="M0 0 C2 1 2 1 2 1 Z " fill="#023345" transform="translate(115,229)"/>
<path d="M0 0 C2 1 2 1 2 1 Z " fill="#003643" transform="translate(104,229)"/>
<path d="M0 0 C2 1 2 1 2 1 Z " fill="#00363D" transform="translate(81,229)"/>
<path d="M0 0 C2 1 2 1 2 1 Z " fill="#003543" transform="translate(61,229)"/>
<path d="" fill="#043148" transform="translate(0,0)"/>
<path d="" fill="#023346" transform="translate(0,0)"/>
<path d="" fill="#013443" transform="translate(0,0)"/>
<path d="" fill="#023345" transform="translate(0,0)"/>
<path d="" fill="#023345" transform="translate(0,0)"/>
<path d="" fill="#003937" transform="translate(0,0)"/>
<path d="" fill="#003642" transform="translate(0,0)"/>
<path d="" fill="#033342" transform="translate(0,0)"/>
<path d="" fill="#023341" transform="translate(0,0)"/>
<path d="" fill="#003349" transform="translate(0,0)"/>
<path d="" fill="#003839" transform="translate(0,0)"/>
<path d="" fill="#013444" transform="translate(0,0)"/>
<path d="" fill="#023441" transform="translate(0,0)"/>
<path d="" fill="#04333F" transform="translate(0,0)"/>
<path d="" fill="#08313C" transform="translate(0,0)"/>
<path d="" fill="#003543" transform="translate(0,0)"/>
<path d="" fill="#003541" transform="translate(0,0)"/>
<path d="" fill="#00324D" transform="translate(0,0)"/>
<path d="" fill="#03333E" transform="translate(0,0)"/>
<path d="" fill="#03343C" transform="translate(0,0)"/>
<path d="" fill="#00363F" transform="translate(0,0)"/>
<path d="" fill="#003442" transform="translate(0,0)"/>
<path d="" fill="#003C3F" transform="translate(0,0)"/>
<path d="" fill="#05323F" transform="translate(0,0)"/>
<path d="" fill="#003641" transform="translate(0,0)"/>
<path d="" fill="#01353D" transform="translate(0,0)"/>
<path d="" fill="#03343D" transform="translate(0,0)"/>
<path d="" fill="#013443" transform="translate(0,0)"/>
<path d="" fill="#00393F" transform="translate(0,0)"/>
<path d="" fill="#023442" transform="translate(0,0)"/>
<path d="" fill="#01353D" transform="translate(0,0)"/>
<path d="" fill="#003543" transform="translate(0,0)"/>
<path d="" fill="#023341" transform="translate(0,0)"/>
<path d="" fill="#02343F" transform="translate(0,0)"/>
<path d="" fill="#00373B" transform="translate(0,0)"/>
<path d="" fill="#003642" transform="translate(0,0)"/>
<path d="" fill="#013345" transform="translate(0,0)"/>
<path d="" fill="#013344" transform="translate(0,0)"/>
<path d="" fill="#053145" transform="translate(0,0)"/>
<path d="" fill="#02353C" transform="translate(0,0)"/>
<path d="" fill="#01353E" transform="translate(0,0)"/>
<path d="" fill="#033340" transform="translate(0,0)"/>
<path d="" fill="#07304B" transform="translate(0,0)"/>
<path d="" fill="#01363D" transform="translate(0,0)"/>
<path d="" fill="#06323F" transform="translate(0,0)"/>
<path d="" fill="#03333E" transform="translate(0,0)"/>
<path d="" fill="#003448" transform="translate(0,0)"/>
<path d="" fill="#04333D" transform="translate(0,0)"/>
<path d="" fill="#04333F" transform="translate(0,0)"/>
<path d="" fill="#01353C" transform="translate(0,0)"/>
<path d="" fill="#01343F" transform="translate(0,0)"/>
<path d="" fill="#013346" transform="translate(0,0)"/>
<path d="" fill="#013441" transform="translate(0,0)"/>
<path d="" fill="#03343D" transform="translate(0,0)"/>
<path d="" fill="#00373B" transform="translate(0,0)"/>
<path d="" fill="#013442" transform="translate(0,0)"/>
<path d="" fill="#00383C" transform="translate(0,0)"/>
<path d="" fill="#01363B" transform="translate(0,0)"/>
<path d="" fill="#06333C" transform="translate(0,0)"/>
<path d="" fill="#00373B" transform="translate(0,0)"/>
<path d="" fill="#023537" transform="translate(0,0)"/>
<path d="" fill="#04333D" transform="translate(0,0)"/>
<path d="" fill="#063240" transform="translate(0,0)"/>
<path d="" fill="#00363C" transform="translate(0,0)"/>
<path d="" fill="#06323B" transform="translate(0,0)"/>
<path d="" fill="#023341" transform="translate(0,0)"/>
<path d="" fill="#013344" transform="translate(0,0)"/>
<path d="" fill="#00363D" transform="translate(0,0)"/>
<path d="" fill="#03343B" transform="translate(0,0)"/>
<path d="" fill="#02343E" transform="translate(0,0)"/>
<path d="" fill="#033340" transform="translate(0,0)"/>
<path d="" fill="#013541" transform="translate(0,0)"/>
<path d="" fill="#05333E" transform="translate(0,0)"/>
<path d="" fill="#003444" transform="translate(0,0)"/>
<path d="" fill="#013444" transform="translate(0,0)"/>
<path d="" fill="#01353F" transform="translate(0,0)"/>
<path d="" fill="#01353C" transform="translate(0,0)"/>
<path d="" fill="#003541" transform="translate(0,0)"/>
<path d="" fill="#09303E" transform="translate(0,0)"/>
<path d="" fill="#003644" transform="translate(0,0)"/>
<path d="" fill="#013440" transform="translate(0,0)"/>
<path d="" fill="#023343" transform="translate(0,0)"/>
<path d="" fill="#01353C" transform="translate(0,0)"/>
<path d="" fill="#013440" transform="translate(0,0)"/>
<path d="" fill="#02343E" transform="translate(0,0)"/>
<path d="" fill="#003445" transform="translate(0,0)"/>
<path d="" fill="#013541" transform="translate(0,0)"/>
<path d="" fill="#003449" transform="translate(0,0)"/>
<path d="" fill="#02343F" transform="translate(0,0)"/>
<path d="" fill="#01353E" transform="translate(0,0)"/>
<path d="" fill="#023343" transform="translate(0,0)"/>
<path d="" fill="#01353E" transform="translate(0,0)"/>
<path d="" fill="#02343E" transform="translate(0,0)"/>
<path d="" fill="#023440" transform="translate(0,0)"/>
<path d="" fill="#013443" transform="translate(0,0)"/>
<path d="" fill="#003545" transform="translate(0,0)"/>
<path d="" fill="#003540" transform="translate(0,0)"/>
<path d="" fill="#003640" transform="translate(0,0)"/>
<path d="" fill="#04343C" transform="translate(0,0)"/>
<path d="" fill="#023345" transform="translate(0,0)"/>
<path d="" fill="#00363C" transform="translate(0,0)"/>
<path d="" fill="#083044" transform="translate(0,0)"/>
<path d="" fill="#003543" transform="translate(0,0)"/>
<path d="" fill="#01343E" transform="translate(0,0)"/>
<path d="" fill="#003641" transform="translate(0,0)"/>
<path d="" fill="#04333D" transform="translate(0,0)"/>
<path d="" fill="#023343" transform="translate(0,0)"/>
<path d="" fill="#00363A" transform="translate(0,0)"/>
<path d="" fill="#013342" transform="translate(0,0)"/>
<path d="" fill="#003543" transform="translate(0,0)"/>
<path d="" fill="#013441" transform="translate(0,0)"/>
<path d="" fill="#073144" transform="translate(0,0)"/>
<path d="" fill="#023343" transform="translate(0,0)"/>
<path d="" fill="#01353D" transform="translate(0,0)"/>
<path d="" fill="#04343B" transform="translate(0,0)"/>
<path d="M0 0 C2 1 2 1 2 1 Z " fill="#003541" transform="translate(94,174)"/>
<path d="" fill="#023344" transform="translate(0,0)"/>
<path d="" fill="#003543" transform="translate(0,0)"/>
<path d="" fill="#073140" transform="translate(0,0)"/>
<path d="" fill="#043241" transform="translate(0,0)"/>
<path d="" fill="#043341" transform="translate(0,0)"/>
<path d="" fill="#013443" transform="translate(0,0)"/>
<path d="" fill="#0E2F3B" transform="translate(0,0)"/>
<path d="" fill="#04333E" transform="translate(0,0)"/>
<path d="" fill="#02353B" transform="translate(0,0)"/>
<path d="" fill="#013345" transform="translate(0,0)"/>
<path d="" fill="#033246" transform="translate(0,0)"/>
<path d="" fill="#003542" transform="translate(0,0)"/>
<path d="" fill="#003443" transform="translate(0,0)"/>
<path d="" fill="#013247" transform="translate(0,0)"/>
<path d="" fill="#0C303A" transform="translate(0,0)"/>
<path d="" fill="#023440" transform="translate(0,0)"/>
<path d="" fill="#00393C" transform="translate(0,0)"/>
<path d="" fill="#023249" transform="translate(0,0)"/>
<path d="" fill="#00363D" transform="translate(0,0)"/>
<path d="" fill="#003643" transform="translate(0,0)"/>
<path d="" fill="#053241" transform="translate(0,0)"/>
<path d="" fill="#003445" transform="translate(0,0)"/>
<path d="" fill="#013639" transform="translate(0,0)"/>
<path d="" fill="#05323E" transform="translate(0,0)"/>
<path d="" fill="#013344" transform="translate(0,0)"/>
<path d="" fill="#00373C" transform="translate(0,0)"/>
<path d="" fill="#013443" transform="translate(0,0)"/>
<path d="" fill="#00373A" transform="translate(0,0)"/>
<path d="" fill="#003545" transform="translate(0,0)"/>
<path d="" fill="#043244" transform="translate(0,0)"/>
<path d="" fill="#023342" transform="translate(0,0)"/>
<path d="" fill="#003443" transform="translate(0,0)"/>
<path d="" fill="#00373C" transform="translate(0,0)"/>
<path d="" fill="#01353D" transform="translate(0,0)"/>
<path d="" fill="#013442" transform="translate(0,0)"/>
<path d="" fill="#003443" transform="translate(0,0)"/>
<path d="" fill="#02343D" transform="translate(0,0)"/>
<path d="" fill="#013345" transform="translate(0,0)"/>
<path d="" fill="#023343" transform="translate(0,0)"/>
<path d="" fill="#033341" transform="translate(0,0)"/>
<path d="" fill="#043340" transform="translate(0,0)"/>
<path d="" fill="#06323F" transform="translate(0,0)"/>
<path d="" fill="#013543" transform="translate(0,0)"/>
<path d="" fill="#023344" transform="translate(0,0)"/>
<path d="" fill="#003443" transform="translate(0,0)"/>
<path d="" fill="#003443" transform="translate(0,0)"/>
<path d="" fill="#003446" transform="translate(0,0)"/>
<path d="" fill="#03343F" transform="translate(0,0)"/>
<path d="" fill="#00383F" transform="translate(0,0)"/>
<path d="" fill="#003840" transform="translate(0,0)"/>
<path d="" fill="#05323F" transform="translate(0,0)"/>
<path d="" fill="#003739" transform="translate(0,0)"/>
<path d="" fill="#02353D" transform="translate(0,0)"/>
<path d="" fill="#003444" transform="translate(0,0)"/>
<path d="" fill="#023442" transform="translate(0,0)"/>
<path d="" fill="#023342" transform="translate(0,0)"/>
<path d="" fill="#02343F" transform="translate(0,0)"/>
<path d="" fill="#02343C" transform="translate(0,0)"/>
<path d="" fill="#08323B" transform="translate(0,0)"/>
<path d="" fill="#013442" transform="translate(0,0)"/>
<path d="" fill="#023440" transform="translate(0,0)"/>
<path d="" fill="#003443" transform="translate(0,0)"/>
<path d="" fill="#00363E" transform="translate(0,0)"/>
<path d="" fill="#023440" transform="translate(0,0)"/>
<path d="" fill="#03343F" transform="translate(0,0)"/>
<path d="" fill="#003547" transform="translate(0,0)"/>
<path d="" fill="#023440" transform="translate(0,0)"/>
<path d="" fill="#003540" transform="translate(0,0)"/>
<path d="" fill="#003640" transform="translate(0,0)"/>
<path d="" fill="#02353C" transform="translate(0,0)"/>
<path d="" fill="#033340" transform="translate(0,0)"/>
<path d="" fill="#01324B" transform="translate(0,0)"/>
<path d="" fill="#00353E" transform="translate(0,0)"/>
<path d="" fill="#00383C" transform="translate(0,0)"/>
<path d="" fill="#013444" transform="translate(0,0)"/>
<path d="" fill="#00373A" transform="translate(0,0)"/>
<path d="" fill="#00383D" transform="translate(0,0)"/>
<path d="" fill="#003444" transform="translate(0,0)"/>
<path d="" fill="#00363C" transform="translate(0,0)"/>
<path d="" fill="#00363D" transform="translate(0,0)"/>
<path d="" fill="#073142" transform="translate(0,0)"/>
<path d="" fill="#03343C" transform="translate(0,0)"/>
<path d="" fill="#01363C" transform="translate(0,0)"/>
<path d="" fill="#013346" transform="translate(0,0)"/>
<path d="" fill="#01343F" transform="translate(0,0)"/>
<path d="" fill="#09303F" transform="translate(0,0)"/>
<path d="" fill="#00373C" transform="translate(0,0)"/>
<path d="" fill="#043243" transform="translate(0,0)"/>
<path d="" fill="#06323F" transform="translate(0,0)"/>
<path d="" fill="#04343C" transform="translate(0,0)"/>
<path d="" fill="#003448" transform="translate(0,0)"/>
<path d="" fill="#003443" transform="translate(0,0)"/>
<path d="" fill="#07323C" transform="translate(0,0)"/>
<path d="" fill="#053147" transform="translate(0,0)"/>
<path d="" fill="#043340" transform="translate(0,0)"/>
<path d="" fill="#00363C" transform="translate(0,0)"/>
<path d="" fill="#07304B" transform="translate(0,0)"/>
<path d="" fill="#013441" transform="translate(0,0)"/>
<path d="" fill="#03343A" transform="translate(0,0)"/>
<path d="" fill="#00363F" transform="translate(0,0)"/>
<path d="" fill="#093040" transform="translate(0,0)"/>
<path d="" fill="#033245" transform="translate(0,0)"/>
<path d="" fill="#01353A" transform="translate(0,0)"/>
<path d="" fill="#003645" transform="translate(0,0)"/>
<path d="" fill="#01353C" transform="translate(0,0)"/>
<path d="" fill="#043437" transform="translate(0,0)"/>
<path d="" fill="#033539" transform="translate(0,0)"/>
<path d="" fill="#023347" transform="translate(0,0)"/>
<path d="" fill="#023345" transform="translate(0,0)"/>
<path d="" fill="#033245" transform="translate(0,0)"/>
<path d="" fill="#02353C" transform="translate(0,0)"/>
<path d="" fill="#00373A" transform="translate(0,0)"/>
<path d="" fill="#0D3131" transform="translate(0,0)"/>
<path d="" fill="#023347" transform="translate(0,0)"/>
<path d="" fill="#003445" transform="translate(0,0)"/>
<path d="" fill="#033340" transform="translate(0,0)"/>
<path d="M0 0 C2 1 2 1 2 1 Z " fill="#0BA5A2" transform="translate(289,130)"/>
<path d="M0 0 C2 1 2 1 2 1 Z " fill="#0BA5A4" transform="translate(274,130)"/>
<path d="M0 0 C2 1 2 1 2 1 Z " fill="#10A0AB" transform="translate(291,129)"/>
<path d="M0 0 C2 1 2 1 2 1 Z " fill="#0DA4A2" transform="translate(272,129)"/>
<path d="M0 0 C2 1 2 1 2 1 Z " fill="#05A4B5" transform="translate(293,128)"/>
<path d="M0 0 C2 1 2 1 2 1 Z " fill="#09A5A5" transform="translate(269,127)"/>
<path d="" fill="#04A7A7" transform="translate(0,0)"/>
<path d="" fill="#05A7A9" transform="translate(0,0)"/>
<path d="" fill="#0BA59F" transform="translate(0,0)"/>
<path d="" fill="#02A8A9" transform="translate(0,0)"/>
<path d="" fill="#1F9D99" transform="translate(0,0)"/>
<path d="" fill="#01AAA5" transform="translate(0,0)"/>
<path d="" fill="#07A6A6" transform="translate(0,0)"/>
<path d="M0 0 C2 1 2 1 2 1 Z " fill="#08A79F" transform="translate(258,105)"/>
<path d="M0 0 C2 1 2 1 2 1 Z " fill="#09A4AC" transform="translate(124,105)"/>
<path d="M0 0 C2 1 2 1 2 1 Z " fill="#0BA4A8" transform="translate(254,102)"/>
<path d="M0 0 C2 1 2 1 2 1 Z " fill="#01A8AB" transform="translate(128,102)"/>
<path d="M0 0 C2 1 2 1 2 1 Z " fill="#08A6A6" transform="translate(251,100)"/>
<path d="M0 0 C2 1 2 1 2 1 Z " fill="#04A7AA" transform="translate(131,100)"/>
<path d="" fill="#00ABA8" transform="translate(0,0)"/>
<path d="M0 0 C2 1 2 1 2 1 Z " fill="#06A7A5" transform="translate(248,98)"/>
<path d="M0 0 C2 1 2 1 2 1 Z " fill="#02A9A9" transform="translate(134,98)"/>
<path d="M0 0 C2 1 2 1 2 1 Z " fill="#0CA3A8" transform="translate(246,97)"/>
<path d="M0 0 C2 1 2 1 2 1 Z " fill="#0FA0AE" transform="translate(136,97)"/>
<path d="M0 0 C2 1 2 1 2 1 Z " fill="#07A6A3" transform="translate(244,96)"/>
<path d="M0 0 C2 1 2 1 2 1 Z " fill="#02A8AA" transform="translate(138,96)"/>
<path d="M0 0 C2 1 2 1 2 1 Z " fill="#02A9A5" transform="translate(241,94)"/>
<path d="M0 0 C2 1 2 1 2 1 Z " fill="#13A0A6" transform="translate(144,93)"/>
<path d="M0 0 C2 1 2 1 2 1 Z " fill="#0CA4A3" transform="translate(293,92)"/>
<path d="M0 0 C2 1 2 1 2 1 Z " fill="#0AA5A6" transform="translate(236,92)"/>
<path d="M0 0 C2 1 2 1 2 1 Z " fill="#08A5A5" transform="translate(146,92)"/>
<path d="M0 0 C2 1 2 1 2 1 Z " fill="#0BA4A6" transform="translate(234,91)"/>
<path d="M0 0 C2 1 2 1 2 1 Z " fill="#0AA4A6" transform="translate(148,91)"/>
<path d="M0 0 C2 1 2 1 2 1 Z " fill="#03A8A9" transform="translate(278,89)"/>
<path d="M0 0 C2 1 2 1 2 1 Z " fill="#0DA3A7" transform="translate(229,89)"/>
<path d="M0 0 C2 1 2 1 2 1 Z " fill="#0AA4A6" transform="translate(153,89)"/>
<path d="M0 0 C2 1 2 1 2 1 Z " fill="#06A7A6" transform="translate(156,88)"/>
<path d="M0 0 C2 1 2 1 2 1 Z " fill="#05A7A3" transform="translate(274,86)"/>
<path d="M0 0 C2 1 2 1 2 1 Z " fill="#04A4A4" transform="translate(108,86)"/>
<path d="M0 0 C2 1 2 1 2 1 Z " fill="#01A9A7" transform="translate(270,83)"/>
<path d="M0 0 C2 1 2 1 2 1 Z " fill="#03A6A5" transform="translate(112,83)"/>
<path d="M0 0 C2 1 2 1 2 1 Z " fill="#04A8A4" transform="translate(266,80)"/>
<path d="M0 0 C2 1 2 1 2 1 Z " fill="#05A8A2" transform="translate(116,80)"/>
<path d="M0 0 C2 1 2 1 2 1 Z " fill="#07A6A6" transform="translate(263,78)"/>
<path d="M0 0 C2 1 2 1 2 1 Z " fill="#06A5A7" transform="translate(119,78)"/>
<path d="M0 0 C2 1 2 1 2 1 Z " fill="#09A4A2" transform="translate(121,77)"/>
<path d="M0 0 C2 1 2 1 2 1 Z " fill="#13A29B" transform="translate(260,76)"/>
<path d="M0 0 C2 1 2 1 2 1 Z " fill="#05A8A0" transform="translate(258,75)"/>
<path d="M0 0 C2 1 2 1 2 1 Z " fill="#05A6A1" transform="translate(124,75)"/>
<path d="M0 0 C2 1 2 1 2 1 Z " fill="#05A6A9" transform="translate(256,74)"/>
<path d="M0 0 C2 1 2 1 2 1 Z " fill="#07A3AA" transform="translate(126,74)"/>
<path d="M0 0 C2 1 2 1 2 1 Z " fill="#0BA4A6" transform="translate(253,72)"/>
<path d="M0 0 C2 1 2 1 2 1 Z " fill="#04A6AC" transform="translate(251,71)"/>
<path d="M0 0 C2 1 2 1 2 1 Z " fill="#04A5A9" transform="translate(131,71)"/>
<path d="M0 0 C2 1 2 1 2 1 Z " fill="#05A4B7" transform="translate(249,70)"/>
<path d="M0 0 C2 1 2 1 2 1 Z " fill="#06A3B2" transform="translate(133,70)"/>
<path d="M0 0 C2 1 2 1 2 1 Z " fill="#00AAA7" transform="translate(247,69)"/>
<path d="M0 0 C2 1 2 1 2 1 Z " fill="#03A8A7" transform="translate(244,68)"/>
<path d="M0 0 C2 1 2 1 2 1 Z " fill="#129EA6" transform="translate(138,68)"/>
<path d="M0 0 C2 1 2 1 2 1 Z " fill="#00ADA3" transform="translate(242,67)"/>
<path d="M0 0 C2 1 2 1 2 1 Z " fill="#05A6A2" transform="translate(140,67)"/>
<path d="M0 0 C2 1 2 1 2 1 Z " fill="#02A9A7" transform="translate(237,65)"/>
<path d="M0 0 C2 1 2 1 2 1 Z " fill="#00AB9A" transform="translate(145,65)"/>
<path d="M0 0 C2 1 2 1 2 1 Z " fill="#0EA39A" transform="translate(148,64)"/>
<path d="" fill="#02A9A5" transform="translate(0,0)"/>
<path d="" fill="#02AB9D" transform="translate(0,0)"/>
<path d="" fill="#0AA5A5" transform="translate(0,0)"/>
<path d="" fill="#0CA4A7" transform="translate(0,0)"/>
<path d="" fill="#05A8A1" transform="translate(0,0)"/>
<path d="" fill="#0AA5A5" transform="translate(0,0)"/>
<path d="" fill="#0AA5A5" transform="translate(0,0)"/>
<path d="" fill="#04A8A9" transform="translate(0,0)"/>
<path d="" fill="#00AAA9" transform="translate(0,0)"/>
<path d="" fill="#04A7AB" transform="translate(0,0)"/>
<path d="" fill="#00ADA9" transform="translate(0,0)"/>
<path d="" fill="#00ADA5" transform="translate(0,0)"/>
<path d="" fill="#05A7A7" transform="translate(0,0)"/>
<path d="" fill="#09A5A7" transform="translate(0,0)"/>
<path d="" fill="#04A8A7" transform="translate(0,0)"/>
<path d="" fill="#02A9A7" transform="translate(0,0)"/>
<path d="" fill="#00ADA5" transform="translate(0,0)"/>
<path d="" fill="#0AA5A5" transform="translate(0,0)"/>
<path d="" fill="#04A8A5" transform="translate(0,0)"/>
<path d="" fill="#02A9A5" transform="translate(0,0)"/>
<path d="" fill="#0DA59F" transform="translate(0,0)"/>
<path d="" fill="#04A8A7" transform="translate(0,0)"/>
<path d="" fill="#0CA799" transform="translate(0,0)"/>
<path d="" fill="#02AAA1" transform="translate(0,0)"/>
<path d="" fill="#0DA59D" transform="translate(0,0)"/>
<path d="" fill="#07A999" transform="translate(0,0)"/>
<path d="" fill="#11A2A5" transform="translate(0,0)"/>
<path d="" fill="#09A4A2" transform="translate(0,0)"/>
<path d="" fill="#02A9A3" transform="translate(0,0)"/>
<path d="" fill="#07A6A9" transform="translate(0,0)"/>
<path d="" fill="#04AB99" transform="translate(0,0)"/>
<path d="" fill="#06A6A2" transform="translate(0,0)"/>
<path d="" fill="#00A8AA" transform="translate(0,0)"/>
<path d="" fill="#02A8A9" transform="translate(0,0)"/>
<path d="" fill="#00ACA5" transform="translate(0,0)"/>
<path d="" fill="#01AAA7" transform="translate(0,0)"/>
<path d="" fill="#02A9A7" transform="translate(0,0)"/>
<path d="" fill="#02A9A3" transform="translate(0,0)"/>
<path d="" fill="#01AAA7" transform="translate(0,0)"/>
<path d="" fill="#07A7A1" transform="translate(0,0)"/>
<path d="" fill="#04A8A7" transform="translate(0,0)"/>
<path d="" fill="#04AA9D" transform="translate(0,0)"/>
<path d="" fill="#02AAA1" transform="translate(0,0)"/>
<path d="" fill="#02A9A5" transform="translate(0,0)"/>
<path d="" fill="#07A5AB" transform="translate(0,0)"/>
<path d="" fill="#04A7AB" transform="translate(0,0)"/>
<path d="" fill="#06A4A3" transform="translate(0,0)"/>
<path d="" fill="#06A5A6" transform="translate(0,0)"/>
<path d="" fill="#00A6A0" transform="translate(0,0)"/>
<path d="" fill="#06A5A6" transform="translate(0,0)"/>
<path d="" fill="#06A4A3" transform="translate(0,0)"/>
<path d="" fill="#07A7A5" transform="translate(0,0)"/>
<path d="" fill="#01AAA5" transform="translate(0,0)"/>
<path d="" fill="#0DA59B" transform="translate(0,0)"/>
<path d="" fill="#00AAA7" transform="translate(0,0)"/>
<path d="" fill="#11A39D" transform="translate(0,0)"/>
<path d="" fill="#02A9A7" transform="translate(0,0)"/>
<path d="" fill="#0CA5A1" transform="translate(0,0)"/>
<path d="" fill="#00ACA5" transform="translate(0,0)"/>
<path d="" fill="#02A9A7" transform="translate(0,0)"/>
<path d="" fill="#04A8A5" transform="translate(0,0)"/>
<path d="" fill="#04A6A4" transform="translate(0,0)"/>
<path d="" fill="#09A4A4" transform="translate(0,0)"/>
<path d="" fill="#003645" transform="translate(0,0)"/>
<path d="" fill="#003447" transform="translate(0,0)"/>
<path d="" fill="#003443" transform="translate(0,0)"/>
<path d="" fill="#003443" transform="translate(0,0)"/>
<path d="" fill="#003641" transform="translate(0,0)"/>
<path d="" fill="#003443" transform="translate(0,0)"/>
<path d="" fill="#003443" transform="translate(0,0)"/>
<path d="" fill="#003543" transform="translate(0,0)"/>
<path d="" fill="#003443" transform="translate(0,0)"/>
<path d="" fill="#023443" transform="translate(0,0)"/>
<path d="" fill="#003543" transform="translate(0,0)"/>
<path d="" fill="#003443" transform="translate(0,0)"/>
<path d="" fill="#023443" transform="translate(0,0)"/>
<path d="" fill="#08323D" transform="translate(0,0)"/>
<path d="" fill="#003443" transform="translate(0,0)"/>
<path d="" fill="#003443" transform="translate(0,0)"/>
<path d="" fill="#023443" transform="translate(0,0)"/>
<path d="" fill="#033341" transform="translate(0,0)"/>
<path d="" fill="#00373F" transform="translate(0,0)"/>
<path d="" fill="#013244" transform="translate(0,0)"/>
<path d="" fill="#013244" transform="translate(0,0)"/>
<path d="" fill="#013244" transform="translate(0,0)"/>
<path d="" fill="#023345" transform="translate(0,0)"/>
<path d="" fill="#023347" transform="translate(0,0)"/>
<path d="" fill="#033245" transform="translate(0,0)"/>
<path d="" fill="#003443" transform="translate(0,0)"/>
<path d="" fill="#003543" transform="translate(0,0)"/>
<path d="" fill="#003447" transform="translate(0,0)"/>
<path d="" fill="#003443" transform="translate(0,0)"/>
<path d="" fill="#003443" transform="translate(0,0)"/>
<path d="" fill="#033343" transform="translate(0,0)"/>
<path d="" fill="#023443" transform="translate(0,0)"/>
<path d="" fill="#023443" transform="translate(0,0)"/>
<path d="" fill="#003641" transform="translate(0,0)"/>
<path d="" fill="#023443" transform="translate(0,0)"/>
<path d="" fill="#023441" transform="translate(0,0)"/>
<path d="" fill="#023441" transform="translate(0,0)"/>
<path d="" fill="#073145" transform="translate(0,0)"/>
<path d="" fill="#003445" transform="translate(0,0)"/>
<path d="" fill="#033343" transform="translate(0,0)"/>
<path d="" fill="#023441" transform="translate(0,0)"/>
<path d="" fill="#003641" transform="translate(0,0)"/>
<path d="" fill="#023443" transform="translate(0,0)"/>
<path d="" fill="#023441" transform="translate(0,0)"/>
<path d="" fill="#023441" transform="translate(0,0)"/>
<path d="" fill="#07323D" transform="translate(0,0)"/>
<path d="" fill="#02324B" transform="translate(0,0)"/>
<path d="" fill="#033343" transform="translate(0,0)"/>
<path d="" fill="#0E2F3B" transform="translate(0,0)"/>
<path d="" fill="#02343F" transform="translate(0,0)"/>
<path d="" fill="#033343" transform="translate(0,0)"/>
<path d="" fill="#003643" transform="translate(0,0)"/>
<path d="" fill="#023443" transform="translate(0,0)"/>
<path d="" fill="#023443" transform="translate(0,0)"/>
<path d="" fill="#033245" transform="translate(0,0)"/>
<path d="" fill="#023345" transform="translate(0,0)"/>
<path d="" fill="#003543" transform="translate(0,0)"/>
<path d="" fill="#003443" transform="translate(0,0)"/>
<path d="" fill="#003445" transform="translate(0,0)"/>
<path d="" fill="#003445" transform="translate(0,0)"/>
<path d="" fill="#033245" transform="translate(0,0)"/>
<path d="" fill="#003445" transform="translate(0,0)"/>
<path d="" fill="#033245" transform="translate(0,0)"/>
<path d="" fill="#003445" transform="translate(0,0)"/>
<path d="" fill="#023345" transform="translate(0,0)"/>
<path d="" fill="#023345" transform="translate(0,0)"/>
<path d="" fill="#023345" transform="translate(0,0)"/>
<path d="" fill="#003445" transform="translate(0,0)"/>
<path d="" fill="#023443" transform="translate(0,0)"/>
<path d="" fill="#023345" transform="translate(0,0)"/>
<path d="" fill="#003641" transform="translate(0,0)"/>
<path d="" fill="#00334B" transform="translate(0,0)"/>
<path d="" fill="#023345" transform="translate(0,0)"/>
<path d="" fill="#003641" transform="translate(0,0)"/>
<path d="" fill="#003445" transform="translate(0,0)"/>
<path d="" fill="#083045" transform="translate(0,0)"/>
<path d="" fill="#05333F" transform="translate(0,0)"/>
<path d="" fill="#003443" transform="translate(0,0)"/>
<path d="" fill="#003445" transform="translate(0,0)"/>
<path d="" fill="#003443" transform="translate(0,0)"/>
<path d="" fill="#023345" transform="translate(0,0)"/>
<path d="" fill="#033343" transform="translate(0,0)"/>
<path d="" fill="#083043" transform="translate(0,0)"/>
<path d="" fill="#023441" transform="translate(0,0)"/>
<path d="" fill="#0A2F45" transform="translate(0,0)"/>
<path d="" fill="#003843" transform="translate(0,0)"/>
<path d="" fill="#00363D" transform="translate(0,0)"/>
<path d="" fill="#00363D" transform="translate(0,0)"/>
<path d="" fill="#083043" transform="translate(0,0)"/>
<path d="" fill="#07323D" transform="translate(0,0)"/>
<path d="" fill="#003443" transform="translate(0,0)"/>
<path d="" fill="#023443" transform="translate(0,0)"/>
<path d="" fill="#003545" transform="translate(0,0)"/>
<path d="" fill="#023345" transform="translate(0,0)"/>
<path d="" fill="#00373F" transform="translate(0,0)"/>
<path d="" fill="#033245" transform="translate(0,0)"/>
<path d="" fill="#033245" transform="translate(0,0)"/>
<path d="" fill="#033245" transform="translate(0,0)"/>
<path d="" fill="#033341" transform="translate(0,0)"/>
<path d="" fill="#00353F" transform="translate(0,0)"/>
<path d="" fill="#053241" transform="translate(0,0)"/>
<path d="" fill="#053241" transform="translate(0,0)"/>
<path d="" fill="#053243" transform="translate(0,0)"/>
<path d="" fill="#033343" transform="translate(0,0)"/>
<path d="" fill="#003443" transform="translate(0,0)"/>
<path d="" fill="#003445" transform="translate(0,0)"/>
<path d="" fill="#00363D" transform="translate(0,0)"/>
<path d="" fill="#003841" transform="translate(0,0)"/>
<path d="" fill="#023347" transform="translate(0,0)"/>
<path d="" fill="#003541" transform="translate(0,0)"/>
<path d="" fill="#03343F" transform="translate(0,0)"/>
<path d="" fill="#003543" transform="translate(0,0)"/>
<path d="" fill="#003641" transform="translate(0,0)"/>
<path d="" fill="#003545" transform="translate(0,0)"/>
<path d="" fill="#003645" transform="translate(0,0)"/>
<path d="" fill="#07323F" transform="translate(0,0)"/>
<path d="" fill="#003443" transform="translate(0,0)"/>
<path d="" fill="#033341" transform="translate(0,0)"/>
<path d="" fill="#083141" transform="translate(0,0)"/>
<path d="" fill="#023345" transform="translate(0,0)"/>
<path d="" fill="#023345" transform="translate(0,0)"/>
<path d="" fill="#003447" transform="translate(0,0)"/>
<path d="" fill="#003349" transform="translate(0,0)"/>
<path d="" fill="#02324D" transform="translate(0,0)"/>
<path d="" fill="#023347" transform="translate(0,0)"/>
<path d="" fill="#003351" transform="translate(0,0)"/>
<path d="" fill="#033341" transform="translate(0,0)"/>
<path d="" fill="#0A3235" transform="translate(0,0)"/>
<path d="" fill="#003541" transform="translate(0,0)"/>
<path d="" fill="#023345" transform="translate(0,0)"/>
<path d="" fill="#083141" transform="translate(0,0)"/>
<path d="" fill="#003835" transform="translate(0,0)"/>
<path d="" fill="#003443" transform="translate(0,0)"/>
<path d="" fill="#073241" transform="translate(0,0)"/>
<path d="" fill="#003641" transform="translate(0,0)"/>
<path d="" fill="#033343" transform="translate(0,0)"/>
<path d="" fill="#023441" transform="translate(0,0)"/>
<path d="" fill="#003545" transform="translate(0,0)"/>
<path d="" fill="#033247" transform="translate(0,0)"/>
<path d="" fill="#003443" transform="translate(0,0)"/>
<path d="" fill="#003443" transform="translate(0,0)"/>
<path d="" fill="#02343F" transform="translate(0,0)"/>
<path d="" fill="#003541" transform="translate(0,0)"/>
<path d="" fill="#003443" transform="translate(0,0)"/>
<path d="" fill="#00363D" transform="translate(0,0)"/>
<path d="" fill="#023347" transform="translate(0,0)"/>
<path d="" fill="#02353D" transform="translate(0,0)"/>
<path d="" fill="#03343D" transform="translate(0,0)"/>
<path d="" fill="#073241" transform="translate(0,0)"/>
<path d="" fill="#03343B" transform="translate(0,0)"/>
<path d="" fill="#05333F" transform="translate(0,0)"/>
<path d="" fill="#053241" transform="translate(0,0)"/>
<path d="" fill="#003541" transform="translate(0,0)"/>
<path d="" fill="#003445" transform="translate(0,0)"/>
<path d="" fill="#053241" transform="translate(0,0)"/>
<path d="" fill="#023345" transform="translate(0,0)"/>
<path d="" fill="#033343" transform="translate(0,0)"/>
<path d="" fill="#053241" transform="translate(0,0)"/>
<path d="" fill="#003445" transform="translate(0,0)"/>
<path d="" fill="#00383D" transform="translate(0,0)"/>
<path d="" fill="#003445" transform="translate(0,0)"/>
<path d="" fill="#003445" transform="translate(0,0)"/>
<path d="" fill="#003445" transform="translate(0,0)"/>
<path d="" fill="#003445" transform="translate(0,0)"/>
<path d="" fill="#023443" transform="translate(0,0)"/>
<path d="" fill="#0D303B" transform="translate(0,0)"/>
<path d="" fill="#003447" transform="translate(0,0)"/>
<path d="" fill="#0A313B" transform="translate(0,0)"/>
<path d="" fill="#003447" transform="translate(0,0)"/>
<path d="" fill="#03343D" transform="translate(0,0)"/>
<path d="" fill="#033245" transform="translate(0,0)"/>
<path d="" fill="#00373F" transform="translate(0,0)"/>
<path d="" fill="#003643" transform="translate(0,0)"/>
<path d="" fill="#023441" transform="translate(0,0)"/>
<path d="" fill="#003643" transform="translate(0,0)"/>
<path d="" fill="#023443" transform="translate(0,0)"/>
<path d="" fill="#00363D" transform="translate(0,0)"/>
<path d="" fill="#023345" transform="translate(0,0)"/>
<path d="" fill="#003641" transform="translate(0,0)"/>
<path d="" fill="#023443" transform="translate(0,0)"/>
<path d="" fill="#003839" transform="translate(0,0)"/>
<path d="" fill="#023345" transform="translate(0,0)"/>
<path d="" fill="#023443" transform="translate(0,0)"/>
<path d="" fill="#033341" transform="translate(0,0)"/>
<path d="" fill="#003344" transform="translate(0,0)"/>
<path d="" fill="#003443" transform="translate(0,0)"/>
<path d="" fill="#033341" transform="translate(0,0)"/>
<path d="" fill="#033341" transform="translate(0,0)"/>
<path d="" fill="#01333F" transform="translate(0,0)"/>
<path d="" fill="#053241" transform="translate(0,0)"/>
<path d="" fill="#00363F" transform="translate(0,0)"/>
<path d="" fill="#003443" transform="translate(0,0)"/>
<path d="" fill="#02343F" transform="translate(0,0)"/>
<path d="" fill="#003843" transform="translate(0,0)"/>
<path d="" fill="#073241" transform="translate(0,0)"/>
<path d="" fill="#08323D" transform="translate(0,0)"/>
<path d="" fill="#00383D" transform="translate(0,0)"/>
<path d="" fill="#02353B" transform="translate(0,0)"/>
<path d="" fill="#00363D" transform="translate(0,0)"/>
<path d="" fill="#053439" transform="translate(0,0)"/>
<path d="" fill="#00363F" transform="translate(0,0)"/>
<path d="" fill="#033343" transform="translate(0,0)"/>
<path d="" fill="#033341" transform="translate(0,0)"/>
<path d="" fill="#033343" transform="translate(0,0)"/>
<path d="" fill="#053241" transform="translate(0,0)"/>
<path d="" fill="#053245" transform="translate(0,0)"/>
<path d="" fill="#00353F" transform="translate(0,0)"/>
<path d="" fill="#033341" transform="translate(0,0)"/>
<path d="" fill="#003445" transform="translate(0,0)"/>
<path d="" fill="#033539" transform="translate(0,0)"/>
<path d="" fill="#023347" transform="translate(0,0)"/>
<path d="" fill="#003645" transform="translate(0,0)"/>
<path d="" fill="#003545" transform="translate(0,0)"/>
<path d="" fill="#003545" transform="translate(0,0)"/>
<path d="" fill="#003641" transform="translate(0,0)"/>
<path d="" fill="#00363D" transform="translate(0,0)"/>
<path d="" fill="#023347" transform="translate(0,0)"/>
<path d="" fill="#05A7A7" transform="translate(0,0)"/>
<path d="" fill="#05A6AB" transform="translate(0,0)"/>
<path d="" fill="#01ABA1" transform="translate(0,0)"/>
<path d="" fill="#05A7A5" transform="translate(0,0)"/>
<path d="" fill="#00AD9F" transform="translate(0,0)"/>
<path d="" fill="#00ADA7" transform="translate(0,0)"/>
<path d="" fill="#01AAA5" transform="translate(0,0)"/>
<path d="" fill="#00AAA7" transform="translate(0,0)"/>
<path d="" fill="#07A5AB" transform="translate(0,0)"/>
<path d="" fill="#07A7A3" transform="translate(0,0)"/>
<path d="" fill="#09A5A7" transform="translate(0,0)"/>
<path d="" fill="#09A5A7" transform="translate(0,0)"/>
<path d="" fill="#02A8A9" transform="translate(0,0)"/>
<path d="" fill="#04A8A7" transform="translate(0,0)"/>
<path d="" fill="#02A9A7" transform="translate(0,0)"/>
<path d="" fill="#04A8A5" transform="translate(0,0)"/>
<path d="" fill="#01AAA3" transform="translate(0,0)"/>
<path d="" fill="#00ACA3" transform="translate(0,0)"/>
<path d="" fill="#01AAA3" transform="translate(0,0)"/>
<path d="" fill="#05A7A5" transform="translate(0,0)"/>
<path d="" fill="#04A8A7" transform="translate(0,0)"/>
<path d="" fill="#02A8A9" transform="translate(0,0)"/>
<path d="" fill="#07A6A9" transform="translate(0,0)"/>
<path d="" fill="#00ADA7" transform="translate(0,0)"/>
<path d="" fill="#02A9A5" transform="translate(0,0)"/>
<path d="" fill="#01AAA7" transform="translate(0,0)"/>
<path d="" fill="#00ACA3" transform="translate(0,0)"/>
<path d="" fill="#05A8A3" transform="translate(0,0)"/>
<path d="" fill="#04A8A5" transform="translate(0,0)"/>
<path d="" fill="#01AAA5" transform="translate(0,0)"/>
<path d="" fill="#05A8A1" transform="translate(0,0)"/>
<path d="" fill="#05A4B5" transform="translate(0,0)"/>
<path d="" fill="#01AAA5" transform="translate(0,0)"/>
<path d="" fill="#07A7A5" transform="translate(0,0)"/>
<path d="" fill="#05A6AD" transform="translate(0,0)"/>
<path d="" fill="#09A5A9" transform="translate(0,0)"/>
<path d="" fill="#00A9AD" transform="translate(0,0)"/>
<path d="" fill="#02A9A3" transform="translate(0,0)"/>
<path d="" fill="#04A8A7" transform="translate(0,0)"/>
<path d="" fill="#09A6A5" transform="translate(0,0)"/>
<path d="" fill="#00ABAB" transform="translate(0,0)"/>
<path d="" fill="#07A6A9" transform="translate(0,0)"/>
<path d="" fill="#0FA3A3" transform="translate(0,0)"/>
<path d="" fill="#01A8AF" transform="translate(0,0)"/>
<path d="" fill="#0AA69F" transform="translate(0,0)"/>
<path d="" fill="#02A8AB" transform="translate(0,0)"/>
<path d="" fill="#0AA69F" transform="translate(0,0)"/>
<path d="" fill="#00ABA5" transform="translate(0,0)"/>
<path d="" fill="#09A7A1" transform="translate(0,0)"/>
<path d="" fill="#07A7A5" transform="translate(0,0)"/>
<path d="" fill="#10A5A2" transform="translate(0,0)"/>
<path d="" fill="#01AAA5" transform="translate(0,0)"/>
<path d="" fill="#04A8A9" transform="translate(0,0)"/>
<path d="" fill="#08A7AA" transform="translate(0,0)"/>
<path d="" fill="#05A8A3" transform="translate(0,0)"/>
<path d="" fill="#05A9A8" transform="translate(0,0)"/>
<path d="" fill="#02A9A3" transform="translate(0,0)"/>
<path d="" fill="#01AAA5" transform="translate(0,0)"/>
<path d="" fill="#00A8A3" transform="translate(0,0)"/>
<path d="" fill="#05A7A7" transform="translate(0,0)"/>
<path d="" fill="#02A6A5" transform="translate(0,0)"/>
<path d="" fill="#01AAA5" transform="translate(0,0)"/>
<path d="" fill="#00A7A5" transform="translate(0,0)"/>
<path d="" fill="#05A7A9" transform="translate(0,0)"/>
<path d="" fill="#05A4A7" transform="translate(0,0)"/>
<path d="" fill="#01AAA7" transform="translate(0,0)"/>
<path d="" fill="#02A5A7" transform="translate(0,0)"/>
<path d="" fill="#02A8A9" transform="translate(0,0)"/>
<path d="" fill="#05A7A5" transform="translate(0,0)"/>
<path d="" fill="#02A8A9" transform="translate(0,0)"/>
<path d="" fill="#05A7A5" transform="translate(0,0)"/>
<path d="" fill="#00ABA5" transform="translate(0,0)"/>
<path d="" fill="#00AAA4" transform="translate(0,0)"/>
<path d="" fill="#07A7A1" transform="translate(0,0)"/>
<path d="" fill="#0FA29E" transform="translate(0,0)"/>
<path d="" fill="#04A7AB" transform="translate(0,0)"/>
<path d="" fill="#06A4AC" transform="translate(0,0)"/>
<path d="" fill="#09A3A6" transform="translate(0,0)"/>
</svg>
