<?xml version="1.0" encoding="UTF-8"?>
<svg version="1.1" xmlns="http://www.w3.org/2000/svg" width="1138" height="320">
<path d="M0 0 C8.16233476 -0.06948076 16.32454617 -0.12280118 24.48710346 -0.15543652 C28.2772344 -0.1710991 32.06716316 -0.19234778 35.85717773 -0.22631836 C39.51410601 -0.2588913 43.1708397 -0.27684855 46.82790184 -0.28463173 C48.22378796 -0.29017901 49.61966331 -0.3010115 51.01546669 -0.31719017 C52.9689459 -0.33893429 54.92262051 -0.34022515 56.8762207 -0.34057617 C57.9887471 -0.34723801 59.1012735 -0.35389984 60.24751282 -0.36076355 C63 0 63 0 64.85075378 1.37992859 C66.35547605 3.5011081 66.50066217 5.1091379 66.6875 7.6875 C66.75324219 8.49574219 66.81898438 9.30398438 66.88671875 10.13671875 C66.94279297 11.05904297 66.94279297 11.05904297 67 12 C67.66 12 68.32 12 69 12 C69.495 16.95 69.495 16.95 70 22 C70.66 22 71.32 22 72 22 C72.12117187 22.66386719 72.24234375 23.32773437 72.3671875 24.01171875 C72.53476562 24.89472656 72.70234375 25.77773438 72.875 26.6875 C73.03742188 27.55761719 73.19984375 28.42773438 73.3671875 29.32421875 C74.00853461 32.0360877 74.96474867 34.41570593 76 37 C76.69569805 39.47570673 77.36428504 41.94678866 78 44.4375 C79.18499404 49.02472304 80.46128751 53.51926924 82 58 C82.55208731 59.68411954 83.09438292 61.37149304 83.625 63.0625 C83.88539063 63.87847656 84.14578125 64.69445312 84.4140625 65.53515625 C85.0259784 68.10928247 85.10336667 70.36414998 85 73 C85.66 73 86.32 73 87 73 C87.12117187 73.66386719 87.24234375 74.32773438 87.3671875 75.01171875 C88.39329898 80.51044811 88.39329898 80.51044811 90.125 85.8125 C91.13480892 88.33702229 91.15396332 90.30564195 91 93 C91.66 93 92.32 93 93 93 C93.33951619 94.56116819 93.67132544 96.12401338 94 97.6875 C94.185625 98.55761719 94.37125 99.42773438 94.5625 100.32421875 C94.98972047 102.93712964 95.07616201 105.35813038 95 108 C95.66 108 96.32 108 97 108 C97.12117187 108.66386719 97.24234375 109.32773438 97.3671875 110.01171875 C98.39329898 115.51044811 98.39329898 115.51044811 100.125 120.8125 C101.13480892 123.33702229 101.15396332 125.30564195 101 128 C101.99 128.33 102.98 128.66 104 129 C106.00022304 123.47938441 107.45913804 118.06059856 108.53125 112.2890625 C109.11569787 109.43500876 110.04138248 106.7480369 111 104 C111.36106097 102.33911955 111.70462173 100.67381019 112 99 C112.66 99 113.32 99 114 99 C114.07347656 98.12988281 114.07347656 98.12988281 114.1484375 97.2421875 C114.59844925 92.54034058 115.37703968 88.46314088 117 84 C117.36106097 82.33911955 117.70462173 80.67381019 118 79 C118.66 79 119.32 79 120 79 C120.07347656 78.12988281 120.07347656 78.12988281 120.1484375 77.2421875 C120.22320313 76.46101563 120.29796875 75.67984375 120.375 74.875 C120.44460938 74.10929687 120.51421875 73.34359375 120.5859375 72.5546875 C121.07219733 69.55455612 122.02196809 66.8782082 123 64 C123.75630669 61.22000621 124.44176458 58.42373472 125.125 55.625 C125.30675781 54.88894531 125.48851562 54.15289062 125.67578125 53.39453125 C126.11935562 51.59688777 126.55998266 49.79851746 127 48 C127.66 48 128.32 48 129 48 C129.07347656 47.12988281 129.07347656 47.12988281 129.1484375 46.2421875 C129.59844925 41.54034058 130.37703968 37.46314088 132 33 C132.36106097 31.33911955 132.70462173 29.67381019 133 28 C133.66 28 134.32 28 135 28 C135.33 24.7 135.66 21.4 136 18 C136.66 18 137.32 18 138 18 C138.33 14.7 138.66 11.4 139 8 C139.66 8 140.32 8 141 8 C141.144375 7.05125 141.28875 6.1025 141.4375 5.125 C142 2 142 2 143 0 C151.29271909 -0.06947842 159.58531679 -0.12280001 167.87825489 -0.15543652 C171.72891831 -0.1710996 175.57938275 -0.19234923 179.42993164 -0.22631836 C183.14521429 -0.25888946 186.86030544 -0.27684817 190.57571983 -0.28463173 C191.99393415 -0.29017934 193.41213787 -0.30101244 194.83027077 -0.31719017 C196.81488467 -0.3389319 198.79969086 -0.34022513 200.78442383 -0.34057617 C202.47986076 -0.35056892 202.47986076 -0.35056892 204.20954895 -0.36076355 C207 0 207 0 208.85670471 1.39772034 C210.28125451 3.39416621 210.48996182 4.75952103 210.6953125 7.1953125 C210.77136719 7.99324219 210.84742188 8.79117187 210.92578125 9.61328125 C210.99152344 10.44214844 211.05726563 11.27101563 211.125 12.125 C211.11776985 17.49158316 211.11776985 17.49158316 213 22 C213.22869642 23.61215007 213.3952928 25.23319624 213.53515625 26.85546875 C213.6223291 27.86480469 213.70950195 28.87414062 213.79931641 29.9140625 C213.92959229 31.53441406 213.92959229 31.53441406 214.0625 33.1875 C214.15192871 34.27417969 214.24135742 35.36085937 214.33349609 36.48046875 C214.94784557 44.3441421 215.24999458 52.11128221 215 60 C215.66 60 216.32 60 217 60 C217.05534912 60.7520874 217.11069824 61.5041748 217.16772461 62.27905273 C217.41959717 65.66557229 217.67845339 69.05152199 217.9375 72.4375 C218.02451172 73.62150391 218.11152344 74.80550781 218.20117188 76.02539062 C218.28818359 77.15009766 218.37519531 78.27480469 218.46484375 79.43359375 C218.543396 80.47572021 218.62194824 81.51784668 218.70288086 82.59155273 C218.74286879 84.94793895 218.74286879 84.94793895 220 86 C220.21581873 87.76551713 220.37115018 89.53851404 220.5 91.3125 C220.5825 92.38757813 220.665 93.46265625 220.75 94.5703125 C220.91666667 96.85677083 221.08333333 99.14322917 221.25 101.4296875 C221.3325 102.50476563 221.415 103.57984375 221.5 104.6875 C221.5721875 105.68136719 221.644375 106.67523438 221.71875 107.69921875 C221.75543157 109.96079268 221.75543157 109.96079268 223 111 C224.15748647 118.61654674 224.12068232 126.31655897 224 134 C224.66 134 225.32 134 226 134 C226.75166913 141.69118596 227.13690844 149.27227893 227 157 C227.66 157 228.32 157 229 157 C229.08302368 158.17357056 229.08302368 158.17357056 229.16772461 159.37084961 C229.41958041 162.89342387 229.67844455 166.41544822 229.9375 169.9375 C230.02451172 171.16919922 230.11152344 172.40089844 230.20117188 173.66992188 C230.28818359 174.83974609 230.37519531 176.00957031 230.46484375 177.21484375 C230.58267212 178.84087524 230.58267212 178.84087524 230.70288086 180.49975586 C230.73108434 182.93732551 230.73108434 182.93732551 232 184 C233.09462032 191.95964651 233.12795379 199.98156277 233 208 C233.66 208 234.32 208 235 208 C235.61351983 214.17902119 236.09837546 220.35347507 236.25 226.5625 C236.27578125 227.53316406 236.3015625 228.50382813 236.328125 229.50390625 C236 232 236 232 234.87844849 233.63372803 C232.12723092 235.63480045 229.99422051 235.36703453 226.61669922 235.35644531 C224.6398262 235.36094696 224.6398262 235.36094696 222.62301636 235.36553955 C221.18356943 235.3535356 219.74412643 235.3410527 218.3046875 235.328125 C216.83163648 235.32506749 215.35858257 235.32319131 213.88552856 235.32244873 C210.80036333 235.31784718 207.71545934 235.30342491 204.63037109 235.28125 C200.66777254 235.25291806 196.70537936 235.24203347 192.74268913 235.2375679 C189.70246307 235.23342016 186.66227888 235.22360894 183.62207413 235.21169281 C182.16037457 235.20598051 180.69867096 235.201225 179.23696518 235.19742584 C177.19945627 235.19058362 175.16197746 235.17605724 173.12451172 235.16113281 C171.96329803 235.15430481 170.80208435 235.14747681 169.60568237 235.14044189 C167 235 167 235 166 234 C165.95936168 232.33382885 165.957279 230.66611905 166 229 C165.34 229 164.68 229 164 229 C163.04541351 220.64736824 162.88960666 212.40215965 163 204 C162.34 204 161.68 204 161 204 C160.20318916 195.97497656 159.87132711 188.06350113 160 180 C159.34 180 158.68 180 158 180 C157.01 168.615 157.01 168.615 156 157 C154.68 162.94 153.36 168.88 152 175 C151.34 175 150.68 175 150 175 C149.67 179.29 149.34 183.58 149 188 C148.34 188 147.68 188 147 188 C146.67 191.63 146.34 195.26 146 199 C145.34 199 144.68 199 144 199 C143.67 202.96 143.34 206.92 143 211 C142.34 211 141.68 211 141 211 C140.67 214.96 140.34 218.92 140 223 C139.34 223 138.68 223 138 223 C137.96261719 223.69867188 137.92523437 224.39734375 137.88671875 225.1171875 C137.78810547 226.48230469 137.78810547 226.48230469 137.6875 227.875 C137.62949219 228.77992188 137.57148437 229.68484375 137.51171875 230.6171875 C137 233 137 233 134 235 C131.2677002 235.26069641 131.2677002 235.26069641 127.92382812 235.2746582 C126.67243042 235.28419022 125.42103271 235.29372223 124.13171387 235.30354309 C122.76489229 235.30328169 121.3980707 235.30234476 120.03125 235.30078125 C118.63024773 235.30466814 117.22924663 235.3090028 115.82824707 235.31376648 C112.89278339 235.32122689 109.95743999 235.32093845 107.02197266 235.31567383 C103.25895672 235.30987471 99.49643227 235.32682112 95.73349762 235.3500185 C92.84072997 235.36474369 89.94808108 235.36562932 87.05528259 235.36250877 C85.66779099 235.36302245 84.28029281 235.36826894 82.89283752 235.37832069 C80.95398711 235.39064482 79.01503744 235.38196509 77.07617188 235.37231445 C75.4209552 235.37325859 75.4209552 235.37325859 73.7322998 235.3742218 C71 235 71 235 69.17077637 233.60588074 C66.54132085 229.99922101 66.00730036 225.27152368 65 221 C64.82791016 220.28666504 64.65582031 219.57333008 64.47851562 218.83837891 C63.91192487 216.47808109 63.35986634 214.11482578 62.8125 211.75 C62.63340088 210.99388428 62.45430176 210.23776855 62.26977539 209.45874023 C61.23524605 204.85864417 60.81915147 200.71453399 61 196 C60.34 196 59.68 196 59 196 C58.67 192.37 58.34 188.74 58 185 C57.34 185 56.68 185 56 185 C55.81824219 183.80503906 55.81824219 183.80503906 55.6328125 182.5859375 C54.61408611 176.02152577 54.61408611 176.02152577 52.875 169.625 C51.8766295 166.62988851 51.85065702 164.13620248 52 161 C51.01 161.33 50.02 161.66 49 162 C48.94465088 162.84296631 48.88930176 163.68593262 48.83227539 164.55444336 C48.6253495 167.67254301 48.41430883 170.7903285 48.20043945 173.90795898 C48.1086091 175.25908409 48.01843502 176.61032281 47.92993164 177.96166992 C47.80266594 179.90051668 47.66901017 181.83894069 47.53515625 183.77734375 C47.41732788 185.52905884 47.41732788 185.52905884 47.29711914 187.31616211 C47 190 47 190 46 191 C45.78331669 192.98475892 45.62846887 194.97633554 45.5 196.96875 C45.4175 198.17917969 45.335 199.38960937 45.25 200.63671875 C45.1675 201.91160156 45.085 203.18648437 45 204.5 C44.83752855 207.01069167 44.67108376 209.52113049 44.5 212.03125 C44.4278125 213.15080078 44.355625 214.27035156 44.28125 215.42382812 C44 218 44 218 43 219 C42.60333773 221.18019479 42.25684763 223.3696463 41.9375 225.5625 C41.76089844 226.76003906 41.58429688 227.95757812 41.40234375 229.19140625 C41.26957031 230.11824219 41.13679687 231.04507813 41 232 C40.34 232 39.68 232 39 232 C38.67 232.99 38.34 233.98 38 235 C16.55 235 -4.9 235 -27 235 C-27.33 233.68 -27.66 232.36 -28 231 C-28.66 231 -29.32 231 -30 231 C-30 227.37 -30 223.74 -30 220 C-29.34 220 -28.68 220 -28 220 C-28.01160156 219.18917969 -28.02320313 218.37835938 -28.03515625 217.54296875 C-28.09422542 210.29433826 -27.80842879 203.20367799 -27 196 C-26.34 196 -25.68 196 -25 196 C-25.01740234 194.83597656 -25.01740234 194.83597656 -25.03515625 193.6484375 C-25.10418029 185.38527392 -24.69121931 177.23291573 -24 169 C-23.34 169 -22.68 169 -22 169 C-22.01160156 168.35675781 -22.02320313 167.71351563 -22.03515625 167.05078125 C-22.10874122 159.68177183 -21.9066679 152.32050376 -21 145 C-20.67 144.67 -20.34 144.34 -20 144 C-19.70956058 141.35107083 -19.47668246 138.71889817 -19.28125 136.0625 C-19.21844849 135.267229 -19.15564697 134.47195801 -19.09094238 133.65258789 C-18.88963609 131.10204086 -18.69413686 128.55110218 -18.5 126 C-18.2447182 122.64540804 -17.98359905 119.29134861 -17.71875 115.9375 C-17.661427 115.15834229 -17.604104 114.37918457 -17.54504395 113.57641602 C-17.11280181 108.11280181 -17.11280181 108.11280181 -16 107 C-15.78418127 105.23448287 -15.62884982 103.46148596 -15.5 101.6875 C-15.4175 100.61242187 -15.335 99.53734375 -15.25 98.4296875 C-15.1675 97.29789062 -15.085 96.16609375 -15 95 C-14.83748714 92.77052666 -14.67103774 90.54133555 -14.5 88.3125 C-14.4278125 87.31863281 -14.355625 86.32476562 -14.28125 85.30078125 C-14 83 -14 83 -13 82 C-12.78418127 80.23448287 -12.62884982 78.46148596 -12.5 76.6875 C-12.4175 75.61242187 -12.335 74.53734375 -12.25 73.4296875 C-12.1675 72.29789062 -12.085 71.16609375 -12 70 C-11.83748714 67.77052666 -11.67103774 65.54133555 -11.5 63.3125 C-11.4278125 62.31863281 -11.355625 61.32476562 -11.28125 60.30078125 C-11 58 -11 58 -10 57 C-9.78386975 55.16139195 -9.62871203 53.31553777 -9.5 51.46875 C-9.4175 50.34855469 -9.335 49.22835937 -9.25 48.07421875 C-9.1675 46.89472656 -9.085 45.71523438 -9 44.5 C-8.83750211 42.17678799 -8.67105438 39.85384769 -8.5 37.53125 C-8.4278125 36.49548828 -8.355625 35.45972656 -8.28125 34.39257812 C-8 32 -8 32 -7 31 C-6.80826465 29.28076049 -6.67632458 27.55477157 -6.5703125 25.828125 C-6.49683594 24.77109375 -6.42335938 23.7140625 -6.34765625 22.625 C-6.20027828 20.39106026 -6.05955423 18.1566707 -5.92578125 15.921875 C-5.84972656 14.8596875 -5.77367187 13.7975 -5.6953125 12.703125 C-5.63359863 11.73020508 -5.57188477 10.75728516 -5.50830078 9.75488281 C-4.92540045 6.59568622 -3.9012122 4.57682049 -2 2 C-1.34 2 -0.68 2 0 2 C0 1.34 0 0.68 0 0 Z " fill="#012450" transform="translate(902,1)"/>
<path d="M0 0 C1.222565 -0.00095673 2.44513 -0.00191345 3.70474243 -0.00289917 C6.27809704 -0.00357644 8.85145341 -0.00175392 11.42480469 0.00244141 C15.33272195 0.00778673 19.24052381 0.00248566 23.1484375 -0.00390625 C25.66145858 -0.00324521 28.1744796 -0.00196351 30.6875 0 C32.41774918 -0.00303635 32.41774918 -0.00303635 34.18295288 -0.00613403 C41.49436994 0.0146663 48.70086757 0.41097449 55.9765625 1.1328125 C55.9765625 1.7928125 55.9765625 2.4528125 55.9765625 3.1328125 C57.1109375 3.0915625 58.2453125 3.0503125 59.4140625 3.0078125 C66.6316258 3.03327128 72.72601164 4.73030617 79.06640625 8.12109375 C83.53210143 10.4863597 88.2798018 12.28257344 92.9765625 14.1328125 C92.9765625 14.7928125 92.9765625 15.4528125 92.9765625 16.1328125 C93.7809375 16.473125 93.7809375 16.473125 94.6015625 16.8203125 C101.17563844 20.45335447 105.85715232 25.92932202 109.9765625 32.1328125 C109.9765625 32.7928125 109.9765625 33.4528125 109.9765625 34.1328125 C110.6365625 34.1328125 111.2965625 34.1328125 111.9765625 34.1328125 C112.9765625 36.1328125 113.9765625 38.1328125 114.9765625 40.1328125 C115.49476563 41.14859375 116.01296875 42.164375 116.546875 43.2109375 C119.83676827 49.92298106 121.94262503 55.6156627 121.9765625 63.1328125 C122.6365625 63.1328125 123.2965625 63.1328125 123.9765625 63.1328125 C124.96906795 68.83971884 125.08133762 74.34689739 124.9765625 80.1328125 C125.6365625 80.1328125 126.2965625 80.1328125 126.9765625 80.1328125 C127.75051436 88.77674595 128.12536672 97.33486008 128.109375 106.01171875 C128.11033173 107.18564682 128.11128845 108.35957489 128.11227417 109.56907654 C128.11294935 112.0303452 128.11114171 114.49161571 128.10693359 116.95288086 C128.10157108 120.68933155 128.1069038 124.42566233 128.11328125 128.16210938 C128.11262045 130.57031276 128.11133923 132.97851607 128.109375 135.38671875 C128.11139923 136.48705948 128.11342346 137.58740021 128.11550903 138.72108459 C128.05817576 157.96958598 128.05817576 157.96958598 125.9765625 162.1328125 C125.585269 164.67479214 125.23177131 167.20672839 124.9140625 169.7578125 C124.77774414 170.81742187 124.77774414 170.81742187 124.63867188 171.8984375 C124.41473131 173.6428166 124.19522432 175.38776384 123.9765625 177.1328125 C123.3165625 177.1328125 122.6565625 177.1328125 121.9765625 177.1328125 C121.6465625 180.4328125 121.3165625 183.7328125 120.9765625 187.1328125 C120.3165625 187.1328125 119.6565625 187.1328125 118.9765625 187.1328125 C118.6465625 189.7728125 118.3165625 192.4128125 117.9765625 195.1328125 C117.3165625 195.1328125 116.6565625 195.1328125 115.9765625 195.1328125 C115.6465625 196.7828125 115.3165625 198.4328125 114.9765625 200.1328125 C114.3165625 200.1328125 113.6565625 200.1328125 112.9765625 200.1328125 C112.821875 201.2465625 112.821875 201.2465625 112.6640625 202.3828125 C111.92722453 205.3301644 111.02857108 206.91664324 108.9765625 209.1328125 C108.3165625 209.1328125 107.6565625 209.1328125 106.9765625 209.1328125 C106.9146875 209.8753125 106.8528125 210.6178125 106.7890625 211.3828125 C105.73095775 214.96409011 103.94404014 215.98139121 100.9765625 218.1328125 C100.6465625 218.7928125 100.3165625 219.4528125 99.9765625 220.1328125 C97.04425799 222.11409933 94.46553929 223.48670569 90.9765625 224.1328125 C90.9765625 224.7928125 90.9765625 225.4528125 90.9765625 226.1328125 C89.54227249 226.80635749 88.10399193 227.47140951 86.6640625 228.1328125 C85.86355469 228.5040625 85.06304688 228.8753125 84.23828125 229.2578125 C81.9765625 230.1328125 81.9765625 230.1328125 78.9765625 230.1328125 C78.9765625 230.7928125 78.9765625 231.4528125 78.9765625 232.1328125 C75.6765625 232.4628125 72.3765625 232.7928125 68.9765625 233.1328125 C68.9765625 233.7928125 68.9765625 234.4528125 68.9765625 235.1328125 C59.85651698 236.66421445 51.23255908 237.40956987 41.9765625 237.1328125 C41.9765625 237.7928125 41.9765625 238.4528125 41.9765625 239.1328125 C23.75525284 240.53637968 5.1706293 241.15839449 -13.0234375 239.1328125 C-13.0234375 238.4728125 -13.0234375 237.8128125 -13.0234375 237.1328125 C-14.2609375 237.1740625 -15.4984375 237.2153125 -16.7734375 237.2578125 C-22.63962498 237.27652442 -28.27606628 236.22199283 -34.0234375 235.1328125 C-34.0234375 234.4728125 -34.0234375 233.8128125 -34.0234375 233.1328125 C-36.9934375 232.8028125 -39.9634375 232.4728125 -43.0234375 232.1328125 C-43.0234375 231.4728125 -43.0234375 230.8128125 -43.0234375 230.1328125 C-44.5703125 229.978125 -44.5703125 229.978125 -46.1484375 229.8203125 C-49.97427695 229.14153453 -52.65713775 228.02122455 -56.0234375 226.1328125 C-56.0234375 225.4728125 -56.0234375 224.8128125 -56.0234375 224.1328125 C-56.7659375 224.0709375 -57.5084375 224.0090625 -58.2734375 223.9453125 C-61.90702818 222.87175162 -62.77129533 221.13566873 -65.0234375 218.1328125 C-66.08574619 217.21214496 -67.16995755 216.31620886 -68.2734375 215.4453125 C-69.1809375 214.6821875 -70.0884375 213.9190625 -71.0234375 213.1328125 C-71.0234375 212.4728125 -71.0234375 211.8128125 -71.0234375 211.1328125 C-72.0134375 210.8028125 -73.0034375 210.4728125 -74.0234375 210.1328125 C-74.0234375 209.4728125 -74.0234375 208.8128125 -74.0234375 208.1328125 C-74.6834375 208.1328125 -75.3434375 208.1328125 -76.0234375 208.1328125 C-76.3534375 206.4828125 -76.6834375 204.8328125 -77.0234375 203.1328125 C-78.0134375 202.8028125 -79.0034375 202.4728125 -80.0234375 202.1328125 C-80.0234375 201.1428125 -80.0234375 200.1528125 -80.0234375 199.1328125 C-80.6834375 199.1328125 -81.3434375 199.1328125 -82.0234375 199.1328125 C-82.3534375 197.1528125 -82.6834375 195.1728125 -83.0234375 193.1328125 C-83.6834375 193.1328125 -84.3434375 193.1328125 -85.0234375 193.1328125 C-87.7881418 185.21761845 -90.13894642 177.30239194 -92.0234375 169.1328125 C-92.18537598 168.51672119 -92.34731445 167.90062988 -92.51416016 167.26586914 C-94.26468552 160.23038556 -94.70346841 153.16461546 -95.1484375 145.9453125 C-95.19013062 145.2823114 -95.23182373 144.6193103 -95.27478027 143.93621826 C-96.38125267 126.13716391 -96.16330663 108.60967048 -95.0859375 90.8203125 C-95.04255249 90.09547668 -94.99916748 89.37064087 -94.95446777 88.62384033 C-94.82867386 86.56778277 -94.69531764 84.51238801 -94.55859375 82.45703125 C-94.4800415 81.26166748 -94.40148926 80.06630371 -94.32055664 78.8347168 C-94.0234375 76.1328125 -94.0234375 76.1328125 -93.0234375 75.1328125 C-92.47906038 71.67899125 -92.05701527 68.2151499 -91.62109375 64.74609375 C-91.05648308 61.33259788 -90.19998745 58.37802169 -89.0234375 55.1328125 C-88.49363281 53.54339844 -88.49363281 53.54339844 -87.953125 51.921875 C-86.9765625 48.9921875 -86 46.0625 -85.0234375 43.1328125 C-84.3634375 43.1328125 -83.7034375 43.1328125 -83.0234375 43.1328125 C-82.5284375 40.1628125 -82.5284375 40.1628125 -82.0234375 37.1328125 C-81.3634375 37.1328125 -80.7034375 37.1328125 -80.0234375 37.1328125 C-79.6934375 35.4828125 -79.3634375 33.8328125 -79.0234375 32.1328125 C-78.3634375 32.1328125 -77.7034375 32.1328125 -77.0234375 32.1328125 C-76.6934375 30.8128125 -76.3634375 29.4928125 -76.0234375 28.1328125 C-75.3634375 28.1328125 -74.7034375 28.1328125 -74.0234375 28.1328125 C-73.6934375 27.1428125 -73.3634375 26.1528125 -73.0234375 25.1328125 C-72.3634375 25.1328125 -71.7034375 25.1328125 -71.0234375 25.1328125 C-70.6934375 24.1428125 -70.3634375 23.1528125 -70.0234375 22.1328125 C-69.3634375 22.1328125 -68.7034375 22.1328125 -68.0234375 22.1328125 C-67.6934375 21.1428125 -67.3634375 20.1528125 -67.0234375 19.1328125 C-64.77955312 17.45207634 -62.57498924 15.93502149 -60.2109375 14.4453125 C-59.58123047 14.02958984 -58.95152344 13.61386719 -58.30273438 13.18554688 C-54.85522597 10.98246963 -53.21182357 10.1328125 -49.0234375 10.1328125 C-49.0234375 9.4728125 -49.0234375 8.8128125 -49.0234375 8.1328125 C-41.48896431 5.62942302 -34.15968766 3.62964335 -26.2890625 2.52734375 C-24.06225427 2.3634009 -24.06225427 2.3634009 -23.0234375 1.1328125 C-15.43353863 -0.16202219 -7.67185233 -0.01341595 0 0 Z M3.9765625 70.1328125 C3.9765625 70.7928125 3.9765625 71.4528125 3.9765625 72.1328125 C2.831875 72.2875 2.831875 72.2875 1.6640625 72.4453125 C-1.3365994 73.21292368 -2.31684474 73.57292336 -4.0234375 76.1328125 C-4.75385603 79.74304349 -4.75385603 79.74304349 -5.0234375 83.1328125 C-5.6834375 83.1328125 -6.3434375 83.1328125 -7.0234375 83.1328125 C-7.95493933 90.2185166 -8.16957917 97.14701669 -8.15625 104.2890625 C-8.15720673 105.43137329 -8.15816345 106.57368408 -8.15914917 107.75061035 C-8.15982653 110.15421606 -8.15800336 112.55782364 -8.15380859 114.96142578 C-8.14845411 118.62146143 -8.15376876 122.28137438 -8.16015625 125.94140625 C-8.15949539 128.2864586 -8.15821406 130.63151088 -8.15625 132.9765625 C-8.15827423 134.06118774 -8.16029846 135.14581299 -8.16238403 136.26330566 C-8.64222457 151.54466154 -8.64222457 151.54466154 -2.41015625 164.73828125 C-0.65840997 166.01739363 1.06525837 167.10933996 2.9765625 168.1328125 C3.54117188 168.49761719 4.10578125 168.86242187 4.6875 169.23828125 C8.11792006 170.5788379 11.53169397 170.51570638 15.1640625 170.5078125 C15.92420654 170.50620117 16.68435059 170.50458984 17.4675293 170.50292969 C24.62932416 170.34665563 29.53172324 168.58046145 35.3515625 164.4453125 C43.33972273 153.07754602 41.13528645 136.33105258 41.10693359 123.16333008 C41.10158155 120.20583962 41.10689942 117.24850142 41.11328125 114.29101562 C42.08888101 92.76414618 42.08888101 92.76414618 33.9140625 73.6328125 C28.32089661 69.30261955 23.99657478 68.9927039 17.0390625 69.0078125 C15.26208984 69.00394531 15.26208984 69.00394531 13.44921875 69 C10.20120507 69.124221 7.16452533 69.51955553 3.9765625 70.1328125 Z " fill="#012450" transform="translate(739.0234375,-0.1328125)"/>
<path d="M0 0 C1.29152481 -0.00095673 2.58304962 -0.00191345 3.91371155 -0.00289917 C6.63250949 -0.00436338 9.35127431 -0.00226339 12.07006836 0.00244141 C15.52365482 0.00813218 18.97716343 0.00485563 22.43074703 -0.00113106 C25.76633728 -0.00565154 29.10190755 -0.00246909 32.4375 0 C34.27392311 -0.00303635 34.27392311 -0.00303635 36.14744568 -0.00613403 C43.24867093 0.01302827 50.22660625 0.34554269 57.28515625 1.1328125 C57.28515625 1.7928125 57.28515625 2.4528125 57.28515625 3.1328125 C58.084375 3.15859375 58.88359375 3.184375 59.70703125 3.2109375 C70.02413318 3.74374558 79.2319217 6.10323775 88.28515625 11.1328125 C88.28515625 11.7928125 88.28515625 12.4528125 88.28515625 13.1328125 C90.26515625 13.6278125 90.26515625 13.6278125 92.28515625 14.1328125 C92.28515625 14.7928125 92.28515625 15.4528125 92.28515625 16.1328125 C93.27515625 16.4628125 94.26515625 16.7928125 95.28515625 17.1328125 C95.28515625 17.7928125 95.28515625 18.4528125 95.28515625 19.1328125 C96.27515625 19.4628125 97.26515625 19.7928125 98.28515625 20.1328125 C98.28515625 20.7928125 98.28515625 21.4528125 98.28515625 22.1328125 C98.94515625 22.1328125 99.60515625 22.1328125 100.28515625 22.1328125 C100.61515625 23.4528125 100.94515625 24.7728125 101.28515625 26.1328125 C101.94515625 26.1328125 102.60515625 26.1328125 103.28515625 26.1328125 C103.61515625 27.7828125 103.94515625 29.4328125 104.28515625 31.1328125 C104.94515625 31.1328125 105.60515625 31.1328125 106.28515625 31.1328125 C107.07968235 33.31927554 107.87064205 35.50703471 108.66015625 37.6953125 C109.10101563 38.91347656 109.541875 40.13164063 109.99609375 41.38671875 C111.7096611 46.36644931 113.3587744 51.24453131 113.84765625 56.5078125 C113.88308766 59.9365062 113.88308766 59.9365062 115.28515625 61.1328125 C115.38611189 63.78737443 115.42486623 66.41536426 115.41796875 69.0703125 C115.41892548 69.8655835 115.4198822 70.66085449 115.42086792 71.48022461 C115.42154968 73.1648771 115.41969568 74.84953221 115.41552734 76.53417969 C115.410179 79.12180447 115.41547244 81.70925566 115.421875 84.296875 C115.42121422 85.92968789 115.41993305 87.56250066 115.41796875 89.1953125 C115.41999298 89.97447021 115.42201721 90.75362793 115.42410278 91.55639648 C115.4001073 97.01786145 115.4001073 97.01786145 114.28515625 98.1328125 C114.03614979 100.06786273 113.81159383 102.00607184 113.59765625 103.9453125 C112.56713133 111.16697548 109.88543761 116.84930258 106.28515625 123.1328125 C105.62515625 123.1328125 104.96515625 123.1328125 104.28515625 123.1328125 C104.22328125 123.8753125 104.16140625 124.6178125 104.09765625 125.3828125 C103.03087114 128.99346979 101.30272555 129.97740586 98.28515625 132.1328125 C97.82882812 132.60074219 97.3725 133.06867188 96.90234375 133.55078125 C95.00315972 135.40867867 92.98660433 136.83433505 90.78515625 138.3203125 C90.01171875 138.85011719 89.23828125 139.37992188 88.44140625 139.92578125 C86.28515625 141.1328125 86.28515625 141.1328125 83.28515625 141.1328125 C83.28515625 141.7928125 83.28515625 142.4528125 83.28515625 143.1328125 C80.97515625 143.4628125 78.66515625 143.7928125 76.28515625 144.1328125 C76.28515625 144.7928125 76.28515625 145.4528125 76.28515625 146.1328125 C72.32515625 146.4628125 68.36515625 146.7928125 64.28515625 147.1328125 C64.28515625 147.7928125 64.28515625 148.4528125 64.28515625 149.1328125 C63.50277588 149.18816162 62.72039551 149.24351074 61.91430664 149.30053711 C58.39173238 149.55239291 54.86970803 149.81125705 51.34765625 150.0703125 C49.50010742 150.20083008 49.50010742 150.20083008 47.61523438 150.33398438 C46.44541016 150.42099609 45.27558594 150.50800781 44.0703125 150.59765625 C42.44428101 150.71548462 42.44428101 150.71548462 40.78540039 150.83569336 C38.34783074 150.86389684 38.34783074 150.86389684 37.28515625 152.1328125 C34.84855179 152.23364014 32.44090924 152.27253853 30.00390625 152.265625 C29.27522339 152.26658173 28.54654053 152.26753845 27.79577637 152.26852417 C26.25235915 152.26920585 24.70893908 152.26735238 23.16552734 152.26318359 C20.79518225 152.25783512 18.42502666 152.26312892 16.0546875 152.26953125 C14.55859333 152.26887047 13.06249928 152.2675893 11.56640625 152.265625 C10.85286987 152.26764923 10.1393335 152.26967346 9.4041748 152.27175903 C4.40010816 152.24776441 4.40010816 152.24776441 3.28515625 151.1328125 C0.61456774 150.99166089 -2.03916613 151.09034143 -4.71484375 151.1328125 C-4.38484375 154.4328125 -4.05484375 157.7328125 -3.71484375 161.1328125 C-3.05484375 161.1328125 -2.39484375 161.1328125 -1.71484375 161.1328125 C-1.26109375 161.9165625 -0.80734375 162.7003125 -0.33984375 163.5078125 C1.36166738 166.2564074 2.33034709 167.01202282 5.28515625 168.1328125 C5.28515625 168.7928125 5.28515625 169.4528125 5.28515625 170.1328125 C6.41953125 170.2771875 7.55390625 170.4215625 8.72265625 170.5703125 C12.28515625 171.1328125 12.28515625 171.1328125 13.28515625 172.1328125 C19.13970673 173.16166193 25.088662 173.29282225 31.01782227 173.33813477 C31.83843643 173.34803436 32.6590506 173.35793396 33.50453186 173.36813354 C36.18268068 173.39940056 38.86084716 173.42436635 41.5390625 173.44921875 C43.40950447 173.46981844 45.27994211 173.49081564 47.15037537 173.51219177 C52.04766298 173.56710133 56.94499042 173.61664642 61.84234619 173.66503906 C67.73212235 173.72436864 73.62182654 173.79042357 79.51154327 173.85533905 C88.43603657 173.95295642 97.36057834 174.04208026 106.28515625 174.1328125 C106.28515625 191.6228125 106.28515625 209.1128125 106.28515625 227.1328125 C100.2650823 229.13950382 94.54782399 230.90992363 88.42578125 232.37890625 C86.38861991 232.86792632 84.35672568 233.37965714 82.33203125 233.91796875 C74.54007038 235.90591774 66.81857709 236.81197629 58.82421875 237.48657227 C57.99148438 237.55803467 57.15875 237.62949707 56.30078125 237.703125 C55.55086914 237.76258301 54.80095703 237.82204102 54.02832031 237.88330078 C52.25935975 237.9586822 52.25935975 237.9586822 51.28515625 239.1328125 C48.38329222 239.3810184 45.50560928 239.56297191 42.59765625 239.6953125 C41.70570557 239.7370459 40.81375488 239.7787793 39.89477539 239.82177734 C26.08331069 240.41082928 12.27979522 240.37665936 -1.52734375 239.6953125 C-2.74659546 239.63657959 -2.74659546 239.63657959 -3.99047852 239.57666016 C-9.58896012 239.25869613 -9.58896012 239.25869613 -10.71484375 238.1328125 C-12.43205038 237.85866657 -14.15842529 237.64145905 -15.88671875 237.44921875 C-16.94375 237.32611328 -18.00078125 237.20300781 -19.08984375 237.07617188 C-21.32398096 236.8240557 -23.55835461 236.5740252 -25.79296875 236.32617188 C-26.85515625 236.20177734 -27.91734375 236.07738281 -29.01171875 235.94921875 C-29.98463867 235.84037354 -30.95755859 235.73152832 -31.95996094 235.61938477 C-34.77245865 235.12263645 -37.09506565 234.24883797 -39.71484375 233.1328125 C-41.37404271 232.76410162 -43.03960805 232.41999576 -44.71484375 232.1328125 C-44.71484375 231.4728125 -44.71484375 230.8128125 -44.71484375 230.1328125 C-45.41996094 230.03097656 -46.12507813 229.92914063 -46.8515625 229.82421875 C-50.1254402 229.03366438 -52.60068842 227.72757516 -55.52734375 226.0703125 C-56.50316406 225.52246094 -57.47898437 224.97460938 -58.484375 224.41015625 C-59.22042969 223.98863281 -59.95648438 223.56710938 -60.71484375 223.1328125 C-60.71484375 222.4728125 -60.71484375 221.8128125 -60.71484375 221.1328125 C-61.70484375 220.8028125 -62.69484375 220.4728125 -63.71484375 220.1328125 C-63.71484375 219.4728125 -63.71484375 218.8128125 -63.71484375 218.1328125 C-64.60429687 217.74416016 -64.60429687 217.74416016 -65.51171875 217.34765625 C-67.87342516 216.04536779 -69.22370821 214.73982772 -70.96484375 212.6953125 C-71.485625 212.09847656 -72.00640625 211.50164062 -72.54296875 210.88671875 C-73.71484375 209.1328125 -73.71484375 209.1328125 -73.71484375 206.1328125 C-74.70484375 205.8028125 -75.69484375 205.4728125 -76.71484375 205.1328125 C-76.71484375 204.1428125 -76.71484375 203.1528125 -76.71484375 202.1328125 C-77.37484375 202.1328125 -78.03484375 202.1328125 -78.71484375 202.1328125 C-79.04484375 200.1528125 -79.37484375 198.1728125 -79.71484375 196.1328125 C-80.37484375 196.1328125 -81.03484375 196.1328125 -81.71484375 196.1328125 C-82.04484375 193.8228125 -82.37484375 191.5128125 -82.71484375 189.1328125 C-83.37484375 189.1328125 -84.03484375 189.1328125 -84.71484375 189.1328125 C-85.20984375 184.1828125 -85.20984375 184.1828125 -85.71484375 179.1328125 C-86.37484375 179.1328125 -87.03484375 179.1328125 -87.71484375 179.1328125 C-87.84761719 178.14539063 -87.98039063 177.15796875 -88.1171875 176.140625 C-88.29378906 174.85929688 -88.47039062 173.57796875 -88.65234375 172.2578125 C-88.82636719 170.98164063 -89.00039062 169.70546875 -89.1796875 168.390625 C-89.52917602 165.25721796 -89.52917602 165.25721796 -90.71484375 163.1328125 C-91.94536764 154.11264476 -91.86296133 144.99428832 -91.84765625 135.91015625 C-91.84833225 134.47392256 -91.84930471 133.03768899 -91.85055542 131.60145569 C-91.85201803 128.61214086 -91.84992426 125.6228562 -91.84521484 122.63354492 C-91.83951324 118.83250755 -91.84280851 115.03154075 -91.84878731 111.23050594 C-91.85242758 108.27140282 -91.85123862 105.31231601 -91.84865952 102.35321236 C-91.84800007 100.95280511 -91.84878361 99.55239631 -91.85113907 98.15199089 C-91.8617356 90.08643591 -91.62984095 82.14989669 -90.71484375 74.1328125 C-90.05484375 74.1328125 -89.39484375 74.1328125 -88.71484375 74.1328125 C-88.72644531 73.55273438 -88.73804688 72.97265625 -88.75 72.375 C-88.80246549 67.8329879 -88.63235438 63.60567681 -87.71484375 59.1328125 C-87.05484375 59.1328125 -86.39484375 59.1328125 -85.71484375 59.1328125 C-85.73546875 58.524375 -85.75609375 57.9159375 -85.77734375 57.2890625 C-85.55081129 47.6614329 -81.23179896 40.37820272 -76.71484375 32.1328125 C-76.38484375 31.4728125 -76.05484375 30.8128125 -75.71484375 30.1328125 C-75.05484375 30.1328125 -74.39484375 30.1328125 -73.71484375 30.1328125 C-73.62203125 29.2975 -73.62203125 29.2975 -73.52734375 28.4453125 C-71.84647126 23.6612908 -68.04851123 21.29964624 -63.71484375 19.1328125 C-63.38484375 18.1428125 -63.05484375 17.1528125 -62.71484375 16.1328125 C-56.87883957 11.04327397 -49.98350124 8.46727184 -42.71484375 6.1328125 C-41.75707031 5.77960937 -40.79929687 5.42640625 -39.8125 5.0625 C-36.43016839 4.04737399 -33.36036711 3.72335475 -29.83984375 3.5078125 C-28.68742187 3.43304688 -27.535 3.35828125 -26.34765625 3.28125 C-25.04441406 3.20777344 -25.04441406 3.20777344 -23.71484375 3.1328125 C-23.71484375 2.4728125 -23.71484375 1.8128125 -23.71484375 1.1328125 C-15.79720505 0.13886586 -7.9729627 -0.01316076 0 0 Z M3.28515625 64.1328125 C3.28515625 64.7928125 3.28515625 65.4528125 3.28515625 66.1328125 C2.68703125 66.3803125 2.08890625 66.6278125 1.47265625 66.8828125 C-1.11369992 68.36073031 -2.12974494 69.61479451 -3.71484375 72.1328125 C-4.46151919 74.90286404 -4.46151919 74.90286404 -4.83984375 77.8203125 C-5.62904032 83.04700907 -5.62904032 83.04700907 -6.71484375 84.1328125 C-6.97687718 86.27275221 -7.17503216 88.42069844 -7.33984375 90.5703125 C-7.43523437 91.74464844 -7.530625 92.91898438 -7.62890625 94.12890625 C-7.94949074 97.05735896 -7.94949074 97.05735896 -6.71484375 99.1328125 C-1.37638801 99.25649357 3.96123249 99.34718859 9.30078125 99.4074707 C11.11668424 99.4326015 12.93248621 99.46671211 14.74804688 99.51000977 C17.35962848 99.57072761 19.96987219 99.59903531 22.58203125 99.62109375 C23.79786896 99.65980339 23.79786896 99.65980339 25.03826904 99.69929504 C29.05980726 99.70129213 30.85360932 99.54087698 33.82910156 96.72729492 C35.44829217 94.33798348 35.44829217 94.33798348 35.28515625 92.1328125 C35.94515625 92.1328125 36.60515625 92.1328125 37.28515625 92.1328125 C38.90559123 86.05618131 39.04586 79.18348492 37.28515625 73.1328125 C36.62515625 73.1328125 35.96515625 73.1328125 35.28515625 73.1328125 C34.79015625 71.1528125 34.79015625 71.1528125 34.28515625 69.1328125 C33.62515625 69.1328125 32.96515625 69.1328125 32.28515625 69.1328125 C32.05828125 68.5140625 31.83140625 67.8953125 31.59765625 67.2578125 C29.8073859 64.35927955 28.55870123 64.09688007 25.28515625 63.1328125 C22.25924561 62.87522626 19.25738623 62.89877508 16.22265625 62.9453125 C15.01899414 62.9462793 15.01899414 62.9462793 13.79101562 62.94726562 C10.09980632 62.97483482 6.85689353 63.12827705 3.28515625 64.1328125 Z " fill="#012450" transform="translate(313.71484375,-0.1328125)"/>
<path d="M0 0 C24.935625 -0.020625 49.87125 -0.04125 75.5625 -0.0625 C87.37011108 -0.07615601 87.37011108 -0.07615601 99.41625977 -0.09008789 C109.03308105 -0.09460449 109.03308105 -0.09460449 113.53599548 -0.09544373 C116.67902839 -0.09637487 119.82204438 -0.10012045 122.96507263 -0.10557556 C126.97738456 -0.11244692 130.98967198 -0.11448885 135.00198925 -0.11307228 C136.47251551 -0.11336839 137.94304265 -0.11534402 139.41356385 -0.11921513 C141.40493985 -0.12421277 143.39632944 -0.12238772 145.38771057 -0.12025452 C146.50215829 -0.12117631 147.61660601 -0.1220981 148.76482487 -0.12304783 C154.51830445 0.09578211 159.58882735 1.08354302 165 3 C167.32666846 3.69234871 169.66228882 4.34544087 172 5 C172 5.66 172 6.32 172 7 C173.98 7.33 175.96 7.66 178 8 C178 8.66 178 9.32 178 10 C178.556875 10.103125 179.11375 10.20625 179.6875 10.3125 C182.4769101 11.14178408 184.6139064 12.34299056 187 14 C187 14.66 187 15.32 187 16 C187.99 16.33 188.98 16.66 190 17 C190 17.66 190 18.32 190 19 C190.59296875 19.25910156 191.1859375 19.51820312 191.796875 19.78515625 C194.15858141 21.08744471 195.50886446 22.39298478 197.25 24.4375 C198.03117187 25.33275391 198.03117187 25.33275391 198.828125 26.24609375 C200 28 200 28 200 31 C200.66 31 201.32 31 202 31 C202.33 32.98 202.66 34.96 203 37 C203.66 37 204.32 37 205 37 C205.33 38.98 205.66 40.96 206 43 C206.66 43 207.32 43 208 43 C208.33 46.3 208.66 49.6 209 53 C209.66 53 210.32 53 211 53 C212.0712828 59.02596573 212.09945415 64.88909517 212 71 C212.66 71 213.32 71 214 71 C214 81.56 214 92.12 214 103 C213.34 103 212.68 103 212 103 C212.01160156 103.72445312 212.02320313 104.44890625 212.03515625 105.1953125 C212.08231311 110.24783323 212.07377564 115.03378767 211 120 C210.34 120 209.68 120 209 120 C208.94392578 120.96099609 208.94392578 120.96099609 208.88671875 121.94140625 C208.45662723 127.60006141 207.53913094 131.92173813 205 137 C204.34 137 203.68 137 203 137 C202.67 138.98 202.34 140.96 202 143 C201.34 143 200.68 143 200 143 C199.67 144.32 199.34 145.64 199 147 C198.34 147 197.68 147 197 147 C196.79375 147.53625 196.5875 148.0725 196.375 148.625 C194.47418297 151.90822941 192.02358811 154.69191747 189 157 C188.01 157 187.02 157 186 157 C186 157.66 186 158.32 186 159 C180.70588235 163 180.70588235 163 177 163 C177 163.66 177 164.32 177 165 C175.10751181 165.67610423 173.2108398 166.34050439 171.3125 167 C170.25675781 167.37125 169.20101562 167.7425 168.11328125 168.125 C165.21637944 168.9391857 162.98299377 169.17709796 160 169 C160 169.66 160 170.32 160 171 C154.29309366 171.99250545 148.78591511 172.10477512 143 172 C143 172.66 143 173.32 143 174 C138.03377651 174.02465098 133.06758834 174.04283649 128.10131836 174.05493164 C126.41055684 174.0599719 124.71979971 174.06680405 123.02905273 174.07543945 C120.60399293 174.08751857 118.17899056 174.09323123 115.75390625 174.09765625 C114.61327477 174.10539818 114.61327477 174.10539818 113.44960022 174.11329651 C111.6326743 174.11349238 109.81586873 174.06197277 108 174 C107.67 173.67 107.34 173.34 107 173 C103.32504516 172.54915503 99.6509628 172.18141063 95.96484375 171.83789062 C95.17980469 171.75861328 94.39476563 171.67933594 93.5859375 171.59765625 C92.8748584 171.53070557 92.1637793 171.46375488 91.43115234 171.39477539 C88.22960471 170.87490167 85.11868569 169.89105305 82 169 C82 188.14 82 207.28 82 227 C81.34 227 80.68 227 80 227 C80 229.97 80 232.94 80 236 C53.6 236 27.2 236 0 236 C0 158.12 0 80.24 0 0 Z M82 63 C82 78.18 82 93.36 82 109 C97.17398784 109.91192153 97.17398784 109.91192153 112.3125 109.9375 C113.28638672 109.93556641 114.26027344 109.93363281 115.26367188 109.93164062 C120.30855324 109.86399317 120.30855324 109.86399317 124.70458984 107.70751953 C126.25782221 105.95218403 126.25782221 105.95218403 128 103 C128.66 102.01 129.32 101.02 130 100 C132.40899915 88.43680409 131.89789613 76.3144602 126 66 C125.34 66 124.68 66 124 66 C124 65.34 124 64.68 124 64 C120.05257303 62.68419101 116.28912951 62.87688961 112.17578125 62.90234375 C111.41213257 62.90335083 110.64848389 62.90435791 109.86169434 62.90539551 C107.01194759 62.91062336 104.16222227 62.92458464 101.3125 62.9375 C91.7528125 62.9684375 91.7528125 62.9684375 82 63 Z " fill="#012450" transform="translate(0,0)"/>
<path d="M0 0 C1.70635117 -0.00143509 1.70635117 -0.00143509 3.44717407 -0.00289917 C5.84238745 -0.00357662 8.2376027 -0.00175279 10.6328125 0.00244141 C14.27087595 0.00778578 17.9088154 0.00248666 21.546875 -0.00390625 C23.88541694 -0.0032452 26.2239588 -0.00196348 28.5625 0 C29.63680267 -0.00202423 30.71110535 -0.00404846 31.81796265 -0.00613403 C38.56822155 0.01449969 45.20313434 0.40427815 51.9140625 1.1328125 C51.9140625 1.7928125 51.9140625 2.4528125 51.9140625 3.1328125 C53.739375 3.0709375 53.739375 3.0709375 55.6015625 3.0078125 C64.18203286 3.0078125 72.75508549 4.51578214 80.9140625 7.1328125 C82.64231007 7.65668754 84.3715448 8.17731301 86.1015625 8.6953125 C86.92011719 8.94410156 87.73867188 9.19289063 88.58203125 9.44921875 C90.68280826 10.06502441 92.78630671 10.61921627 94.9140625 11.1328125 C94.9140625 11.7928125 94.9140625 12.4528125 94.9140625 13.1328125 C95.5740625 13.1328125 96.2340625 13.1328125 96.9140625 13.1328125 C96.96464979 20.07451272 96.99974829 27.01616565 97.02392578 33.95800781 C97.03400174 36.32098161 97.04766279 38.68394289 97.06494141 41.046875 C97.08911974 44.43753138 97.10052949 47.82802334 97.109375 51.21875 C97.11969757 52.28024261 97.13002014 53.34173523 97.14065552 54.43539429 C97.14080658 55.41626007 97.14095764 56.39712585 97.14111328 57.40771484 C97.1455545 58.27375336 97.14999573 59.13979187 97.15457153 60.03207397 C96.9140625 62.1328125 96.9140625 62.1328125 94.9140625 64.1328125 C92.82728577 64.36659241 92.82728577 64.36659241 90.21508789 64.34399414 C89.23548599 64.34061539 88.25588409 64.33723663 87.24659729 64.33375549 C86.17908737 64.32029587 85.11157745 64.30683624 84.01171875 64.29296875 C82.90541611 64.28776718 81.79911346 64.28256561 80.6592865 64.27720642 C77.09824734 64.2593474 73.5374915 64.22827293 69.9765625 64.1953125 C51.04335681 64.00086857 51.04335681 64.00086857 32.12109375 64.5390625 C31.37247574 64.5748793 30.62385773 64.61069611 29.85255432 64.64759827 C21.99096386 65.10894174 15.14591665 67.18129605 7.9140625 70.1328125 C7.9140625 70.7928125 7.9140625 71.4528125 7.9140625 72.1328125 C6.25617465 73.47704589 4.58829933 74.80899733 2.9140625 76.1328125 C0.3042405 79.02225829 -0.55142592 81.28432911 -1.0859375 85.1328125 C-1.7459375 85.1328125 -2.4059375 85.1328125 -3.0859375 85.1328125 C-3.5809375 91.0728125 -3.5809375 91.0728125 -4.0859375 97.1328125 C-4.7459375 97.1328125 -5.4059375 97.1328125 -6.0859375 97.1328125 C-5.96864379 103.95057367 -5.84380795 110.76816623 -5.71362305 117.58569336 C-5.67020011 119.90695023 -5.62853066 122.22824058 -5.58862305 124.54956055 C-5.5310981 127.87819528 -5.46735325 131.20666035 -5.40234375 134.53515625 C-5.38563126 135.57993637 -5.36891876 136.62471649 -5.35169983 137.70115662 C-5.33175461 138.66207718 -5.31180939 139.62299774 -5.29125977 140.61303711 C-5.26794334 141.88877846 -5.26794334 141.88877846 -5.24415588 143.19029236 C-5.29648921 145.13805048 -5.29648921 145.13805048 -4.0859375 146.1328125 C-3.85229869 147.98173196 -3.67290115 149.83769281 -3.5234375 151.6953125 C-3.39775391 153.21318359 -3.39775391 153.21318359 -3.26953125 154.76171875 C-3.20894531 155.54417969 -3.14835938 156.32664063 -3.0859375 157.1328125 C-2.4259375 157.1328125 -1.7659375 157.1328125 -1.0859375 157.1328125 C-1.0034375 158.0815625 -0.9209375 159.0303125 -0.8359375 160.0078125 C-0.4468941 163.17480397 -0.4468941 163.17480397 1.6640625 164.3203125 C2.4065625 164.5884375 3.1490625 164.8565625 3.9140625 165.1328125 C6.6640625 166.6328125 6.6640625 166.6328125 8.9140625 168.1328125 C8.9140625 168.7928125 8.9140625 169.4528125 8.9140625 170.1328125 C10.0484375 170.2771875 11.1828125 170.4215625 12.3515625 170.5703125 C15.9140625 171.1328125 15.9140625 171.1328125 16.9140625 172.1328125 C27.00849366 173.32658051 37.22368018 173.33176411 47.375 173.44921875 C48.90199251 173.4698576 50.42898021 173.49085549 51.95596313 173.51219177 C55.92431674 173.56669859 59.89271556 173.61641447 63.86114502 173.66503906 C68.64973761 173.7247475 73.43824979 173.790572 78.22677612 173.85533905 C85.45582139 173.95244662 92.68492447 174.04191644 99.9140625 174.1328125 C99.9140625 190.6328125 99.9140625 207.1328125 99.9140625 224.1328125 C99.2540625 224.1328125 98.5940625 224.1328125 97.9140625 224.1328125 C97.9140625 224.7928125 97.9140625 225.4528125 97.9140625 226.1328125 C96.77066406 226.48214844 95.62726563 226.83148438 94.44921875 227.19140625 C92.95828262 227.65087713 91.46739995 228.11052151 89.9765625 228.5703125 C89.22181641 228.80041016 88.46707031 229.03050781 87.68945312 229.26757812 C84.01197798 230.16282986 84.01197798 230.16282986 80.9140625 232.1328125 C77.55879036 232.71006362 74.19227878 233.16366936 70.8203125 233.6328125 C68.02930967 233.82523955 68.02930967 233.82523955 66.9140625 235.1328125 C64.45311959 235.54296965 62.01376598 235.89298585 59.5390625 236.1953125 C58.82041016 236.28474121 58.10175781 236.37416992 57.36132812 236.46630859 C51.53029533 237.14902318 45.78450359 237.35668525 39.9140625 237.1328125 C39.9140625 237.7928125 39.9140625 238.4528125 39.9140625 239.1328125 C22.02908917 240.76136292 3.79073046 240.92367727 -14.0859375 239.1328125 C-14.0859375 238.4728125 -14.0859375 237.8128125 -14.0859375 237.1328125 C-15.3646875 237.1740625 -16.6434375 237.2153125 -17.9609375 237.2578125 C-23.17466606 237.27439033 -28.02601422 236.31592608 -33.0859375 235.1328125 C-33.0859375 234.4728125 -33.0859375 233.8128125 -33.0859375 233.1328125 C-33.9934375 233.0915625 -34.9009375 233.0503125 -35.8359375 233.0078125 C-41.74295292 232.21615064 -46.90854309 228.91279275 -52.0859375 226.1328125 C-52.0859375 225.4728125 -52.0859375 224.8128125 -52.0859375 224.1328125 C-52.8284375 224.0503125 -53.5709375 223.9678125 -54.3359375 223.8828125 C-57.63958287 222.98181831 -58.81252467 221.63356662 -61.0859375 219.1328125 C-62.0759375 218.4728125 -63.0659375 217.8128125 -64.0859375 217.1328125 C-64.0859375 216.4728125 -64.0859375 215.8128125 -64.0859375 215.1328125 C-65.0759375 214.8028125 -66.0659375 214.4728125 -67.0859375 214.1328125 C-67.0859375 213.4728125 -67.0859375 212.8128125 -67.0859375 212.1328125 C-68.0759375 211.8028125 -69.0659375 211.4728125 -70.0859375 211.1328125 C-70.0859375 210.1428125 -70.0859375 209.1528125 -70.0859375 208.1328125 C-70.7459375 208.1328125 -71.4059375 208.1328125 -72.0859375 208.1328125 C-80.78473821 196.99834759 -86.59112133 183.83598328 -88.76171875 169.85546875 C-88.9229519 168.10775847 -88.9229519 168.10775847 -90.0859375 167.1328125 C-91.77948582 157.32875544 -92.38863373 147.45192346 -92.74414062 137.5222168 C-92.50164497 133.50308965 -92.50164497 133.50308965 -94.0859375 130.1328125 C-94.18474547 128.65628586 -94.21672995 127.17514014 -94.21875 125.6953125 C-94.22003906 124.80070312 -94.22132813 123.90609375 -94.22265625 122.984375 C-94.21685547 121.57285156 -94.21685547 121.57285156 -94.2109375 120.1328125 C-94.21480469 119.19179687 -94.21867187 118.25078125 -94.22265625 117.28125 C-94.22136719 116.38664062 -94.22007812 115.49203125 -94.21875 114.5703125 C-94.21705811 113.33087891 -94.21705811 113.33087891 -94.21533203 112.06640625 C-94.0859375 110.1328125 -94.0859375 110.1328125 -93.0859375 109.1328125 C-92.89521257 106.12965168 -92.7567627 103.13918122 -92.6484375 100.1328125 C-92.35441142 93.33353592 -91.93275639 86.58173474 -91.1484375 79.8203125 C-91.07375244 79.14677734 -90.99906738 78.47324219 -90.92211914 77.77929688 C-89.92091749 69.60572026 -87.07292706 61.9622652 -84.4609375 54.1953125 C-84.13609375 53.22529297 -83.81125 52.25527344 -83.4765625 51.25585938 C-82.68105878 48.88104679 -81.8841508 46.50671544 -81.0859375 44.1328125 C-80.4259375 44.1328125 -79.7659375 44.1328125 -79.0859375 44.1328125 C-78.5909375 41.1628125 -78.5909375 41.1628125 -78.0859375 38.1328125 C-77.4259375 38.1328125 -76.7659375 38.1328125 -76.0859375 38.1328125 C-75.7559375 36.8128125 -75.4259375 35.4928125 -75.0859375 34.1328125 C-74.4259375 34.1328125 -73.7659375 34.1328125 -73.0859375 34.1328125 C-72.7971875 33.5553125 -72.5084375 32.9778125 -72.2109375 32.3828125 C-71.8396875 31.6403125 -71.4684375 30.8978125 -71.0859375 30.1328125 C-70.8178125 29.4934375 -70.5496875 28.8540625 -70.2734375 28.1953125 C-64.02412616 17.34124544 -49.53014448 9.15075442 -38.0859375 5.1328125 C-33.86027052 4.11128937 -29.58726977 3.39852752 -25.296875 2.7109375 C-22.23846253 2.4755435 -22.23846253 2.4755435 -21.0859375 1.1328125 C-14.04249398 0.10750682 -7.10823937 -0.01334326 0 0 Z " fill="#012450" transform="translate(535.0859375,-0.1328125)"/>
<path d="M0 0 C1.95650561 0.00138269 1.95650561 0.00138269 3.95253658 0.00279331 C5.03800137 0.00151167 5.03800137 0.00151167 6.14539474 0.00020415 C8.58837104 -0.00145279 11.03127979 0.00407418 13.47424984 0.00952244 C15.21821752 0.00980429 16.96218531 0.00964662 18.70615292 0.00907993 C23.45595252 0.00879188 28.2057271 0.01468986 32.95552087 0.02165389 C37.91366179 0.02788614 42.87180323 0.02849112 47.82994747 0.0296793 C57.22577585 0.032793 66.62159266 0.0410069 76.01741594 0.05102879 C86.71130907 0.06218873 97.40520274 0.06770008 108.09910023 0.07272422 C130.10363248 0.08318948 152.1081543 0.10078967 174.11267757 0.12304783 C177.85246067 7.32046105 177.26331563 15.53050097 177.24549007 23.48632908 C177.2464468 24.44073383 177.24740353 25.39513859 177.24838924 26.3784647 C177.24906523 28.3793453 177.24725185 30.38022817 177.24304867 32.38110447 C177.23766232 35.44422378 177.24302861 38.50719846 177.24939632 41.57031345 C177.24873602 43.52148565 177.24745584 45.47265776 177.24549007 47.42382908 C177.24751431 48.33739674 177.24953854 49.25096439 177.25162411 50.19221592 C177.24689587 51.46955853 177.24689587 51.46955853 177.24207211 52.77270603 C177.24127651 53.51833302 177.24048092 54.26396 177.23966122 55.03218174 C177.10947631 57.17575874 176.65797854 59.05148101 176.11267757 61.12304783 C152.79124887 61.14637423 129.46982208 61.16402573 106.14838409 61.17486 C95.32064137 61.18002351 84.49290589 61.18706725 73.66516781 61.19848728 C64.23133351 61.20843245 54.79750444 61.21490086 45.36366504 61.21713632 C40.36526271 61.21844372 35.36687537 61.22153136 30.36847782 61.22877789 C25.66952748 61.23553547 20.97059838 61.23766533 16.27164364 61.23615551 C14.54178852 61.23643196 12.81193273 61.23843863 11.08208179 61.2422533 C8.73084934 61.24718647 6.37969843 61.24604753 4.02846432 61.24330235 C2.70937856 61.24422414 1.3902928 61.24514593 0.03123474 61.24609566 C-2.88732243 61.12304783 -2.88732243 61.12304783 -3.88732243 60.12304783 C-4.20969454 57.54407089 -4.39999547 54.96372962 -4.60607243 52.37304783 C-4.64932908 50.15639431 -4.64932908 50.15639431 -5.88732243 49.12304783 C-5.9759745 46.23870963 -6.00253538 43.37842625 -5.98497868 40.49414158 C-5.98356373 39.62991077 -5.98214878 38.76567997 -5.98069096 37.87526035 C-5.97507481 35.10365491 -5.96251962 32.33212903 -5.94982243 29.56054783 C-5.9448095 27.68620003 -5.94024624 25.81185098 -5.93615055 23.93750095 C-5.92510014 19.33265239 -5.90782472 14.72786362 -5.88732243 10.12304783 C-5.22732243 10.12304783 -4.56732243 10.12304783 -3.88732243 10.12304783 C-3.89892399 9.48496189 -3.91052555 8.84687595 -3.92247868 8.18945408 C-3.93150211 7.36316502 -3.94052555 6.53687595 -3.94982243 5.68554783 C-3.96142399 4.86183689 -3.97302555 4.03812595 -3.98497868 3.18945408 C-3.83029831 -0.08358247 -3.32162435 0.14155629 0 0 Z " fill="#8DCEEA" transform="translate(243.88732242584229,258.8769521713257)"/>
<path d="M0 0 C4.62 0 9.24 0 14 0 C14 0.66 14 1.32 14 2 C14.66 2 15.32 2 16 2 C16.33 4.64 16.66 7.28 17 10 C17.66 10 18.32 10 19 10 C19.495 14.455 19.495 14.455 20 19 C20.66 19 21.32 19 22 19 C22.495 23.455 22.495 23.455 23 28 C23.66 28 24.32 28 25 28 C26.32 32.29 27.64 36.58 29 41 C29.33 27.47 29.66 13.94 30 0 C34.29 0 38.58 0 43 0 C45 3 45 3 45 6 C45.66 6 46.32 6 47 6 C47.495 7.485 47.495 7.485 48 9 C48.99 9.495 48.99 9.495 50 10 C50.625 13.0625 50.625 13.0625 51 16 C51.66 16 52.32 16 53 16 C53.495 16.99 53.495 16.99 54 18 C54.33 12.06 54.66 6.12 55 0 C59.29 0 63.58 0 68 0 C68 15.84 68 31.68 68 48 C63.71 48 59.42 48 55 48 C55 47.01 55 46.02 55 45 C54.34 45 53.68 45 53 45 C51.5393715 42.35261084 51 41.10551666 51 38 C50.34 38 49.68 38 49 38 C48.505 35.03 48.505 35.03 48 32 C47.34 32 46.68 32 46 32 C45.67 30.35 45.34 28.7 45 27 C44.34 27 43.68 27 43 27 C43 33.93 43 40.86 43 48 C34.09 48 25.18 48 16 48 C13 42 13 42 13 39 C8.05 39.495 8.05 39.495 3 40 C2.01 42.64 1.02 45.28 0 48 C-4.62 48 -9.24 48 -14 48 C-14.33 46.68 -14.66 45.36 -15 44 C-14.34 44 -13.68 44 -13 44 C-12.67 41.03 -12.34 38.06 -12 35 C-11.34 35 -10.68 35 -10 35 C-9.505 30.545 -9.505 30.545 -9 26 C-8.34 26 -7.68 26 -7 26 C-6.67 23.36 -6.34 20.72 -6 18 C-5.34 18 -4.68 18 -4 18 C-3.67 15.03 -3.34 12.06 -3 9 C-2.34 9 -1.68 9 -1 9 C-0.67 6.03 -0.34 3.06 0 0 Z M7 24 C7 25.32 7 26.64 7 28 C7.66 28 8.32 28 9 28 C8.67 26.68 8.34 25.36 8 24 C7.67 24 7.34 24 7 24 Z " fill="#042551" transform="translate(1032,265)"/>
<path d="M0 0 C4.29 0 8.58 0 13 0 C19.29464286 12.05357143 19.29464286 12.05357143 20 18 C20.66 18 21.32 18 22 18 C22 18.99 22 19.98 22 21 C22.66 21 23.32 21 24 21 C24 20.01 24 19.02 24 18 C24.66 18 25.32 18 26 18 C26.226875 16.700625 26.45375 15.40125 26.6875 14.0625 C27.84761991 8.72764203 30.19160052 4.65603072 33 0 C37.29 0 41.58 0 46 0 C46 15.84 46 31.68 46 48 C41.71 48 37.42 48 33 48 C32.67 43.71 32.34 39.42 32 35 C31.01 36.98 30.02 38.96 29 41 C25.04 41 21.08 41 17 41 C16.01 39.02 15.02 37.04 14 35 C13.67 39.29 13.34 43.58 13 48 C8.71 48 4.42 48 0 48 C0 32.16 0 16.32 0 0 Z " fill="#022450" transform="translate(937,265)"/>
<path d="M0 0 C6.4659375 -0.12375 6.4659375 -0.12375 13.0625 -0.25 C15.08129272 -0.30462402 15.08129272 -0.30462402 17.14086914 -0.36035156 C23.94517358 -0.42335909 28.56986326 -0.29359649 34 4 C34.9375 6.25 34.9375 6.25 35 8 C35.66 8 36.32 8 37 8 C37 12.95 37 17.9 37 23 C36.34 23 35.68 23 35 23 C34.67 24.32 34.34 25.64 34 27 C33.34 27 32.68 27 32 27 C32 28.98 32 30.96 32 33 C32.66 33 33.32 33 34 33 C34.495 35.97 34.495 35.97 35 39 C35.66 39 36.32 39 37 39 C37.495 43.455 37.495 43.455 38 48 C33.38 48 28.76 48 24 48 C23.67 46.02 23.34 44.04 23 42 C22.34 42 21.68 42 21 42 C20.67 40.02 20.34 38.04 20 36 C19.34 36 18.68 36 18 36 C17.67 35.01 17.34 34.02 17 33 C16.34 32.67 15.68 32.34 15 32 C15 37.28 15 42.56 15 48 C10.05 48 5.1 48 0 48 C0 32.16 0 16.32 0 0 Z M15 12 C15 14.64 15 17.28 15 20 C17.64 19.67 20.28 19.34 23 19 C24.00217064 15.41672247 24.00217064 15.41672247 23 12 C20.36 12 17.72 12 15 12 Z " fill="#022450" transform="translate(734,265)"/>
<path d="M0 0 C12.16053979 1.64448581 12.16053979 1.64448581 17 6 C22.08532573 13.89102269 22.17175225 25.13860539 20.62109375 34.21875 C19.68844328 37.56747926 18.3567212 40.80201431 17 44 C16.34 44 15.68 44 15 44 C14.67 44.99 14.34 45.98 14 47 C9.52844945 49.86072292 6.06310547 50.36255317 0.8125 50.25 C-0.39792969 50.23453125 -1.60835937 50.2190625 -2.85546875 50.203125 C-6 50 -6 50 -9 49 C-9 48.34 -9 47.68 -9 47 C-9.5775 46.979375 -10.155 46.95875 -10.75 46.9375 C-13.70279315 45.70716952 -14.74500608 43.85722353 -16.18359375 41.0703125 C-19.68802996 32.18346471 -18.73087542 20.16265006 -17 11 C-16.34 11 -15.68 11 -15 11 C-14.979375 10.2575 -14.95875 9.515 -14.9375 8.75 C-13.78087104 5.35722173 -12.12435005 4.33157487 -8.98828125 2.71484375 C-5.95937674 1.62586629 -3.1714062 1.7411097 0 2 C0 1.34 0 0.68 0 0 Z M0 13 C-0.66 14.32 -1.32 15.64 -2 17 C-2.66 17 -3.32 17 -4 17 C-4.89316269 22.93609666 -4.97040422 28.06975197 -4 34 C-3.34 34 -2.68 34 -2 34 C-1.67 34.99 -1.34 35.98 -1 37 C1.3431213 36.74438677 3.67843403 36.40729228 6 36 C7.62841701 32.74316597 7.26795577 29.20041665 7.3125 25.625 C7.34150391 24.85671875 7.37050781 24.0884375 7.40039062 23.296875 C7.44304348 19.50405178 7.43946 17.6090597 5.16796875 14.4609375 C3.02107154 12.72058444 3.02107154 12.72058444 0 13 Z " fill="#042551" transform="translate(914,263)"/>
<path d="M0 0 C0.6819191 -0.00095673 1.3638382 -0.00191345 2.06642151 -0.00289917 C3.51148572 -0.00358089 4.95655297 -0.00172719 6.40161133 0.00244141 C8.61611818 0.00778166 10.83042144 0.00250045 13.04492188 -0.00390625 C14.44661503 -0.00324531 15.84830806 -0.00196381 17.25 0 C18.53189209 0.00112793 19.81378418 0.00225586 21.13452148 0.00341797 C24.19140625 0.1328125 24.19140625 0.1328125 26.19140625 1.1328125 C26.19140625 4.7628125 26.19140625 8.3928125 26.19140625 12.1328125 C19.26140625 12.1328125 12.33140625 12.1328125 5.19140625 12.1328125 C5.19140625 14.1128125 5.19140625 16.0928125 5.19140625 18.1328125 C10.47140625 18.1328125 15.75140625 18.1328125 21.19140625 18.1328125 C21.19140625 22.0928125 21.19140625 26.0528125 21.19140625 30.1328125 C15.91140625 30.1328125 10.63140625 30.1328125 5.19140625 30.1328125 C5.19140625 32.4428125 5.19140625 34.7528125 5.19140625 37.1328125 C12.12140625 37.1328125 19.05140625 37.1328125 26.19140625 37.1328125 C26.19140625 40.7628125 26.19140625 44.3928125 26.19140625 48.1328125 C14.97140625 48.1328125 3.75140625 48.1328125 -7.80859375 48.1328125 C-7.83149779 41.45755846 -7.85142639 34.7824397 -7.86352539 28.10717773 C-7.868567 25.83438659 -7.87540012 23.5615987 -7.8840332 21.28881836 C-7.89610636 18.02977699 -7.90182362 14.77077833 -7.90625 11.51171875 C-7.91141129 10.48881241 -7.91657257 9.46590607 -7.92189026 8.41200256 C-7.92196579 7.47110275 -7.92204132 6.53020294 -7.92211914 5.56079102 C-7.92433975 4.72806168 -7.92656036 3.89533234 -7.92884827 3.03736877 C-7.64967496 -1.38409743 -3.55555696 0.00313127 0 0 Z " fill="#022451" transform="translate(781.80859375,264.8671875)"/>
<path d="M0 0 C3.93268867 -0.02473868 7.86534713 -0.04287835 11.7980957 -0.05493164 C13.79314768 -0.06242729 15.78817786 -0.07513345 17.78320312 -0.08789062 C19.03681641 -0.09111328 20.29042969 -0.09433594 21.58203125 -0.09765625 C22.73936768 -0.10289307 23.8967041 -0.10812988 25.08911133 -0.11352539 C28 0 28 0 31 1 C31 1.66 31 2.32 31 3 C32.32 3.66 33.64 4.32 35 5 C35 5.66 35 6.32 35 7 C35.66 7 36.32 7 37 7 C38.72435186 14.11295142 38.45972352 19.59310459 35 26 C34.01 26.33 33.02 26.66 32 27 C31.67 27.99 31.34 28.98 31 30 C29.35 30 27.7 30 26 30 C26 30.66 26 31.32 26 32 C22.04 32 18.08 32 14 32 C14 37.28 14 42.56 14 48 C3.94140625 48.09765625 3.94140625 48.09765625 1 48 C0 47 0 47 -0.12025452 45.09544373 C-0.11803391 44.26271439 -0.11581329 43.42998505 -0.11352539 42.57202148 C-0.11344986 41.63112167 -0.11337433 40.69022186 -0.11329651 39.72080994 C-0.10813522 38.69790359 -0.10297394 37.67499725 -0.09765625 36.62109375 C-0.0962413 35.57929459 -0.09482635 34.53749542 -0.09336853 33.46412659 C-0.0877508 30.12188906 -0.0751953 26.77971743 -0.0625 23.4375 C-0.05748728 21.17773534 -0.05292398 18.91796963 -0.04882812 16.65820312 C-0.03777561 11.10544609 -0.02102024 5.55272775 0 0 Z M14 11 C14 13.97 14 16.94 14 20 C19.1693489 19.59443869 19.1693489 19.59443869 24 18 C23.67 16.02 23.34 14.04 23 12 C20.03 11.67 17.06 11.34 14 11 Z " fill="#022450" transform="translate(986,265)"/>
<path d="M0 0 C10.56 0 21.12 0 32 0 C32 3.96 32 7.92 32 12 C25.73 12 19.46 12 13 12 C13 13.98 13 15.96 13 18 C18.28 18 23.56 18 29 18 C29 21.96 29 25.92 29 30 C23.72 30 18.44 30 13 30 C13 32.31 13 34.62 13 37 C19.27 37 25.54 37 32 37 C32 40.63 32 44.26 32 48 C21.44 48 10.88 48 0 48 C0 32.16 0 16.32 0 0 Z " fill="#022450" transform="translate(699,265)"/>
<path d="M0 0 C23 0 23 0 32 3 C32.495 4.485 32.495 4.485 33 6 C33.66 6 34.32 6 35 6 C36.18813473 9.56440418 36.24187953 12.55474782 36.3125 16.3125 C36.36857422 18.25576172 36.36857422 18.25576172 36.42578125 20.23828125 C35.93117025 24.60810134 34.81696948 26.66009048 32 30 C27.17726449 33.58559901 19.67525213 32.68470822 14 33 C14 37.95 14 42.9 14 48 C9.38 48 4.76 48 0 48 C0 32.16 0 16.32 0 0 Z M14 12 C14 14.64 14 17.28 14 20 C19.32170494 20.29562367 19.32170494 20.29562367 24 18 C23.67 16.68 23.34 15.36 23 14 C22.34 14 21.68 14 21 14 C21 13.34 21 12.68 21 12 C18.69 12 16.38 12 14 12 Z " fill="#032450" transform="translate(659,265)"/>
<path d="M0 0 C10.89 0 21.78 0 33 0 C33 12 33 12 32 14 C31.34 14 30.68 14 30 14 C29.67 15.32 29.34 16.64 29 18 C28.34 18 27.68 18 27 18 C26.67 19.65 26.34 21.3 26 23 C25.01 23.33 24.02 23.66 23 24 C22.87625 24.804375 22.7525 25.60875 22.625 26.4375 C22.41875 27.283125 22.2125 28.12875 22 29 C21.34 29.33 20.68 29.66 20 30 C19.67 30.99 19.34 31.98 19 33 C18.34 33 17.68 33 17 33 C16.67 33.99 16.34 34.98 16 36 C21.61 36.33 27.22 36.66 33 37 C33 40.63 33 44.26 33 48 C22.11 48 11.22 48 0 48 C0 32.2122449 0 32.2122449 3.375 27.625 C4.00148438 26.73039062 4.62796875 25.83578125 5.2734375 24.9140625 C5.84320312 24.28242188 6.41296875 23.65078125 7 23 C7.66 23 8.32 23 9 23 C9.33 21.68 9.66 20.36 10 19 C10.66 19 11.32 19 12 19 C12.33 17.68 12.66 16.36 13 15 C13.66 15 14.32 15 15 15 C15 14.01 15 13.02 15 12 C10.05 12 5.1 12 0 12 C0 8.04 0 4.08 0 0 Z " fill="#032451" transform="translate(810,265)"/>
<path d="M0 0 C0.67675781 -0.00386719 1.35351562 -0.00773437 2.05078125 -0.01171875 C5.14073767 -0.00562416 7.54679311 0.1405977 10.5 1.125 C10.5 1.785 10.5 2.445 10.5 3.125 C11.49 3.455 12.48 3.785 13.5 4.125 C13.5 4.785 13.5 5.445 13.5 6.125 C14.16 6.125 14.82 6.125 15.5 6.125 C15.995 10.085 15.995 10.085 16.5 14.125 C14.52 14.455 12.54 14.785 10.5 15.125 C10.5 15.785 10.5 16.445 10.5 17.125 C5.98279689 17.49125971 5.98279689 17.49125971 3.6875 15.75 C2.5 14.125 2.5 14.125 2.5 12.125 C0.85 12.125 -0.8 12.125 -2.5 12.125 C-2.83 13.775 -3.16 15.425 -3.5 17.125 C-4.16 17.125 -4.82 17.125 -5.5 17.125 C-5.5 21.745 -5.5 26.365 -5.5 31.125 C-4.84 31.125 -4.18 31.125 -3.5 31.125 C-2.48133771 32.78032623 -1.48189187 34.44760138 -0.5 36.125 C0.16 36.455 0.82 36.785 1.5 37.125 C1.83 36.135 2.16 35.145 2.5 34.125 C3.16 34.125 3.82 34.125 4.5 34.125 C4.83 33.135 5.16 32.145 5.5 31.125 C8.14 31.455 10.78 31.785 13.5 32.125 C13.5 32.785 13.5 33.445 13.5 34.125 C14.49 34.125 15.48 34.125 16.5 34.125 C16.625 39.875 16.625 39.875 15.5 42.125 C14.84 42.125 14.18 42.125 13.5 42.125 C13.17 43.115 12.84 44.105 12.5 45.125 C11.84 45.125 11.18 45.125 10.5 45.125 C10.5 45.785 10.5 46.445 10.5 47.125 C6.7776599 48.36578003 3.31203967 48.27055459 -0.5625 48.25 C-1.29533203 48.25386719 -2.02816406 48.25773437 -2.78320312 48.26171875 C-8.24663018 48.25168491 -8.24663018 48.25168491 -10.5 47.125 C-10.5 46.465 -10.5 45.805 -10.5 45.125 C-11.49 45.125 -12.48 45.125 -13.5 45.125 C-14.8515625 43.5859375 -14.8515625 43.5859375 -16.125 41.5 C-16.76308594 40.49066406 -16.76308594 40.49066406 -17.4140625 39.4609375 C-21.15612938 31.41145551 -20.45667486 19.66321757 -18.5 11.125 C-17.0625 8.1875 -17.0625 8.1875 -15.5 6.125 C-14.84 6.125 -14.18 6.125 -13.5 6.125 C-13.17 5.135 -12.84 4.145 -12.5 3.125 C-11.84 3.125 -11.18 3.125 -10.5 3.125 C-10.5 2.465 -10.5 1.805 -10.5 1.125 C-6.94086771 -0.06137743 -3.701855 -0.02115346 0 0 Z " fill="#032450" transform="translate(878.5,264.875)"/>
<path d="M0 0 C1.08571289 0.00773437 1.08571289 0.00773437 2.19335938 0.015625 C7.50176774 0.09463387 7.50176774 0.09463387 9.8125 1.25 C9.8125 1.91 9.8125 2.57 9.8125 3.25 C10.740625 3.4046875 10.740625 3.4046875 11.6875 3.5625 C13.8125 4.25 13.8125 4.25 15.8125 7.25 C15.89155064 9.58199388 15.90048769 11.91832622 15.8125 14.25 C13.8325 14.58 11.8525 14.91 9.8125 15.25 C9.8125 15.91 9.8125 16.57 9.8125 17.25 C8.1625 17.25 6.5125 17.25 4.8125 17.25 C4.8125 16.26 4.8125 15.27 4.8125 14.25 C4.1525 14.25 3.4925 14.25 2.8125 14.25 C2.8125 13.59 2.8125 12.93 2.8125 12.25 C0.8325 12.25 -1.1475 12.25 -3.1875 12.25 C-3.1875 13.24 -3.1875 14.23 -3.1875 15.25 C-3.8475 15.25 -4.5075 15.25 -5.1875 15.25 C-5.1875 21.19 -5.1875 27.13 -5.1875 33.25 C-4.5275 33.25 -3.8675 33.25 -3.1875 33.25 C-3.1875 33.91 -3.1875 34.57 -3.1875 35.25 C-1.8675 35.58 -0.5475 35.91 0.8125 36.25 C1.286875 35.404375 1.76125 34.55875 2.25 33.6875 C4.8125 31.25 4.8125 31.25 7.01171875 31.0703125 C13.25626118 31.69376118 13.25626118 31.69376118 15.8125 34.25 C16.01396402 37.943507 15.98603189 40.72940432 14.8125 44.25 C9.93732105 48.44492142 6.24345911 48.80005881 0.125 48.5625 C-0.63361328 48.55283203 -1.39222656 48.54316406 -2.17382812 48.53320312 C-5.40945411 48.46751963 -8.10195803 48.27851399 -11.1875 47.25 C-11.1875 46.59 -11.1875 45.93 -11.1875 45.25 C-12.1775 44.92 -13.1675 44.59 -14.1875 44.25 C-14.1875 43.59 -14.1875 42.93 -14.1875 42.25 C-14.8475 42.25 -15.5075 42.25 -16.1875 42.25 C-18.80105319 36.21393667 -19.65763848 31.36119848 -19.5625 24.8125 C-19.57410156 24.01779297 -19.58570313 23.22308594 -19.59765625 22.40429688 C-19.56908204 16.55134601 -18.32729102 11.68233962 -16.1875 6.25 C-15.5275 6.25 -14.8675 6.25 -14.1875 6.25 C-13.8575 5.26 -13.5275 4.27 -13.1875 3.25 C-9.05654439 -0.11771238 -5.11146102 -0.14802421 0 0 Z " fill="#042550" transform="translate(1122.1875,264.75)"/>
<path d="M0 0 C1.31000977 -0.00193359 1.31000977 -0.00193359 2.64648438 -0.00390625 C3.56107422 -0.00003906 4.47566406 0.00382812 5.41796875 0.0078125 C6.32095703 0.00394531 7.22394531 0.00007813 8.15429688 -0.00390625 C12.4255874 0.00237044 16.44488757 0.03379106 20.60546875 1.1328125 C20.60546875 1.7928125 20.60546875 2.4528125 20.60546875 3.1328125 C21.26546875 3.1328125 21.92546875 3.1328125 22.60546875 3.1328125 C25.11498874 5.56314861 25.58935961 6.96846088 25.93359375 10.48046875 C25.89492188 12.31931641 25.89492188 12.31931641 25.85546875 14.1953125 C25.84 15.42378906 25.82453125 16.65226562 25.80859375 17.91796875 C25.60546875 21.1328125 25.60546875 21.1328125 24.60546875 24.1328125 C23.94546875 24.1328125 23.28546875 24.1328125 22.60546875 24.1328125 C22.60546875 24.7928125 22.60546875 25.4528125 22.60546875 26.1328125 C21.61546875 26.7928125 20.62546875 27.4528125 19.60546875 28.1328125 C20.10046875 29.0609375 20.59546875 29.9890625 21.10546875 30.9453125 C22.60546875 34.1328125 22.60546875 34.1328125 22.60546875 37.1328125 C23.26546875 37.1328125 23.92546875 37.1328125 24.60546875 37.1328125 C24.93546875 39.1128125 25.26546875 41.0928125 25.60546875 43.1328125 C26.26546875 43.1328125 26.92546875 43.1328125 27.60546875 43.1328125 C27.60546875 44.7828125 27.60546875 46.4328125 27.60546875 48.1328125 C24.96546875 48.1328125 22.32546875 48.1328125 19.60546875 48.1328125 C19.60546875 47.1428125 19.60546875 46.1528125 19.60546875 45.1328125 C18.94546875 45.1328125 18.28546875 45.1328125 17.60546875 45.1328125 C17.27546875 43.1528125 16.94546875 41.1728125 16.60546875 39.1328125 C15.94546875 39.1328125 15.28546875 39.1328125 14.60546875 39.1328125 C14.27546875 37.1528125 13.94546875 35.1728125 13.60546875 33.1328125 C12.94546875 33.1328125 12.28546875 33.1328125 11.60546875 33.1328125 C11.27546875 32.1428125 10.94546875 31.1528125 10.60546875 30.1328125 C7.96546875 29.8028125 5.32546875 29.4728125 2.60546875 29.1328125 C2.60546875 35.4028125 2.60546875 41.6728125 2.60546875 48.1328125 C-0.36453125 48.1328125 -3.33453125 48.1328125 -6.39453125 48.1328125 C-6.39453125 32.6228125 -6.39453125 17.1128125 -6.39453125 1.1328125 C-4.04300829 -0.04294898 -2.61936366 0.00371353 0 0 Z M2.60546875 8.1328125 C2.60546875 12.0928125 2.60546875 16.0528125 2.60546875 20.1328125 C10.22643156 20.47724257 10.22643156 20.47724257 17.60546875 19.1328125 C17.60546875 18.1428125 17.60546875 17.1528125 17.60546875 16.1328125 C18.26546875 16.1328125 18.92546875 16.1328125 19.60546875 16.1328125 C19.26072649 13.58171976 18.93993809 11.62522569 17.48046875 9.4765625 C14.66768641 7.46073516 12.32422336 7.84413662 8.91796875 7.9453125 C7.73847656 7.97238281 6.55898438 7.99945313 5.34375 8.02734375 C3.98830078 8.07955078 3.98830078 8.07955078 2.60546875 8.1328125 Z " fill="#042452" transform="translate(494.39453125,264.8671875)"/>
<path d="M0 0 C0 0.66 0 1.32 0 2 C0.639375 2.20625 1.27875 2.4125 1.9375 2.625 C4 4 4 4 4.75 7.125 C4.8325 8.07375 4.915 9.0225 5 10 C1.25 13 1.25 13 -1 13 C-1 12.34 -1 11.68 -1 11 C-1.66 11 -2.32 11 -3 11 C-3 10.34 -3 9.68 -3 9 C-4.43657245 8.66269158 -5.87430093 8.33030409 -7.3125 8 C-8.11300781 7.814375 -8.91351563 7.62875 -9.73828125 7.4375 C-12.10695938 6.90504177 -12.10695938 6.90504177 -15 7 C-15 7.66 -15 8.32 -15 9 C-15.99 9.495 -15.99 9.495 -17 10 C-19.57340277 13.6426335 -19.29714319 17.59282697 -19.25 21.875 C-19.25773437 22.56980469 -19.26546875 23.26460938 -19.2734375 23.98046875 C-19.2539568 29.15259344 -18.70416776 33.55889483 -15.69921875 37.86328125 C-13.33293238 39.44624524 -11.62919255 39.29724127 -8.8125 39.1875 C-7.91144531 39.16042969 -7.01039063 39.13335937 -6.08203125 39.10546875 C-5.39496094 39.07066406 -4.70789063 39.03585937 -4 39 C-2.2175082 35.66688525 -1.51207144 32.75519057 -1 29 C-2.06541016 28.90912109 -2.06541016 28.90912109 -3.15234375 28.81640625 C-4.07144531 28.73261719 -4.99054688 28.64882813 -5.9375 28.5625 C-7.31228516 28.44068359 -7.31228516 28.44068359 -8.71484375 28.31640625 C-11 28 -11 28 -12 27 C-12.125 24.5 -12.125 24.5 -12 22 C-11 21 -11 21 -9.23413086 20.88647461 C-8.48526611 20.89171143 -7.73640137 20.89694824 -6.96484375 20.90234375 C-6.15595703 20.90556641 -5.34707031 20.90878906 -4.51367188 20.91210938 C-3.66353516 20.92048828 -2.81339844 20.92886719 -1.9375 20.9375 C-1.08349609 20.94201172 -0.22949219 20.94652344 0.65039062 20.95117188 C2.76695663 20.96299627 4.88348685 20.98093231 7 21 C7 26.28 7 31.56 7 37 C6.34 37 5.68 37 5 37 C4.95875 37.9075 4.9175 38.815 4.875 39.75 C4 43 4 43 1.44140625 45.1640625 C-2.46331191 47.24716981 -5.60708612 47.69177074 -9.9375 47.625 C-10.64390625 47.62024658 -11.3503125 47.61549316 -12.078125 47.6105957 C-17.31871035 47.40337868 -20.40957436 46.34725098 -24.03125 42.60546875 C-25 41 -25 41 -25 38 C-25.66 38 -26.32 38 -27 38 C-27.95990763 33.13902775 -28.18313936 28.49438488 -28.1875 23.5625 C-28.19974609 22.83740234 -28.21199219 22.11230469 -28.22460938 21.36523438 C-28.23751856 16.575925 -27.50626819 12.59325888 -26 8 C-25.79375 7.113125 -25.5875 6.22625 -25.375 5.3125 C-20.52803371 -2.83921604 -8.02746677 -2.67582226 0 0 Z " fill="#052651" transform="translate(475,266)"/>
<path d="M0 0 C1.04027344 -0.00257813 2.08054687 -0.00515625 3.15234375 -0.0078125 C5.63915971 0.10567977 7.69342407 0.40571429 10.0625 1.125 C10.0625 1.785 10.0625 2.445 10.0625 3.125 C11.0525 3.455 12.0425 3.785 13.0625 4.125 C15.10358797 7.13291911 15.26128036 9.54695344 15.0625 13.125 C15.7225 13.125 16.3825 13.125 17.0625 13.125 C17.0625 20.715 17.0625 28.305 17.0625 36.125 C16.4025 36.125 15.7425 36.125 15.0625 36.125 C15.2171875 37.2078125 15.2171875 37.2078125 15.375 38.3125 C14.93519375 42.27075627 12.98242938 43.55268126 10.0625 46.125 C9.4025 46.785 8.7425 47.445 8.0625 48.125 C5.57236479 48.37843388 3.24104842 48.49525062 0.75 48.5 C-0.56613281 48.52835937 -1.88226562 48.55671875 -3.23828125 48.5859375 C-7.40506571 48.06673944 -9.05651222 47.1230105 -11.9375 44.125 C-11.9375 43.465 -11.9375 42.805 -11.9375 42.125 C-12.5975 42.125 -13.2575 42.125 -13.9375 42.125 C-14.2675 40.145 -14.5975 38.165 -14.9375 36.125 C-15.5975 36.125 -16.2575 36.125 -16.9375 36.125 C-17.02526185 32.43765225 -17.07814603 28.75057653 -17.125 25.0625 C-17.16270508 23.50499023 -17.16270508 23.50499023 -17.20117188 21.91601562 C-17.25910147 15.83340838 -16.84437164 11.50385697 -13.9375 6.125 C-13.2775 6.125 -12.6175 6.125 -11.9375 6.125 C-11.9375 5.135 -11.9375 4.145 -11.9375 3.125 C-10.9475 3.125 -9.9575 3.125 -8.9375 3.125 C-8.9375 2.465 -8.9375 1.805 -8.9375 1.125 C-5.73049911 0.0559997 -3.36757931 -0.00832529 0 0 Z M-6.18359375 9.453125 C-9.00137257 13.74568783 -8.39563595 18.11512346 -8.25 23.125 C-8.24033203 24.12273437 -8.23066406 25.12046875 -8.22070312 26.1484375 C-8.15668813 30.30106267 -8.09309413 34.1144428 -6.9375 38.125 C-6.2775 38.125 -5.6175 38.125 -4.9375 38.125 C-4.9375 38.785 -4.9375 39.445 -4.9375 40.125 C-3.0503125 40.4034375 -3.0503125 40.4034375 -1.125 40.6875 C-0.41730469 40.79191406 0.29039062 40.89632812 1.01953125 41.00390625 C3.2650342 41.26404799 3.2650342 41.26404799 6.0625 40.125 C6.3925 38.145 6.7225 36.165 7.0625 34.125 C7.7225 34.125 8.3825 34.125 9.0625 34.125 C9.14953823 30.68765937 9.20290272 27.25060163 9.25 23.8125 C9.27513672 22.83603516 9.30027344 21.85957031 9.32617188 20.85351562 C9.33583984 19.91572266 9.34550781 18.97792969 9.35546875 18.01171875 C9.3711792 17.14764404 9.38688965 16.28356934 9.40307617 15.39331055 C8.99090806 12.64818226 8.26623046 11.76348247 6.0625 10.125 C5.4025 10.125 4.7425 10.125 4.0625 10.125 C4.0625 9.465 4.0625 8.805 4.0625 8.125 C-1.31892749 7.58565008 -1.31892749 7.58565008 -6.18359375 9.453125 Z " fill="#042551" transform="translate(621.9375,264.875)"/>
<path d="M0 0 C0.88623047 -0.020625 1.77246094 -0.04125 2.68554688 -0.0625 C8.35724027 -0.09608516 12.26905921 0.62823871 17.3125 3.25 C17.3125 3.91 17.3125 4.57 17.3125 5.25 C17.9725 5.25 18.6325 5.25 19.3125 5.25 C20.87779043 8.38058086 20.57941314 11.69079008 20.625 15.125 C20.65400391 15.84558594 20.68300781 16.56617188 20.71289062 17.30859375 C20.75437548 20.77417511 20.63717932 22.81279385 18.54296875 25.6328125 C13.80659182 29.06689314 10.38237176 29.51691746 4.5625 29.375 C2.17 29.33375 -0.2225 29.2925 -2.6875 29.25 C-2.6875 35.52 -2.6875 41.79 -2.6875 48.25 C-5.6575 48.25 -8.6275 48.25 -11.6875 48.25 C-11.6875 32.74 -11.6875 17.23 -11.6875 1.25 C-8.10172938 -0.54288531 -3.94870471 0.02248373 0 0 Z M-2.6875 8.25 C-2.6875 12.87 -2.6875 17.49 -2.6875 22.25 C4.50827498 22.64428904 8.38170931 22.37576744 14.3125 18.25 C14.3125 16.27 14.3125 14.29 14.3125 12.25 C13.6525 12.25 12.9925 12.25 12.3125 12.25 C12.3125 11.59 12.3125 10.93 12.3125 10.25 C11.3225 10.25 10.3325 10.25 9.3125 10.25 C9.3125 9.59 9.3125 8.93 9.3125 8.25 C5.3525 8.25 1.3925 8.25 -2.6875 8.25 Z " fill="#042353" transform="translate(579.6875,264.75)"/>
<path d="M0 0 C3 0.125 3 0.125 4 1.125 C4.13533757 3.50111658 4.21052112 5.85228472 4.24609375 8.23046875 C4.27905666 9.70378144 4.31226786 11.17708858 4.34570312 12.65039062 C4.39295035 14.97627609 4.4373242 17.30214317 4.47680664 19.62817383 C4.51677335 21.87085658 4.56828307 24.11305667 4.62109375 26.35546875 C4.6295079 27.0431987 4.63792206 27.73092865 4.64659119 28.4394989 C4.75398625 32.67931302 5.46613851 36.17470255 7 40.125 C8.41655793 40.1522415 9.83327045 40.17150467 11.25 40.1875 C12.03890625 40.19910156 12.8278125 40.21070313 13.640625 40.22265625 C15.90691002 40.12885306 17.8288895 39.75741063 20 39.125 C20.33 37.145 20.66 35.165 21 33.125 C21.66 33.125 22.32 33.125 23 33.125 C23 22.235 23 11.345 23 0.125 C24.98 0.125 26.96 0.125 29 0.125 C29.02470254 5.76667969 29.04286121 11.40832795 29.05493164 17.05004883 C29.05996315 18.96965076 29.06678898 20.88924886 29.07543945 22.80883789 C29.08755669 25.56657864 29.09324011 28.32426876 29.09765625 31.08203125 C29.10281754 31.94149857 29.10797882 32.80096588 29.11329651 33.68647766 C29.11337204 34.48708115 29.11344757 35.28768463 29.11352539 36.11254883 C29.115746 36.8164827 29.11796661 37.52041656 29.12025452 38.24568176 C29 40.125 29 40.125 28 43.125 C27.34 43.125 26.68 43.125 26 43.125 C25.67 44.115 25.34 45.105 25 46.125 C21.14422068 48.69551954 17.96094577 48.38324956 13.5 48.3125 C12.72785156 48.31185547 11.95570313 48.31121094 11.16015625 48.31054688 C7.86330661 48.28483488 5.14658001 48.17386 2 47.125 C2 46.465 2 45.805 2 45.125 C1.01 44.795 0.02 44.465 -1 44.125 C-3.64690437 38.50827513 -4.43340001 33.87158421 -4.328125 27.72265625 C-4.32625183 26.95948593 -4.32437866 26.19631561 -4.32244873 25.41001892 C-4.31578016 23.81423503 -4.3019708 22.21846602 -4.28125 20.62280273 C-4.24977039 18.16960625 -4.24024024 15.71705141 -4.234375 13.26367188 C-4.22521655 11.70832542 -4.2148445 10.15298552 -4.203125 8.59765625 C-4.19887512 7.8623317 -4.19462524 7.12700714 -4.19024658 6.36940002 C-4.10199878 0.17091662 -4.10199878 0.17091662 0 0 Z " fill="#042550" transform="translate(531,264.875)"/>
<path d="M0 0 C0.66 0.33 1.32 0.66 2 1 C1.0479279 2.00596297 0.08812654 3.00461563 -0.875 4 C-1.40867187 4.556875 -1.94234375 5.11375 -2.4921875 5.6875 C-4 7 -4 7 -6 7 C-5.8125 5.1875 -5.8125 5.1875 -5 3 C-2.5625 1.1875 -2.5625 1.1875 0 0 Z " fill="#1C305E" transform="translate(905,266)"/>
</svg>
