<?xml version="1.0" encoding="UTF-8"?>
<svg version="1.1" xmlns="http://www.w3.org/2000/svg" width="345" height="146">
<path d="M0 0 C113.85 0 227.7 0 345 0 C345 48.18 345 96.36 345 146 C231.15 146 117.3 146 0 146 C0 97.82 0 49.64 0 0 Z " fill="#FDFDFE" transform="translate(0,0)"/>
<path d="M0 0 C6.33860039 4.64517097 10.46246877 11.29810745 12 19 C13.04427977 29.17426863 10.59704696 35.48452799 5.125 43.875 C-0.7308821 49.7308821 -8.03009633 52.29379444 -16.1875 52.4375 C-17.41855469 52.47746094 -18.64960938 52.51742187 -19.91796875 52.55859375 C-24 52 -24 52 -34 47 C-34.33 55.91 -34.66 64.82 -35 74 C-41 73 -41 73 -43.33740234 70.61767578 C-45.59899286 65.69664079 -45.6112982 61.47531826 -45.6015625 56.1171875 C-45.61013275 55.06653107 -45.618703 54.01587463 -45.62753296 52.93338013 C-45.63899644 50.71277743 -45.64003702 48.49209966 -45.63134766 46.27148438 C-45.62505834 42.90621467 -45.67185332 39.54451873 -45.72265625 36.1796875 C-45.79705161 23.61563797 -45.74597643 13.59057701 -37.02270508 3.77514648 C-26.99467938 -6.26621968 -12.09590617 -6.37715737 0 0 Z " fill="#055A8F" transform="translate(47,20)"/>
<path d="M0 0 C4.78358704 3.81923117 7.82347692 8.53293076 9.75 14.3125 C10.50480309 23.81223601 10.79908761 32.39316309 4.75 40.3125 C-0.51576658 46.10704649 -6.15038906 49.81101854 -14.08203125 50.78125 C-23.66935498 50.85651849 -30.90708821 50.07642705 -38.3046875 43.48046875 C-45.3963646 36.02096607 -46.91072223 28.97120815 -46.66015625 18.78515625 C-45.64589912 10.19777921 -40.91815686 3.620412 -34.25 -1.6875 C-23.39555263 -8.20016842 -10.28809665 -7.07065819 0 0 Z " fill="#055A8E" transform="translate(111.25,21.6875)"/>
<path d="M0 0 C4.25409749 3.3795026 6.48454966 7.51351858 8.75 12.375 C9.245 13.365 9.245 13.365 9.75 14.375 C10.41509335 24.83742999 10.31887104 33.11688594 3.6875 41.5625 C-2.0379165 47.58487794 -7.77296353 50.50327655 -16.15478516 50.96484375 C-24.95092929 51.11243694 -31.60407254 49.43797839 -38.3046875 43.578125 C-44.30191531 37.35693433 -46.3380815 30.96549515 -46.6875 22.4375 C-46.49550303 15.26961324 -44.23185939 9.72891589 -40.625 3.625 C-29.02011931 -7.3690975 -13.31741847 -8.97803493 0 0 Z " fill="#04598E" transform="translate(293.25,21.625)"/>
<path d="M0 0 C3.82721771 2.70978188 6.90303648 5.21697726 8.765625 9.640625 C8.765625 10.960625 8.765625 12.280625 8.765625 13.640625 C1.2343157 14.56282614 1.2343157 14.56282614 -2.25 12.375 C-3.41006476 11.33598547 -4.53986893 10.26167565 -5.62890625 9.1484375 C-9.11361246 5.87569638 -12.31367275 5.24840254 -17.078125 5.390625 C-22.18351889 5.98255473 -26.02397821 7.51879383 -29.796875 11.015625 C-31.5309143 14.18213156 -31.08996802 15.25224999 -30.234375 18.640625 C-29.23583496 18.6499707 -28.23729492 18.65931641 -27.20849609 18.66894531 C-23.48441858 18.70898245 -19.76115533 18.77477766 -16.03759766 18.84814453 C-14.42963159 18.87627505 -12.82152928 18.89752889 -11.21337891 18.91162109 C-8.89415133 18.93316191 -6.57654805 18.97986372 -4.2578125 19.03125 C-3.54507172 19.03247864 -2.83233093 19.03370728 -2.09799194 19.03497314 C2.94789387 19.18123937 5.87256136 20.46827915 9.765625 23.640625 C11.5236764 27.1567278 11.29980592 30.80311842 10.765625 34.640625 C7.88438594 41.78558105 2.28476792 46.86195084 -4.47265625 50.27734375 C-11.38686753 53.10729967 -20.12429966 52.79059427 -27.25 50.796875 C-33.08818693 48.14640977 -37.90589985 44.16654005 -41.234375 38.640625 C-41.671875 35.140625 -41.671875 35.140625 -41.234375 32.640625 C-34.6417586 32.01275677 -31.48386875 34.80964172 -26.546875 38.828125 C-21.95802297 42.42479281 -16.82647633 42.25187389 -11.234375 41.640625 C-6.72112949 40.13372319 -3.89549439 38.63230408 -1.234375 34.640625 C-1.06723931 32.01530976 -1.06723931 32.01530976 -1.234375 29.640625 C-2.13679932 29.62604248 -3.03922363 29.61145996 -3.96899414 29.59643555 C-7.34457507 29.53506923 -10.71938196 29.46086171 -14.09448242 29.37817383 C-15.55010494 29.34509517 -17.00585047 29.31701103 -18.46166992 29.29418945 C-20.56481936 29.26032579 -22.66685875 29.2080014 -24.76953125 29.15234375 C-26.031604 29.12615967 -27.29367676 29.09997559 -28.59399414 29.07299805 C-33.3462645 28.50856435 -37.24994257 27.15375473 -41.109375 24.2109375 C-43.40886143 21.00123769 -43.52006009 17.48825608 -43.234375 13.640625 C-40.97655255 6.73100755 -36.47740838 2.15655716 -30.234375 -1.359375 C-20.29147591 -6.09750742 -9.44002855 -5.74323416 0 0 Z " fill="#04598E" transform="translate(169.234375,20.359375)"/>
<path d="M0 0 C4.56988208 3.54338589 8.15321613 8.1958092 9.99609375 13.71484375 C9.62109375 16.4921875 9.62109375 16.4921875 8.99609375 18.71484375 C4.83446832 18.47004225 2.58453558 18.21922246 -0.62890625 15.46484375 C-1.41265625 14.55734375 -2.19640625 13.64984375 -3.00390625 12.71484375 C-8.02579006 7.40837088 -8.02579006 7.40837088 -14.80859375 5.37890625 C-21.0426489 5.29959257 -25.20708711 5.27778604 -30.00390625 9.71484375 C-34.57273102 14.77759553 -35.30552001 18.58175838 -35.21875 25.21484375 C-34.80651444 30.01176661 -32.71867841 32.86484442 -29.69140625 36.46484375 C-25.2576204 40.17685051 -21.67486609 40.9299313 -16.00390625 40.58984375 C-8.66187832 39.62263049 -4.75607521 35.79619564 -0.30078125 30.203125 C0.99609375 28.71484375 0.99609375 28.71484375 2.99609375 27.71484375 C4.99569387 27.67485175 6.99656617 27.67137576 8.99609375 27.71484375 C10.21887549 31.38318896 9.70509507 32.07715413 8.05859375 35.46484375 C3.93422303 43.29086575 -1.71080548 47.73627457 -10.00390625 50.71484375 C-19.40895968 51.865309 -28.2024501 51.58082413 -36.00390625 45.71484375 C-42.13010652 40.46762004 -45.37919177 33.46734457 -46.421875 25.53515625 C-46.80349026 16.76831917 -44.85791162 10.45616663 -39.32421875 3.6484375 C-28.673349 -7.68882164 -12.78707239 -8.20067605 0 0 Z " fill="#05598E" transform="translate(231.00390625,21.28515625)"/>
<path d="M0 0 C5.19937564 3.68166712 8.89036142 7.92685163 9.984375 14.29296875 C10.36893372 20.73186221 8.72006071 25.0127972 4.57421875 29.90625 C2.01171875 32.28125 2.01171875 32.28125 -0.42578125 33.90625 C-1.02390625 34.31875 -1.62203125 34.73125 -2.23828125 35.15625 C-7.30702502 36.89410501 -11.82726072 36.45260147 -16.61328125 34.28125 C-21.54358976 31.53035095 -24.41338763 28.17208333 -26.73828125 22.96875 C-28.13369546 16.75281395 -27.72827826 12.31385128 -24.703125 6.76953125 C-19.24820258 -1.18764917 -8.8909798 -4.00881537 0 0 Z " fill="#FAFCFC" transform="translate(39.42578125,27.09375)"/>
<path d="M0 0 C5.2354914 2.47495957 9.39229231 6.78458462 12 12 C12.74600404 18.9271804 12.70993703 24.63709713 8.49609375 30.37890625 C4.11545349 35.125553 -0.06501076 36.7177895 -6.25 37.3125 C-11.92309872 36.83974177 -15.82995656 35.22072386 -19.83984375 31.1171875 C-23.69370262 26.05729751 -24.78824168 21.83603313 -24.3828125 15.5078125 C-23.32666925 8.5889965 -19.39182783 4.98865336 -14 1 C-9.81411228 -1.09294386 -4.5584359 -0.42417949 0 0 Z " fill="#FBFCFD" transform="translate(281,26)"/>
<path d="M0 0 C4.87162596 2.44659091 7.97779186 6.3655504 9.828125 11.38671875 C10.80424423 17.2910497 10.73264176 22.6145727 7.703125 27.88671875 C4.57120817 32.16641191 0.85584712 34.71081138 -4.171875 36.38671875 C-10.45190924 36.91892504 -15.01421545 36.17781893 -20.171875 32.38671875 C-25.03259997 27.09285987 -26.59247807 22.16180519 -26.51953125 15.0234375 C-25.77930558 9.40936639 -22.56943654 5.65427456 -18.484375 1.94921875 C-13.06687829 -1.711252 -6.2651605 -1.76911906 0 0 Z " fill="#FBFCFD" transform="translate(101.171875,26.61328125)"/>
<path d="M0 0 C2.76142665 1.01736771 3.68085371 1.36170741 5 4 C5.68585132 10.85851319 5.68585132 10.85851319 3.8828125 13.859375 C2.66339507 15.30614145 1.33792975 16.66207025 0 18 C1.32 19.32 2.64 20.64 4 22 C4.66 21.01 5.32 20.02 6 19 C7.32 19 8.64 19 10 19 C9.86980469 19.58007812 9.73960937 20.16015625 9.60546875 20.7578125 C8.67161704 25.4534728 8.67161704 25.4534728 10.046875 29.86328125 C11.30959728 31.29271125 12.65134554 32.65134554 14 34 C14 34.66 14 35.32 14 36 C8.58461538 36.36923077 8.58461538 36.36923077 5.625 34.5 C5.08875 34.005 4.5525 33.51 4 33 C3.17822266 33.72703125 3.17822266 33.72703125 2.33984375 34.46875 C-1.78535158 37.16837699 -6.25294488 36.7232939 -11 36 C-14.1875 34.0625 -14.1875 34.0625 -16 31 C-16.67962306 27.84175165 -16.72962115 25.15219139 -16 22 C-13.625 18.9375 -13.625 18.9375 -11 17 C-10.34 17 -9.68 17 -9 17 C-9.495 16.13375 -9.99 15.2675 -10.5 14.375 C-12.10482145 10.76415174 -12.66091749 8.88289028 -12 5 C-8.49736873 0.11754429 -5.89693881 -0.75051949 0 0 Z " fill="#0A5B8F" transform="translate(251,94)"/>
<path d="M0 0 C8.25 0 16.5 0 25 0 C25 1.65 25 3.3 25 5 C18.73 5 12.46 5 6 5 C6 7.97 6 10.94 6 14 C11.61 14 17.22 14 23 14 C23 15.65 23 17.3 23 19 C17.06 19 11.12 19 5 19 C5 22.63 5 26.26 5 30 C11.6 30 18.2 30 25 30 C25 31.65 25 33.3 25 35 C16.75 35 8.5 35 0 35 C0 23.45 0 11.9 0 0 Z " fill="#06588E" transform="translate(204,95)"/>
<path d="M0 0 C3.16275082 2.15040589 5.73410373 4.24258535 6.8671875 8.01953125 C6.8671875 9.00953125 6.8671875 9.99953125 6.8671875 11.01953125 C4.0546875 11.33203125 4.0546875 11.33203125 0.8671875 11.01953125 C-0.8828125 8.58203125 -0.8828125 8.58203125 -2.1328125 6.01953125 C-5.34975614 4.41105943 -8.65418472 4.40643976 -12.1328125 5.01953125 C-14.82386448 7.19527541 -16.58814178 8.93018981 -18.1328125 12.01953125 C-18.68789405 17.95463396 -18.65938139 22.98157569 -15.1328125 28.01953125 C-11.98710197 30.40593234 -8.99194408 30.42152412 -5.1328125 30.01953125 C-1.47289177 28.08790642 -0.38855591 25.89140676 0.8671875 22.01953125 C2.8471875 22.01953125 4.8271875 22.01953125 6.8671875 22.01953125 C6.41374345 26.89405479 5.39630977 29.58328062 1.8671875 33.01953125 C-3.67420388 36.27917324 -8.04423446 36.51014358 -14.1328125 35.01953125 C-19.05125551 32.83355658 -21.79832778 29.42160374 -24.3828125 24.76953125 C-26.22499834 18.01484983 -25.56389031 12.1718087 -22.1328125 6.01953125 C-16.59064246 -0.54356485 -8.29608184 -3.81376656 0 0 Z " fill="#0A5B8F" transform="translate(292.1328125,94.98046875)"/>
<path d="M0 0 C3.79235994 1.48985569 5.80565887 3.58658047 8 7 C7.875 9.25 7.875 9.25 7 11 C4.17116253 12.41441874 2.12623255 12.31900332 -1 12 C-2.9375 10.375 -2.9375 10.375 -4 8 C-3.875 4.875 -3.875 4.875 -3 2 C-2.01 1.34 -1.02 0.68 0 0 Z " fill="#F7F9FA" transform="translate(244,114)"/>
<path d="M0 0 C1.67542976 0.28604898 3.34385343 0.61781233 5 1 C5.33 2.65 5.66 4.3 6 6 C4.35 7.32 2.7 8.64 1 10 C-0.5625 8.3125 -0.5625 8.3125 -2 6 C-1.58974359 1.58974359 -1.58974359 1.58974359 0 0 Z " fill="#EEF2F6" transform="translate(246,98)"/>
</svg>
