<?xml version="1.0" encoding="UTF-8"?>
<svg version="1.1" xmlns="http://www.w3.org/2000/svg" width="225" height="225">
<path d="M0 0 C74.25 0 148.5 0 225 0 C225 74.25 225 148.5 225 225 C150.75 225 76.5 225 0 225 C0 150.75 0 76.5 0 0 Z " fill="#FEFEFE" transform="translate(0,0)"/>
<path d="M0 0 C3.9757735 2.18277761 6.37295378 4.37217427 9 8 C9.99 8.33 10.98 8.66 12 9 C12.226875 8.2575 12.45375 7.515 12.6875 6.75 C14.3173129 3.33515393 15.7566375 1.9460175 19 0 C22.80769866 -0.47596233 25.17329346 -0.36528894 28.6875 1.1875 C32.63804039 4.2838695 34.79925862 6.39406893 35.4375 11.5 C34.82086829 16.43305369 32.81401528 19.82165393 29 23 C25.34711807 24.21762731 22.84245864 24.39075851 19 24 C15.53023476 22.1376093 13.31909235 20.02565399 12.125 16.1875 C12.08375 15.465625 12.0425 14.74375 12 14 C11.01 14.495 11.01 14.495 10 15 C9.67 15.99 9.34 16.98 9 18 C5.03481595 22.16344325 1.96004485 23.8586253 -3.8203125 24.19921875 C-7.41588878 23.87059081 -9.37017342 22.37936691 -12 20 C-14.1633006 17.25981924 -14.92352448 15.51347849 -15.4375 12.0625 C-14.7357326 7.15012822 -12.47711298 4.16614182 -8.625 1.125 C-5.39835874 -0.25784626 -3.48313618 -0.49759088 0 0 Z " fill="#EFF8F9" transform="translate(134,86)"/>
<path d="M0 0 C2.24597228 2.77351461 3.67325549 5.69980636 5 9 C5.33 6.03 5.66 3.06 6 0 C6.66 0 7.32 0 8 0 C8 4.62 8 9.24 8 14 C6.68 13.67 5.36 13.34 4 13 C2.75 10.4375 2.75 10.4375 2 8 C1.34 8 0.68 8 0 8 C0 10.31 0 12.62 0 15 C-6.33333333 15 -12.66666667 15 -19 15 C-20.11375 15.061875 -21.2275 15.12375 -22.375 15.1875 C-26.25062846 14.98703646 -27.95466372 14.32878657 -31 12 C-32.42041821 9.15916359 -32.31452272 7.14522722 -32 4 C-30.4375 1.625 -30.4375 1.625 -28 0 C-23.73910491 -0.45652447 -20.64957865 -0.33573034 -17 2 C-17 1.34 -17 0.68 -17 0 C-4.79635258 -1.99696049 -4.79635258 -1.99696049 0 0 Z " fill="#BED9E2" transform="translate(128,124)"/>
<path d="M0 0 C3.05357079 1.61320721 5.23833566 3.03060902 7.375 5.75 C8.67051871 10.41386736 8.69344047 14.43975894 6.75 18.8125 C2.78884278 23.76394652 2.78884278 23.76394652 -0.89453125 24.25 C-5.1679534 24.37685483 -6.99196852 24.00401574 -11 22 C-11 25.63 -11 29.26 -11 33 C-12.32 32.34 -13.64 31.68 -15 31 C-15.08736736 27.27098186 -15.14051482 23.54222835 -15.1875 19.8125 C-15.21263672 18.75740234 -15.23777344 17.70230469 -15.26367188 16.61523438 C-15.27333984 15.59365234 -15.28300781 14.57207031 -15.29296875 13.51953125 C-15.31653442 12.11344604 -15.31653442 12.11344604 -15.34057617 10.67895508 C-14.80334635 6.45313224 -13.03199854 3.83133216 -9.75 1.1875 C-6.1888795 -0.35025658 -3.85081154 -0.47290668 0 0 Z " fill="#065E8C" transform="translate(58,86)"/>
<path d="M0 0 C4.34426379 2.25567543 7.05791513 4.46846864 9 9 C9.59047513 12.96461874 9.19372634 14.6471413 7.25 18.1875 C3.92177561 22.34778049 2.56785624 23.76867695 -2.8125 24.5625 C-7.2293549 24.42188851 -9.52373578 22.45825373 -12.65234375 19.5078125 C-15.20699781 16.64956187 -15.44655204 13.96600649 -15.42578125 10.171875 C-14.65151767 6.2224204 -11.92865376 3.61757913 -9 1 C-5.89046621 -0.5547669 -3.43733239 -0.28644437 0 0 Z " fill="#176894" transform="translate(84,86)"/>
<path d="M0 0 C4.08998175 1.80720124 6.66247347 4.19069751 9 8 C9.62819266 13.0255413 9.03320735 15.95572354 6 20 C3.22346505 23.23929078 0.96043786 23.89127119 -3.3125 24.375 C-8.04467594 23.89376177 -9.74863737 22.4025888 -13 19 C-14.89811091 15.86399067 -15.00678943 14.19010398 -14.875 10.5 C-12.87767567 2.51070268 -8.03170173 -0.69238808 0 0 Z " fill="#0D6391" transform="translate(160,86)"/>
<path d="M0 0 C5.59366755 2.95514512 5.59366755 2.95514512 6.875 6.25 C6.91625 6.8275 6.9575 7.405 7 8 C4.03824877 7.38722388 2.61941217 6.74627478 0 5 C-4.07490752 4.66042437 -5.53001271 4.68667514 -9 7 C-9.33 7.99 -9.66 8.98 -10 10 C-8.86820312 9.97679688 -7.73640625 9.95359375 -6.5703125 9.9296875 C-5.08854825 9.91093099 -3.60677688 9.89273066 -2.125 9.875 C-1.37863281 9.85824219 -0.63226563 9.84148437 0.13671875 9.82421875 C2.09194461 9.8066041 4.04742021 9.89679811 6 10 C6.66 10.66 7.32 11.32 8 12 C7.92009815 16.31470011 7.70111497 18.31686234 4.5625 21.375 C0.38847866 24.02194036 -1.97742189 24.57636142 -7 24 C-9.66729626 22.32001689 -11.95335926 20.40122591 -14 18 C-14 17.34 -14 16.68 -14 16 C-10.62537285 16.54723683 -8.91765 17.0549 -6 19 C-1.92509248 19.33957563 -0.46998729 19.31332486 3 17 C3.33 16.01 3.66 15.02 4 14 C2.95199219 14.02320312 1.90398437 14.04640625 0.82421875 14.0703125 C-0.55468037 14.08907303 -1.9335872 14.10727293 -3.3125 14.125 C-4.34793945 14.15013672 -4.34793945 14.15013672 -5.40429688 14.17578125 C-9.17135396 14.21217794 -10.78431704 14.14378864 -14 12 C-14.5 9.1875 -14.5 9.1875 -14 6 C-9.86538311 0.97141189 -6.48415474 -0.63570144 0 0 Z " fill="#035E90" transform="translate(109,86)"/>
<path d="M0 0 C3.84002931 2.10825138 6.73003778 4.21672964 9 8 C9 8.66 9 9.32 9 10 C5.75091983 9.63899109 4.34484249 9.36709039 2.0625 6.9375 C0.09278198 4.73861345 0.09278198 4.73861345 -3 4.4375 C-6.14627033 4.76503002 -6.14627033 4.76503002 -8.4375 7.125 C-10.25965961 9.91245748 -10.25965961 9.91245748 -9.9375 13.125 C-8.79675187 16.72206885 -8.79675187 16.72206885 -6 19 C-3.08559301 19.66721536 -3.08559301 19.66721536 0 19 C2.68767578 16.56249975 2.68767578 16.56249975 5 14 C5.99 14 6.98 14 8 14 C7.67497202 16.92525181 7.14220891 18.78668664 5.5 21.25 C1.84498071 23.8085135 -1.57425806 24.32271035 -6 24 C-10.42285146 21.87047893 -13.05878009 19.52951313 -15 15 C-15.58496307 11.07239081 -15.18285914 9.34540059 -13.3125 5.8125 C-9.4522567 1.1176095 -6.15792514 -0.87970359 0 0 Z " fill="#0E6493" transform="translate(134,86)"/>
<path d="M0 0 C2.4375 1 2.4375 1 4 2 C4.33 1.34 4.66 0.68 5 0 C5 4.62 5 9.24 5 14 C0.3864754 15.53784153 -3.43721569 15.74741859 -7.875 13.625 C-10 12 -10 12 -11 10 C-11.38503376 6.45768939 -11.41935959 4.63742658 -9.4375 1.625 C-6.10803184 -0.59464544 -3.93006023 -0.42107788 0 0 Z " fill="#D4EAEF" transform="translate(107,124)"/>
<path d="M0 0 C4.0743356 0.84881992 5.54405875 2.30225596 8 5.625 C8.625 8.625 8.625 8.625 8 11.625 C5.54853142 14.94169279 4.04375441 16.38580628 0 17.3125 C-4.32475043 16.32141136 -5.64743715 14.29223032 -8 10.625 C-8.625 8.0625 -8.625 8.0625 -8 5.625 C-5.53235541 2.35899981 -4.04381805 0.84246209 0 0 Z " fill="#EDF6F8" transform="translate(157,89.375)"/>
<path d="M0 0 C2.9375 0.5625 2.9375 0.5625 5.3125 2.0625 C7.59166433 5.56890667 7.75503559 8.49150647 6.9375 12.5625 C5.3125 15.0625 5.3125 15.0625 2.9375 16.5625 C0 17.125 0 17.125 -3.0625 16.5625 C-6.38524404 14.10655875 -7.83868008 12.6368356 -8.6875 8.5625 C-7.63783559 3.52411085 -5.07009643 0.9312422 0 0 Z " fill="#F0F8F9" transform="translate(81.0625,89.4375)"/>
<path d="M0 0 C1.9375 1.0625 1.9375 1.0625 3 3 C3.39309578 6.09562931 3.62338668 8.04336605 3 11 C0.9375 13.5625 0.9375 13.5625 -2 15 C-5.77910616 15 -8.00693033 14.83289714 -10.9375 12.375 C-12.45259656 8.98831357 -12.52368962 6.66582737 -12 3 C-8.31376997 -1.46815761 -5.41712863 -1.50475795 0 0 Z " fill="#F1F9FA" transform="translate(59,91)"/>
<path d="M0 0 C5.59366755 2.95514512 5.59366755 2.95514512 6.875 6.25 C6.91625 6.8275 6.9575 7.405 7 8 C4.03824877 7.38722388 2.61941217 6.74627478 0 5 C-4.07490752 4.66042437 -5.53001271 4.68667514 -9 7 C-9.33 7.99 -9.66 8.98 -10 10 C-4.72 10 0.56 10 6 10 C6 10.33 6 10.66 6 11 C-1.92 11.495 -1.92 11.495 -10 12 C-7.03 12.33 -4.06 12.66 -1 13 C-1 13.33 -1 13.66 -1 14 C-2.60379341 14.05416188 -4.20811406 14.09286638 -5.8125 14.125 C-6.70582031 14.14820312 -7.59914063 14.17140625 -8.51953125 14.1953125 C-11 14 -11 14 -14 12 C-14.5 9.1875 -14.5 9.1875 -14 6 C-9.86538311 0.97141189 -6.48415474 -0.63570144 0 0 Z " fill="#286E95" transform="translate(109,86)"/>
<path d="M0 0 C5.69292334 -0.45543387 8.6015015 0.31753614 13 4 C15.37965342 7.02864981 15.35961865 10.24751112 15.25390625 14.0390625 C14.76229865 17.83578583 12.84475078 20.09267508 10.3125 22.8125 C6.82364143 24.60407602 3.89238853 24.19461943 0 24 C3.75 21 3.75 21 6 21 C6 20.34 6 19.68 6 19 C6.66 18.62875 7.32 18.2575 8 17.875 C10.33582304 15.6851659 10.36425832 15.08812322 10.5 12 C10.36425832 8.91187678 10.33582304 8.3148341 8 6.125 C7.34 5.75375 6.68 5.3825 6 5 C6 4.34 6 3.68 6 3 C5.01 2.67 4.02 2.34 3 2 C2.01 1.34 1.02 0.68 0 0 Z " fill="#216E97" transform="translate(51,86)"/>
<path d="M0 0 C4 1 4 1 6.25 4.0625 C7.11625 5.5165625 7.11625 5.5165625 8 7 C8.33 4.69 8.66 2.38 9 0 C9.99 0 10.98 0 12 0 C12 4.95 12 9.9 12 15 C8 14 8 14 6.734375 12.37109375 C5.82291667 10.58072917 4.91145833 8.79036458 4 7 C3.67 9.64 3.34 12.28 3 15 C2.01 15 1.02 15 0 15 C0 10.05 0 5.1 0 0 Z " fill="#5287A2" transform="translate(155,124)"/>
<path d="M0 0 C6.8359375 -0.1953125 6.8359375 -0.1953125 9 0 C11 2 11 2 11.25 4.5 C11 7 11 7 9 9 C9.99 10.65 10.98 12.3 12 14 C9.18127263 13.61121002 8.22804402 13.29189635 6.4375 11 C5.963125 10.34 5.48875 9.68 5 9 C4.01 8.67 3.02 8.34 2 8 C2 9.98 2 11.96 2 14 C1.34 14 0.68 14 0 14 C0 9.38 0 4.76 0 0 Z " fill="#005583" transform="translate(83,124)"/>
<path d="M0 0 C3.84002931 2.10825138 6.73003778 4.21672964 9 8 C9 8.66 9 9.32 9 10 C5.75091983 9.63899109 4.34484249 9.36709039 2.0625 6.9375 C0.09334334 4.70524309 0.09334334 4.70524309 -3.0625 4.625 C-6.18542374 4.80232037 -6.18542374 4.80232037 -9 7 C-9.99 6.67 -10.98 6.34 -12 6 C-12.33 9.3 -12.66 12.6 -13 16 C-13.66 15.67 -14.32 15.34 -15 15 C-15.50464541 9.70122324 -14.36521927 7.09283425 -11 3 C-7.33394266 0.1057442 -4.63689657 -0.6624138 0 0 Z " fill="#246E95" transform="translate(134,86)"/>
<path d="M0 0 C0.99 0 1.98 0 3 0 C3.83764268 1.95649397 4.66999059 3.91525556 5.5 5.875 C5.9640625 6.96554688 6.428125 8.05609375 6.90625 9.1796875 C8 12 8 12 8 14 C7.01 14 6.02 14 5 14 C4.67 13.34 4.34 12.68 4 12 C0.97065509 11.34227572 0.97065509 11.34227572 -2 11 C-2.33 11.99 -2.66 12.98 -3 14 C-3.66 14 -4.32 14 -5 14 C-4.46515599 8.65155992 -2.53309233 4.64203897 0 0 Z " fill="#246B92" transform="translate(73,124)"/>
<path d="M0 0 C1.32 0 2.64 0 4 0 C5.65 4.62 7.3 9.24 9 14 C8.01 14 7.02 14 6 14 C5.67 13.34 5.34 12.68 5 12 C3.02 12 1.04 12 -1 12 C-1.33 12.66 -1.66 13.32 -2 14 C-2.66 14 -3.32 14 -4 14 C-3.00956295 9.16371695 -2.04301154 4.52381127 0 0 Z " fill="#4E8CA9" transform="translate(173,124)"/>
<path d="M0 0 C0.66 1.32 1.32 2.64 2 4 C0.700625 3.814375 -0.59875 3.62875 -1.9375 3.4375 C-4.08575543 3.1018371 -4.08575543 3.1018371 -6 3 C-7.20561184 3.98267859 -7.20561184 3.98267859 -7.09765625 5.84765625 C-7.08605469 6.57855469 -7.07445313 7.30945313 -7.0625 8.0625 C-7.041875 9.361875 -7.02125 10.66125 -7 12 C-4.69 12 -2.38 12 0 12 C0 11.01 0 10.02 0 9 C-1.32 9 -2.64 9 -4 9 C-4 8.34 -4 7.68 -4 7 C-2.02 7 -0.04 7 2 7 C2 8.98 2 10.96 2 13 C-0.58295732 14.68885671 -1.92857394 15.00291535 -5.0625 14.875 C-8 14 -8 14 -9.875 12.3125 C-11.35810604 9.26389315 -11.48891657 7.35257076 -11 4 C-8.02080717 -0.52837311 -5.15974216 -0.39690324 0 0 Z " fill="#1D668C" transform="translate(107,124)"/>
<path d="M0 0 C0.99 0 1.98 0 3 0 C4.65 2.97 6.3 5.94 8 9 C8.33 6.03 8.66 3.06 9 0 C9.66 0 10.32 0 11 0 C11 4.62 11 9.24 11 14 C7 13 7 13 5.734375 11.37109375 C4.82291667 9.58072917 3.91145833 7.79036458 3 6 C2.67 8.64 2.34 11.28 2 14 C1.34 14 0.68 14 0 14 C0 9.38 0 4.76 0 0 Z " fill="#105E86" transform="translate(125,124)"/>
<path d="M0 0 C0.66 0.33 1.32 0.66 2 1 C2.50537432 6.30643041 1.30655751 8.86680312 -2 13 C-3.9686981 15.1093194 -5.14604359 15.92609993 -8.03125 16.17578125 C-10.02166818 16.18629402 -12.01203746 16.09939813 -14 16 C-13.67 15.01 -13.34 14.02 -13 13 C-11.02 13 -9.04 13 -7 13 C-5.03698408 9.49461443 -4.04097612 5.86648272 -3 2 C-2.34 2.66 -1.68 3.32 -1 4 C-0.67 2.68 -0.34 1.36 0 0 Z " fill="#0D6291" transform="translate(91,94)"/>
<path d="M0 0 C0.99 0.33 1.98 0.66 3 1 C5.56634861 1.22718496 8.11678107 1.41608184 10.6875 1.5625 C11.7403418 1.62727539 11.7403418 1.62727539 12.81445312 1.69335938 C14.54275206 1.7991736 16.2713511 1.90006581 18 2 C17.6875 3.875 17.6875 3.875 17 6 C13.44342962 8.37104692 12.19476306 8.48401112 8 8 C5.29775331 6.92794303 3.42421581 5.71121116 1 4 C0.0625 1.75 0.0625 1.75 0 0 Z " fill="#E5F5F7" transform="translate(95,98)"/>
<path d="M0 0 C2.49918259 1.15424096 4.6705424 2.50914713 7 4 C6.67 4.99 6.34 5.98 6 7 C0.72 6.67 -4.56 6.34 -10 6 C-8.49765803 -0.00936788 -5.78085158 -0.66702134 0 0 Z " fill="#E9F8FA" transform="translate(109,90)"/>
<path d="M0 0 C3.3 0 6.6 0 10 0 C10 0.66 10 1.32 10 2 C7.36 2 4.72 2 2 2 C2 3.32 2 4.64 2 6 C4.64 6 7.28 6 10 6 C10 6.66 10 7.32 10 8 C7.36 8 4.72 8 2 8 C2.33 9.32 2.66 10.64 3 12 C5.31 12.33 7.62 12.66 10 13 C10 13.33 10 13.66 10 14 C6.7 14 3.4 14 0 14 C0 9.38 0 4.76 0 0 Z " fill="#0E5C84" transform="translate(112,124)"/>
<path d="M0 0 C3.63 0 7.26 0 11 0 C11 0.99 11 1.98 11 3 C9.68 3 8.36 3 7 3 C7 6.96 7 10.92 7 15 C6.01 15 5.02 15 4 15 C4 10.71 4 6.42 4 2 C2.68 2 1.36 2 0 2 C0 1.34 0 0.68 0 0 Z " fill="#327294" transform="translate(138,124)"/>
<path d="M0 0 C0.103125 0.639375 0.20625 1.27875 0.3125 1.9375 C0.6528125 2.9584375 0.6528125 2.9584375 1 4 C1.99 4.33 2.98 4.66 4 5 C2.64995627 9.41832494 1.00638894 11.64842388 -3 14 C-5.76127008 14.32274585 -8.20411246 14.1895517 -11 14 C-7.25 11 -7.25 11 -5 11 C-5 10.34 -5 9.68 -5 9 C-4.0409375 8.38125 -4.0409375 8.38125 -3.0625 7.75 C-0.29641768 5.40302106 -0.31288108 3.51991219 0 0 Z " fill="#166793" transform="translate(62,96)"/>
<path d="M0 0 C2.31 0.33 4.62 0.66 7 1 C7 1.99 7 2.98 7 4 C7.66 4.33 8.32 4.66 9 5 C8.34 5.66 7.68 6.32 7 7 C7.99 8.65 8.98 10.3 10 12 C8.125 11.75 8.125 11.75 6 11 C4.6875 9.0625 4.6875 9.0625 4 7 C4.33 6.34 4.66 5.68 5 5 C3.35 5 1.7 5 0 5 C0 3.35 0 1.7 0 0 Z " fill="#70A1B8" transform="translate(85,126)"/>
<path d="M0 0 C3.37462715 0.54723683 5.08235 1.0549 8 3 C9.65549531 3.38499891 11.3222433 3.72793135 13 4 C13.33 5.32 13.66 6.64 14 8 C10.55000031 8.42244894 7.99399975 8.62172957 4.9765625 6.734375 C3.18513593 5.22811429 1.51878942 3.78192314 0 2 C0 1.34 0 0.68 0 0 Z " fill="#16658E" transform="translate(95,102)"/>
<path d="M0 0 C0.33 0 0.66 0 1 0 C1.42317708 2.01822917 1.84635417 4.03645833 2.26953125 6.0546875 C2.92308838 8.37046549 2.92308838 8.37046549 6 10 C7.9896995 10.39013716 9.99019869 10.73202649 12 11 C12 11.33 12 11.66 12 12 C11.2575 12.144375 10.515 12.28875 9.75 12.4375 C7.07329973 12.90257002 7.07329973 12.90257002 4.9375 13.8125 C3 14 3 14 0.8125 12.4375 C-1.36690187 9.50658024 -1.84858006 7.63407867 -2 4 C-1.0625 1.625 -1.0625 1.625 0 0 Z " fill="#065F8D" transform="translate(72,95)"/>
<path d="M0 0 C1.32 0 2.64 0 4 0 C4.33 2.64 4.66 5.28 5 8 C4.01 8.495 4.01 8.495 3 9 C3 8.34 3 7.68 3 7 C0.36 7 -2.28 7 -5 7 C-5 5.68 -5 4.36 -5 3 C-2.36 3 0.28 3 3 3 C3 2.34 3 1.68 3 1 C2.01 0.67 1.02 0.34 0 0 Z " fill="#D4E8EE" transform="translate(119,123)"/>
<path d="M0 0 C0.99 0 1.98 0 3 0 C3 4.95 3 9.9 3 15 C2.01 15 1.02 15 0 15 C0 10.05 0 5.1 0 0 Z " fill="#296F92" transform="translate(150,124)"/>
<path d="M0 0 C-0.32502798 2.92525181 -0.85779109 4.78668664 -2.5 7.25 C-6.1159875 9.78119125 -9.67177534 9.81503313 -14 10 C-14 9.67 -14 9.34 -14 9 C-12.02 8.34 -10.04 7.68 -8 7 C-8 6.34 -8 5.68 -8 5 C-3.5952381 0 -3.5952381 0 0 0 Z " fill="#216C92" transform="translate(142,100)"/>
<path d="M0 0 C4 4.21621622 4 4.21621622 4 7 C0.79600132 6.64400015 -0.65338844 6.35779258 -2.9375 4 C-5.53860145 1.4777198 -7.45840313 1.32196335 -11 1 C-11 0.67 -11 0.34 -11 0 C-7.03430695 -0.83002878 -3.85570399 -1.42052252 0 0 Z " fill="#13648F" transform="translate(139,89)"/>
<path d="M0 0 C0.33 0.66 0.66 1.32 1 2 C2.32 2 3.64 2 5 2 C5 1.34 5 0.68 5 0 C5.99 0.33 6.98 0.66 8 1 C9.1875 4.0625 9.1875 4.0625 10 7 C9.01 7 8.02 7 7 7 C6.67 6.34 6.34 5.68 6 5 C4.02 5 2.04 5 0 5 C-0.33 5.66 -0.66 6.32 -1 7 C-1.66 7 -2.32 7 -3 7 C-2.67 5.35 -2.34 3.7 -2 2 C-1.34 2 -0.68 2 0 2 C0 1.34 0 0.68 0 0 Z " fill="#0E5C85" transform="translate(172,131)"/>
<path d="M0 0 C2.29007321 1.95329774 2.82042509 2.86827584 3.125 5.8125 C0.16324877 5.19972388 -1.25558783 4.55877478 -3.875 2.8125 C-5.8646995 2.42236284 -7.86519869 2.08047351 -9.875 1.8125 C-9.875 1.1525 -9.875 0.4925 -9.875 -0.1875 C-6.04981546 -1.0125398 -3.66939779 -1.51562083 0 0 Z " fill="#0B608B" transform="translate(112.875,88.1875)"/>
<path d="M0 0 C2.69007598 2.69007598 3.02729236 5.36855815 4 9 C4.33 9.66 4.66 10.32 5 11 C2.69 11.33 0.38 11.66 -2 12 C-1.34 11.34 -0.68 10.68 0 10 C-0.99 8.35 -1.98 6.7 -3 5 C-2.34 4.67 -1.68 4.34 -1 4 C-0.34786708 1.97536745 -0.34786708 1.97536745 0 0 Z " fill="#DAEEF2" transform="translate(94,127)"/>
<path d="M0 0 C6.625 -0.25 6.625 -0.25 10 2 C9.34 3.32 8.68 4.64 8 6 C7.67 5.67 7.34 5.34 7 5 C4.66702567 4.95907063 2.33294775 4.95758277 0 5 C0 3.35 0 1.7 0 0 Z " fill="#1E6D98" transform="translate(153,86)"/>
<path d="M0 0 C0.99 0.33 1.98 0.66 3 1 C3 3.64 3 6.28 3 9 C0.03 8.505 0.03 8.505 -3 8 C-1.125 1.125 -1.125 1.125 0 0 Z " fill="#5D99B4" transform="translate(73,124)"/>
<path d="M0 0 C4.0985356 0.60272582 8.03207619 1.83296358 12 3 C10 5 10 5 6.625 5.375 C3 5 3 5 0.5625 3 C0.046875 2.34 -0.46875 1.68 -1 1 C-0.67 0.67 -0.34 0.34 0 0 Z " fill="#035E8F" transform="translate(123,104)"/>
<path d="M0 0 C1.98 0 3.96 0 6 0 C6 1.98 6 3.96 6 6 C3.42786866 7.61949011 2.32330841 8.04408751 -0.75 7.625 C-1.4925 7.41875 -2.235 7.2125 -3 7 C-3 6.67 -3 6.34 -3 6 C0.465 5.505 0.465 5.505 4 5 C4 4.01 4 3.02 4 2 C2.68 2 1.36 2 0 2 C0 1.34 0 0.68 0 0 Z " fill="#095983" transform="translate(103,131)"/>
<path d="M0 0 C1.9375 0.8125 1.9375 0.8125 4 2 C5.2077558 5.62326739 4.54311128 6.64146369 3 10 C-1 4 -1 4 -0.625 1.8125 C-0.41875 1.214375 -0.2125 0.61625 0 0 Z " fill="#0E6390" transform="translate(87,89)"/>
<path d="M0 0 C0.33 0 0.66 0 1 0 C1.0825 0.7425 1.165 1.485 1.25 2.25 C2.1396946 5.51221354 3.48503749 6.80954878 6 9 C4.02 9.99 4.02 9.99 2 11 C-1.03333922 7.96666078 -0.6646334 5.2256192 -1 1 C-0.67 0.67 -0.34 0.34 0 0 Z " fill="#1F6C95" transform="translate(146,94)"/>
<path d="M0 0 C1.45792884 -0.05399736 2.91642712 -0.09279177 4.375 -0.125 C5.18710938 -0.14820312 5.99921875 -0.17140625 6.8359375 -0.1953125 C9 0 9 0 11 2 C11 3.32 11 4.64 11 6 C10.34 6 9.68 6 9 6 C9 5.01 9 4.02 9 3 C6.36 3 3.72 3 1 3 C0.67 2.01 0.34 1.02 0 0 Z " fill="#1A648C" transform="translate(83,124)"/>
<path d="M0 0 C0.33 0.66 0.66 1.32 1 2 C4.02934491 2.65772428 4.02934491 2.65772428 7 3 C7 3.33 7 3.66 7 4 C4.69 4 2.38 4 0 4 C-0.33 4.99 -0.66 5.98 -1 7 C-1.66 7 -2.32 7 -3 7 C-2.625 4.0625 -2.625 4.0625 -2 1 C-1.34 0.67 -0.68 0.34 0 0 Z " fill="#146087" transform="translate(71,131)"/>
<path d="M0 0 C0.66 0.33 1.32 0.66 2 1 C1.67 4.63 1.34 8.26 1 12 C-0.32 11.34 -1.64 10.68 -3 10 C-2.01 6.7 -1.02 3.4 0 0 Z " fill="#1D6993" transform="translate(46,107)"/>
<path d="M0 0 C0.66 0.66 1.32 1.32 2 2 C-5.625 4 -5.625 4 -9 4 C-8.67 3.01 -8.34 2.02 -8 1 C-5.23749964 -0.38125018 -3.05268901 -0.19079306 0 0 Z " fill="#196A97" transform="translate(134,86)"/>
<path d="M0 0 C0.66 0.33 1.32 0.66 2 1 C2.125 6.75 2.125 6.75 1 9 C0.34 9 -0.32 9 -1 9 C-1 8.34 -1 7.68 -1 7 C-1.66 7 -2.32 7 -3 7 C-3 5.35 -3 3.7 -3 2 C-2.34 2.66 -1.68 3.32 -1 4 C-0.67 2.68 -0.34 1.36 0 0 Z " fill="#347A9E" transform="translate(91,94)"/>
<path d="M0 0 C0.99 0 1.98 0 3 0 C3.33 0.99 3.66 1.98 4 3 C3.34 3 2.68 3 2 3 C1.67 5.97 1.34 8.94 1 12 C-1 10 -1 10 -1.23046875 8.125 C-1.21628906 7.42375 -1.20210938 6.7225 -1.1875 6 C-1.18105469 5.29875 -1.17460938 4.5975 -1.16796875 3.875 C-1 2 -1 2 0 0 Z " fill="#236F9A" transform="translate(70,92)"/>
<path d="M0 0 C1.5 1.0625 1.5 1.0625 3 3 C3.1875 6.6875 3.1875 6.6875 3 10 C2.01 9.67 1.02 9.34 0 9 C-1.125 2.25 -1.125 2.25 0 0 Z " fill="#035B8D" transform="translate(63,91)"/>
<path d="M0 0 C0.33 0 0.66 0 1 0 C1 4.29 1 8.58 1 13 C0.01 13 -0.98 13 -2 13 C-2.66 11.35 -3.32 9.7 -4 8 C-2.68 8.33 -1.36 8.66 0 9 C0 6.03 0 3.06 0 0 Z " fill="#065B88" transform="translate(165,125)"/>
<path d="M0 0 C0 2.31 0 4.62 0 7 C0.66 7.33 1.32 7.66 2 8 C1.01 8.99 0.02 9.98 -1 11 C-1.66 10.67 -2.32 10.34 -3 10 C-3 7.03 -3 4.06 -3 1 C-1 0 -1 0 0 0 Z " fill="#ECFAFB" transform="translate(95,93)"/>
<path d="M0 0 C0.99 0.33 1.98 0.66 3 1 C3.33 1.99 3.66 2.98 4 4 C3.01 4.33 2.02 4.66 1 5 C1 7.97 1 10.94 1 14 C0.67 14 0.34 14 0 14 C0 9.38 0 4.76 0 0 Z " fill="#085C8A" transform="translate(156,124)"/>
<path d="M0 0 C0.99 0 1.98 0 3 0 C2.67 1.65 2.34 3.3 2 5 C0.68 5.33 -0.64 5.66 -2 6 C-1.125 1.125 -1.125 1.125 0 0 Z " fill="#146693" transform="translate(139,100)"/>
<path d="M0 0 C0.99 0.33 1.98 0.66 3 1 C3.6875 3.0625 3.6875 3.0625 4 5 C3.01 5 2.02 5 1 5 C1 6.65 1 8.3 1 10 C0.67 10 0.34 10 0 10 C0 6.7 0 3.4 0 0 Z " fill="#00619A" transform="translate(44,101)"/>
<path d="M0 0 C1.98 0 3.96 0 6 0 C6 0.99 6 1.98 6 3 C3.69 3 1.38 3 -1 3 C-0.67 2.01 -0.34 1.02 0 0 Z " fill="#24739E" transform="translate(154,107)"/>
<path d="M0 0 C1.9375 0.625 1.9375 0.625 4 2 C4.75 5.125 4.75 5.125 5 8 C3.68 7.67 2.36 7.34 1 7 C0.67 4.69 0.34 2.38 0 0 Z " fill="#156793" transform="translate(43,94)"/>
<path d="M0 0 C0.99 0.33 1.98 0.66 3 1 C1.79618552 3.49361571 0.54571278 5.68143083 -1 8 C-1.625 5.125 -1.625 5.125 -2 2 C-1.34 1.34 -0.68 0.68 0 0 Z " fill="#045D8D" transform="translate(99,88)"/>
<path d="M0 0 C1.98 0 3.96 0 6 0 C6.33 0.99 6.66 1.98 7 3 C4.36 3 1.72 3 -1 3 C-0.67 2.01 -0.34 1.02 0 0 Z " fill="#337CA4" transform="translate(78,107)"/>
<path d="M0 0 C1.5 1.1875 1.5 1.1875 3 3 C3.1875 5.6875 3.1875 5.6875 3 8 C2.01 7.34 1.02 6.68 0 6 C-0.1875 2.875 -0.1875 2.875 0 0 Z " fill="#1A678D" transform="translate(75,125)"/>
<path d="M0 0 C0.33 0.99 0.66 1.98 1 3 C-1.31 3 -3.62 3 -6 3 C-6 2.34 -6 1.68 -6 1 C-4 0 -4 0 0 0 Z " fill="#2B759E" transform="translate(108,107)"/>
<path d="M0 0 C2 3.875 2 3.875 2 5 C-0.64 5 -3.28 5 -6 5 C-2.25 2 -2.25 2 0 2 C0 1.34 0 0.68 0 0 Z " fill="#3B80A6" transform="translate(57,105)"/>
</svg>
