<?xml version="1.0" encoding="UTF-8"?>
<svg version="1.1" xmlns="http://www.w3.org/2000/svg" width="380" height="144">
<path d="M0 0 C7.75234867 5.6042356 13.38737333 11.71428937 16 21 C17.13052858 31.80524432 16.63635911 40.92802868 10 50 C3.81891301 57.14651391 -3.17983093 61.39661314 -12.6171875 62.375 C-20.50425924 62.62890975 -27.03890626 61.8518052 -34 58 C-34.33 57.67 -34.66 57.34 -35 57 C-35.02505615 57.83772949 -35.0501123 58.67545898 -35.07592773 59.53857422 C-35.17100357 62.64352256 -35.27024025 65.74830181 -35.37231445 68.85302734 C-35.43698251 70.85894807 -35.49683106 72.86502228 -35.55664062 74.87109375 C-35.59853516 76.12792969 -35.64042969 77.38476562 -35.68359375 78.6796875 C-35.72025146 79.84226074 -35.75690918 81.00483398 -35.79467773 82.20263672 C-36 85 -36 85 -37 87 C-43.36734694 86.63265306 -43.36734694 86.63265306 -46.3125 83.6875 C-48.88480347 79.59086854 -50.24862517 76.92154162 -50.2746582 72.02294922 C-50.28895622 70.54023026 -50.28895622 70.54023026 -50.30354309 69.02755737 C-50.30263168 67.96401031 -50.30172028 66.90046326 -50.30078125 65.8046875 C-50.30506638 64.70206573 -50.3093515 63.59944397 -50.31376648 62.46340942 C-50.31950979 60.12828253 -50.32001004 57.79313774 -50.31567383 55.45800781 C-50.31253028 51.90918816 -50.33591672 48.3612156 -50.36132812 44.8125 C-50.36360294 42.53906354 -50.36430377 40.26562486 -50.36328125 37.9921875 C-50.372491 36.94078583 -50.38170074 35.88938416 -50.39118958 34.80612183 C-50.31961652 23.23049679 -47.32548567 13.81089465 -39.37109375 5.24609375 C-28.13614779 -5.15470309 -13.56340536 -6.61414436 0 0 Z M-33.87109375 18.31640625 C-37.28836401 23.41275048 -36.60171788 30.15572863 -36 36 C-33.8972146 41.93117496 -29.5280922 46.11846648 -24 49 C-18.18739724 50.77199735 -12.58670393 50.47934092 -6.9921875 48.171875 C-1.98328324 45.22546073 1.20974218 40.81100751 3.5 35.5625 C4.44229123 28.84867499 3.82895886 22.74343828 0 17 C-4.62379786 12.3314196 -8.96601117 8.7330253 -15.75 8.625 C-23.87711414 8.82817785 -28.82123508 12.13824128 -33.87109375 18.31640625 Z " fill="#156DA1" transform="translate(51,4)"/>
<path d="M0 0 C4.72427018 3.86531196 9.01399108 7.71996933 10.75 13.6875 C10.75 14.533125 10.75 15.37875 10.75 16.25 C9.75 17.25 9.75 17.25 5.875 17.8125 C-0.87721315 17.8125 -5.24315063 13.29827308 -10.25 9.25 C-14.66741953 7.04129023 -20.44330582 7.82604843 -25.25 8.25 C-29.11885784 9.57235073 -32.84040357 11.90333829 -35.25 15.25 C-35.61448042 16.9101334 -35.95074258 18.576879 -36.25 20.25 C-35.26717041 20.26981934 -34.28434082 20.28963867 -33.27172852 20.31005859 C-29.58691991 20.38676434 -25.90247321 20.47537512 -22.21801758 20.56738281 C-20.63052574 20.60540657 -19.04295552 20.64030321 -17.45532227 20.671875 C3.61706437 21.09610675 3.61706437 21.09610675 9.75 25.3125 C12.80862646 29.80485761 13.33748954 33.9943288 12.375 39.328125 C9.57908002 48.20517094 2.87854812 53.61507534 -4.91796875 58.12109375 C-12.06732474 61.58200478 -21.59356421 61.38032214 -29.2109375 59.53125 C-37.09323521 56.52385026 -44.42756373 52.04914128 -48.25 44.25 C-48.625 40.875 -48.625 40.875 -48.25 38.25 C-47.25 37.25 -47.25 37.25 -44.125 36.9375 C-39.36558628 37.32132369 -37.20097099 38.66977404 -33.25 41.25 C-33.25 41.91 -33.25 42.57 -33.25 43.25 C-32.6725 43.53875 -32.095 43.8275 -31.5 44.125 C-30.13478068 44.80760966 -28.78466993 45.52348346 -27.46875 46.296875 C-22.4224821 48.46463797 -15.97536127 48.09057247 -10.79296875 46.4921875 C-7.12751775 44.76486922 -4.11488699 42.97977397 -2.25 39.25 C-2.25 37.93 -2.25 36.61 -2.25 35.25 C-2.94448242 35.22494385 -3.63896484 35.1998877 -4.35449219 35.17407227 C-7.56977376 35.05642049 -10.78487975 34.93447795 -14 34.8125 C-15.63775391 34.75352539 -15.63775391 34.75352539 -17.30859375 34.69335938 C-41.77607616 33.75230236 -41.77607616 33.75230236 -47.25 29.25 C-50.20211405 24.68764193 -50.78479229 20.77186337 -49.9453125 15.51171875 C-48.66043987 11.3322735 -46.19693539 8.40973379 -43.25 5.25 C-42.67121094 4.61835938 -42.09242188 3.98671875 -41.49609375 3.3359375 C-29.26738381 -8.66300544 -14.10109117 -7.59289525 0 0 Z " fill="#146DA1" transform="translate(192.25,5.75)"/>
<path d="M0 0 C9.43208458 6.81853028 15.12632184 14.44061455 17 26 C17.58098823 35.99563844 14.50812036 44.8236967 7.91796875 52.390625 C0.00250267 59.87635474 -7.1888038 62.62048314 -18.04711914 62.47094727 C-27.1217373 62.06822436 -33.66965982 59.1208354 -40.24609375 52.9296875 C-47.61116708 44.82646651 -49.59167485 36.72001129 -49.30078125 26.01171875 C-48.78651124 16.94321266 -44.75026239 10.70226305 -38.578125 4.203125 C-27.32179934 -5.41591693 -13.03195476 -6.35498444 0 0 Z M-34 19 C-37.1939772 24.19162371 -36.6745619 30.12569014 -36 36 C-33.78416068 42.21226381 -29.49014097 45.64491385 -24 49 C-18.22379714 50.92540095 -12.53028912 50.50231024 -6.95703125 48.171875 C-2.00274634 45.20523733 1.18689782 40.82947991 3.5 35.625 C4.50592508 28.33204317 3.97875451 21.89531081 -0.36328125 15.76171875 C-4.6926357 11.10172148 -9.71865815 8.74005246 -16.0625 8.4375 C-24.22242383 8.9063155 -29.37396995 12.46913405 -34 19 Z " fill="#136CA0" transform="translate(328,4)"/>
<path d="M0 0 C7.6724937 5.33553108 14.274483 12.54349017 16 22 C16.83667234 33.65854896 15.92262799 42.56186538 8.3125 51.8125 C2.5704837 57.87649852 -3.95997695 61.63830423 -12.3203125 62.23828125 C-24.1753495 62.46953967 -32.21993886 60.55501365 -41.01953125 52.22265625 C-48.17455422 44.19266006 -49.48723736 36.31581497 -49.2734375 25.83203125 C-48.55922432 15.82284366 -43.65204765 9.01243948 -36.30859375 2.5 C-25.41485646 -5.9925655 -12.12730551 -5.94381772 0 0 Z M-33.8359375 18.31640625 C-37.31816102 23.35277651 -36.61204305 30.18215262 -36 36 C-33.6855407 42.12707483 -29.41440329 46.10310928 -23.75 49.25 C-17.26533976 51.0185437 -11.67279733 50.57864312 -5.7890625 47.2734375 C-1.77461026 44.41598896 1.14641434 40.56516294 3 36 C3.90467287 28.80070852 3.86893719 22.52709906 -0.57421875 16.58203125 C-4.49328017 12.23348364 -8.40318416 9.404412 -14.29296875 8.7421875 C-23.44162834 8.32696846 -28.10774523 11.43951233 -33.8359375 18.31640625 Z " fill="#146CA0" transform="translate(122,4)"/>
<path d="M0 0 C6.54280731 4.3745514 11.58440762 11.37451932 13.51953125 19.00390625 C13.58011719 19.92171875 13.64070313 20.83953125 13.703125 21.78515625 C11.703125 23.78515625 11.703125 23.78515625 8.515625 24.28515625 C2.8938839 23.54787873 -0.12298187 20.49926833 -3.6015625 16.15625 C-4.19324219 15.38474609 -4.19324219 15.38474609 -4.796875 14.59765625 C-8.19418108 10.77568691 -11.39199876 9.20911116 -16.46484375 8.46875 C-23.37814493 8.09988195 -28.071286 10.51852614 -33.609375 14.41015625 C-36.80866503 18.91286074 -38.42782062 23.9043527 -38.17578125 29.44921875 C-37.02542677 36.18846361 -34.79898503 40.89580786 -29.234375 45.09765625 C-24.60018888 47.75984827 -20.56638729 48.32860503 -15.296875 47.78515625 C-9.93790896 45.96855759 -5.40928392 43.62039536 -1.97265625 39.0078125 C1.70018989 34.08720493 1.70018989 34.08720493 5.05078125 33.078125 C7.31576284 32.80891166 9.4273725 32.6318424 11.703125 32.78515625 C12.703125 33.78515625 12.703125 33.78515625 13.078125 36.28515625 C12.2974299 43.57164381 7.8307381 49.35326074 2.60546875 54.28125 C-6.00198873 61.08591351 -15.73876111 61.70497196 -26.296875 60.78515625 C-35.20250535 58.94058638 -41.90250125 53.42530016 -47.19140625 46.1953125 C-52.04194008 37.91419034 -52.92484785 29.14429725 -51.296875 19.78515625 C-48.54086583 11.10130981 -43.62902276 3.68602641 -35.546875 -0.7109375 C-22.94243991 -6.62764706 -12.57810215 -6.65270369 0 0 Z " fill="#156DA0" transform="translate(260.296875,5.21484375)"/>
<path d="M0 0 C1.40765625 -0.01836914 1.40765625 -0.01836914 2.84375 -0.03710938 C9.20612831 -0.05047572 15.11698846 -0.06245679 20.25 4.125 C23.24872832 7.93107825 23.35339014 11.48333025 22.875 16.1875 C20.84166854 19.64180827 18.20656718 21.96645521 14.875 24.1875 C15.33390625 24.76757812 15.7928125 25.34765625 16.265625 25.9453125 C25.875 38.17909664 25.875 38.17909664 25.875 41.1875 C21.98294807 41.96018678 18.73583494 42.20590922 14.875 41.1875 C10.72559043 36.8875598 7.76353404 31.85310212 5.875 26.1875 C3.565 25.8575 1.255 25.5275 -1.125 25.1875 C-1.125 30.4675 -1.125 35.7475 -1.125 41.1875 C-8.05859375 41.28515625 -8.05859375 41.28515625 -10.125 41.1875 C-11.99462718 39.31787282 -11.25386303 36.64086439 -11.26394653 34.15368652 C-11.2619223 33.30890747 -11.25989807 32.46412842 -11.2578125 31.59375 C-11.25876923 30.73189087 -11.25972595 29.87003174 -11.26071167 28.98205566 C-11.2613935 27.15616788 -11.25953904 25.33027769 -11.25537109 23.50439453 C-11.25002286 20.69948922 -11.25531599 17.89474405 -11.26171875 15.08984375 C-11.26105797 13.32031214 -11.25977681 11.55078064 -11.2578125 9.78125 C-11.25983673 8.93647095 -11.26186096 8.09169189 -11.26394653 7.22131348 C-11.22753509 -1.75986482 -7.93859002 0.00532077 0 0 Z M-1.125 9.1875 C-1.125 11.8275 -1.125 14.4675 -1.125 17.1875 C0.83325873 17.21444851 2.79162226 17.23387218 4.75 17.25 C6.38582031 17.26740234 6.38582031 17.26740234 8.0546875 17.28515625 C10.82677546 17.38494303 10.82677546 17.38494303 12.875 16.1875 C12.91754356 14.18795254 12.91580783 12.18708364 12.875 10.1875 C11.76373341 8.84848208 11.76373341 8.84848208 8.93359375 9.08984375 C7.73863281 9.10144531 6.54367188 9.11304687 5.3125 9.125 C4.11496094 9.13402344 2.91742188 9.14304687 1.68359375 9.15234375 C0.29333984 9.16974609 0.29333984 9.16974609 -1.125 9.1875 Z " fill="#166C9F" transform="translate(120.125,102.8125)"/>
<path d="M0 0 C3.625 0.25 3.625 0.25 5.16918945 1.47387695 C6.85045267 3.52505755 8.19091314 5.63546628 9.54296875 7.91796875 C10.07470703 8.81064453 10.60644531 9.70332031 11.15429688 10.62304688 C11.70150391 11.55181641 12.24871094 12.48058594 12.8125 13.4375 C13.37130859 14.37787109 13.93011719 15.31824219 14.50585938 16.28710938 C15.88291273 18.60573768 17.25578241 20.92673875 18.625 23.25 C18.65005615 22.5887915 18.6751123 21.92758301 18.70092773 21.24633789 C18.81653102 18.26817695 18.93941754 15.2903608 19.0625 12.3125 C19.10181641 11.27158203 19.14113281 10.23066406 19.18164062 9.15820312 C19.22353516 8.16884766 19.26542969 7.17949219 19.30859375 6.16015625 C19.34525146 5.24371338 19.38190918 4.32727051 19.41967773 3.38305664 C19.625 1.25 19.625 1.25 20.625 0.25 C24.125 0.125 24.125 0.125 27.625 0.25 C28.625 1.25 28.625 1.25 28.73852539 5.03540039 C28.73836622 6.72282729 28.73266917 8.41025905 28.72265625 10.09765625 C28.7212413 10.9840831 28.71982635 11.87050995 28.71836853 12.78379822 C28.71275215 15.62673254 28.70019691 18.46958931 28.6875 21.3125 C28.68248711 23.23502491 28.67792384 25.15755104 28.67382812 27.08007812 C28.66277741 31.80341549 28.64550183 36.52669458 28.625 41.25 C25.12219577 41.8753915 22.107238 42.06825189 18.625 41.25 C15.63848264 38.37959566 13.93152434 34.97837597 12.0625 31.3125 C11.54365234 30.36697266 11.02480469 29.42144531 10.49023438 28.44726562 C9.53622612 26.70760352 8.59820224 24.95901488 7.68139648 23.19946289 C6.77401328 21.30407861 6.77401328 21.30407861 5.625 20.25 C5.295 27.18 4.965 34.11 4.625 41.25 C1.655 41.25 -1.315 41.25 -4.375 41.25 C-4.39964705 35.57169922 -4.41783462 29.89342931 -4.42993164 24.21508789 C-4.43497256 22.28181415 -4.44180519 20.34854424 -4.45043945 18.4152832 C-4.46251565 15.64273128 -4.46823057 12.87022959 -4.47265625 10.09765625 C-4.47781754 9.22786636 -4.48297882 8.35807648 -4.48829651 7.46192932 C-4.48849185 5.39094186 -4.43708168 3.32005676 -4.375 1.25 C-3.375 0.25 -3.375 0.25 0 0 Z " fill="#2C78A7" transform="translate(310.375,102.75)"/>
<path d="M0 0 C3.6875 0.375 3.6875 0.375 5.55859375 2.31640625 C8.35951146 6.34047702 10.91108194 10.48727321 13.4375 14.6875 C15.17 17.554375 16.9025 20.42125 18.6875 23.375 C19.0175 15.785 19.3475 8.195 19.6875 0.375 C22.3275 0.375 24.9675 0.375 27.6875 0.375 C28.99036938 4.28360813 28.70103276 7.91842914 28.56640625 11.98046875 C28.53098976 13.23927605 28.53098976 13.23927605 28.49485779 14.52351379 C28.41829724 17.2033512 28.33424019 19.88289407 28.25 22.5625 C28.19677169 24.37954289 28.14403134 26.19660014 28.09179688 28.01367188 C27.96269238 32.46763435 27.82686429 36.92134722 27.6875 41.375 C24.64342118 41.64249135 21.72502706 41.75770927 18.6875 41.375 C16.47241211 39.44726562 16.47241211 39.44726562 14.96484375 36.78125 C14.40732422 35.83378906 13.84980469 34.88632813 13.27539062 33.91015625 C12.73076172 32.90855469 12.18613281 31.90695313 11.625 30.875 C11.04556641 29.87339844 10.46613281 28.87179688 9.86914062 27.83984375 C8.44524327 25.36861694 7.0623043 22.8738715 5.6875 20.375 C5.3575 27.305 5.0275 34.235 4.6875 41.375 C1.7175 41.375 -1.2525 41.375 -4.3125 41.375 C-4.33714705 35.69669922 -4.35533462 30.01842931 -4.36743164 24.34008789 C-4.37247256 22.40681415 -4.37930519 20.47354424 -4.38793945 18.5402832 C-4.40001565 15.76773128 -4.40573057 12.99522959 -4.41015625 10.22265625 C-4.41531754 9.35286636 -4.42047882 8.48307648 -4.42579651 7.58692932 C-4.42599185 5.51594186 -4.37458168 3.44505676 -4.3125 1.375 C-3.3125 0.375 -3.3125 0.375 0 0 Z " fill="#2172A3" transform="translate(227.3125,102.625)"/>
<path d="M0 0 C2.46132376 2.33510203 4.58575312 4.46365865 6.4375 7.3125 C6.4375 8.6325 6.4375 9.9525 6.4375 11.3125 C1.9825 11.8075 1.9825 11.8075 -2.5625 12.3125 C-2.8925 10.9925 -3.2225 9.6725 -3.5625 8.3125 C-7.29260432 7.06913189 -10.69349428 6.66389475 -14.5625 7.3125 C-18.37084299 9.90541437 -19.37551178 11.61129417 -20.5625 16.0625 C-20.87006354 20.82068883 -19.81376035 25.1177688 -17.5625 29.3125 C-15.50965712 31.25086991 -15.50965712 31.25086991 -12.5625 31.3125 C-9.49677005 30.85392863 -6.54348854 30.15678869 -3.5625 29.3125 C-3.2325 27.9925 -2.9025 26.6725 -2.5625 25.3125 C-5.2025 25.3125 -7.8425 25.3125 -10.5625 25.3125 C-10.5625 22.6725 -10.5625 20.0325 -10.5625 17.3125 C-4.6225 17.3125 1.3175 17.3125 7.4375 17.3125 C7.4375 22.9225 7.4375 28.5325 7.4375 34.3125 C-0.8428713 39.40811311 -7.8772308 40.67145759 -17.5625 39.3125 C-23.30181152 37.14961405 -27.0219696 33.61281233 -29.60546875 28.078125 C-31.63054992 22.22605369 -31.62564322 15.47455258 -29.65234375 9.60546875 C-23.98003527 -1.39260846 -11.33191855 -5.36775089 0 0 Z " fill="#2173A5" transform="translate(176.5625,104.6875)"/>
<path d="M0 0 C1.87655273 -0.00193359 1.87655273 -0.00193359 3.79101562 -0.00390625 C5.10908203 -0.00003906 6.42714844 0.00382812 7.78515625 0.0078125 C9.75645508 0.00201172 9.75645508 0.00201172 11.76757812 -0.00390625 C13.01990234 -0.00261719 14.27222656 -0.00132813 15.5625 0 C17.29681274 0.00169189 17.29681274 0.00169189 19.06616211 0.00341797 C21.84765625 0.1328125 21.84765625 0.1328125 23.84765625 1.1328125 C23.84765625 3.4428125 23.84765625 5.7528125 23.84765625 8.1328125 C21.49913097 9.30707514 20.1099156 9.24789423 17.49609375 9.23046875 C16.6453125 9.22724609 15.79453125 9.22402344 14.91796875 9.22070312 C14.02851563 9.21232422 13.1390625 9.20394531 12.22265625 9.1953125 C10.876875 9.18854492 10.876875 9.18854492 9.50390625 9.18164062 C7.28508977 9.16983841 5.06640607 9.15337405 2.84765625 9.1328125 C2.51765625 11.4428125 2.18765625 13.7528125 1.84765625 16.1328125 C8.44765625 16.1328125 15.04765625 16.1328125 21.84765625 16.1328125 C21.84765625 18.7728125 21.84765625 21.4128125 21.84765625 24.1328125 C15.24765625 24.1328125 8.64765625 24.1328125 1.84765625 24.1328125 C1.84765625 27.1028125 1.84765625 30.0728125 1.84765625 33.1328125 C9.10765625 33.1328125 16.36765625 33.1328125 23.84765625 33.1328125 C23.84765625 35.7728125 23.84765625 38.4128125 23.84765625 41.1328125 C13.61765625 41.1328125 3.38765625 41.1328125 -7.15234375 41.1328125 C-7.1752506 35.45445853 -7.19517832 29.77626369 -7.20727539 24.09790039 C-7.21231631 22.16462665 -7.21914894 20.23135674 -7.2277832 18.2980957 C-7.2398594 15.52554378 -7.24557432 12.75304209 -7.25 9.98046875 C-7.25516129 9.11067886 -7.26032257 8.24088898 -7.26564026 7.34474182 C-7.2658356 5.27375436 -7.21442543 3.20286926 -7.15234375 1.1328125 C-5.32639121 -0.69314004 -2.45111155 0.0023935 0 0 Z " fill="#2776A6" transform="translate(195.15234375,102.8671875)"/>
<path d="M0 0 C2.97 0 5.94 0 9 0 C12.47516615 6.57887749 15.24245009 13.36371614 17.9465332 20.29174805 C18.6909059 22.19621395 19.44371962 24.0971947 20.19726562 25.99804688 C20.90979492 27.8146582 20.90979492 27.8146582 21.63671875 29.66796875 C22.06686279 30.76391357 22.49700684 31.8598584 22.94018555 32.98901367 C23.88323217 35.66825669 24.53188766 38.20397765 25 41 C21.7 41 18.4 41 15 41 C13.515 36.545 13.515 36.545 12 32 C7.05 32 2.1 32 -3 32 C-3.66 34.97 -4.32 37.94 -5 41 C-8.3 41 -11.6 41 -15 41 C-14.38199104 36.11469601 -12.92430924 31.80516083 -11.09375 27.265625 C-10.66660706 26.18677032 -10.66660706 26.18677032 -10.23083496 25.08612061 C-9.32608966 22.80516834 -8.41307517 20.52762867 -7.5 18.25 C-6.88619446 16.70463523 -6.27290789 15.15906421 -5.66015625 13.61328125 C-1.22138715 2.44277429 -1.22138715 2.44277429 0 0 Z M4 13 C2.68 16.63 1.36 20.26 0 24 C2.97 24 5.94 24 9 24 C8.55123384 22.35153231 8.09069512 20.70626545 7.625 19.0625 C7.24214844 17.68771484 7.24214844 17.68771484 6.8515625 16.28515625 C6.23339896 13.83254913 6.23339896 13.83254913 4 13 Z " fill="#2273A4" transform="translate(83,103)"/>
<path d="M0 0 C1.97265625 0.55859375 1.97265625 0.55859375 3.39990234 2.6184082 C5.23038879 6.04041198 6.69660308 9.55241137 8.109375 13.16015625 C8.39367874 13.87843597 8.67798248 14.5967157 8.97090149 15.33676147 C9.56720589 16.8470079 10.16125897 18.35814497 10.75317383 19.87011719 C11.661027 22.18581481 12.57906893 24.49729187 13.49804688 26.80859375 C14.07743949 28.27970523 14.65623643 29.75105149 15.234375 31.22265625 C15.50932297 31.91332184 15.78427094 32.60398743 16.06755066 33.31558228 C17.19720774 36.22020724 17.97265625 38.41198558 17.97265625 41.55859375 C15.00265625 41.55859375 12.03265625 41.55859375 8.97265625 41.55859375 C7.65265625 38.91859375 6.33265625 36.27859375 4.97265625 33.55859375 C0.35265625 33.55859375 -4.26734375 33.55859375 -9.02734375 33.55859375 C-10.01734375 36.19859375 -11.00734375 38.83859375 -12.02734375 41.55859375 C-15.32734375 41.55859375 -18.62734375 41.55859375 -22.02734375 41.55859375 C-19.80632867 33.72857449 -17.10410312 26.1270312 -14.21118164 18.52392578 C-13.45648842 16.53659165 -12.71145463 14.54580051 -11.96679688 12.5546875 C-11.4862531 11.2849381 -11.00515405 10.01539868 -10.5234375 8.74609375 C-10.09216553 7.60527344 -9.66089355 6.46445313 -9.21655273 5.2890625 C-7.08112683 0.38604396 -5.14906572 0.29835708 0 0 Z M-3.02734375 13.55859375 C-3.53349673 14.82698901 -4.03203474 16.09842477 -4.52734375 17.37109375 C-4.80578125 18.07878906 -5.08421875 18.78648438 -5.37109375 19.515625 C-6.18025995 21.67700591 -6.18025995 21.67700591 -6.02734375 24.55859375 C-3.05734375 24.55859375 -0.08734375 24.55859375 2.97265625 24.55859375 C2.35614042 22.90956355 1.72917883 21.26443534 1.09765625 19.62109375 C0.74960937 18.70457031 0.4015625 17.78804687 0.04296875 16.84375 C-0.80925235 14.40918319 -0.80925235 14.40918319 -3.02734375 13.55859375 Z " fill="#1F72A3" transform="translate(362.02734375,102.44140625)"/>
<path d="M0 0 C1.29349365 0.00523682 2.5869873 0.01047363 3.91967773 0.01586914 C4.9496714 0.01799156 4.9496714 0.01799156 6.00047302 0.02015686 C8.20144949 0.0257706 10.40232557 0.03832532 12.60327148 0.05102539 C14.09220231 0.05603863 15.58113473 0.06060184 17.07006836 0.06469727 C20.72700223 0.07574446 24.38387707 0.09301826 28.04077148 0.11352539 C29.01685366 3.04177191 29.12303817 5.06965815 29.04077148 8.11352539 C27.04077148 9.11352539 27.04077148 9.11352539 18.04077148 9.11352539 C17.71077148 19.67352539 17.38077148 30.23352539 17.04077148 41.11352539 C14.07077148 41.11352539 11.10077148 41.11352539 8.04077148 41.11352539 C7.04077148 40.11352539 7.04077148 40.11352539 6.92724609 37.15429688 C6.93248291 35.86080322 6.93771973 34.56730957 6.94311523 33.23461914 C6.94453018 32.5479567 6.94594513 31.86129425 6.94740295 31.15382385 C6.95301669 28.95284738 6.96557142 26.7519713 6.97827148 24.55102539 C6.98328472 23.06209456 6.98784793 21.57316215 6.99194336 20.08422852 C7.00299056 16.42729464 7.02026435 12.77041981 7.04077148 9.11352539 C6.33049805 9.12512695 5.62022461 9.13672852 4.88842773 9.14868164 C3.96932617 9.15770508 3.05022461 9.16672852 2.10327148 9.17602539 C1.18674805 9.18762695 0.27022461 9.19922852 -0.67407227 9.21118164 C-2.95922852 9.11352539 -2.95922852 9.11352539 -3.95922852 8.11352539 C-4.08422852 4.61352539 -4.08422852 4.61352539 -3.95922852 1.11352539 C-2.95922852 0.11352539 -2.95922852 0.11352539 0 0 Z " fill="#2C77A5" transform="translate(261.959228515625,102.886474609375)"/>
<path d="M0 0 C0.721875 0.00257812 1.44375 0.00515625 2.1875 0.0078125 C2.909375 0.00523438 3.63125 0.00265625 4.375 0 C6.1875 0.1328125 6.1875 0.1328125 7.1875 1.1328125 C7.27618299 4.08986571 7.30270296 7.02346306 7.28515625 9.98046875 C7.2837413 10.8668956 7.28232635 11.75332245 7.28086853 12.66661072 C7.27525215 15.50954504 7.26269691 18.35240181 7.25 21.1953125 C7.24498711 23.11783741 7.24042384 25.04036354 7.23632812 26.96289062 C7.22527741 31.68622799 7.20800183 36.40950708 7.1875 41.1328125 C3.8875 41.1328125 0.5875 41.1328125 -2.8125 41.1328125 C-2.83714705 35.45451172 -2.85533462 29.77624181 -2.86743164 24.09790039 C-2.87247256 22.16462665 -2.87930519 20.23135674 -2.88793945 18.2980957 C-2.90001565 15.52554378 -2.90573057 12.75304209 -2.91015625 9.98046875 C-2.91531754 9.11067886 -2.92047882 8.24088898 -2.92579651 7.34474182 C-2.92599185 5.27375436 -2.87458168 3.20286926 -2.8125 1.1328125 C-1.8125 0.1328125 -1.8125 0.1328125 0 0 Z " fill="#327DA9" transform="translate(294.8125,102.8671875)"/>
<path d="M0 0 C0.87454834 0.00523682 1.74909668 0.01047363 2.65014648 0.01586914 C3.59438477 0.0190918 4.53862305 0.02231445 5.51147461 0.02563477 C6.50469727 0.03401367 7.49791992 0.04239258 8.52124023 0.05102539 C9.51833008 0.05553711 10.51541992 0.06004883 11.54272461 0.06469727 C14.01478872 0.07652532 16.48673541 0.0930069 18.95874023 0.11352539 C18.95874023 0.44352539 18.95874023 0.77352539 18.95874023 1.11352539 C12.35874023 1.11352539 5.75874023 1.11352539 -1.04125977 1.11352539 C-1.04125977 13.98352539 -1.04125977 26.85352539 -1.04125977 40.11352539 C0.93874023 40.11352539 2.91874023 40.11352539 4.95874023 40.11352539 C4.95874023 34.83352539 4.95874023 29.55352539 4.95874023 24.11352539 C8.25874023 23.78352539 11.55874023 23.45352539 14.95874023 23.11352539 C15.28874023 24.43352539 15.61874023 25.75352539 15.95874023 27.11352539 C16.94874023 26.78352539 17.93874023 26.45352539 18.95874023 26.11352539 C19.28874023 24.46352539 19.61874023 22.81352539 19.95874023 21.11352539 C21.93874023 21.11352539 23.91874023 21.11352539 25.95874023 21.11352539 C24.96874023 22.10352539 23.97874023 23.09352539 22.95874023 24.11352539 C23.41764648 24.69360352 23.87655273 25.27368164 24.34936523 25.87133789 C33.95874023 38.10512203 33.95874023 38.10512203 33.95874023 41.11352539 C30.06668831 41.88621217 26.81957518 42.13193461 22.95874023 41.11352539 C18.80933067 36.81358519 15.84727427 31.77912751 13.95874023 26.11352539 C11.64874023 25.78352539 9.33874023 25.45352539 6.95874023 25.11352539 C6.95874023 30.39352539 6.95874023 35.67352539 6.95874023 41.11352539 C0.02514648 41.21118164 0.02514648 41.21118164 -2.04125977 41.11352539 C-3.91088695 39.24389821 -3.1701228 36.56688978 -3.1802063 34.07971191 C-3.17818207 33.23493286 -3.17615784 32.39015381 -3.17407227 31.51977539 C-3.17502899 30.65791626 -3.17598572 29.79605713 -3.17697144 28.90808105 C-3.17765326 27.08219327 -3.17579881 25.25630308 -3.17163086 23.43041992 C-3.16628263 20.62551461 -3.17157576 17.82076944 -3.17797852 15.01586914 C-3.17731773 13.24633753 -3.17603657 11.47680603 -3.17407227 9.70727539 C-3.1760965 8.86249634 -3.17812073 8.01771729 -3.1802063 7.14733887 C-3.15194029 0.17529628 -3.15194029 0.17529628 0 0 Z " fill="#4A87B0" transform="translate(112.041259765625,102.886474609375)"/>
<path d="M0 0 C6.6 0 13.2 0 20 0 C20 2.64 20 5.28 20 8 C13.4 8 6.8 8 0 8 C1 4 1 4 2 2 C1.34 1.34 0.68 0.68 0 0 Z " fill="#2676A6" transform="translate(197,119)"/>
<path d="M0 0 C4.30937137 0.65047115 5.50763505 2.33416206 8.2109375 5.578125 C9.3125 7.5 9.3125 7.5 9.3125 11.5 C6.6725 11.5 4.0325 11.5 1.3125 11.5 C1.3125 10.18 1.3125 8.86 1.3125 7.5 C0.3225 7.5 -0.6675 7.5 -1.6875 7.5 C-1.3575 5.85 -1.0275 4.2 -0.6875 2.5 C-1.6775 2.17 -2.6675 1.84 -3.6875 1.5 C-2.6875 0.5 -2.6875 0.5 0 0 Z " fill="#176B9E" transform="translate(173.6875,104.5)"/>
<path d="M0 0 C4.62 0 9.24 0 14 0 C14 0.33 14 0.66 14 1 C10.04 1.66 6.08 2.32 2 3 C1.67 13.56 1.34 24.12 1 35 C0.67 35 0.34 35 0 35 C0 23.45 0 11.9 0 0 Z " fill="#005C96" transform="translate(111,105)"/>
<path d="M0 0 C1.98 0 3.96 0 6 0 C6 4.62 6 9.24 6 14 C5.67 14 5.34 14 5 14 C4.67 10.04 4.34 6.08 4 2 C3.01 2.495 3.01 2.495 2 3 C1.67 9.6 1.34 16.2 1 23 C0.67 23 0.34 23 0 23 C0 15.41 0 7.82 0 0 Z " fill="#005D95" transform="translate(331,105)"/>
<path d="M0 0 C0.99 0 1.98 0 3 0 C5 4.75 5 4.75 5 7 C3.68 7.33 2.36 7.66 1 8 C1 7.01 1 6.02 1 5 C-0.32 5.33 -1.64 5.66 -3 6 C-1.125 1.125 -1.125 1.125 0 0 Z M5 1 C5.99 1.495 5.99 1.495 7 2 C6.01 2.495 6.01 2.495 5 3 C5 2.34 5 1.68 5 1 Z " fill="#00639B" transform="translate(292,8)"/>
<path d="M0 0 C2.475 0.99 2.475 0.99 5 2 C4.67 3.32 4.34 4.64 4 6 C3.34 6 2.68 6 2 6 C1.67 12.27 1.34 18.54 1 25 C0.67 25 0.34 25 0 25 C0 16.75 0 8.5 0 0 Z " fill="#4D82A6" transform="translate(230,118)"/>
<path d="M0 0 C-0.53109375 0.38671875 -1.0621875 0.7734375 -1.609375 1.171875 C-4.70542885 3.45436725 -7.65034921 5.65034921 -10.375 8.375 C-10.91125 8.91125 -11.4475 9.4475 -12 10 C-12.66 10 -13.32 10 -14 10 C-12.41567294 5.88074963 -9.45079789 2.68303664 -6 0 C-2.49779736 -1.24889868 -2.49779736 -1.24889868 0 0 Z " fill="#2D7BAA" transform="translate(92,6)"/>
<path d="M0 0 C4.29 0 8.58 0 13 0 C13 0.33 13 0.66 13 1 C11.35 1.33 9.7 1.66 8 2 C8.33 2.66 8.66 3.32 9 4 C8.34 4 7.68 4 7 4 C7 4.66 7 5.32 7 6 C4.69 5.67 2.38 5.34 0 5 C0.99 4.67 1.98 4.34 3 4 C2.01 2.68 1.02 1.36 0 0 Z " fill="#006098" transform="translate(118,121)"/>
<path d="M0 0 C3.29380237 4.94070355 3.4399674 10.9024517 2.61328125 16.72265625 C2.14213856 18.83110334 1.57998938 20.91886164 1 23 C-1 20 -1 20 -0.63110352 18.05566406 C-0.42283936 17.37729492 -0.2145752 16.69892578 0 16 C0.06926968 13.24029592 0.0941736 10.50803958 0.0625 7.75 C0.05798828 7.00492188 0.05347656 6.25984375 0.04882812 5.4921875 C0.03709246 3.6614236 0.0191585 1.83070127 0 0 Z " fill="#597D9A" transform="translate(342,22)"/>
<path d="M0 0 C2.86724686 0.57344937 3.8614515 0.8614515 6 3 C6.66 3.33 7.32 3.66 8 4 C8 4.66 8 5.32 8 6 C8.66 6.33 9.32 6.66 10 7 C8.3125 7.75 8.3125 7.75 6 8 C3.12615149 6.19549047 1.35637 4.98687077 0.1875 1.75 C0.125625 1.1725 0.06375 0.595 0 0 Z " fill="#317CAC" transform="translate(3,83)"/>
<path d="M0 0 C0.33 0 0.66 0 1 0 C1 4.62 1 9.24 1 14 C-1.31 14 -3.62 14 -6 14 C-4.71034824 12.62437146 -3.37310707 11.29233607 -2 10 C-1.34 10 -0.68 10 0 10 C0 6.7 0 3.4 0 0 Z " fill="#005D97" transform="translate(336,129)"/>
<path d="M0 0 C0.66 0.33 1.32 0.66 2 1 C0.66666667 2.66666667 -0.66666667 4.33333333 -2 6 C-3.0209375 7.36125 -3.0209375 7.36125 -4.0625 8.75 C-6 11 -6 11 -9 12 C-7.54718935 6.67302761 -3.91888622 3.63597198 0 0 Z " fill="#4D91BA" transform="translate(292,6)"/>
<path d="M0 0 C0.66 0.33 1.32 0.66 2 1 C2.44921875 2.92578125 2.44921875 2.92578125 2.6875 5.3125 C2.77386719 6.09238281 2.86023438 6.87226562 2.94921875 7.67578125 C3.00115985 10.05308528 2.88320038 11.78955927 2 14 C1.01 14.33 0.02 14.66 -1 15 C-0.125 8.125 -0.125 8.125 1 7 C0.71269945 4.66055264 0.38063221 2.3260857 0 0 Z " fill="#5888AA" transform="translate(202,33)"/>
<path d="M0 0 C0.33 0 0.66 0 1 0 C2.125 7.625 2.125 7.625 1 11 C0.34 11 -0.32 11 -1 11 C-1.12375 11.639375 -1.2475 12.27875 -1.375 12.9375 C-1.58125 13.618125 -1.7875 14.29875 -2 15 C-2.99 15.495 -2.99 15.495 -4 16 C-2.68 10.72 -1.36 5.44 0 0 Z " fill="#5690BA" transform="translate(55,30)"/>
<path d="M0 0 C0.66 0 1.32 0 2 0 C2.99 3.3 3.98 6.6 5 10 C2.5 8.375 2.5 8.375 0 6 C-0.3125 2.75 -0.3125 2.75 0 0 Z " fill="#4F81A4" transform="translate(366,110)"/>
<path d="M0 0 C0.33 0.66 0.66 1.32 1 2 C0.01 2.33 -0.98 2.66 -2 3 C-2.495 3.845625 -2.99 4.69125 -3.5 5.5625 C-3.995 6.366875 -4.49 7.17125 -5 8 C-5.99 8 -6.98 8 -8 8 C-6.70989008 5.12206249 -5.42638194 3.03816083 -3 1 C-2.01 0.67 -1.02 0.34 0 0 Z " fill="#478BB7" transform="translate(266,38)"/>
<path d="M0 0 C0.66 0 1.32 0 2 0 C2.33 0.99 2.66 1.98 3 3 C2.01 3.99 1.02 4.98 0 6 C-0.99 5.67 -1.98 5.34 -3 5 C-3 4.34 -3 3.68 -3 3 C-2.34 3 -1.68 3 -1 3 C-0.67 2.01 -0.34 1.02 0 0 Z " fill="#2D73A2" transform="translate(195,53)"/>
<path d="M0 0 C1.98 0 3.96 0 6 0 C6 2.97 6 5.94 6 9 C5.67 9 5.34 9 5 9 C5 6.69 5 4.38 5 2 C4.01 2.33 3.02 2.66 2 3 C1.34 2.01 0.68 1.02 0 0 Z " fill="#136297" transform="translate(248,104)"/>
<path d="M0 0 C0.33 0.99 0.66 1.98 1 3 C-1 5 -1 5 -3.625 5.125 C-4.40875 5.08375 -5.1925 5.0425 -6 5 C-2.25 1.125 -2.25 1.125 0 0 Z " fill="#2B78A8" transform="translate(190,47)"/>
<path d="" fill="#D9F0F5" transform="translate(0,0)"/>
</svg>
