<?xml version="1.0" standalone="no"?>
<!DOCTYPE svg PUBLIC "-//W3C//DTD SVG 20010904//EN"
 "http://www.w3.org/TR/2001/REC-SVG-20010904/DTD/svg10.dtd">
<svg version="1.0" xmlns="http://www.w3.org/2000/svg"
 width="473.000000pt" height="275.000000pt" viewBox="0 0 473.000000 275.000000"
 preserveAspectRatio="xMidYMid meet">

<g transform="translate(0.000000,275.000000) scale(0.100000,-0.100000)"
fill="#000000" stroke="none">
<path d="M2370 2719 c-35 -30 -125 -74 -187 -92 -28 -9 -82 -34 -120 -57 -37
-22 -77 -42 -88 -45 -11 -2 -45 -9 -76 -15 -45 -10 -66 -10 -105 0 -47 12 -53
11 -104 -15 -30 -15 -78 -42 -105 -61 -33 -22 -65 -35 -93 -38 -25 -2 -55 -13
-74 -28 -18 -14 -56 -37 -84 -51 -28 -14 -64 -37 -80 -50 -20 -16 -46 -26 -85
-30 -54 -5 -151 -47 -245 -107 -23 -14 -87 -43 -143 -64 -55 -22 -99 -41 -97
-43 2 -2 34 8 72 21 71 26 91 26 58 1 -11 -8 -14 -14 -6 -15 7 0 26 14 44 30
17 17 35 30 40 30 5 0 46 22 91 49 123 75 213 94 294 64 16 -6 16 -5 5 10 -16
19 -8 37 15 37 12 0 13 3 4 14 -13 15 -8 18 56 31 18 4 35 10 38 15 10 16 80
47 135 60 38 9 68 24 96 51 37 33 93 69 108 69 10 0 27 -82 21 -101 -7 -22
-61 -59 -86 -59 -8 0 -52 -18 -98 -40 -45 -22 -96 -40 -111 -40 -21 0 -28 -4
-24 -14 6 -16 -30 -41 -74 -51 -18 -3 -30 -10 -28 -14 4 -7 -127 -91 -142 -91
-4 0 -25 -9 -47 -20 -22 -11 -46 -20 -54 -20 -8 0 -12 -2 -9 -5 8 -8 109 15
142 32 17 9 43 19 59 24 28 8 29 7 23 -21 -7 -40 0 -38 18 4 8 19 24 39 35 46
12 6 19 15 16 21 -8 12 37 29 78 29 18 0 54 7 81 15 27 8 64 15 83 15 26 0 57
16 133 70 109 77 141 93 174 84 22 -5 59 23 55 42 -2 5 1 28 5 51 8 46 8 46
146 59 55 6 68 9 50 15 -14 4 -40 7 -57 8 -18 1 -33 5 -33 11 0 12 49 38 113
61 26 10 79 32 117 50 l69 32 38 -33 c21 -19 46 -46 55 -61 9 -16 31 -35 48
-44 20 -11 33 -26 37 -46 3 -19 19 -40 42 -57 46 -35 48 -38 61 -97 12 -54 69
-125 101 -125 10 0 20 -4 24 -9 7 -12 -42 -51 -64 -51 -37 1 -184 71 -227 109
-25 22 -71 50 -103 61 -31 11 -63 25 -71 30 -122 82 -122 82 -196 46 -27 -13
-92 -39 -144 -56 -95 -32 -147 -58 -229 -113 -23 -16 -66 -35 -93 -43 -28 -7
-60 -22 -72 -32 -27 -25 -172 -97 -228 -114 -41 -12 -42 -12 -14 -16 45 -6
110 16 222 75 57 29 108 53 115 53 18 0 3 -56 -26 -94 -31 -41 -31 -49 0 -34
14 6 25 15 25 21 0 5 12 21 28 36 15 15 38 47 52 70 40 69 154 138 303 182 38
11 76 23 83 26 9 3 14 -2 14 -16 0 -15 -17 -32 -55 -56 -30 -19 -70 -56 -89
-83 -19 -26 -45 -60 -57 -75 -12 -15 -18 -31 -14 -35 7 -7 38 25 109 112 24
30 58 57 92 73 30 14 57 29 60 34 9 16 53 10 73 -10 10 -10 30 -21 44 -25 21
-5 26 -13 32 -56 7 -50 38 -90 71 -90 19 0 94 -69 94 -87 0 -7 -16 -23 -37
-35 -60 -36 -20 -32 74 7 48 20 120 49 160 64 39 16 84 37 100 48 15 11 51 30
78 42 77 34 147 111 100 111 -23 0 -18 16 10 28 48 22 101 25 158 8 30 -9 66
-16 79 -16 12 0 32 -7 42 -15 22 -17 63 -19 99 -6 18 7 37 3 80 -16 l56 -25
70 32 c77 36 93 33 105 -15 4 -14 11 -25 16 -25 5 0 39 -21 77 -47 96 -65 159
-93 216 -93 48 0 113 -25 152 -60 11 -9 33 -20 49 -24 16 -4 43 -18 61 -32 31
-24 38 -25 161 -22 l129 3 -37 28 c-20 16 -88 48 -151 71 -66 25 -133 58 -161
79 -27 20 -65 40 -85 43 -85 16 -346 140 -358 170 -10 26 -71 15 -153 -26
l-79 -40 -51 35 c-61 41 -71 42 -116 14 -32 -20 -36 -20 -88 -5 -30 9 -65 16
-79 16 -13 0 -41 7 -60 15 -23 10 -51 13 -80 9 -30 -4 -48 -2 -58 8 -8 7 -32
25 -54 38 -44 27 -181 135 -190 151 -9 13 -181 99 -200 99 -9 0 -39 16 -68 35
-59 40 -91 43 -127 14z"/>
<path d="M205 2026 c-125 -31 -195 -104 -195 -204 0 -119 63 -175 247 -218
122 -28 153 -46 153 -89 0 -41 -42 -60 -135 -60 -85 0 -147 18 -217 62 -21 12
-42 23 -48 23 -7 0 -10 -29 -8 -82 l3 -81 55 -20 c80 -28 281 -36 352 -12 116
38 178 111 178 211 0 111 -58 160 -240 205 -131 32 -160 48 -160 84 0 46 33
60 139 60 90 0 100 -2 155 -32 33 -18 63 -33 68 -33 4 0 8 35 8 79 l0 78 -42
12 c-123 33 -225 39 -313 17z"/>
<path d="M837 1854 c-110 -34 -175 -148 -164 -285 9 -108 58 -182 147 -223 60
-27 195 -29 262 -3 104 40 167 156 155 285 -11 116 -68 193 -166 227 -56 19
-171 18 -234 -1z m189 -125 c60 -56 58 -221 -3 -269 -35 -27 -101 -27 -136 1
-34 26 -51 88 -44 159 6 69 23 107 56 126 35 19 97 11 127 -17z"/>
<path d="M1517 1856 c-71 -19 -127 -63 -161 -126 -25 -46 -30 -66 -30 -131 -1
-150 79 -243 235 -269 73 -12 124 -8 202 16 l47 16 0 69 c0 40 -4 69 -10 69
-6 0 -29 -12 -52 -27 -35 -24 -52 -28 -110 -28 -62 0 -70 2 -99 31 -71 71 -57
215 26 260 46 24 132 15 184 -19 22 -15 45 -27 51 -27 7 0 10 26 8 72 l-3 72
-55 18 c-65 20 -166 22 -233 4z"/>
<path d="M2057 1856 c-72 -27 -114 -62 -143 -122 -24 -49 -28 -70 -28 -138 1
-91 15 -134 63 -189 53 -60 111 -82 216 -82 79 0 97 4 148 29 101 49 144 135
135 269 -7 108 -50 178 -138 223 -47 24 -199 30 -253 10z m164 -112 c40 -20
59 -68 59 -149 0 -69 -8 -94 -43 -132 -23 -25 -92 -32 -128 -13 -44 24 -67
119 -49 203 19 92 86 130 161 91z"/>
<path d="M2832 1855 c-18 -8 -47 -24 -63 -35 l-29 -21 0 31 0 31 -82 -3 -83
-3 -3 -257 -2 -258 85 0 85 0 2 187 3 187 37 14 c48 18 104 9 120 -21 8 -14
14 -82 16 -194 l4 -173 79 0 79 0 0 183 0 183 35 17 c47 22 87 21 116 -2 23
-19 24 -24 27 -200 l3 -181 80 0 79 0 0 202 c0 186 -2 205 -21 246 -49 100
-186 108 -305 17 l-31 -24 -21 28 c-41 56 -138 77 -210 46z"/>
<path d="M3855 1863 c-11 -3 -39 -16 -62 -30 l-41 -24 -4 23 c-3 22 -8 23 -85
26 l-83 3 0 -356 0 -355 85 0 85 0 0 104 0 105 46 -16 c29 -10 68 -14 109 -11
89 5 138 40 183 127 28 56 32 74 32 141 0 132 -38 217 -114 251 -39 18 -106
23 -151 12z m64 -148 c23 -22 26 -35 29 -103 3 -64 0 -83 -18 -110 -27 -44
-80 -66 -137 -57 l-44 6 3 137 3 137 35 12 c48 17 99 9 129 -22z"/>
<path d="M4312 1860 c-23 -5 -47 -12 -52 -15 -10 -6 -14 -108 -5 -117 3 -3 33
3 66 13 112 35 230 16 237 -38 2 -13 0 -23 -5 -23 -38 0 -187 -24 -224 -36
-74 -24 -119 -82 -119 -154 0 -115 102 -187 227 -160 26 6 65 22 86 36 l37 24
0 -25 c0 -25 1 -25 86 -25 l86 0 -3 203 c-5 232 -11 253 -90 297 -39 21 -58
25 -164 27 -66 1 -139 -2 -163 -7z m248 -335 c0 -48 -3 -57 -26 -72 -31 -20
-115 -23 -138 -4 -21 17 -21 75 0 95 8 9 27 19 42 22 15 3 32 7 37 9 6 2 27 4
48 4 l37 1 0 -55z"/>
<path d="M496 909 c-8 -19 -32 -76 -54 -126 -22 -51 -36 -93 -31 -93 5 0 18
20 29 45 l19 45 55 0 55 0 21 -47 c11 -25 23 -43 27 -40 6 6 -82 223 -98 241
-5 5 -15 -5 -23 -25z m44 -55 c11 -26 20 -50 20 -55 0 -5 -20 -9 -45 -9 -25 0
-45 4 -45 9 0 13 38 101 44 101 3 0 14 -21 26 -46z"/>
<path d="M700 815 l0 -127 74 4 c62 3 79 7 101 28 55 52 55 139 -1 191 -21 20
-38 24 -100 27 l-74 4 0 -127z m153 93 c21 -11 47 -66 47 -100 0 -13 -9 -37
-20 -55 -21 -35 -77 -57 -133 -51 l-32 3 -3 99 c-1 55 0 106 3 114 4 11 17 13
63 7 31 -4 65 -11 75 -17z"/>
<path d="M983 908 c7 -18 31 -75 52 -126 21 -51 41 -89 45 -85 7 8 100 229
100 238 0 3 -4 5 -8 5 -5 0 -25 -42 -45 -92 -49 -122 -52 -127 -64 -91 -27 76
-76 183 -84 183 -5 0 -3 -15 4 -32z"/>
<path d="M1250 815 l0 -125 73 2 72 2 -62 3 -63 4 0 54 0 54 63 4 62 3 -62 2
-63 2 0 55 0 54 63 4 62 3 -72 2 -73 2 0 -125z"/>
<path d="M1480 815 c0 -156 18 -169 22 -15 l3 110 90 -107 c50 -59 96 -108
103 -111 9 -3 12 26 12 122 0 157 -18 170 -22 16 l-3 -109 -90 109 c-49 60
-96 110 -102 110 -10 0 -13 -32 -13 -125z"/>
<path d="M1833 933 l47 -4 0 -120 c0 -156 18 -158 22 -1 l3 117 50 6 c32 4 11
6 -60 6 -60 -1 -89 -2 -62 -4z"/>
<path d="M2070 868 c0 -135 31 -184 114 -182 31 1 46 8 68 33 27 30 28 36 28
126 0 57 -4 95 -10 95 -6 0 -10 -38 -10 -95 0 -81 -3 -98 -20 -115 -27 -27
-64 -34 -96 -18 -41 19 -54 53 -54 146 0 48 -4 82 -10 82 -6 0 -10 -31 -10
-72z"/>
<path d="M2392 813 c1 -71 3 -100 5 -65 l4 62 35 0 c30 0 39 -6 67 -46 17 -26
37 -54 44 -63 6 -9 14 -13 17 -10 3 3 -12 32 -35 64 l-40 58 20 21 c48 51 11
106 -69 106 l-50 0 2 -127z m107 92 c11 -11 13 -21 5 -42 -8 -25 -15 -28 -57
-31 l-47 -3 0 44 c0 24 3 47 8 51 11 12 74 -1 91 -19z"/>
<path d="M2640 815 l0 -125 73 2 72 2 -62 3 -63 4 0 54 0 54 58 4 57 3 -57 2
-58 2 0 55 0 54 63 4 62 3 -72 2 -73 2 0 -125z"/>
<path d="M2980 931 l45 -6 3 -117 c1 -65 7 -118 12 -118 5 0 11 53 12 118 l3
117 45 6 c29 4 7 6 -60 6 -67 0 -89 -2 -60 -6z"/>
<path d="M3220 815 c0 -77 4 -125 10 -125 6 0 10 27 10 60 0 59 0 60 28 60 35
0 51 -13 91 -72 18 -27 37 -48 42 -48 6 0 -10 29 -35 65 -25 36 -41 65 -36 65
18 0 41 47 35 73 -8 31 -43 47 -100 47 l-45 0 0 -125z m117 88 c29 -38 1 -73
-58 -73 l-39 0 0 43 c0 24 3 47 8 51 12 13 76 -2 89 -21z"/>
<path d="M3506 847 c-21 -50 -45 -107 -52 -124 -21 -50 -1 -39 24 12 l22 45
54 0 54 0 18 -45 c9 -25 21 -45 26 -45 12 0 14 -7 -47 138 -27 61 -51 112 -54
112 -3 0 -23 -42 -45 -93z m73 1 c12 -28 19 -53 17 -55 -2 -2 -24 -3 -49 -1
l-45 3 22 52 c11 29 24 53 27 53 4 0 16 -23 28 -52z"/>
<path d="M3680 935 c0 -9 92 -229 100 -238 3 -4 29 48 57 115 28 68 49 125 46
128 -7 7 -20 -19 -60 -118 -20 -51 -40 -89 -43 -85 -4 5 -24 52 -45 106 -21
53 -42 97 -47 97 -4 0 -8 -2 -8 -5z"/>
<path d="M3960 815 l0 -125 73 2 72 2 -62 3 -63 4 0 54 0 54 58 4 57 3 -57 2
-58 2 0 55 0 54 63 4 62 3 -72 2 -73 2 0 -125z"/>
<path d="M4190 815 l0 -125 73 2 72 2 -62 3 -63 4 0 119 c0 73 -4 120 -10 120
-6 0 -10 -48 -10 -125z"/>
<path d="M300 500 c0 -7 695 -10 2065 -10 1370 0 2065 3 2065 10 0 7 -695 10
-2065 10 -1370 0 -2065 -3 -2065 -10z"/>
<path d="M408 264 c-5 -4 -8 -58 -8 -121 l0 -113 68 2 67 2 -57 3 -57 4 -3
115 c-2 64 -6 112 -10 108z"/>
<path d="M560 150 l0 -120 68 2 67 2 -57 3 -58 4 0 49 0 50 50 0 c28 0 50 5
50 10 0 6 -22 10 -50 10 l-50 0 0 45 0 45 50 0 c28 0 50 5 50 10 0 6 -27 10
-60 10 l-60 0 0 -120z"/>
<path d="M772 250 c-103 -63 -57 -220 64 -220 68 0 84 12 84 65 0 45 0 45 -35
45 -19 0 -35 -4 -35 -10 0 -5 11 -10 25 -10 22 0 25 -4 25 -34 0 -30 -4 -35
-30 -41 -68 -15 -126 22 -136 87 -7 41 15 92 48 109 26 14 90 14 117 -1 12 -6
21 -7 21 -1 0 12 -55 31 -89 31 -14 0 -41 -9 -59 -20z"/>
<path d="M1194 150 c0 -69 1 -97 3 -63 2 35 2 91 0 125 -2 35 -3 7 -3 -62z"/>
<path d="M1310 255 c-12 -14 -10 -14 15 -5 22 8 33 7 51 -5 43 -28 27 -80 -56
-187 l-22 -28 71 0 c41 0 71 4 71 10 0 6 -22 10 -50 10 -27 0 -50 3 -50 6 0 3
14 22 30 43 17 21 35 55 41 76 9 32 8 42 -9 64 -23 31 -72 40 -92 16z"/>
<path d="M1580 250 c-24 -24 -26 -63 -5 -80 14 -11 14 -15 1 -29 -31 -35 -20
-97 21 -107 66 -17 114 43 76 95 -17 22 -18 28 -7 39 22 20 17 69 -8 86 -30
21 -54 20 -78 -4z m70 -10 c11 -11 20 -25 20 -32 0 -17 -31 -48 -48 -48 -20 0
-52 29 -52 47 0 15 35 53 50 53 6 0 19 -9 30 -20z m-2 -106 c26 -18 28 -50 5
-76 -20 -22 -41 -23 -65 -1 -25 22 -23 59 4 77 12 9 25 16 28 16 3 0 16 -7 28
-16z"/>
<path d="M1750 250 c-24 -24 -26 -63 -5 -80 14 -11 14 -15 1 -29 -31 -35 -20
-97 19 -107 66 -17 112 34 81 89 -12 21 -13 34 -6 47 17 31 12 68 -12 84 -30
21 -54 20 -78 -4z m70 -10 c11 -11 20 -25 20 -32 0 -18 -31 -48 -51 -48 -17 0
-49 35 -49 52 0 11 38 48 50 48 6 0 19 -9 30 -20z m-2 -106 c26 -18 28 -50 5
-76 -20 -22 -41 -23 -65 -1 -25 22 -23 59 4 77 12 9 25 16 28 16 3 0 16 -7 28
-16z"/>
<path d="M1910 250 c-24 -24 -26 -58 -4 -89 13 -19 24 -22 55 -19 51 5 50 -10
-2 -67 -23 -25 -37 -45 -31 -45 19 0 81 79 91 115 5 21 7 50 4 67 -11 54 -75
76 -113 38z m90 -19 c18 -35 12 -61 -17 -72 -40 -15 -73 3 -73 39 0 15 5 33
12 40 19 19 66 15 78 -7z"/>
<path d="M2225 259 c-67 -181 -92 -255 -89 -258 2 -2 6 -2 7 0 10 12 97 263
92 267 -2 3 -7 -1 -10 -9z"/>
<path d="M2342 149 c1 -68 3 -98 5 -66 l4 57 35 0 c31 0 38 -6 69 -55 20 -30
40 -55 46 -55 5 0 -8 26 -30 58 -39 57 -39 58 -20 81 39 48 13 87 -64 97 l-47
7 2 -124z m96 89 c18 -18 14 -56 -7 -68 -11 -5 -33 -10 -50 -10 -30 0 -31 1
-31 45 l0 45 38 0 c21 0 43 -5 50 -12z"/>
<path d="M2972 149 l2 -124 3 103 c2 56 7 102 12 102 4 0 40 -40 80 -89 107
-133 101 -134 99 10 l-2 124 -5 -107 -6 -108 -69 85 c-39 47 -80 95 -93 107
l-23 21 2 -124z"/>
<path d="M3222 258 c-17 -17 -15 -43 6 -59 14 -11 15 -11 5 1 -18 20 -16 47 5
59 9 6 12 11 7 11 -6 0 -16 -5 -23 -12z"/>
<path d="M3281 253 c12 -20 12 -26 0 -45 -13 -21 -13 -22 2 -9 10 7 17 21 17
31 0 10 -7 24 -17 31 -15 13 -15 12 -2 -8z"/>
<path d="M3484 150 c0 -69 1 -97 3 -63 2 35 2 91 0 125 -2 35 -3 7 -3 -62z"/>
<path d="M3824 150 c0 -69 1 -97 3 -63 2 35 2 91 0 125 -2 35 -3 7 -3 -62z"/>
<path d="M3962 150 c-24 -67 -46 -128 -49 -138 -4 -11 -3 -14 4 -7 6 6 15 23
21 40 5 17 26 74 46 128 19 53 32 97 28 97 -4 0 -26 -54 -50 -120z"/>
<path d="M4047 252 c-20 -21 -22 -73 -5 -90 9 -9 8 -16 -5 -30 -36 -40 -8
-102 47 -102 57 0 85 58 52 106 -12 17 -12 22 0 39 19 26 17 52 -6 75 -25 25
-62 26 -83 2z m81 -39 c4 -37 -19 -58 -53 -49 -36 9 -45 54 -16 77 31 25 65
11 69 -28z m-8 -83 c25 -25 25 -41 1 -71 -16 -20 -23 -22 -47 -14 -35 13 -45
57 -18 86 22 24 39 24 64 -1z"/>
<path d="M4204 255 c-22 -17 -12 -20 17 -4 16 8 26 7 46 -6 39 -26 27 -80 -32
-156 l-46 -59 70 0 c81 0 97 17 21 22 l-50 3 35 50 c46 67 53 102 25 138 -24
30 -56 35 -86 12z"/>
<path d="M3628 194 l-57 -69 54 -3 54 -3 4 -47 3 -47 2 48 c2 41 5 47 25 48
21 0 21 1 2 8 -16 6 -21 20 -25 71 l-5 63 -57 -69z m48 -50 c-5 -13 -76 -21
-76 -8 0 3 17 26 38 52 l37 45 3 -37 c2 -21 1 -44 -2 -52z"/>
<path d="M2530 170 c-13 -13 -20 -33 -20 -60 0 -68 66 -105 116 -64 19 15 19
16 -1 9 -48 -17 -64 -16 -85 5 -36 36 -23 55 43 58 63 3 70 14 37 50 -26 27
-64 28 -90 2z m71 -9 c31 -25 22 -33 -37 -29 l-49 3 23 23 c27 27 33 27 63 3z"/>
<path d="M2682 178 c-24 -24 -14 -57 23 -75 26 -13 35 -23 33 -38 -2 -16 -10
-20 -35 -19 -18 1 -30 -2 -27 -7 8 -14 60 -10 74 6 19 23 7 49 -32 68 -21 10
-38 25 -38 32 0 19 28 33 54 28 17 -4 18 -3 6 6 -20 14 -43 14 -58 -1z"/>
<path d="M970 45 c0 -8 5 -15 10 -15 6 0 10 7 10 15 0 8 -4 15 -10 15 -5 0
-10 -7 -10 -15z"/>
<path d="M1480 45 c0 -8 5 -15 10 -15 6 0 10 7 10 15 0 8 -4 15 -10 15 -5 0
-10 -7 -10 -15z"/>
<path d="M2800 45 c0 -8 5 -15 10 -15 6 0 10 7 10 15 0 8 -4 15 -10 15 -5 0
-10 -7 -10 -15z"/>
</g>
</svg>
