<?xml version="1.0" standalone="no"?>
<!DOCTYPE svg PUBLIC "-//W3C//DTD SVG 20010904//EN"
 "http://www.w3.org/TR/2001/REC-SVG-20010904/DTD/svg10.dtd">
<svg version="1.0" xmlns="http://www.w3.org/2000/svg"
 width="225.000000pt" height="225.000000pt" viewBox="0 0 225.000000 225.000000"
 preserveAspectRatio="xMidYMid meet">

<g transform="translate(0.000000,225.000000) scale(0.100000,-0.100000)"
fill="#000000" stroke="none">
<path d="M0 1125 l0 -1125 1125 0 1125 0 0 1125 0 1125 -1125 0 -1125 0 0
-1125z m619 289 c3 -2 -8 -17 -23 -33 -34 -36 -27 -51 24 -51 36 0 39 -2 53
-45 l16 -45 -37 -30 c-36 -30 -36 -30 -10 -30 31 0 38 -15 38 -78 0 -71 -8
-90 -41 -97 -34 -8 -48 -43 -31 -80 15 -32 -1 -42 -34 -21 -20 14 -22 20 -14
36 16 31 13 62 -7 58 -24 -4 -30 -70 -9 -88 19 -15 21 -40 3 -40 -31 0 -48 26
-54 82 -4 42 -9 55 -19 51 -8 -3 -21 0 -28 7 -17 13 -31 108 -22 145 5 21 12
25 43 25 l37 0 -43 44 c-24 24 -41 49 -37 54 3 6 26 18 51 28 54 20 59 46 15
64 -20 8 -30 19 -30 34 0 20 4 21 78 18 42 -2 79 -6 81 -8z m1091 -144 c0 -28
-3 -30 -35 -30 -32 0 -35 2 -35 30 0 28 3 30 35 30 32 0 35 -2 35 -30z m100
-130 l0 -160 -30 0 -30 0 0 160 0 160 30 0 30 0 0 -160z m-800 115 c0 -22 -4
-25 -35 -25 l-35 0 0 -125 0 -125 -35 0 -35 0 0 125 0 125 -35 0 c-31 0 -35 3
-35 25 l0 25 105 0 105 0 0 -25z m550 -15 c0 -27 3 -30 30 -30 25 0 30 -4 30
-25 0 -21 -5 -25 -30 -25 l-31 0 3 -62 c3 -60 4 -63 31 -66 21 -3 27 -9 27
-28 0 -22 -4 -24 -44 -24 -63 0 -86 31 -86 116 0 36 -4 64 -10 64 -5 0 -10 11
-10 25 0 14 5 25 10 25 6 0 10 14 10 30 0 28 3 30 35 30 32 0 35 -2 35 -30z
m-374 -52 c19 -20 23 -35 26 -116 l3 -92 -27 0 c-15 0 -29 4 -32 9 -4 5 -23 3
-46 -6 -50 -20 -93 -5 -110 38 -22 53 27 99 105 99 40 0 51 13 29 34 -21 21
-41 20 -61 -4 -18 -21 -73 -28 -73 -9 0 69 132 103 186 47z m213 17 c16 -8 34
-28 39 -45 11 -29 10 -30 -22 -30 -21 0 -36 6 -40 15 -6 16 -51 21 -60 6 -8
-13 14 -28 54 -36 97 -20 109 -117 17 -139 -40 -10 -103 10 -126 41 -29 36
-26 43 13 43 21 0 36 -6 40 -16 4 -10 16 -14 38 -12 51 5 44 25 -16 42 -66 19
-86 38 -86 77 0 55 87 87 149 54z m311 -110 l0 -115 -35 0 -35 0 0 115 0 115
35 0 35 0 0 -115z m-150 -203 c1 -13 5 -10 16 8 l15 25 -7 -25 c-10 -40 -21
-44 -32 -10 -7 18 -7 28 -2 25 6 -4 10 -14 10 -23z m47 -9 c-3 -10 -5 -4 -5
12 0 17 2 24 5 18 2 -7 2 -21 0 -30z m60 2 c1 -17 -1 -22 -3 -12 -3 9 -12 17
-20 17 -16 0 -19 -16 -4 -23 6 -3 5 -4 -2 -3 -13 3 -19 32 -10 49 10 20 37 0
39 -28z m16 -36 c-5 -5 -6 11 -3 34 4 41 5 41 8 8 2 -18 0 -37 -5 -42z m75 54
c2 -8 -5 -13 -17 -13 -12 0 -21 -5 -21 -11 0 -6 9 -8 23 -4 19 5 20 4 4 -5 -9
-6 -22 -8 -27 -5 -11 7 -13 38 -3 49 10 10 36 3 41 -11z m52 7 c0 -5 -7 -6
-17 -3 -11 4 -14 3 -9 -5 4 -7 2 -12 -3 -12 -6 0 -11 7 -11 15 0 8 9 15 20 15
11 0 20 -4 20 -10z m0 -35 c0 -17 -25 -20 -35 -5 -3 6 1 7 9 4 9 -3 16 -1 16
5 0 6 2 11 5 11 3 0 5 -7 5 -15z m-1260 -33 c0 -4 -9 -8 -20 -9 -11 -1 -20 2
-20 8 0 5 9 9 20 9 11 0 20 -4 20 -8z m50 -8 c0 -2 -9 -4 -20 -4 -11 0 -20 4
-20 9 0 5 9 7 20 4 11 -3 20 -7 20 -9z m64 8 c3 -5 -8 -9 -24 -10 -17 0 -30 4
-30 9 0 11 47 12 54 1z m-171 -9 c-7 -2 -19 -2 -25 0 -7 3 -2 5 12 5 14 0 19
-2 13 -5z"/>
<path d="M498 1276 c-24 -18 -22 -31 7 -50 l25 -16 0 40 c0 43 -5 47 -32 26z"/>
<path d="M580 1250 c0 -38 2 -41 23 -35 12 4 29 13 37 21 20 19 2 48 -34 52
-24 3 -26 1 -26 -38z"/>
<path d="M601 1134 c0 -11 3 -14 6 -6 3 7 2 16 -1 19 -3 4 -6 -2 -5 -13z"/>
<path d="M445 1071 c-3 -5 -1 -12 5 -16 5 -3 10 1 10 9 0 18 -6 21 -15 7z"/>
<path d="M1072 1068 c-18 -18 -15 -36 8 -43 25 -8 56 9 63 35 4 17 0 20 -27
20 -18 0 -37 -5 -44 -12z"/>
<path d="M1638 903 c7 -3 16 -2 19 1 4 3 -2 6 -13 5 -11 0 -14 -3 -6 -6z"/>
<path d="M1728 903 c7 -3 16 -2 19 1 4 3 -2 6 -13 5 -11 0 -14 -3 -6 -6z"/>
</g>
</svg>
