<?xml version="1.0" encoding="UTF-8"?>
<svg version="1.1" xmlns="http://www.w3.org/2000/svg" width="274" height="173">
<path d="M0 0 C90.42 0 180.84 0 274 0 C274 57.09 274 114.18 274 173 C183.58 173 93.16 173 0 173 C0 115.91 0 58.82 0 0 Z " fill="#FCFCFC" transform="translate(0,0)"/>
<path d="M0 0 C1.03833984 0.10828125 1.03833984 0.10828125 2.09765625 0.21875 C10.43157759 1.00931961 18.63740393 1.1028188 27 1 C25.81219848 4.45385006 24.88959293 6.4726735 21.875 8.5625 C20.92625 9.366875 19.9775 10.17125 19 11 C19 12.32 19 13.64 19 15 C25.93 15.495 25.93 15.495 33 16 C35.83734494 21.8577444 37.52822724 26.51312452 38 33 C36.3790787 34.17232685 34.75313167 35.3377077 33.125 36.5 C31.76761719 37.47453125 31.76761719 37.47453125 30.3828125 38.46875 C28 40 28 40 26 40 C26 40.66 26 41.32 26 42 C28.97 42 31.94 42 35 42 C35.33 42.99 35.66 43.98 36 45 C36.66 45 37.32 45 38 45 C37.91852902 48.20932655 37.80574254 51.41683439 37.6875 54.625 C37.66494141 55.52863281 37.64238281 56.43226562 37.61914062 57.36328125 C37.41126991 62.54115172 37.09238768 66.63752452 34 71 C31.73828125 72.2421875 31.73828125 72.2421875 29.3125 72.875 C28.50425781 73.09929687 27.69601563 73.32359375 26.86328125 73.5546875 C26.24839844 73.70164062 25.63351563 73.84859375 25 74 C24.7763663 75.41433206 24.57173524 76.83167618 24.375 78.25 C24.25898437 79.03890625 24.14296875 79.8278125 24.0234375 80.640625 C23.99651208 83.35111684 24.72779017 84.64981084 26 87 C26 87.99 26 88.98 26 90 C19.375 89.25 19.375 89.25 16 87 C16.875 82.25 16.875 82.25 18 80 C18.04022391 77.6670134 18.04320247 75.33293334 18 73 C16.02 72.67 14.04 72.34 12 72 C12.06018061 74.41926039 12.14722217 76.83248672 12.25 79.25 C12.26417969 79.93191406 12.27835938 80.61382812 12.29296875 81.31640625 C12.46334956 84.82625084 12.67300066 86.63306181 15.046875 89.296875 C15.69140625 89.85890625 16.3359375 90.4209375 17 91 C17 91.99 17 92.98 17 94 C9.25 93.25 9.25 93.25 7 91 C5.95658847 86.52448639 5.89428442 82.2058515 5.9375 77.625 C5.94652344 76.37976563 5.95554687 75.13453125 5.96484375 73.8515625 C5.97644531 72.91054687 5.98804688 71.96953125 6 71 C3.36 71.33 0.72 71.66 -2 72 C-7.20833673 65.13446522 -8.01407644 54.3661306 -7 46 C-6.3359375 43.76171875 -6.3359375 43.76171875 -5 42 C-2.3984375 41.390625 -2.3984375 41.390625 0.625 41.25 C1.62789062 41.19328125 2.63078125 41.1365625 3.6640625 41.078125 C4.82035156 41.03945312 4.82035156 41.03945312 6 41 C4.58474822 39.41540185 3.1677358 37.83237609 1.75 36.25 C0.96109375 35.36828125 0.1721875 34.4865625 -0.640625 33.578125 C-2.70592672 31.32133835 -4.81735064 29.14260074 -7 27 C-6.4375 25.171875 -6.4375 25.171875 -5 23 C-2.62995624 21.89630315 -0.46855012 21.03815154 2 20.25 C2.64195313 20.02957031 3.28390625 19.80914062 3.9453125 19.58203125 C8.64227484 18 8.64227484 18 11 18 C11.13478935 15.12133744 11.13478935 15.12133744 10 12 C8.04312718 10.65814435 6.10028137 9.76563367 3.91015625 8.859375 C2 8 2 8 0 6 C-0.125 2.875 -0.125 2.875 0 0 Z " fill="#224D58" transform="translate(24,36)"/>
<path d="M0 0 C5.42670908 1.99197932 8.40210045 4.85546941 11 10 C11.43237305 13.3215332 11.43237305 13.3215332 11.51171875 17.05078125 C11.52966995 17.70958786 11.54762115 18.36839447 11.56611633 19.04716492 C11.61996656 21.13554631 11.65403108 23.2237026 11.6875 25.3125 C11.7206957 26.7350572 11.75518744 28.15758479 11.79101562 29.58007812 C11.87567601 33.05316915 11.9426077 36.52633913 12 40 C8.7 40 5.4 40 2 40 C1.34 38.68 0.68 37.36 0 36 C-0.9075 36.66 -1.815 37.32 -2.75 38 C-7.87299257 40.92742432 -13.27146268 40.80557556 -19 40 C-22.35214521 38.18984159 -23.49802121 36.90834258 -25.3125 33.625 C-26.14209215 30.45746635 -26.46616204 28.26313429 -26 25 C-22.9092933 20.22345328 -19.65735412 17.31840948 -14 16 C-9.67180785 15.48365427 -5.35390051 15.18986935 -1 15 C-1 13.35 -1 11.7 -1 10 C-4.18041694 8.40979153 -7.55657415 8.32425463 -11 9 C-11.45375 9.825 -11.9075 10.65 -12.375 11.5 C-12.91125 12.325 -13.4475 13.15 -14 14 C-17.36506648 14.46660791 -20.62277064 14.28513194 -24 14 C-24.3125 11.3125 -24.3125 11.3125 -24 8 C-17.28203942 -0.25349442 -10.19804825 -1.23159274 0 0 Z " fill="#204C56" transform="translate(141,72)"/>
<path d="M0 0 C3.64319213 1.71682895 6.77765221 3.49088985 8.54296875 7.2421875 C8.73046875 10.4921875 8.73046875 10.4921875 8.54296875 13.2421875 C5.57296875 13.2421875 2.60296875 13.2421875 -0.45703125 13.2421875 C-0.78703125 11.9221875 -1.11703125 10.6021875 -1.45703125 9.2421875 C-5.08703125 9.2421875 -8.71703125 9.2421875 -12.45703125 9.2421875 C-12.45703125 10.5621875 -12.45703125 11.8821875 -12.45703125 13.2421875 C-9.51189003 14.53068678 -6.64361407 15.4661254 -3.51953125 16.1796875 C1.00471095 17.28087098 4.85478996 18.77909921 8.41796875 21.8671875 C10.19154334 25.61140053 10.34484422 29.18946553 9.54296875 33.2421875 C7.10546875 36.2421875 7.10546875 36.2421875 4.54296875 38.2421875 C4.21296875 38.5721875 3.88296875 38.9021875 3.54296875 39.2421875 C0.65313826 39.42391911 -2.18987604 39.52052819 -5.08203125 39.5546875 C-5.87738281 39.58369141 -6.67273438 39.61269531 -7.4921875 39.64257812 C-13.33597995 39.70495029 -16.66163994 38.61192193 -21.45703125 35.2421875 C-24.45380008 31.47205898 -24.45703125 30.29527268 -24.45703125 25.2421875 C-21.15703125 25.2421875 -17.85703125 25.2421875 -14.45703125 25.2421875 C-13.79703125 26.5621875 -13.13703125 27.8821875 -12.45703125 29.2421875 C-9.93227663 30.50456481 -8.14502659 30.34075154 -5.33203125 30.3046875 C-4.42195313 30.29566406 -3.511875 30.28664063 -2.57421875 30.27734375 C-1.87554687 30.26574219 -1.176875 30.25414063 -0.45703125 30.2421875 C-0.68844199 28.27745364 -0.68844199 28.27745364 -1.45703125 26.2421875 C-4.87831206 24.71483 -8.21936476 23.59727258 -11.8125 22.56640625 C-16.82859177 21.06241894 -20.40630638 19.76906957 -23.45703125 15.2421875 C-24.15085077 12.08846243 -24.17744405 9.39256413 -23.45703125 6.2421875 C-17.60462072 -1.39845958 -9.04875644 -2.79087242 0 0 Z " fill="#1D4954" transform="translate(182.45703125,72.7578125)"/>
<path d="M0 0 C10.89 0 21.78 0 33 0 C33 2.97 33 5.94 33 9 C29.37 9 25.74 9 22 9 C22 22.86 22 36.72 22 51 C18.37 51 14.74 51 11 51 C11 37.14 11 23.28 11 9 C7.37 9 3.74 9 0 9 C0 6.03 0 3.06 0 0 Z " fill="#254F5A" transform="translate(83,61)"/>
<path d="M0 0 C3.63 0 7.26 0 11 0 C11 3.3 11 6.6 11 10 C14.3 10 17.6 10 21 10 C21 12.97 21 15.94 21 19 C17.7 19 14.4 19 11 19 C11.33 25.93 11.66 32.86 12 40 C14.97 40 17.94 40 21 40 C21 42.97 21 45.94 21 49 C8.11287104 49.86041662 8.11287104 49.86041662 4.3125 46.8125 C-0.45079522 41.01930311 -0.257461 35.89643516 -0.125 28.6875 C-0.11597656 27.75615234 -0.10695312 26.82480469 -0.09765625 25.86523438 C-0.07418263 23.5765564 -0.04134729 21.28841328 0 19 C-1.32 19 -2.64 19 -4 19 C-4 15.7 -4 12.4 -4 9 C-2.68 9 -1.36 9 0 9 C0 6.03 0 3.06 0 0 Z " fill="#234E58" transform="translate(200,63)"/>
<path d="M0 0 C3.3 0 6.6 0 10 0 C10 17.49 10 34.98 10 53 C6.7 53 3.4 53 0 53 C0 35.51 0 18.02 0 0 Z " fill="#184550" transform="translate(244,58)"/>
<path d="M0 0 C3.63 0 7.26 0 11 0 C11 12.87 11 25.74 11 39 C7.37 39 3.74 39 0 39 C0 26.13 0 13.26 0 0 Z " fill="#27515C" transform="translate(226,73)"/>
<path d="M0 0 C8.38317757 -0.48598131 8.38317757 -0.48598131 11.0625 1.625 C12.27010751 4.68427236 12.48542894 6.74069138 12 10 C9.46021326 12.63385291 6.4432388 13.85225373 3 15 C2.01 15 1.02 15 0 15 C0 10.05 0 5.1 0 0 Z " fill="#F8F9FA" transform="translate(44,58)"/>
<path d="M0 0 C-0.23564395 4.08449505 -0.40962119 6.34214932 -3.1875 9.4375 C-6.48652462 11.27029145 -8.28286141 11.56565153 -12 11 C-13.9375 9.8125 -13.9375 9.8125 -15 8 C-14.75546876 4.65807308 -14.39456443 3.39456443 -12 1 C-7.88373998 0.33608709 -4.17151171 0 0 0 Z " fill="#F6F7F8" transform="translate(141,94)"/>
<path d="M0 0 C3.96 0 7.92 0 12 0 C12 3.3 12 6.6 12 10 C8.04 10 4.08 10 0 10 C0 6.7 0 3.4 0 0 Z " fill="#395F69" transform="translate(225,58)"/>
<path d="M0 0 C1.97265625 0.265625 1.97265625 0.265625 4.97265625 2.265625 C5.22265625 4.828125 5.22265625 4.828125 4.97265625 7.265625 C3.03174799 9.20653326 -0.50028277 8.66481935 -3.08984375 8.828125 C-5.02537109 8.95380859 -5.02537109 8.95380859 -7 9.08203125 C-7.99902344 9.14261719 -8.99804688 9.20320313 -10.02734375 9.265625 C-10.02734375 8.605625 -10.02734375 7.945625 -10.02734375 7.265625 C-13.32734375 7.265625 -16.62734375 7.265625 -20.02734375 7.265625 C-20.02734375 5.615625 -20.02734375 3.965625 -20.02734375 2.265625 C-19.69734375 3.585625 -19.36734375 4.905625 -19.02734375 6.265625 C-15.72734375 6.265625 -12.42734375 6.265625 -9.02734375 6.265625 C-8.69734375 4.945625 -8.36734375 3.625625 -8.02734375 2.265625 C-5.42029477 -0.34142398 -3.55396134 0.02657167 0 0 Z " fill="#F1F4F4" transform="translate(136.02734375,79.734375)"/>
<path d="M0 0 C3.63 0 7.26 0 11 0 C11 0.99 11 1.98 11 3 C11.33 3.66 11.66 4.32 12 5 C11.83219837 7.69565202 11.38844355 10.32405554 11 13 C10.34 13 9.68 13 9 13 C8.67 11.35 8.34 9.7 8 8 C7.01 8.33 6.02 8.66 5 9 C5 9.99 5 10.98 5 12 C4.01 11.67 3.02 11.34 2 11 C0.875 7.5625 0.875 7.5625 0 4 C-0.33 3.34 -0.66 2.68 -1 2 C-0.67 1.34 -0.34 0.68 0 0 Z " fill="#5E7D85" transform="translate(19,78)"/>
<path d="M0 0 C1.18306728 2.36613456 1.13354608 3.86780736 1.125 6.5 C1.12757812 7.2940625 1.13015625 8.088125 1.1328125 8.90625 C1 11 1 11 0 13 C-3.24222849 12.13540574 -5.50112677 11.48278055 -7.9375 9.125 C-9 7 -9 7 -9 4.9375 C-7.07855385 1.21469808 -4.04257087 0 0 0 Z " fill="#EEF1F1" transform="translate(36,59)"/>
<path d="M0 0 C0.33 0.99 0.66 1.98 1 3 C1.66 3 2.32 3 3 3 C2.67 4.32 2.34 5.64 2 7 C1.67 6.34 1.34 5.68 1 5 C0.01 6.98 -0.98 8.96 -2 11 C-2.33 11 -2.66 11 -3 11 C-3 8.69 -3 6.38 -3 4 C-3.66 4 -4.32 4 -5 4 C-5 5.98 -5 7.96 -5 10 C-5.66 10 -6.32 10 -7 10 C-7.33 8.35 -7.66 6.7 -8 5 C-8.99 7.31 -9.98 9.62 -11 12 C-11.33 12 -11.66 12 -12 12 C-12.4206933 7.70892835 -12.45543836 5.64865463 -9.9375 2.0625 C-6.35134537 -0.45543836 -4.29107165 -0.4206933 0 0 Z " fill="#617F87" transform="translate(59,78)"/>
<path d="M0 0 C0.99 0 1.98 0 3 0 C2.67 2.64 2.34 5.28 2 8 C3.98 8 5.96 8 8 8 C8.33 6.68 8.66 5.36 9 4 C9.33 4 9.66 4 10 4 C10.25 6.8125 10.25 6.8125 10 10 C7.902721 12.33031 6.50170056 12.90210721 3.4375 13.5 C1 13 1 13 -0.875 10.8125 C-2.55439296 6.61401761 -1.38232505 4.14697514 0 0 Z " fill="#67858C" transform="translate(21,95)"/>
<path d="M0 0 C4.875 0.875 4.875 0.875 6 2 C6.04092937 4.33297433 6.04241723 6.66705225 6 9 C3.125 9.625 3.125 9.625 0 10 C-0.66 9.34 -1.32 8.68 -2 8 C-1.625 5.875 -1.625 5.875 -1 4 C0.65 4 2.3 4 4 4 C3.67 3.34 3.34 2.68 3 2 C1.35 2.33 -0.3 2.66 -2 3 C-1.34 2.01 -0.68 1.02 0 0 Z " fill="#9AADB2" transform="translate(224,122)"/>
<path d="M0 0 C2.625 0.375 2.625 0.375 5 1 C5.33 2.32 5.66 3.64 6 5 C3.69 5 1.38 5 -1 5 C-0.67 5.66 -0.34 6.32 0 7 C1.98 6.67 3.96 6.34 6 6 C5.67 6.99 5.34 7.98 5 9 C2.6875 9.6875 2.6875 9.6875 0 10 C-1.875 8.875 -1.875 8.875 -3 7 C-2.75546876 3.65807308 -2.39456443 2.39456443 0 0 Z " fill="#96AAAF" transform="translate(239,122)"/>
<path d="M0 0 C0.99 0.33 1.98 0.66 3 1 C3 2.98 3 4.96 3 7 C2.01 7.495 2.01 7.495 1 8 C-1 5 -1 5 -0.625 2.3125 C-0.41875 1.549375 -0.2125 0.78625 0 0 Z M-4 1 C-3.34 1 -2.68 1 -2 1 C-1.67 2.65 -1.34 4.3 -1 6 C-1.99 6 -2.98 6 -4 6 C-4 4.35 -4 2.7 -4 1 Z " fill="#789299" transform="translate(54,95)"/>
<path d="M0 0 C0.33 0 0.66 0 1 0 C1 1.98 1 3.96 1 6 C-0.6875 7.125 -0.6875 7.125 -3 8 C-5.75 7.125 -5.75 7.125 -8 6 C-7.67 5.34 -7.34 4.68 -7 4 C-5.02 4 -3.04 4 -1 4 C-0.67 2.68 -0.34 1.36 0 0 Z " fill="#53747C" transform="translate(30,99)"/>
<path d="M0 0 C0.66 1.32 1.32 2.64 2 4 C-1.3 4 -4.6 4 -8 4 C-8 3.34 -8 2.68 -8 2 C-5.36 2 -2.72 2 0 2 C0 1.34 0 0.68 0 0 Z " fill="#426770" transform="translate(151,108)"/>
<path d="M0 0 C2.31 0 4.62 0 7 0 C7 0.99 7 1.98 7 3 C4.69 3 2.38 3 0 3 C0 2.01 0 1.02 0 0 Z " fill="#AAB9BD" transform="translate(32,134)"/>
<path d="M0 0 C0.66 0 1.32 0 2 0 C4 2 4 2 4.125 4.625 C4.08375 5.40875 4.0425 6.1925 4 7 C3.34 7 2.68 7 2 7 C1.67 6.34 1.34 5.68 1 5 C0.01 5.495 0.01 5.495 -1 6 C-0.67 4.02 -0.34 2.04 0 0 Z " fill="#8BA1A7" transform="translate(33,82)"/>
<path d="M0 0 C1.65 0 3.3 0 5 0 C5.33 0.99 5.66 1.98 6 3 C4.02 3 2.04 3 0 3 C0 2.01 0 1.02 0 0 Z " fill="#93A7AC" transform="translate(49,134)"/>
<path d="M0 0 C1.25541557 3.76624671 0.37061958 5.37188934 -1 9 C-1.33 9 -1.66 9 -2 9 C-2.125 5.625 -2.125 5.625 -2 2 C-1.34 1.34 -0.68 0.68 0 0 Z " fill="#D3DBDD" transform="translate(49,81)"/>
</svg>
